ply
format ascii 1.0
comment King Wen Hexagram #16 Hex_16 3D Point Cloud
element vertex 729
property float x
property float y
property float z
property uchar red
property uchar green
property uchar blue
end_header
1.0000 0.0000 0.5000 127 255 64
1.0103 0.0087 0.5000 128 254 64
1.0205 0.0176 0.4999 129 254 64
1.0306 0.0267 0.4998 130 254 64
1.0405 0.0359 0.4997 131 254 64
1.0502 0.0453 0.4995 132 254 64
1.0596 0.0548 0.4993 134 254 64
1.0689 0.0646 0.4991 135 254 64
1.0778 0.0744 0.4988 136 254 64
1.0865 0.0844 0.4985 137 254 64
1.0948 0.0946 0.4981 138 254 64
1.1028 0.1049 0.4978 139 254 64
1.1103 0.1152 0.4973 140 254 64
1.1175 0.1257 0.4969 141 254 64
1.1242 0.1363 0.4964 142 254 64
1.1305 0.1470 0.4958 143 253 64
1.1363 0.1577 0.4953 145 253 64
1.1417 0.1685 0.4946 146 253 64
1.1465 0.1793 0.4940 147 253 64
1.1508 0.1902 0.4933 148 253 64
1.1545 0.2010 0.4926 149 253 64
1.1577 0.2119 0.4918 150 252 64
1.1604 0.2227 0.4910 151 252 64
1.1624 0.2335 0.4902 152 252 64
1.1639 0.2442 0.4893 153 252 64
1.1648 0.2549 0.4884 154 252 64
1.1650 0.2655 0.4875 155 251 64
1.1647 0.2760 0.4865 156 251 64
1.1638 0.2864 0.4855 157 251 64
1.1622 0.2967 0.4845 159 251 64
1.1601 0.3068 0.4834 160 250 64
1.1573 0.3168 0.4823 161 250 64
1.1540 0.3266 0.4811 162 250 64
1.1500 0.3362 0.4799 163 249 64
1.1455 0.3456 0.4787 164 249 64
1.1404 0.3548 0.4774 165 249 64
1.1347 0.3638 0.4761 166 248 64
1.1285 0.3726 0.4748 167 248 64
1.1217 0.3811 0.4734 168 248 64
1.1144 0.3894 0.4720 169 247 64
1.1065 0.3974 0.4706 170 247 64
1.0982 0.4051 0.4691 171 247 64
1.0894 0.4125 0.4676 172 246 64
1.0802 0.4197 0.4661 173 246 64
1.0705 0.4266 0.4645 174 245 64
1.0604 0.4332 0.4629 175 245 64
1.0499 0.4395 0.4612 176 245 64
1.0390 0.4455 0.4595 177 244 64
1.0278 0.4513 0.4578 178 244 64
1.0163 0.4567 0.4561 179 243 64
1.0045 0.4618 0.4543 180 243 64
0.9924 0.4667 0.4525 181 242 64
0.9800 0.4712 0.4506 182 242 64
0.9675 0.4755 0.4487 183 241 64
0.9548 0.4795 0.4468 184 241 64
0.9419 0.4832 0.4449 185 240 64
0.9288 0.4867 0.4429 186 240 64
0.9157 0.4899 0.4409 187 239 64
0.9025 0.4929 0.4388 188 239 64
0.8893 0.4957 0.4367 189 238 64
0.8760 0.4982 0.4346 190 238 64
0.8627 0.5006 0.4325 191 237 64
0.8495 0.5027 0.4303 192 237 64
0.8363 0.5047 0.4281 193 236 64
0.8232 0.5065 0.4258 194 236 64
0.8102 0.5082 0.4236 195 235 64
0.7973 0.5098 0.4213 196 234 64
0.7846 0.5112 0.4189 197 234 64
0.7721 0.5126 0.4166 198 233 64
0.7598 0.5139 0.4142 198 233 64
0.7476 0.5151 0.4117 199 232 64
0.7358 0.5164 0.4093 200 231 64
0.7241 0.5176 0.4068 201 231 64
0.7128 0.5188 0.4043 202 230 64
0.7017 0.5201 0.4017 203 229 64
0.6910 0.5214 0.3991 204 229 64
0.6805 0.5228 0.3965 205 228 64
0.6704 0.5242 0.3939 206 227 64
0.6606 0.5258 0.3912 206 227 64
0.6512 0.5275 0.3885 207 226 64
0.6421 0.5294 0.3858 208 225 64
0.6334 0.5315 0.3830 209 225 64
0.6250 0.5337 0.3802 210 224 64
0.6170 0.5361 0.3774 211 223 64
0.6094 0.5388 0.3746 211 223 64
0.6021 0.5417 0.3717 212 222 64
0.5953 0.5449 0.3688 213 221 64
0.5888 0.5483 0.3659 214 220 64
0.5826 0.5520 0.3629 215 220 64
0.5768 0.5561 0.3600 215 219 64
0.5714 0.5604 0.3570 216 218 64
0.5663 0.5651 0.3539 217 217 64
0.5615 0.5701 0.3509 218 216 64
0.5571 0.5754 0.3478 219 216 64
0.5530 0.5811 0.3447 219 215 64
0.5492 0.5872 0.3416 220 214 64
0.5457 0.5936 0.3384 221 213 64
0.5425 0.6004 0.3352 222 212 64
0.5395 0.6075 0.3320 222 212 64
0.5368 0.6151 0.3288 223 211 64
0.5343 0.6230 0.3255 224 210 64
0.5320 0.6312 0.3222 224 209 64
0.5299 0.6399 0.3189 225 208 64
0.5280 0.6489 0.3156 226 207 64
0.5262 0.6582 0.3122 227 207 64
0.5246 0.6679 0.3088 227 206 64
0.5231 0.6780 0.3054 228 205 64
0.5217 0.6883 0.3020 229 204 64
0.5204 0.6990 0.2986 229 203 64
0.5191 0.7100 0.2951 230 202 64
0.5179 0.7213 0.2916 231 201 64
0.5167 0.7328 0.2881 231 200 64
0.5155 0.7447 0.2846 232 200 64
0.5142 0.7567 0.2810 232 199 64
0.5129 0.7690 0.2774 233 198 64
0.5116 0.7815 0.2739 234 197 64
0.5101 0.7941 0.2702 234 196 64
0.5086 0.8070 0.2666 235 195 64
0.5070 0.8199 0.2629 235 194 64
0.5052 0.8330 0.2593 236 193 64
0.5032 0.8462 0.2556 237 192 64
0.5011 0.8594 0.2519 237 191 64
0.4988 0.8727 0.2481 238 190 64
0.4963 0.8859 0.2444 238 189 64
0.4936 0.8992 0.2406 239 188 64
0.4907 0.9124 0.2368 239 187 64
0.4875 0.9256 0.2330 240 186 64
0.4841 0.9386 0.2292 240 185 64
0.4805 0.9516 0.2254 241 184 64
0.4765 0.9643 0.2215 241 183 64
0.4723 0.9769 0.2176 242 182 64
0.4678 0.9893 0.2137 242 182 64
0.4631 1.0015 0.2098 243 181 64
0.4580 1.0134 0.2059 243 180 64
0.4526 1.0250 0.2020 244 179 64
0.4470 1.0363 0.1980 244 178 64
0.4411 1.0472 0.1941 245 176 64
0.4348 1.0578 0.1901 245 175 64
0.4283 1.0680 0.1861 245 174 64
0.4215 1.0778 0.1821 246 173 64
0.4144 1.0872 0.1781 246 172 64
0.4070 1.0961 0.1740 247 171 64
0.3993 1.1045 0.1700 247 170 64
0.3914 1.1125 0.1659 247 169 64
0.3832 1.1199 0.1619 248 168 64
0.3747 1.1268 0.1578 248 167 64
0.3660 1.1332 0.1537 248 166 64
0.3571 1.1390 0.1496 249 165 64
0.3480 1.1443 0.1455 249 164 64
0.3386 1.1489 0.1413 249 163 64
0.3290 1.1530 0.1372 250 162 64
0.3193 1.1565 0.1330 250 161 64
0.3093 1.1594 0.1289 250 160 64
0.2992 1.1617 0.1247 250 159 64
0.2890 1.1634 0.1205 251 158 64
0.2786 1.1645 0.1164 251 157 64
0.2682 1.1650 0.1122 251 156 64
0.2576 1.1649 0.1080 251 155 64
0.2469 1.1642 0.1037 252 153 64
0.2362 1.1628 0.0995 252 152 64
0.2254 1.1609 0.0953 252 151 64
0.2146 1.1584 0.0911 252 150 64
0.2037 1.1554 0.0868 253 149 64
0.1929 1.1518 0.0826 253 148 64
0.1820 1.1476 0.0783 253 147 64
0.1712 1.1429 0.0741 253 146 64
0.1604 1.1377 0.0698 253 145 64
0.1497 1.1320 0.0655 253 144 64
0.1390 1.1259 0.0613 254 143 64
0.1284 1.1192 0.0570 254 142 64
0.1179 1.1122 0.0527 254 140 64
0.1075 1.1047 0.0484 254 139 64
0.0972 1.0968 0.0441 254 138 64
0.0870 1.0886 0.0398 254 137 64
0.0769 1.0800 0.0355 254 136 64
0.0670 1.0711 0.0312 254 135 64
0.0573 1.0620 0.0269 254 134 64
0.0477 1.0526 0.0226 254 133 64
0.0382 1.0429 0.0183 254 132 64
0.0289 1.0331 0.0140 254 131 64
0.0198 1.0230 0.0097 254 129 64
0.0109 1.0129 0.0054 254 128 64
0.0022 1.0026 0.0011 254 127 64
-0.0064 0.9922 -0.0032 254 126 64
-0.0148 0.9818 -0.0075 254 125 64
-0.0230 0.9714 -0.0118 254 124 64
-0.0311 0.9610 -0.0162 254 123 64
-0.0389 0.9506 -0.0205 254 122 64
-0.0466 0.9402 -0.0248 254 121 64
-0.0542 0.9300 -0.0291 254 120 64
-0.0615 0.9199 -0.0334 254 118 64
-0.0688 0.9100 -0.0377 254 117 64
-0.0758 0.9002 -0.0420 254 116 64
-0.0828 0.8906 -0.0463 254 115 64
-0.0896 0.8813 -0.0505 254 114 64
-0.0962 0.8722 -0.0548 254 113 64
-0.1028 0.8634 -0.0591 254 112 64
-0.1093 0.8549 -0.0634 253 111 64
-0.1156 0.8467 -0.0677 253 110 64
-0.1219 0.8388 -0.0719 253 109 64
-0.1282 0.8313 -0.0762 253 108 64
-0.1344 0.8242 -0.0805 253 106 64
-0.1405 0.8175 -0.0847 253 105 64
-0.1466 0.8111 -0.0889 252 104 64
-0.1527 0.8052 -0.0932 252 103 64
-0.1589 0.7997 -0.0974 252 102 64
-0.1650 0.7947 -0.1016 252 101 64
-0.1711 0.7901 -0.1059 252 100 64
-0.1773 0.7859 -0.1101 251 99 64
-0.1836 0.7822 -0.1143 251 98 64
-0.1900 0.7790 -0.1185 251 97 64
-0.1964 0.7762 -0.1226 251 96 64
-0.2029 0.7739 -0.1268 250 95 64
-0.2096 0.7721 -0.1310 250 94 64
-0.2163 0.7707 -0.1351 250 93 64
-0.2232 0.7698 -0.1393 249 91 64
-0.2303 0.7693 -0.1434 249 90 64
-0.2375 0.7693 -0.1475 249 89 64
-0.2449 0.7696 -0.1516 248 88 64
-0.2525 0.7704 -0.1557 248 87 64
-0.2603 0.7716 -0.1598 248 86 64
-0.2683 0.7732 -0.1639 247 85 64
-0.2765 0.7752 -0.1680 247 84 64
-0.2849 0.7775 -0.1720 247 83 64
-0.2935 0.7802 -0.1761 246 82 64
-0.3024 0.7832 -0.1801 246 81 64
-0.3115 0.7865 -0.1841 246 80 64
-0.3208 0.7901 -0.1881 245 79 64
-0.3304 0.7940 -0.1921 245 78 64
-0.3402 0.7980 -0.1961 244 77 64
-0.3502 0.8023 -0.2000 244 76 64
-0.3605 0.8068 -0.2040 243 75 64
-0.3710 0.8115 -0.2079 243 74 64
-0.3817 0.8163 -0.2118 242 73 64
-0.3927 0.8212 -0.2157 242 72 64
-0.4038 0.8262 -0.2196 242 71 64
-0.4152 0.8312 -0.2234 241 70 64
-0.4268 0.8363 -0.2273 241 69 64
-0.4386 0.8414 -0.2311 240 68 64
-0.4506 0.8465 -0.2349 240 67 64
-0.4627 0.8515 -0.2387 239 66 64
-0.4750 0.8565 -0.2425 239 65 64
-0.4874 0.8613 -0.2463 238 64 64
-0.5000 0.8660 -0.2500 237 63 64
-0.5127 0.8706 -0.2537 237 62 64
-0.5255 0.8750 -0.2574 236 61 64
-0.5384 0.8792 -0.2611 236 60 64
-0.5513 0.8831 -0.2648 235 59 64
-0.5643 0.8868 -0.2684 235 59 64
-0.5773 0.8903 -0.2720 234 58 64
-0.5904 0.8934 -0.2757 233 57 64
-0.6034 0.8962 -0.2792 233 56 64
-0.6164 0.8987 -0.2828 232 55 64
-0.6293 0.9008 -0.2863 232 54 64
-0.6422 0.9026 -0.2899 231 53 64
-0.6550 0.9040 -0.2934 230 52 64
-0.6676 0.9049 -0.2968 230 51 64
-0.6802 0.9055 -0.3003 229 50 64
-0.6926 0.9056 -0.3037 228 50 64
-0.7048 0.9053 -0.3072 228 49 64
-0.7167 0.9045 -0.3105 227 48 64
-0.7285 0.9032 -0.3139 226 47 64
-0.7401 0.9015 -0.3172 226 46 64
-0.7513 0.8993 -0.3206 225 45 64
-0.7623 0.8967 -0.3239 224 44 64
-0.7730 0.8935 -0.3271 223 44 64
-0.7834 0.8899 -0.3304 223 43 64
-0.7935 0.8858 -0.3336 222 42 64
-0.8032 0.8812 -0.3368 221 41 64
-0.8125 0.8762 -0.3400 220 40 64
-0.8214 0.8706 -0.3431 220 40 64
-0.8299 0.8646 -0.3462 219 39 64
-0.8381 0.8582 -0.3493 218 38 64
-0.8458 0.8512 -0.3524 217 37 64
-0.8530 0.8439 -0.3555 217 36 64
-0.8598 0.8361 -0.3585 216 36 64
-0.8662 0.8278 -0.3615 215 35 64
-0.8721 0.8192 -0.3644 214 34 64
-0.8775 0.8102 -0.3674 213 33 64
-0.8824 0.8008 -0.3703 213 33 64
-0.8869 0.7910 -0.3732 212 32 64
-0.8909 0.7809 -0.3760 211 31 64
-0.8944 0.7704 -0.3788 210 30 64
-0.8974 0.7596 -0.3816 209 30 64
-0.8999 0.7486 -0.3844 209 29 64
-0.9020 0.7372 -0.3871 208 28 64
-0.9036 0.7256 -0.3899 207 28 64
-0.9047 0.7138 -0.3925 206 27 64
-0.9054 0.7017 -0.3952 205 26 64
-0.9056 0.6895 -0.3978 204 26 64
-0.9054 0.6771 -0.4004 203 25 64
-0.9047 0.6645 -0.4030 202 24 64
-0.9036 0.6518 -0.4055 202 24 64
-0.9022 0.6390 -0.4080 201 23 64
-0.9003 0.6261 -0.4105 200 22 64
-0.8981 0.6131 -0.4129 199 22 64
-0.8955 0.6001 -0.4154 198 21 64
-0.8926 0.5871 -0.4177 197 20 64
-0.8894 0.5741 -0.4201 196 20 64
-0.8859 0.5610 -0.4224 195 19 64
-0.8822 0.5481 -0.4247 194 19 64
-0.8781 0.5351 -0.4270 193 18 64
-0.8739 0.5223 -0.4292 192 18 64
-0.8695 0.5095 -0.4314 191 17 64
-0.8649 0.4968 -0.4336 191 16 64
-0.8601 0.4843 -0.4357 190 16 64
-0.8552 0.4719 -0.4378 189 15 64
-0.8503 0.4596 -0.4398 188 15 64
-0.8452 0.4475 -0.4419 187 14 64
-0.8401 0.4356 -0.4439 186 14 64
-0.8350 0.4239 -0.4458 185 13 64
-0.8300 0.4124 -0.4478 184 13 64
-0.8249 0.4010 -0.4497 183 12 64
-0.8200 0.3899 -0.4515 182 12 64
-0.8151 0.3790 -0.4534 181 11 64
-0.8103 0.3683 -0.4552 180 11 64
-0.8057 0.3579 -0.4569 179 10 64
-0.8013 0.3477 -0.4587 178 10 64
-0.7970 0.3377 -0.4604 177 10 64
-0.7930 0.3280 -0.4620 176 9 64
-0.7892 0.3185 -0.4637 175 9 64
-0.7857 0.3092 -0.4653 174 8 64
-0.7824 0.3002 -0.4668 173 8 64
-0.7795 0.2914 -0.4684 172 8 64
-0.7769 0.2828 -0.4698 171 7 64
-0.7747 0.2744 -0.4713 170 7 64
-0.7728 0.2663 -0.4727 169 6 64
-0.7713 0.2584 -0.4741 167 6 64
-0.7702 0.2506 -0.4755 166 6 64
-0.7695 0.2431 -0.4768 165 5 64
-0.7692 0.2357 -0.4781 164 5 64
-0.7694 0.2285 -0.4793 163 5 64
-0.7700 0.2215 -0.4805 162 4 64
-0.7710 0.2146 -0.4817 161 4 64
-0.7725 0.2079 -0.4828 160 4 64
-0.7745 0.2013 -0.4839 159 4 64
-0.7769 0.1948 -0.4850 158 3 64
-0.7798 0.1884 -0.4860 157 3 64
-0.7831 0.1820 -0.4870 156 3 64
-0.7869 0.1758 -0.4880 155 3 64
-0.7912 0.1696 -0.4889 154 2 64
-0.7959 0.1634 -0.4898 153 2 64
-0.8011 0.1573 -0.4906 152 2 64
-0.8066 0.1512 -0.4914 150 2 64
-0.8127 0.1451 -0.4922 149 1 64
-0.8191 0.1390 -0.4930 148 1 64
-0.8259 0.1328 -0.4937 147 1 64
-0.8331 0.1266 -0.4943 146 1 64
-0.8407 0.1204 -0.4950 145 1 64
-0.8487 0.1141 -0.4955 144 1 64
-0.8570 0.1077 -0.4961 143 0 64
-0.8656 0.1012 -0.4966 142 0 64
-0.8744 0.0946 -0.4971 141 0 64
-0.8836 0.0879 -0.4975 140 0 64
-0.8930 0.0810 -0.4980 139 0 64
-0.9026 0.0741 -0.4983 137 0 64
-0.9124 0.0670 -0.4987 136 0 64
-0.9224 0.0597 -0.4990 135 0 64
-0.9326 0.0523 -0.4992 134 0 64
-0.9428 0.0447 -0.4994 133 0 64
-0.9532 0.0370 -0.4996 132 0 64
-0.9636 0.0291 -0.4998 131 0 64
-0.9740 0.0210 -0.4999 130 0 64
-0.9844 0.0127 -0.5000 129 0 64
-0.9948 0.0043 -0.5000 128 0 64
-1.0052 -0.0043 -0.5000 126 0 64
-1.0154 -0.0131 -0.5000 125 0 64
-1.0255 -0.0221 -0.4999 124 0 64
-1.0355 -0.0312 -0.4998 123 0 64
-1.0453 -0.0406 -0.4996 122 0 64
-1.0549 -0.0500 -0.4994 121 0 64
-1.0643 -0.0597 -0.4992 120 0 64
-1.0734 -0.0695 -0.4990 119 0 64
-1.0822 -0.0794 -0.4987 118 0 64
-1.0907 -0.0895 -0.4983 117 0 64
-1.0988 -0.0997 -0.4980 115 0 64
-1.1066 -0.1100 -0.4975 114 0 64
-1.1140 -0.1205 -0.4971 113 0 64
-1.1209 -0.1310 -0.4966 112 0 64
-1.1274 -0.1416 -0.4961 111 0 64
-1.1335 -0.1523 -0.4955 110 1 64
-1.1391 -0.1631 -0.4950 109 1 64
-1.1441 -0.1739 -0.4943 108 1 64
-1.1487 -0.1847 -0.4937 107 1 64
-1.1527 -0.1956 -0.4930 106 1 64
-1.1562 -0.2064 -0.4922 105 1 64
-1.1591 -0.2173 -0.4914 104 2 64
-1.1615 -0.2281 -0.4906 102 2 64
-1.1632 -0.2389 -0.4898 101 2 64
-1.1644 -0.2496 -0.4889 100 2 64
-1.1650 -0.2602 -0.4880 99 3 64
-1.1649 -0.2708 -0.4870 98 3 64
-1.1643 -0.2813 -0.4860 97 3 64
-1.1631 -0.2916 -0.4850 96 3 64
-1.1612 -0.3018 -0.4839 95 4 64
-1.1588 -0.3118 -0.4828 94 4 64
-1.1557 -0.3217 -0.4817 93 4 64
-1.1521 -0.3314 -0.4805 92 4 64
-1.1478 -0.3409 -0.4793 91 5 64
-1.1430 -0.3503 -0.4781 90 5 64
-1.1376 -0.3594 -0.4768 89 5 64
-1.1316 -0.3682 -0.4755 88 6 64
-1.1251 -0.3769 -0.4741 87 6 64
-1.1181 -0.3853 -0.4727 85 6 64
-1.1105 -0.3934 -0.4713 84 7 64
-1.1025 -0.4013 -0.4698 83 7 64
-1.0939 -0.4089 -0.4684 82 8 64
-1.0849 -0.4162 -0.4668 81 8 64
-1.0754 -0.4232 -0.4653 80 8 64
-1.0655 -0.4300 -0.4637 79 9 64
-1.0552 -0.4364 -0.4620 78 9 64
-1.0445 -0.4426 -0.4604 77 10 64
-1.0335 -0.4484 -0.4587 76 10 64
-1.0221 -0.4540 -0.4569 75 10 64
-1.0104 -0.4593 -0.4552 74 11 64
-0.9985 -0.4643 -0.4534 73 11 64
-0.9862 -0.4690 -0.4515 72 12 64
-0.9738 -0.4734 -0.4497 71 12 64
-0.9611 -0.4775 -0.4478 70 13 64
-0.9483 -0.4814 -0.4458 69 13 64
-0.9354 -0.4850 -0.4439 68 14 64
-0.9223 -0.4884 -0.4419 67 14 64
-0.9091 -0.4915 -0.4398 66 15 64
-0.8959 -0.4943 -0.4378 65 15 64
-0.8826 -0.4970 -0.4357 64 16 64
-0.8693 -0.4994 -0.4336 63 16 64
-0.8561 -0.5017 -0.4314 63 17 64
-0.8429 -0.5037 -0.4292 62 18 64
-0.8297 -0.5056 -0.4270 61 18 64
-0.8167 -0.5074 -0.4247 60 19 64
-0.8037 -0.5090 -0.4224 59 19 64
-0.7910 -0.5105 -0.4201 58 20 64
-0.7783 -0.5119 -0.4177 57 20 64
-0.7659 -0.5133 -0.4154 56 21 64
-0.7537 -0.5145 -0.4129 55 22 64
-0.7417 -0.5158 -0.4105 54 22 64
-0.7299 -0.5170 -0.4080 53 23 64
-0.7184 -0.5182 -0.4055 52 24 64
-0.7072 -0.5194 -0.4030 52 24 64
-0.6963 -0.5207 -0.4004 51 25 64
-0.6857 -0.5221 -0.3978 50 26 64
-0.6754 -0.5235 -0.3952 49 26 64
-0.6655 -0.5250 -0.3925 48 27 64
-0.6558 -0.5267 -0.3899 47 28 64
-0.6466 -0.5285 -0.3871 46 28 64
-0.6377 -0.5304 -0.3844 45 29 64
-0.6291 -0.5325 -0.3816 45 30 64
-0.6210 -0.5349 -0.3788 44 30 64
-0.6132 -0.5374 -0.3760 43 31 64
-0.6057 -0.5402 -0.3732 42 32 64
-0.5987 -0.5433 -0.3703 41 33 64
-0.5920 -0.5466 -0.3674 41 33 64
-0.5856 -0.5501 -0.3644 40 34 64
-0.5797 -0.5540 -0.3615 39 35 64
-0.5741 -0.5582 -0.3585 38 36 64
-0.5688 -0.5627 -0.3555 37 36 64
-0.5639 -0.5675 -0.3524 37 37 64
-0.5593 -0.5727 -0.3493 36 38 64
-0.5550 -0.5782 -0.3462 35 39 64
-0.5511 -0.5841 -0.3431 34 40 64
-0.5474 -0.5903 -0.3400 34 40 64
-0.5441 -0.5969 -0.3368 33 41 64
-0.5410 -0.6039 -0.3336 32 42 64
-0.5381 -0.6113 -0.3304 31 43 64
-0.5355 -0.6190 -0.3271 31 44 64
-0.5331 -0.6271 -0.3239 30 44 64
-0.5309 -0.6355 -0.3206 29 45 64
-0.5289 -0.6443 -0.3172 28 46 64
-0.5271 -0.6535 -0.3139 28 47 64
-0.5254 -0.6630 -0.3105 27 48 64
-0.5239 -0.6729 -0.3072 26 49 64
-0.5224 -0.6831 -0.3037 26 50 64
-0.5210 -0.6936 -0.3003 25 50 64
-0.5197 -0.7045 -0.2968 24 51 64
-0.5185 -0.7156 -0.2934 24 52 64
-0.5173 -0.7270 -0.2899 23 53 64
-0.5161 -0.7387 -0.2863 22 54 64
-0.5148 -0.7507 -0.2828 22 55 64
-0.5136 -0.7628 -0.2792 21 56 64
-0.5123 -0.7752 -0.2757 21 57 64
-0.5109 -0.7878 -0.2720 20 58 64
-0.5094 -0.8005 -0.2684 19 59 64
-0.5078 -0.8134 -0.2648 19 59 64
-0.5061 -0.8265 -0.2611 18 60 64
-0.5042 -0.8396 -0.2574 18 61 64
-0.5022 -0.8528 -0.2537 17 62 64
-0.5000 -0.8660 -0.2500 17 63 64
-0.4976 -0.8793 -0.2463 16 64 64
-0.4950 -0.8926 -0.2425 15 65 64
-0.4922 -0.9058 -0.2387 15 66 64
-0.4892 -0.9190 -0.2349 14 67 64
-0.4859 -0.9321 -0.2311 14 68 64
-0.4823 -0.9451 -0.2273 13 69 64
-0.4785 -0.9580 -0.2234 13 70 64
-0.4745 -0.9706 -0.2196 12 71 64
-0.4701 -0.9831 -0.2157 12 72 64
-0.4655 -0.9954 -0.2118 12 73 64
-0.4606 -1.0074 -0.2079 11 74 64
-0.4554 -1.0192 -0.2040 11 75 64
-0.4499 -1.0307 -0.2000 10 76 64
-0.4441 -1.0418 -0.1961 10 77 64
-0.4380 -1.0526 -0.1921 9 78 64
-0.4316 -1.0630 -0.1881 9 79 64
-0.4249 -1.0730 -0.1841 8 80 64
-0.4180 -1.0825 -0.1801 8 81 64
-0.4107 -1.0917 -0.1761 8 82 64
-0.4032 -1.1004 -0.1720 7 83 64
-0.3954 -1.1086 -0.1680 7 84 64
-0.3873 -1.1162 -0.1639 7 85 64
-0.3790 -1.1234 -0.1598 6 86 64
-0.3704 -1.1301 -0.1557 6 87 64
-0.3616 -1.1362 -0.1516 6 88 64
-0.3526 -1.1417 -0.1475 5 89 64
-0.3433 -1.1467 -0.1434 5 90 64
-0.3338 -1.1511 -0.1393 5 91 64
-0.3242 -1.1549 -0.1351 4 93 64
-0.3143 -1.1581 -0.1310 4 94 64
-0.3043 -1.1607 -0.1268 4 95 64
-0.2941 -1.1627 -0.1226 3 96 64
-0.2838 -1.1641 -0.1185 3 97 64
-0.2734 -1.1648 -0.1143 3 98 64
-0.2629 -1.1650 -0.1101 3 99 64
-0.2523 -1.1646 -0.1059 2 100 64
-0.2416 -1.1636 -0.1016 2 101 64
-0.2308 -1.1620 -0.0974 2 102 64
-0.2200 -1.1598 -0.0932 2 103 64
-0.2092 -1.1570 -0.0889 2 104 64
-0.1983 -1.1536 -0.0847 1 105 64
-0.1874 -1.1498 -0.0805 1 106 64
-0.1766 -1.1453 -0.0762 1 108 64
-0.1658 -1.1404 -0.0719 1 109 64
-0.1550 -1.1349 -0.0677 1 110 64
-0.1443 -1.1290 -0.0634 1 111 64
-0.1337 -1.1226 -0.0591 0 112 64
-0.1231 -1.1157 -0.0548 0 113 64
-0.1126 -1.1085 -0.0505 0 114 64
-0.1023 -1.1008 -0.0463 0 115 64
-0.0920 -1.0928 -0.0420 0 116 64
-0.0819 -1.0844 -0.0377 0 117 64
-0.0720 -1.0756 -0.0334 0 118 64
-0.0621 -1.0666 -0.0291 0 120 64
-0.0524 -1.0573 -0.0248 0 121 64
-0.0429 -1.0478 -0.0205 0 122 64
-0.0336 -1.0380 -0.0162 0 123 64
-0.0244 -1.0281 -0.0118 0 124 64
-0.0154 -1.0180 -0.0075 0 125 64
-0.0065 -1.0077 -0.0032 0 126 64
0.0021 -0.9974 0.0011 0 127 64
0.0106 -0.9870 0.0054 0 128 64
0.0189 -0.9766 0.0097 0 129 64
0.0271 -0.9662 0.0140 0 131 64
0.0350 -0.9558 0.0183 0 132 64
0.0428 -0.9454 0.0226 0 133 64
0.0504 -0.9351 0.0269 0 134 64
0.0579 -0.9250 0.0312 0 135 64
0.0652 -0.9149 0.0355 0 136 64
0.0723 -0.9051 0.0398 0 137 64
0.0793 -0.8954 0.0441 0 138 64
0.0862 -0.8859 0.0484 0 139 64
0.0929 -0.8767 0.0527 0 140 64
0.0995 -0.8677 0.0570 0 142 64
0.1060 -0.8591 0.0613 0 143 64
0.1125 -0.8507 0.0655 1 144 64
0.1188 -0.8427 0.0698 1 145 64
0.1251 -0.8350 0.0741 1 146 64
0.1313 -0.8277 0.0783 1 147 64
0.1374 -0.8208 0.0826 1 148 64
0.1436 -0.8142 0.0868 1 149 64
0.1497 -0.8081 0.0911 2 150 64
0.1558 -0.8024 0.0953 2 151 64
0.1619 -0.7971 0.0995 2 152 64
0.1681 -0.7923 0.1037 2 153 64
0.1742 -0.7879 0.1080 3 155 64
0.1805 -0.7840 0.1122 3 156 64
0.1868 -0.7806 0.1164 3 157 64
0.1932 -0.7776 0.1205 3 158 64
0.1996 -0.7750 0.1247 4 159 64
0.2062 -0.7730 0.1289 4 160 64
0.2129 -0.7714 0.1330 4 161 64
0.2198 -0.7702 0.1372 4 162 64
0.2268 -0.7695 0.1413 5 163 64
0.2339 -0.7692 0.1455 5 164 64
0.2412 -0.7694 0.1496 5 165 64
0.2487 -0.7700 0.1537 6 166 64
0.2564 -0.7710 0.1578 6 167 64
0.2643 -0.7724 0.1619 6 168 64
0.2724 -0.7742 0.1659 7 169 64
0.2807 -0.7763 0.1700 7 170 64
0.2892 -0.7788 0.1740 7 171 64
0.2979 -0.7817 0.1781 8 172 64
0.3069 -0.7848 0.1821 8 173 64
0.3161 -0.7883 0.1861 9 174 64
0.3256 -0.7920 0.1901 9 175 64
0.3352 -0.7960 0.1941 9 176 64
0.3452 -0.8002 0.1980 10 178 64
0.3553 -0.8046 0.2020 10 179 64
0.3657 -0.8091 0.2059 11 180 64
0.3763 -0.8139 0.2098 11 181 64
0.3872 -0.8187 0.2137 12 182 64
0.3982 -0.8237 0.2176 12 182 64
0.4095 -0.8287 0.2215 13 183 64
0.4210 -0.8338 0.2254 13 184 64
0.4327 -0.8389 0.2292 14 185 64
0.4445 -0.8440 0.2330 14 186 64
0.4566 -0.8490 0.2368 15 187 64
0.4688 -0.8540 0.2406 15 188 64
0.4812 -0.8589 0.2444 16 189 64
0.4937 -0.8637 0.2481 16 190 64
0.5063 -0.8683 0.2519 17 191 64
0.5191 -0.8728 0.2556 17 192 64
0.5319 -0.8771 0.2593 18 193 64
0.5448 -0.8812 0.2629 19 194 64
0.5578 -0.8850 0.2666 19 195 64
0.5708 -0.8886 0.2702 20 196 64
0.5838 -0.8919 0.2739 20 197 64
0.5969 -0.8948 0.2774 21 198 64
0.6099 -0.8975 0.2810 22 199 64
0.6229 -0.8998 0.2846 22 200 64
0.6358 -0.9018 0.2881 23 200 64
0.6486 -0.9033 0.2916 23 201 64
0.6613 -0.9045 0.2951 24 202 64
0.6739 -0.9052 0.2986 25 203 64
0.6864 -0.9056 0.3020 25 204 64
0.6987 -0.9055 0.3054 26 205 64
0.7108 -0.9049 0.3088 27 206 64
0.7227 -0.9039 0.3122 27 207 64
0.7343 -0.9024 0.3156 28 207 64
0.7457 -0.9005 0.3189 29 208 64
0.7569 -0.8981 0.3222 30 209 64
0.7677 -0.8952 0.3255 30 210 64
0.7783 -0.8918 0.3288 31 211 64
0.7885 -0.8879 0.3320 32 212 64
0.7984 -0.8836 0.3352 32 212 64
0.8079 -0.8788 0.3384 33 213 64
0.8170 -0.8735 0.3416 34 214 64
0.8257 -0.8677 0.3447 35 215 64
0.8341 -0.8615 0.3478 35 216 64
0.8420 -0.8548 0.3509 36 216 64
0.8494 -0.8476 0.3539 37 217 64
0.8565 -0.8400 0.3570 38 218 64
0.8631 -0.8320 0.3600 39 219 64
0.8692 -0.8236 0.3629 39 220 64
0.8748 -0.8147 0.3659 40 220 64
0.8800 -0.8055 0.3688 41 221 64
0.8847 -0.7959 0.3717 42 222 64
0.8889 -0.7860 0.3746 43 223 64
0.8927 -0.7757 0.3774 43 223 64
0.8959 -0.7650 0.3802 44 224 64
0.8987 -0.7541 0.3830 45 225 64
0.9010 -0.7429 0.3858 46 225 64
0.9029 -0.7314 0.3885 47 226 64
0.9042 -0.7197 0.3912 48 227 64
0.9051 -0.7078 0.3939 48 227 64
0.9055 -0.6956 0.3965 49 228 64
0.9055 -0.6833 0.3991 50 229 64
0.9051 -0.6708 0.4017 51 229 64
0.9042 -0.6582 0.4043 52 230 64
0.9030 -0.6454 0.4068 53 231 64
0.9013 -0.6325 0.4093 54 231 64
0.8993 -0.6196 0.4117 55 232 64
0.8969 -0.6066 0.4142 56 233 64
0.8941 -0.5936 0.4166 56 233 64
0.8911 -0.5806 0.4189 57 234 64
0.8877 -0.5676 0.4213 58 234 64
0.8841 -0.5546 0.4236 59 235 64
0.8802 -0.5416 0.4258 60 236 64
0.8760 -0.5287 0.4281 61 236 64
0.8717 -0.5159 0.4303 62 237 64
0.8672 -0.5032 0.4325 63 237 64
0.8625 -0.4906 0.4346 64 238 64
0.8577 -0.4781 0.4367 65 238 64
0.8528 -0.4657 0.4388 66 239 64
0.8477 -0.4536 0.4409 67 239 64
0.8427 -0.4416 0.4429 68 240 64
0.8376 -0.4297 0.4449 69 240 64
0.8325 -0.4181 0.4468 70 241 64
0.8274 -0.4067 0.4487 71 241 64
0.8224 -0.3954 0.4506 72 242 64
0.8175 -0.3844 0.4525 73 242 64
0.8127 -0.3736 0.4543 74 243 64
0.8080 -0.3631 0.4561 75 243 64
0.8035 -0.3528 0.4578 76 244 64
0.7991 -0.3427 0.4595 77 244 64
0.7950 -0.3328 0.4612 78 245 64
0.7911 -0.3232 0.4629 79 245 64
0.7874 -0.3138 0.4645 80 245 64
0.7840 -0.3046 0.4661 81 246 64
0.7809 -0.2957 0.4676 82 246 64
0.7782 -0.2870 0.4691 83 247 64
0.7758 -0.2786 0.4706 84 247 64
0.7737 -0.2703 0.4720 85 247 64
0.7720 -0.2623 0.4734 86 248 64
0.7707 -0.2545 0.4748 87 248 64
0.7698 -0.2468 0.4761 88 248 64
0.7693 -0.2394 0.4774 89 249 64
0.7692 -0.2321 0.4787 90 249 64
0.7696 -0.2250 0.4799 91 249 64
0.7704 -0.2180 0.4811 92 250 64
0.7717 -0.2112 0.4823 93 250 64
0.7734 -0.2046 0.4834 94 250 64
0.7756 -0.1980 0.4845 95 251 64
0.7783 -0.1916 0.4855 97 251 64
0.7814 -0.1852 0.4865 98 251 64
0.7850 -0.1789 0.4875 99 251 64
0.7890 -0.1727 0.4884 100 252 64
0.7935 -0.1665 0.4893 101 252 64
0.7984 -0.1604 0.4902 102 252 64
0.8038 -0.1543 0.4910 103 252 64
0.8096 -0.1482 0.4918 104 252 64
0.8158 -0.1420 0.4926 105 253 64
0.8225 -0.1359 0.4933 106 253 64
0.8295 -0.1297 0.4940 107 253 64
0.8369 -0.1235 0.4946 108 253 64
0.8447 -0.1172 0.4953 109 253 64
0.8528 -0.1109 0.4958 111 253 64
0.8612 -0.1044 0.4964 112 254 64
0.8700 -0.0979 0.4969 113 254 64
0.8790 -0.0912 0.4973 114 254 64
0.8883 -0.0845 0.4978 115 254 64
0.8978 -0.0776 0.4981 116 254 64
0.9075 -0.0705 0.4985 117 254 64
0.9174 -0.0634 0.4988 118 254 64
0.9275 -0.0560 0.4991 119 254 64
0.9377 -0.0485 0.4993 120 254 64
0.9480 -0.0409 0.4995 122 254 64
0.9584 -0.0331 0.4997 123 254 64
0.9688 -0.0251 0.4998 124 254 64
0.9792 -0.0169 0.4999 125 254 64
0.9896 -0.0085 0.5000 126 254 64
