ply
format ascii 1.0
comment King Wen Hexagram #28 Hex_28 3D Point Cloud
element vertex 729
property float x
property float y
property float z
property uchar red
property uchar green
property uchar blue
end_header
1.0000 0.0000 0.5000 127 255 112
1.0103 0.0087 0.4995 128 254 112
1.0205 0.0176 0.4981 129 254 112
1.0306 0.0267 0.4958 130 254 112
1.0405 0.0359 0.4926 131 254 112
1.0502 0.0453 0.4884 132 254 112
1.0596 0.0548 0.4834 134 254 112
1.0689 0.0646 0.4774 135 254 112
1.0778 0.0744 0.4706 136 254 112
1.0865 0.0844 0.4629 137 254 112
1.0948 0.0946 0.4543 138 254 112
1.1028 0.1049 0.4449 139 254 112
1.1103 0.1152 0.4346 140 254 112
1.1175 0.1257 0.4236 141 254 112
1.1242 0.1363 0.4117 142 254 112
1.1305 0.1470 0.3991 143 253 112
1.1363 0.1577 0.3858 145 253 112
1.1417 0.1685 0.3717 146 253 112
1.1465 0.1793 0.3570 147 253 112
1.1508 0.1902 0.3416 148 253 112
1.1545 0.2010 0.3255 149 253 112
1.1577 0.2119 0.3088 150 252 112
1.1604 0.2227 0.2916 151 252 112
1.1624 0.2335 0.2739 152 252 112
1.1639 0.2442 0.2556 153 252 112
1.1648 0.2549 0.2368 154 252 112
1.1650 0.2655 0.2176 155 251 112
1.1647 0.2760 0.1980 156 251 112
1.1638 0.2864 0.1781 157 251 112
1.1622 0.2967 0.1578 159 251 112
1.1601 0.3068 0.1372 160 250 112
1.1573 0.3168 0.1164 161 250 112
1.1540 0.3266 0.0953 162 250 112
1.1500 0.3362 0.0741 163 249 112
1.1455 0.3456 0.0527 164 249 112
1.1404 0.3548 0.0312 165 249 112
1.1347 0.3638 0.0097 166 248 112
1.1285 0.3726 -0.0118 167 248 112
1.1217 0.3811 -0.0334 168 248 112
1.1144 0.3894 -0.0548 169 247 112
1.1065 0.3974 -0.0762 170 247 112
1.0982 0.4051 -0.0974 171 247 112
1.0894 0.4125 -0.1185 172 246 112
1.0802 0.4197 -0.1393 173 246 112
1.0705 0.4266 -0.1598 174 245 112
1.0604 0.4332 -0.1801 175 245 112
1.0499 0.4395 -0.2000 176 245 112
1.0390 0.4455 -0.2196 177 244 112
1.0278 0.4513 -0.2387 178 244 112
1.0163 0.4567 -0.2574 179 243 112
1.0045 0.4618 -0.2757 180 243 112
0.9924 0.4667 -0.2934 181 242 112
0.9800 0.4712 -0.3105 182 242 112
0.9675 0.4755 -0.3271 183 241 112
0.9548 0.4795 -0.3431 184 241 112
0.9419 0.4832 -0.3585 185 240 112
0.9288 0.4867 -0.3732 186 240 112
0.9157 0.4899 -0.3871 187 239 112
0.9025 0.4929 -0.4004 188 239 112
0.8893 0.4957 -0.4129 189 238 112
0.8760 0.4982 -0.4247 190 238 112
0.8627 0.5006 -0.4357 191 237 112
0.8495 0.5027 -0.4458 192 237 112
0.8363 0.5047 -0.4552 193 236 112
0.8232 0.5065 -0.4637 194 236 112
0.8102 0.5082 -0.4713 195 235 112
0.7973 0.5098 -0.4781 196 234 112
0.7846 0.5112 -0.4839 197 234 112
0.7721 0.5126 -0.4889 198 233 112
0.7598 0.5139 -0.4930 198 233 112
0.7476 0.5151 -0.4961 199 232 112
0.7358 0.5164 -0.4983 200 231 112
0.7241 0.5176 -0.4996 201 231 112
0.7128 0.5188 -0.5000 202 230 112
0.7017 0.5201 -0.4994 203 229 112
0.6910 0.5214 -0.4980 204 229 112
0.6805 0.5228 -0.4955 205 228 112
0.6704 0.5242 -0.4922 206 227 112
0.6606 0.5258 -0.4880 206 227 112
0.6512 0.5275 -0.4828 207 226 112
0.6421 0.5294 -0.4768 208 225 112
0.6334 0.5315 -0.4698 209 225 112
0.6250 0.5337 -0.4620 210 224 112
0.6170 0.5361 -0.4534 211 223 112
0.6094 0.5388 -0.4439 211 223 112
0.6021 0.5417 -0.4336 212 222 112
0.5953 0.5449 -0.4224 213 221 112
0.5888 0.5483 -0.4105 214 220 112
0.5826 0.5520 -0.3978 215 220 112
0.5768 0.5561 -0.3844 215 219 112
0.5714 0.5604 -0.3703 216 218 112
0.5663 0.5651 -0.3555 217 217 112
0.5615 0.5701 -0.3400 218 216 112
0.5571 0.5754 -0.3239 219 216 112
0.5530 0.5811 -0.3072 219 215 112
0.5492 0.5872 -0.2899 220 214 112
0.5457 0.5936 -0.2720 221 213 112
0.5425 0.6004 -0.2537 222 212 112
0.5395 0.6075 -0.2349 222 212 112
0.5368 0.6151 -0.2157 223 211 112
0.5343 0.6230 -0.1961 224 210 112
0.5320 0.6312 -0.1761 224 209 112
0.5299 0.6399 -0.1557 225 208 112
0.5280 0.6489 -0.1351 226 207 112
0.5262 0.6582 -0.1143 227 207 112
0.5246 0.6679 -0.0932 227 206 112
0.5231 0.6780 -0.0719 228 205 112
0.5217 0.6883 -0.0505 229 204 112
0.5204 0.6990 -0.0291 229 203 112
0.5191 0.7100 -0.0075 230 202 112
0.5179 0.7213 0.0140 231 201 112
0.5167 0.7328 0.0355 231 200 112
0.5155 0.7447 0.0570 232 200 112
0.5142 0.7567 0.0783 232 199 112
0.5129 0.7690 0.0995 233 198 112
0.5116 0.7815 0.1205 234 197 112
0.5101 0.7941 0.1413 234 196 112
0.5086 0.8070 0.1619 235 195 112
0.5070 0.8199 0.1821 235 194 112
0.5052 0.8330 0.2020 236 193 112
0.5032 0.8462 0.2215 237 192 112
0.5011 0.8594 0.2406 237 191 112
0.4988 0.8727 0.2593 238 190 112
0.4963 0.8859 0.2774 238 189 112
0.4936 0.8992 0.2951 239 188 112
0.4907 0.9124 0.3122 239 187 112
0.4875 0.9256 0.3288 240 186 112
0.4841 0.9386 0.3447 240 185 112
0.4805 0.9516 0.3600 241 184 112
0.4765 0.9643 0.3746 241 183 112
0.4723 0.9769 0.3885 242 182 112
0.4678 0.9893 0.4017 242 182 112
0.4631 1.0015 0.4142 243 181 112
0.4580 1.0134 0.4258 243 180 112
0.4526 1.0250 0.4367 244 179 112
0.4470 1.0363 0.4468 244 178 112
0.4411 1.0472 0.4561 245 176 112
0.4348 1.0578 0.4645 245 175 112
0.4283 1.0680 0.4720 245 174 112
0.4215 1.0778 0.4787 246 173 112
0.4144 1.0872 0.4845 246 172 112
0.4070 1.0961 0.4893 247 171 112
0.3993 1.1045 0.4933 247 170 112
0.3914 1.1125 0.4964 247 169 112
0.3832 1.1199 0.4985 248 168 112
0.3747 1.1268 0.4997 248 167 112
0.3660 1.1332 0.5000 248 166 112
0.3571 1.1390 0.4993 249 165 112
0.3480 1.1443 0.4978 249 164 112
0.3386 1.1489 0.4953 249 163 112
0.3290 1.1530 0.4918 250 162 112
0.3193 1.1565 0.4875 250 161 112
0.3093 1.1594 0.4823 250 160 112
0.2992 1.1617 0.4761 250 159 112
0.2890 1.1634 0.4691 251 158 112
0.2786 1.1645 0.4612 251 157 112
0.2682 1.1650 0.4525 251 156 112
0.2576 1.1649 0.4429 251 155 112
0.2469 1.1642 0.4325 252 153 112
0.2362 1.1628 0.4213 252 152 112
0.2254 1.1609 0.4093 252 151 112
0.2146 1.1584 0.3965 252 150 112
0.2037 1.1554 0.3830 253 149 112
0.1929 1.1518 0.3688 253 148 112
0.1820 1.1476 0.3539 253 147 112
0.1712 1.1429 0.3384 253 146 112
0.1604 1.1377 0.3222 253 145 112
0.1497 1.1320 0.3054 253 144 112
0.1390 1.1259 0.2881 254 143 112
0.1284 1.1192 0.2702 254 142 112
0.1179 1.1122 0.2519 254 140 112
0.1075 1.1047 0.2330 254 139 112
0.0972 1.0968 0.2137 254 138 112
0.0870 1.0886 0.1941 254 137 112
0.0769 1.0800 0.1740 254 136 112
0.0670 1.0711 0.1537 254 135 112
0.0573 1.0620 0.1330 254 134 112
0.0477 1.0526 0.1122 254 133 112
0.0382 1.0429 0.0911 254 132 112
0.0289 1.0331 0.0698 254 131 112
0.0198 1.0230 0.0484 254 129 112
0.0109 1.0129 0.0269 254 128 112
0.0022 1.0026 0.0054 254 127 112
-0.0064 0.9922 -0.0162 254 126 112
-0.0148 0.9818 -0.0377 254 125 112
-0.0230 0.9714 -0.0591 254 124 112
-0.0311 0.9610 -0.0805 254 123 112
-0.0389 0.9506 -0.1016 254 122 112
-0.0466 0.9402 -0.1226 254 121 112
-0.0542 0.9300 -0.1434 254 120 112
-0.0615 0.9199 -0.1639 254 118 112
-0.0688 0.9100 -0.1841 254 117 112
-0.0758 0.9002 -0.2040 254 116 112
-0.0828 0.8906 -0.2234 254 115 112
-0.0896 0.8813 -0.2425 254 114 112
-0.0962 0.8722 -0.2611 254 113 112
-0.1028 0.8634 -0.2792 254 112 112
-0.1093 0.8549 -0.2968 253 111 112
-0.1156 0.8467 -0.3139 253 110 112
-0.1219 0.8388 -0.3304 253 109 112
-0.1282 0.8313 -0.3462 253 108 112
-0.1344 0.8242 -0.3615 253 106 112
-0.1405 0.8175 -0.3760 253 105 112
-0.1466 0.8111 -0.3899 252 104 112
-0.1527 0.8052 -0.4030 252 103 112
-0.1589 0.7997 -0.4154 252 102 112
-0.1650 0.7947 -0.4270 252 101 112
-0.1711 0.7901 -0.4378 252 100 112
-0.1773 0.7859 -0.4478 251 99 112
-0.1836 0.7822 -0.4569 251 98 112
-0.1900 0.7790 -0.4653 251 97 112
-0.1964 0.7762 -0.4727 251 96 112
-0.2029 0.7739 -0.4793 250 95 112
-0.2096 0.7721 -0.4850 250 94 112
-0.2163 0.7707 -0.4898 250 93 112
-0.2232 0.7698 -0.4937 249 91 112
-0.2303 0.7693 -0.4966 249 90 112
-0.2375 0.7693 -0.4987 249 89 112
-0.2449 0.7696 -0.4998 248 88 112
-0.2525 0.7704 -0.5000 248 87 112
-0.2603 0.7716 -0.4992 248 86 112
-0.2683 0.7732 -0.4975 247 85 112
-0.2765 0.7752 -0.4950 247 84 112
-0.2849 0.7775 -0.4914 247 83 112
-0.2935 0.7802 -0.4870 246 82 112
-0.3024 0.7832 -0.4817 246 81 112
-0.3115 0.7865 -0.4755 246 80 112
-0.3208 0.7901 -0.4684 245 79 112
-0.3304 0.7940 -0.4604 245 78 112
-0.3402 0.7980 -0.4515 244 77 112
-0.3502 0.8023 -0.4419 244 76 112
-0.3605 0.8068 -0.4314 243 75 112
-0.3710 0.8115 -0.4201 243 74 112
-0.3817 0.8163 -0.4080 242 73 112
-0.3927 0.8212 -0.3952 242 72 112
-0.4038 0.8262 -0.3816 242 71 112
-0.4152 0.8312 -0.3674 241 70 112
-0.4268 0.8363 -0.3524 241 69 112
-0.4386 0.8414 -0.3368 240 68 112
-0.4506 0.8465 -0.3206 240 67 112
-0.4627 0.8515 -0.3037 239 66 112
-0.4750 0.8565 -0.2863 239 65 112
-0.4874 0.8613 -0.2684 238 64 112
-0.5000 0.8660 -0.2500 237 63 112
-0.5127 0.8706 -0.2311 237 62 112
-0.5255 0.8750 -0.2118 236 61 112
-0.5384 0.8792 -0.1921 236 60 112
-0.5513 0.8831 -0.1720 235 59 112
-0.5643 0.8868 -0.1516 235 59 112
-0.5773 0.8903 -0.1310 234 58 112
-0.5904 0.8934 -0.1101 233 57 112
-0.6034 0.8962 -0.0889 233 56 112
-0.6164 0.8987 -0.0677 232 55 112
-0.6293 0.9008 -0.0463 232 54 112
-0.6422 0.9026 -0.0248 231 53 112
-0.6550 0.9040 -0.0032 230 52 112
-0.6676 0.9049 0.0183 230 51 112
-0.6802 0.9055 0.0398 229 50 112
-0.6926 0.9056 0.0613 228 50 112
-0.7048 0.9053 0.0826 228 49 112
-0.7167 0.9045 0.1037 227 48 112
-0.7285 0.9032 0.1247 226 47 112
-0.7401 0.9015 0.1455 226 46 112
-0.7513 0.8993 0.1659 225 45 112
-0.7623 0.8967 0.1861 224 44 112
-0.7730 0.8935 0.2059 223 44 112
-0.7834 0.8899 0.2254 223 43 112
-0.7935 0.8858 0.2444 222 42 112
-0.8032 0.8812 0.2629 221 41 112
-0.8125 0.8762 0.2810 220 40 112
-0.8214 0.8706 0.2986 220 40 112
-0.8299 0.8646 0.3156 219 39 112
-0.8381 0.8582 0.3320 218 38 112
-0.8458 0.8512 0.3478 217 37 112
-0.8530 0.8439 0.3629 217 36 112
-0.8598 0.8361 0.3774 216 36 112
-0.8662 0.8278 0.3912 215 35 112
-0.8721 0.8192 0.4043 214 34 112
-0.8775 0.8102 0.4166 213 33 112
-0.8824 0.8008 0.4281 213 33 112
-0.8869 0.7910 0.4388 212 32 112
-0.8909 0.7809 0.4487 211 31 112
-0.8944 0.7704 0.4578 210 30 112
-0.8974 0.7596 0.4661 209 30 112
-0.8999 0.7486 0.4734 209 29 112
-0.9020 0.7372 0.4799 208 28 112
-0.9036 0.7256 0.4855 207 28 112
-0.9047 0.7138 0.4902 206 27 112
-0.9054 0.7017 0.4940 205 26 112
-0.9056 0.6895 0.4969 204 26 112
-0.9054 0.6771 0.4988 203 25 112
-0.9047 0.6645 0.4998 202 24 112
-0.9036 0.6518 0.4999 202 24 112
-0.9022 0.6390 0.4991 201 23 112
-0.9003 0.6261 0.4973 200 22 112
-0.8981 0.6131 0.4946 199 22 112
-0.8955 0.6001 0.4910 198 21 112
-0.8926 0.5871 0.4865 197 20 112
-0.8894 0.5741 0.4811 196 20 112
-0.8859 0.5610 0.4748 195 19 112
-0.8822 0.5481 0.4676 194 19 112
-0.8781 0.5351 0.4595 193 18 112
-0.8739 0.5223 0.4506 192 18 112
-0.8695 0.5095 0.4409 191 17 112
-0.8649 0.4968 0.4303 191 16 112
-0.8601 0.4843 0.4189 190 16 112
-0.8552 0.4719 0.4068 189 15 112
-0.8503 0.4596 0.3939 188 15 112
-0.8452 0.4475 0.3802 187 14 112
-0.8401 0.4356 0.3659 186 14 112
-0.8350 0.4239 0.3509 185 13 112
-0.8300 0.4124 0.3352 184 13 112
-0.8249 0.4010 0.3189 183 12 112
-0.8200 0.3899 0.3020 182 12 112
-0.8151 0.3790 0.2846 181 11 112
-0.8103 0.3683 0.2666 180 11 112
-0.8057 0.3579 0.2481 179 10 112
-0.8013 0.3477 0.2292 178 10 112
-0.7970 0.3377 0.2098 177 10 112
-0.7930 0.3280 0.1901 176 9 112
-0.7892 0.3185 0.1700 175 9 112
-0.7857 0.3092 0.1496 174 8 112
-0.7824 0.3002 0.1289 173 8 112
-0.7795 0.2914 0.1080 172 8 112
-0.7769 0.2828 0.0868 171 7 112
-0.7747 0.2744 0.0655 170 7 112
-0.7728 0.2663 0.0441 169 6 112
-0.7713 0.2584 0.0226 167 6 112
-0.7702 0.2506 0.0011 166 6 112
-0.7695 0.2431 -0.0205 165 5 112
-0.7692 0.2357 -0.0420 164 5 112
-0.7694 0.2285 -0.0634 163 5 112
-0.7700 0.2215 -0.0847 162 4 112
-0.7710 0.2146 -0.1059 161 4 112
-0.7725 0.2079 -0.1268 160 4 112
-0.7745 0.2013 -0.1475 159 4 112
-0.7769 0.1948 -0.1680 158 3 112
-0.7798 0.1884 -0.1881 157 3 112
-0.7831 0.1820 -0.2079 156 3 112
-0.7869 0.1758 -0.2273 155 3 112
-0.7912 0.1696 -0.2463 154 2 112
-0.7959 0.1634 -0.2648 153 2 112
-0.8011 0.1573 -0.2828 152 2 112
-0.8066 0.1512 -0.3003 150 2 112
-0.8127 0.1451 -0.3172 149 1 112
-0.8191 0.1390 -0.3336 148 1 112
-0.8259 0.1328 -0.3493 147 1 112
-0.8331 0.1266 -0.3644 146 1 112
-0.8407 0.1204 -0.3788 145 1 112
-0.8487 0.1141 -0.3925 144 1 112
-0.8570 0.1077 -0.4055 143 0 112
-0.8656 0.1012 -0.4177 142 0 112
-0.8744 0.0946 -0.4292 141 0 112
-0.8836 0.0879 -0.4398 140 0 112
-0.8930 0.0810 -0.4497 139 0 112
-0.9026 0.0741 -0.4587 137 0 112
-0.9124 0.0670 -0.4668 136 0 112
-0.9224 0.0597 -0.4741 135 0 112
-0.9326 0.0523 -0.4805 134 0 112
-0.9428 0.0447 -0.4860 133 0 112
-0.9532 0.0370 -0.4906 132 0 112
-0.9636 0.0291 -0.4943 131 0 112
-0.9740 0.0210 -0.4971 130 0 112
-0.9844 0.0127 -0.4990 129 0 112
-0.9948 0.0043 -0.4999 128 0 112
-1.0052 -0.0043 -0.4999 126 0 112
-1.0154 -0.0131 -0.4990 125 0 112
-1.0255 -0.0221 -0.4971 124 0 112
-1.0355 -0.0312 -0.4943 123 0 112
-1.0453 -0.0406 -0.4906 122 0 112
-1.0549 -0.0500 -0.4860 121 0 112
-1.0643 -0.0597 -0.4805 120 0 112
-1.0734 -0.0695 -0.4741 119 0 112
-1.0822 -0.0794 -0.4668 118 0 112
-1.0907 -0.0895 -0.4587 117 0 112
-1.0988 -0.0997 -0.4497 115 0 112
-1.1066 -0.1100 -0.4398 114 0 112
-1.1140 -0.1205 -0.4292 113 0 112
-1.1209 -0.1310 -0.4177 112 0 112
-1.1274 -0.1416 -0.4055 111 0 112
-1.1335 -0.1523 -0.3925 110 1 112
-1.1391 -0.1631 -0.3788 109 1 112
-1.1441 -0.1739 -0.3644 108 1 112
-1.1487 -0.1847 -0.3493 107 1 112
-1.1527 -0.1956 -0.3336 106 1 112
-1.1562 -0.2064 -0.3172 105 1 112
-1.1591 -0.2173 -0.3003 104 2 112
-1.1615 -0.2281 -0.2828 102 2 112
-1.1632 -0.2389 -0.2648 101 2 112
-1.1644 -0.2496 -0.2463 100 2 112
-1.1650 -0.2602 -0.2273 99 3 112
-1.1649 -0.2708 -0.2079 98 3 112
-1.1643 -0.2813 -0.1881 97 3 112
-1.1631 -0.2916 -0.1680 96 3 112
-1.1612 -0.3018 -0.1475 95 4 112
-1.1588 -0.3118 -0.1268 94 4 112
-1.1557 -0.3217 -0.1059 93 4 112
-1.1521 -0.3314 -0.0847 92 4 112
-1.1478 -0.3409 -0.0634 91 5 112
-1.1430 -0.3503 -0.0420 90 5 112
-1.1376 -0.3594 -0.0205 89 5 112
-1.1316 -0.3682 0.0011 88 6 112
-1.1251 -0.3769 0.0226 87 6 112
-1.1181 -0.3853 0.0441 85 6 112
-1.1105 -0.3934 0.0655 84 7 112
-1.1025 -0.4013 0.0868 83 7 112
-1.0939 -0.4089 0.1080 82 8 112
-1.0849 -0.4162 0.1289 81 8 112
-1.0754 -0.4232 0.1496 80 8 112
-1.0655 -0.4300 0.1700 79 9 112
-1.0552 -0.4364 0.1901 78 9 112
-1.0445 -0.4426 0.2098 77 10 112
-1.0335 -0.4484 0.2292 76 10 112
-1.0221 -0.4540 0.2481 75 10 112
-1.0104 -0.4593 0.2666 74 11 112
-0.9985 -0.4643 0.2846 73 11 112
-0.9862 -0.4690 0.3020 72 12 112
-0.9738 -0.4734 0.3189 71 12 112
-0.9611 -0.4775 0.3352 70 13 112
-0.9483 -0.4814 0.3509 69 13 112
-0.9354 -0.4850 0.3659 68 14 112
-0.9223 -0.4884 0.3802 67 14 112
-0.9091 -0.4915 0.3939 66 15 112
-0.8959 -0.4943 0.4068 65 15 112
-0.8826 -0.4970 0.4189 64 16 112
-0.8693 -0.4994 0.4303 63 16 112
-0.8561 -0.5017 0.4409 63 17 112
-0.8429 -0.5037 0.4506 62 18 112
-0.8297 -0.5056 0.4595 61 18 112
-0.8167 -0.5074 0.4676 60 19 112
-0.8037 -0.5090 0.4748 59 19 112
-0.7910 -0.5105 0.4811 58 20 112
-0.7783 -0.5119 0.4865 57 20 112
-0.7659 -0.5133 0.4910 56 21 112
-0.7537 -0.5145 0.4946 55 22 112
-0.7417 -0.5158 0.4973 54 22 112
-0.7299 -0.5170 0.4991 53 23 112
-0.7184 -0.5182 0.4999 52 24 112
-0.7072 -0.5194 0.4998 52 24 112
-0.6963 -0.5207 0.4988 51 25 112
-0.6857 -0.5221 0.4969 50 26 112
-0.6754 -0.5235 0.4940 49 26 112
-0.6655 -0.5250 0.4902 48 27 112
-0.6558 -0.5267 0.4855 47 28 112
-0.6466 -0.5285 0.4799 46 28 112
-0.6377 -0.5304 0.4734 45 29 112
-0.6291 -0.5325 0.4661 45 30 112
-0.6210 -0.5349 0.4578 44 30 112
-0.6132 -0.5374 0.4487 43 31 112
-0.6057 -0.5402 0.4388 42 32 112
-0.5987 -0.5433 0.4281 41 33 112
-0.5920 -0.5466 0.4166 41 33 112
-0.5856 -0.5501 0.4043 40 34 112
-0.5797 -0.5540 0.3912 39 35 112
-0.5741 -0.5582 0.3774 38 36 112
-0.5688 -0.5627 0.3629 37 36 112
-0.5639 -0.5675 0.3478 37 37 112
-0.5593 -0.5727 0.3320 36 38 112
-0.5550 -0.5782 0.3156 35 39 112
-0.5511 -0.5841 0.2986 34 40 112
-0.5474 -0.5903 0.2810 34 40 112
-0.5441 -0.5969 0.2629 33 41 112
-0.5410 -0.6039 0.2444 32 42 112
-0.5381 -0.6113 0.2254 31 43 112
-0.5355 -0.6190 0.2059 31 44 112
-0.5331 -0.6271 0.1861 30 44 112
-0.5309 -0.6355 0.1659 29 45 112
-0.5289 -0.6443 0.1455 28 46 112
-0.5271 -0.6535 0.1247 28 47 112
-0.5254 -0.6630 0.1037 27 48 112
-0.5239 -0.6729 0.0826 26 49 112
-0.5224 -0.6831 0.0613 26 50 112
-0.5210 -0.6936 0.0398 25 50 112
-0.5197 -0.7045 0.0183 24 51 112
-0.5185 -0.7156 -0.0032 24 52 112
-0.5173 -0.7270 -0.0248 23 53 112
-0.5161 -0.7387 -0.0463 22 54 112
-0.5148 -0.7507 -0.0677 22 55 112
-0.5136 -0.7628 -0.0889 21 56 112
-0.5123 -0.7752 -0.1101 21 57 112
-0.5109 -0.7878 -0.1310 20 58 112
-0.5094 -0.8005 -0.1516 19 59 112
-0.5078 -0.8134 -0.1720 19 59 112
-0.5061 -0.8265 -0.1921 18 60 112
-0.5042 -0.8396 -0.2118 18 61 112
-0.5022 -0.8528 -0.2311 17 62 112
-0.5000 -0.8660 -0.2500 17 63 112
-0.4976 -0.8793 -0.2684 16 64 112
-0.4950 -0.8926 -0.2863 15 65 112
-0.4922 -0.9058 -0.3037 15 66 112
-0.4892 -0.9190 -0.3206 14 67 112
-0.4859 -0.9321 -0.3368 14 68 112
-0.4823 -0.9451 -0.3524 13 69 112
-0.4785 -0.9580 -0.3674 13 70 112
-0.4745 -0.9706 -0.3816 12 71 112
-0.4701 -0.9831 -0.3952 12 72 112
-0.4655 -0.9954 -0.4080 12 73 112
-0.4606 -1.0074 -0.4201 11 74 112
-0.4554 -1.0192 -0.4314 11 75 112
-0.4499 -1.0307 -0.4419 10 76 112
-0.4441 -1.0418 -0.4515 10 77 112
-0.4380 -1.0526 -0.4604 9 78 112
-0.4316 -1.0630 -0.4684 9 79 112
-0.4249 -1.0730 -0.4755 8 80 112
-0.4180 -1.0825 -0.4817 8 81 112
-0.4107 -1.0917 -0.4870 8 82 112
-0.4032 -1.1004 -0.4914 7 83 112
-0.3954 -1.1086 -0.4950 7 84 112
-0.3873 -1.1162 -0.4975 7 85 112
-0.3790 -1.1234 -0.4992 6 86 112
-0.3704 -1.1301 -0.5000 6 87 112
-0.3616 -1.1362 -0.4998 6 88 112
-0.3526 -1.1417 -0.4987 5 89 112
-0.3433 -1.1467 -0.4966 5 90 112
-0.3338 -1.1511 -0.4937 5 91 112
-0.3242 -1.1549 -0.4898 4 93 112
-0.3143 -1.1581 -0.4850 4 94 112
-0.3043 -1.1607 -0.4793 4 95 112
-0.2941 -1.1627 -0.4727 3 96 112
-0.2838 -1.1641 -0.4653 3 97 112
-0.2734 -1.1648 -0.4569 3 98 112
-0.2629 -1.1650 -0.4478 3 99 112
-0.2523 -1.1646 -0.4378 2 100 112
-0.2416 -1.1636 -0.4270 2 101 112
-0.2308 -1.1620 -0.4154 2 102 112
-0.2200 -1.1598 -0.4030 2 103 112
-0.2092 -1.1570 -0.3899 2 104 112
-0.1983 -1.1536 -0.3760 1 105 112
-0.1874 -1.1498 -0.3615 1 106 112
-0.1766 -1.1453 -0.3462 1 108 112
-0.1658 -1.1404 -0.3304 1 109 112
-0.1550 -1.1349 -0.3139 1 110 112
-0.1443 -1.1290 -0.2968 1 111 112
-0.1337 -1.1226 -0.2792 0 112 112
-0.1231 -1.1157 -0.2611 0 113 112
-0.1126 -1.1085 -0.2425 0 114 112
-0.1023 -1.1008 -0.2234 0 115 112
-0.0920 -1.0928 -0.2040 0 116 112
-0.0819 -1.0844 -0.1841 0 117 112
-0.0720 -1.0756 -0.1639 0 118 112
-0.0621 -1.0666 -0.1434 0 120 112
-0.0524 -1.0573 -0.1226 0 121 112
-0.0429 -1.0478 -0.1016 0 122 112
-0.0336 -1.0380 -0.0805 0 123 112
-0.0244 -1.0281 -0.0591 0 124 112
-0.0154 -1.0180 -0.0377 0 125 112
-0.0065 -1.0077 -0.0162 0 126 112
0.0021 -0.9974 0.0054 0 127 112
0.0106 -0.9870 0.0269 0 128 112
0.0189 -0.9766 0.0484 0 129 112
0.0271 -0.9662 0.0698 0 131 112
0.0350 -0.9558 0.0911 0 132 112
0.0428 -0.9454 0.1122 0 133 112
0.0504 -0.9351 0.1330 0 134 112
0.0579 -0.9250 0.1537 0 135 112
0.0652 -0.9149 0.1740 0 136 112
0.0723 -0.9051 0.1941 0 137 112
0.0793 -0.8954 0.2137 0 138 112
0.0862 -0.8859 0.2330 0 139 112
0.0929 -0.8767 0.2519 0 140 112
0.0995 -0.8677 0.2702 0 142 112
0.1060 -0.8591 0.2881 0 143 112
0.1125 -0.8507 0.3054 1 144 112
0.1188 -0.8427 0.3222 1 145 112
0.1251 -0.8350 0.3384 1 146 112
0.1313 -0.8277 0.3539 1 147 112
0.1374 -0.8208 0.3688 1 148 112
0.1436 -0.8142 0.3830 1 149 112
0.1497 -0.8081 0.3965 2 150 112
0.1558 -0.8024 0.4093 2 151 112
0.1619 -0.7971 0.4213 2 152 112
0.1681 -0.7923 0.4325 2 153 112
0.1742 -0.7879 0.4429 3 155 112
0.1805 -0.7840 0.4525 3 156 112
0.1868 -0.7806 0.4612 3 157 112
0.1932 -0.7776 0.4691 3 158 112
0.1996 -0.7750 0.4761 4 159 112
0.2062 -0.7730 0.4823 4 160 112
0.2129 -0.7714 0.4875 4 161 112
0.2198 -0.7702 0.4918 4 162 112
0.2268 -0.7695 0.4953 5 163 112
0.2339 -0.7692 0.4978 5 164 112
0.2412 -0.7694 0.4993 5 165 112
0.2487 -0.7700 0.5000 6 166 112
0.2564 -0.7710 0.4997 6 167 112
0.2643 -0.7724 0.4985 6 168 112
0.2724 -0.7742 0.4964 7 169 112
0.2807 -0.7763 0.4933 7 170 112
0.2892 -0.7788 0.4893 7 171 112
0.2979 -0.7817 0.4845 8 172 112
0.3069 -0.7848 0.4787 8 173 112
0.3161 -0.7883 0.4720 9 174 112
0.3256 -0.7920 0.4645 9 175 112
0.3352 -0.7960 0.4561 9 176 112
0.3452 -0.8002 0.4468 10 178 112
0.3553 -0.8046 0.4367 10 179 112
0.3657 -0.8091 0.4258 11 180 112
0.3763 -0.8139 0.4142 11 181 112
0.3872 -0.8187 0.4017 12 182 112
0.3982 -0.8237 0.3885 12 182 112
0.4095 -0.8287 0.3746 13 183 112
0.4210 -0.8338 0.3600 13 184 112
0.4327 -0.8389 0.3447 14 185 112
0.4445 -0.8440 0.3288 14 186 112
0.4566 -0.8490 0.3122 15 187 112
0.4688 -0.8540 0.2951 15 188 112
0.4812 -0.8589 0.2774 16 189 112
0.4937 -0.8637 0.2593 16 190 112
0.5063 -0.8683 0.2406 17 191 112
0.5191 -0.8728 0.2215 17 192 112
0.5319 -0.8771 0.2020 18 193 112
0.5448 -0.8812 0.1821 19 194 112
0.5578 -0.8850 0.1619 19 195 112
0.5708 -0.8886 0.1413 20 196 112
0.5838 -0.8919 0.1205 20 197 112
0.5969 -0.8948 0.0995 21 198 112
0.6099 -0.8975 0.0783 22 199 112
0.6229 -0.8998 0.0570 22 200 112
0.6358 -0.9018 0.0355 23 200 112
0.6486 -0.9033 0.0140 23 201 112
0.6613 -0.9045 -0.0075 24 202 112
0.6739 -0.9052 -0.0291 25 203 112
0.6864 -0.9056 -0.0505 25 204 112
0.6987 -0.9055 -0.0719 26 205 112
0.7108 -0.9049 -0.0932 27 206 112
0.7227 -0.9039 -0.1143 27 207 112
0.7343 -0.9024 -0.1351 28 207 112
0.7457 -0.9005 -0.1557 29 208 112
0.7569 -0.8981 -0.1761 30 209 112
0.7677 -0.8952 -0.1961 30 210 112
0.7783 -0.8918 -0.2157 31 211 112
0.7885 -0.8879 -0.2349 32 212 112
0.7984 -0.8836 -0.2537 32 212 112
0.8079 -0.8788 -0.2720 33 213 112
0.8170 -0.8735 -0.2899 34 214 112
0.8257 -0.8677 -0.3072 35 215 112
0.8341 -0.8615 -0.3239 35 216 112
0.8420 -0.8548 -0.3400 36 216 112
0.8494 -0.8476 -0.3555 37 217 112
0.8565 -0.8400 -0.3703 38 218 112
0.8631 -0.8320 -0.3844 39 219 112
0.8692 -0.8236 -0.3978 39 220 112
0.8748 -0.8147 -0.4105 40 220 112
0.8800 -0.8055 -0.4224 41 221 112
0.8847 -0.7959 -0.4336 42 222 112
0.8889 -0.7860 -0.4439 43 223 112
0.8927 -0.7757 -0.4534 43 223 112
0.8959 -0.7650 -0.4620 44 224 112
0.8987 -0.7541 -0.4698 45 225 112
0.9010 -0.7429 -0.4768 46 225 112
0.9029 -0.7314 -0.4828 47 226 112
0.9042 -0.7197 -0.4880 48 227 112
0.9051 -0.7078 -0.4922 48 227 112
0.9055 -0.6956 -0.4955 49 228 112
0.9055 -0.6833 -0.4980 50 229 112
0.9051 -0.6708 -0.4994 51 229 112
0.9042 -0.6582 -0.5000 52 230 112
0.9030 -0.6454 -0.4996 53 231 112
0.9013 -0.6325 -0.4983 54 231 112
0.8993 -0.6196 -0.4961 55 232 112
0.8969 -0.6066 -0.4930 56 233 112
0.8941 -0.5936 -0.4889 56 233 112
0.8911 -0.5806 -0.4839 57 234 112
0.8877 -0.5676 -0.4781 58 234 112
0.8841 -0.5546 -0.4713 59 235 112
0.8802 -0.5416 -0.4637 60 236 112
0.8760 -0.5287 -0.4552 61 236 112
0.8717 -0.5159 -0.4458 62 237 112
0.8672 -0.5032 -0.4357 63 237 112
0.8625 -0.4906 -0.4247 64 238 112
0.8577 -0.4781 -0.4129 65 238 112
0.8528 -0.4657 -0.4004 66 239 112
0.8477 -0.4536 -0.3871 67 239 112
0.8427 -0.4416 -0.3732 68 240 112
0.8376 -0.4297 -0.3585 69 240 112
0.8325 -0.4181 -0.3431 70 241 112
0.8274 -0.4067 -0.3271 71 241 112
0.8224 -0.3954 -0.3105 72 242 112
0.8175 -0.3844 -0.2934 73 242 112
0.8127 -0.3736 -0.2757 74 243 112
0.8080 -0.3631 -0.2574 75 243 112
0.8035 -0.3528 -0.2387 76 244 112
0.7991 -0.3427 -0.2196 77 244 112
0.7950 -0.3328 -0.2000 78 245 112
0.7911 -0.3232 -0.1801 79 245 112
0.7874 -0.3138 -0.1598 80 245 112
0.7840 -0.3046 -0.1393 81 246 112
0.7809 -0.2957 -0.1185 82 246 112
0.7782 -0.2870 -0.0974 83 247 112
0.7758 -0.2786 -0.0762 84 247 112
0.7737 -0.2703 -0.0548 85 247 112
0.7720 -0.2623 -0.0334 86 248 112
0.7707 -0.2545 -0.0118 87 248 112
0.7698 -0.2468 0.0097 88 248 112
0.7693 -0.2394 0.0312 89 249 112
0.7692 -0.2321 0.0527 90 249 112
0.7696 -0.2250 0.0741 91 249 112
0.7704 -0.2180 0.0953 92 250 112
0.7717 -0.2112 0.1164 93 250 112
0.7734 -0.2046 0.1372 94 250 112
0.7756 -0.1980 0.1578 95 251 112
0.7783 -0.1916 0.1781 97 251 112
0.7814 -0.1852 0.1980 98 251 112
0.7850 -0.1789 0.2176 99 251 112
0.7890 -0.1727 0.2368 100 252 112
0.7935 -0.1665 0.2556 101 252 112
0.7984 -0.1604 0.2739 102 252 112
0.8038 -0.1543 0.2916 103 252 112
0.8096 -0.1482 0.3088 104 252 112
0.8158 -0.1420 0.3255 105 253 112
0.8225 -0.1359 0.3416 106 253 112
0.8295 -0.1297 0.3570 107 253 112
0.8369 -0.1235 0.3717 108 253 112
0.8447 -0.1172 0.3858 109 253 112
0.8528 -0.1109 0.3991 111 253 112
0.8612 -0.1044 0.4117 112 254 112
0.8700 -0.0979 0.4236 113 254 112
0.8790 -0.0912 0.4346 114 254 112
0.8883 -0.0845 0.4449 115 254 112
0.8978 -0.0776 0.4543 116 254 112
0.9075 -0.0705 0.4629 117 254 112
0.9174 -0.0634 0.4706 118 254 112
0.9275 -0.0560 0.4774 119 254 112
0.9377 -0.0485 0.4834 120 254 112
0.9480 -0.0409 0.4884 122 254 112
0.9584 -0.0331 0.4926 123 254 112
0.9688 -0.0251 0.4958 124 254 112
0.9792 -0.0169 0.4981 125 254 112
0.9896 -0.0085 0.4995 126 254 112
