ply
format ascii 1.0
comment King Wen Hexagram #29 Hex_29 3D Point Cloud
element vertex 729
property float x
property float y
property float z
property uchar red
property uchar green
property uchar blue
end_header
1.0000 0.0000 0.5000 127 255 116
1.0103 0.0087 0.4993 128 254 116
1.0205 0.0176 0.4973 129 254 116
1.0306 0.0267 0.4940 130 254 116
1.0405 0.0359 0.4893 131 254 116
1.0502 0.0453 0.4834 132 254 116
1.0596 0.0548 0.4761 134 254 116
1.0689 0.0646 0.4676 135 254 116
1.0778 0.0744 0.4578 136 254 116
1.0865 0.0844 0.4468 137 254 116
1.0948 0.0946 0.4346 138 254 116
1.1028 0.1049 0.4213 139 254 116
1.1103 0.1152 0.4068 140 254 116
1.1175 0.1257 0.3912 141 254 116
1.1242 0.1363 0.3746 142 254 116
1.1305 0.1470 0.3570 143 253 116
1.1363 0.1577 0.3384 145 253 116
1.1417 0.1685 0.3189 146 253 116
1.1465 0.1793 0.2986 147 253 116
1.1508 0.1902 0.2774 148 253 116
1.1545 0.2010 0.2556 149 253 116
1.1577 0.2119 0.2330 150 252 116
1.1604 0.2227 0.2098 151 252 116
1.1624 0.2335 0.1861 152 252 116
1.1639 0.2442 0.1619 153 252 116
1.1648 0.2549 0.1372 154 252 116
1.1650 0.2655 0.1122 155 251 116
1.1647 0.2760 0.0868 156 251 116
1.1638 0.2864 0.0613 157 251 116
1.1622 0.2967 0.0355 159 251 116
1.1601 0.3068 0.0097 160 250 116
1.1573 0.3168 -0.0162 161 250 116
1.1540 0.3266 -0.0420 162 250 116
1.1500 0.3362 -0.0677 163 249 116
1.1455 0.3456 -0.0932 164 249 116
1.1404 0.3548 -0.1185 165 249 116
1.1347 0.3638 -0.1434 166 248 116
1.1285 0.3726 -0.1680 167 248 116
1.1217 0.3811 -0.1921 168 248 116
1.1144 0.3894 -0.2157 169 247 116
1.1065 0.3974 -0.2387 170 247 116
1.0982 0.4051 -0.2611 171 247 116
1.0894 0.4125 -0.2828 172 246 116
1.0802 0.4197 -0.3037 173 246 116
1.0705 0.4266 -0.3239 174 245 116
1.0604 0.4332 -0.3431 175 245 116
1.0499 0.4395 -0.3615 176 245 116
1.0390 0.4455 -0.3788 177 244 116
1.0278 0.4513 -0.3952 178 244 116
1.0163 0.4567 -0.4105 179 243 116
1.0045 0.4618 -0.4247 180 243 116
0.9924 0.4667 -0.4378 181 242 116
0.9800 0.4712 -0.4497 182 242 116
0.9675 0.4755 -0.4604 183 241 116
0.9548 0.4795 -0.4698 184 241 116
0.9419 0.4832 -0.4781 185 240 116
0.9288 0.4867 -0.4850 186 240 116
0.9157 0.4899 -0.4906 187 239 116
0.9025 0.4929 -0.4950 188 239 116
0.8893 0.4957 -0.4980 189 238 116
0.8760 0.4982 -0.4996 190 238 116
0.8627 0.5006 -0.5000 191 237 116
0.8495 0.5027 -0.4990 192 237 116
0.8363 0.5047 -0.4966 193 236 116
0.8232 0.5065 -0.4930 194 236 116
0.8102 0.5082 -0.4880 195 235 116
0.7973 0.5098 -0.4817 196 234 116
0.7846 0.5112 -0.4741 197 234 116
0.7721 0.5126 -0.4653 198 233 116
0.7598 0.5139 -0.4552 198 233 116
0.7476 0.5151 -0.4439 199 232 116
0.7358 0.5164 -0.4314 200 231 116
0.7241 0.5176 -0.4177 201 231 116
0.7128 0.5188 -0.4030 202 230 116
0.7017 0.5201 -0.3871 203 229 116
0.6910 0.5214 -0.3703 204 229 116
0.6805 0.5228 -0.3524 205 228 116
0.6704 0.5242 -0.3336 206 227 116
0.6606 0.5258 -0.3139 206 227 116
0.6512 0.5275 -0.2934 207 226 116
0.6421 0.5294 -0.2720 208 225 116
0.6334 0.5315 -0.2500 209 225 116
0.6250 0.5337 -0.2273 210 224 116
0.6170 0.5361 -0.2040 211 223 116
0.6094 0.5388 -0.1801 211 223 116
0.6021 0.5417 -0.1557 212 222 116
0.5953 0.5449 -0.1310 213 221 116
0.5888 0.5483 -0.1059 214 220 116
0.5826 0.5520 -0.0805 215 220 116
0.5768 0.5561 -0.0548 215 219 116
0.5714 0.5604 -0.0291 216 218 116
0.5663 0.5651 -0.0032 217 217 116
0.5615 0.5701 0.0226 218 216 116
0.5571 0.5754 0.0484 219 216 116
0.5530 0.5811 0.0741 219 215 116
0.5492 0.5872 0.0995 220 214 116
0.5457 0.5936 0.1247 221 213 116
0.5425 0.6004 0.1496 222 212 116
0.5395 0.6075 0.1740 222 212 116
0.5368 0.6151 0.1980 223 211 116
0.5343 0.6230 0.2215 224 210 116
0.5320 0.6312 0.2444 224 209 116
0.5299 0.6399 0.2666 225 208 116
0.5280 0.6489 0.2881 226 207 116
0.5262 0.6582 0.3088 227 207 116
0.5246 0.6679 0.3288 227 206 116
0.5231 0.6780 0.3478 228 205 116
0.5217 0.6883 0.3659 229 204 116
0.5204 0.6990 0.3830 229 203 116
0.5191 0.7100 0.3991 230 202 116
0.5179 0.7213 0.4142 231 201 116
0.5167 0.7328 0.4281 231 200 116
0.5155 0.7447 0.4409 232 200 116
0.5142 0.7567 0.4525 232 199 116
0.5129 0.7690 0.4629 233 198 116
0.5116 0.7815 0.4720 234 197 116
0.5101 0.7941 0.4799 234 196 116
0.5086 0.8070 0.4865 235 195 116
0.5070 0.8199 0.4918 235 194 116
0.5052 0.8330 0.4958 236 193 116
0.5032 0.8462 0.4985 237 192 116
0.5011 0.8594 0.4998 237 191 116
0.4988 0.8727 0.4998 238 190 116
0.4963 0.8859 0.4985 238 189 116
0.4936 0.8992 0.4958 239 188 116
0.4907 0.9124 0.4918 239 187 116
0.4875 0.9256 0.4865 240 186 116
0.4841 0.9386 0.4799 240 185 116
0.4805 0.9516 0.4720 241 184 116
0.4765 0.9643 0.4629 241 183 116
0.4723 0.9769 0.4525 242 182 116
0.4678 0.9893 0.4409 242 182 116
0.4631 1.0015 0.4281 243 181 116
0.4580 1.0134 0.4142 243 180 116
0.4526 1.0250 0.3991 244 179 116
0.4470 1.0363 0.3830 244 178 116
0.4411 1.0472 0.3659 245 176 116
0.4348 1.0578 0.3478 245 175 116
0.4283 1.0680 0.3288 245 174 116
0.4215 1.0778 0.3088 246 173 116
0.4144 1.0872 0.2881 246 172 116
0.4070 1.0961 0.2666 247 171 116
0.3993 1.1045 0.2444 247 170 116
0.3914 1.1125 0.2215 247 169 116
0.3832 1.1199 0.1980 248 168 116
0.3747 1.1268 0.1740 248 167 116
0.3660 1.1332 0.1496 248 166 116
0.3571 1.1390 0.1247 249 165 116
0.3480 1.1443 0.0995 249 164 116
0.3386 1.1489 0.0741 249 163 116
0.3290 1.1530 0.0484 250 162 116
0.3193 1.1565 0.0226 250 161 116
0.3093 1.1594 -0.0032 250 160 116
0.2992 1.1617 -0.0291 250 159 116
0.2890 1.1634 -0.0548 251 158 116
0.2786 1.1645 -0.0805 251 157 116
0.2682 1.1650 -0.1059 251 156 116
0.2576 1.1649 -0.1310 251 155 116
0.2469 1.1642 -0.1557 252 153 116
0.2362 1.1628 -0.1801 252 152 116
0.2254 1.1609 -0.2040 252 151 116
0.2146 1.1584 -0.2273 252 150 116
0.2037 1.1554 -0.2500 253 149 116
0.1929 1.1518 -0.2720 253 148 116
0.1820 1.1476 -0.2934 253 147 116
0.1712 1.1429 -0.3139 253 146 116
0.1604 1.1377 -0.3336 253 145 116
0.1497 1.1320 -0.3524 253 144 116
0.1390 1.1259 -0.3703 254 143 116
0.1284 1.1192 -0.3871 254 142 116
0.1179 1.1122 -0.4030 254 140 116
0.1075 1.1047 -0.4177 254 139 116
0.0972 1.0968 -0.4314 254 138 116
0.0870 1.0886 -0.4439 254 137 116
0.0769 1.0800 -0.4552 254 136 116
0.0670 1.0711 -0.4653 254 135 116
0.0573 1.0620 -0.4741 254 134 116
0.0477 1.0526 -0.4817 254 133 116
0.0382 1.0429 -0.4880 254 132 116
0.0289 1.0331 -0.4930 254 131 116
0.0198 1.0230 -0.4966 254 129 116
0.0109 1.0129 -0.4990 254 128 116
0.0022 1.0026 -0.5000 254 127 116
-0.0064 0.9922 -0.4996 254 126 116
-0.0148 0.9818 -0.4980 254 125 116
-0.0230 0.9714 -0.4950 254 124 116
-0.0311 0.9610 -0.4906 254 123 116
-0.0389 0.9506 -0.4850 254 122 116
-0.0466 0.9402 -0.4781 254 121 116
-0.0542 0.9300 -0.4698 254 120 116
-0.0615 0.9199 -0.4604 254 118 116
-0.0688 0.9100 -0.4497 254 117 116
-0.0758 0.9002 -0.4378 254 116 116
-0.0828 0.8906 -0.4247 254 115 116
-0.0896 0.8813 -0.4105 254 114 116
-0.0962 0.8722 -0.3952 254 113 116
-0.1028 0.8634 -0.3788 254 112 116
-0.1093 0.8549 -0.3615 253 111 116
-0.1156 0.8467 -0.3431 253 110 116
-0.1219 0.8388 -0.3239 253 109 116
-0.1282 0.8313 -0.3037 253 108 116
-0.1344 0.8242 -0.2828 253 106 116
-0.1405 0.8175 -0.2611 253 105 116
-0.1466 0.8111 -0.2387 252 104 116
-0.1527 0.8052 -0.2157 252 103 116
-0.1589 0.7997 -0.1921 252 102 116
-0.1650 0.7947 -0.1680 252 101 116
-0.1711 0.7901 -0.1434 252 100 116
-0.1773 0.7859 -0.1185 251 99 116
-0.1836 0.7822 -0.0932 251 98 116
-0.1900 0.7790 -0.0677 251 97 116
-0.1964 0.7762 -0.0420 251 96 116
-0.2029 0.7739 -0.0162 250 95 116
-0.2096 0.7721 0.0097 250 94 116
-0.2163 0.7707 0.0355 250 93 116
-0.2232 0.7698 0.0613 249 91 116
-0.2303 0.7693 0.0868 249 90 116
-0.2375 0.7693 0.1122 249 89 116
-0.2449 0.7696 0.1372 248 88 116
-0.2525 0.7704 0.1619 248 87 116
-0.2603 0.7716 0.1861 248 86 116
-0.2683 0.7732 0.2098 247 85 116
-0.2765 0.7752 0.2330 247 84 116
-0.2849 0.7775 0.2556 247 83 116
-0.2935 0.7802 0.2774 246 82 116
-0.3024 0.7832 0.2986 246 81 116
-0.3115 0.7865 0.3189 246 80 116
-0.3208 0.7901 0.3384 245 79 116
-0.3304 0.7940 0.3570 245 78 116
-0.3402 0.7980 0.3746 244 77 116
-0.3502 0.8023 0.3912 244 76 116
-0.3605 0.8068 0.4068 243 75 116
-0.3710 0.8115 0.4213 243 74 116
-0.3817 0.8163 0.4346 242 73 116
-0.3927 0.8212 0.4468 242 72 116
-0.4038 0.8262 0.4578 242 71 116
-0.4152 0.8312 0.4676 241 70 116
-0.4268 0.8363 0.4761 241 69 116
-0.4386 0.8414 0.4834 240 68 116
-0.4506 0.8465 0.4893 240 67 116
-0.4627 0.8515 0.4940 239 66 116
-0.4750 0.8565 0.4973 239 65 116
-0.4874 0.8613 0.4993 238 64 116
-0.5000 0.8660 0.5000 237 63 116
-0.5127 0.8706 0.4993 237 62 116
-0.5255 0.8750 0.4973 236 61 116
-0.5384 0.8792 0.4940 236 60 116
-0.5513 0.8831 0.4893 235 59 116
-0.5643 0.8868 0.4834 235 59 116
-0.5773 0.8903 0.4761 234 58 116
-0.5904 0.8934 0.4676 233 57 116
-0.6034 0.8962 0.4578 233 56 116
-0.6164 0.8987 0.4468 232 55 116
-0.6293 0.9008 0.4346 232 54 116
-0.6422 0.9026 0.4213 231 53 116
-0.6550 0.9040 0.4068 230 52 116
-0.6676 0.9049 0.3912 230 51 116
-0.6802 0.9055 0.3746 229 50 116
-0.6926 0.9056 0.3570 228 50 116
-0.7048 0.9053 0.3384 228 49 116
-0.7167 0.9045 0.3189 227 48 116
-0.7285 0.9032 0.2986 226 47 116
-0.7401 0.9015 0.2774 226 46 116
-0.7513 0.8993 0.2556 225 45 116
-0.7623 0.8967 0.2330 224 44 116
-0.7730 0.8935 0.2098 223 44 116
-0.7834 0.8899 0.1861 223 43 116
-0.7935 0.8858 0.1619 222 42 116
-0.8032 0.8812 0.1372 221 41 116
-0.8125 0.8762 0.1122 220 40 116
-0.8214 0.8706 0.0868 220 40 116
-0.8299 0.8646 0.0613 219 39 116
-0.8381 0.8582 0.0355 218 38 116
-0.8458 0.8512 0.0097 217 37 116
-0.8530 0.8439 -0.0162 217 36 116
-0.8598 0.8361 -0.0420 216 36 116
-0.8662 0.8278 -0.0677 215 35 116
-0.8721 0.8192 -0.0932 214 34 116
-0.8775 0.8102 -0.1185 213 33 116
-0.8824 0.8008 -0.1434 213 33 116
-0.8869 0.7910 -0.1680 212 32 116
-0.8909 0.7809 -0.1921 211 31 116
-0.8944 0.7704 -0.2157 210 30 116
-0.8974 0.7596 -0.2387 209 30 116
-0.8999 0.7486 -0.2611 209 29 116
-0.9020 0.7372 -0.2828 208 28 116
-0.9036 0.7256 -0.3037 207 28 116
-0.9047 0.7138 -0.3239 206 27 116
-0.9054 0.7017 -0.3431 205 26 116
-0.9056 0.6895 -0.3615 204 26 116
-0.9054 0.6771 -0.3788 203 25 116
-0.9047 0.6645 -0.3952 202 24 116
-0.9036 0.6518 -0.4105 202 24 116
-0.9022 0.6390 -0.4247 201 23 116
-0.9003 0.6261 -0.4378 200 22 116
-0.8981 0.6131 -0.4497 199 22 116
-0.8955 0.6001 -0.4604 198 21 116
-0.8926 0.5871 -0.4698 197 20 116
-0.8894 0.5741 -0.4781 196 20 116
-0.8859 0.5610 -0.4850 195 19 116
-0.8822 0.5481 -0.4906 194 19 116
-0.8781 0.5351 -0.4950 193 18 116
-0.8739 0.5223 -0.4980 192 18 116
-0.8695 0.5095 -0.4996 191 17 116
-0.8649 0.4968 -0.5000 191 16 116
-0.8601 0.4843 -0.4990 190 16 116
-0.8552 0.4719 -0.4966 189 15 116
-0.8503 0.4596 -0.4930 188 15 116
-0.8452 0.4475 -0.4880 187 14 116
-0.8401 0.4356 -0.4817 186 14 116
-0.8350 0.4239 -0.4741 185 13 116
-0.8300 0.4124 -0.4653 184 13 116
-0.8249 0.4010 -0.4552 183 12 116
-0.8200 0.3899 -0.4439 182 12 116
-0.8151 0.3790 -0.4314 181 11 116
-0.8103 0.3683 -0.4177 180 11 116
-0.8057 0.3579 -0.4030 179 10 116
-0.8013 0.3477 -0.3871 178 10 116
-0.7970 0.3377 -0.3703 177 10 116
-0.7930 0.3280 -0.3524 176 9 116
-0.7892 0.3185 -0.3336 175 9 116
-0.7857 0.3092 -0.3139 174 8 116
-0.7824 0.3002 -0.2934 173 8 116
-0.7795 0.2914 -0.2720 172 8 116
-0.7769 0.2828 -0.2500 171 7 116
-0.7747 0.2744 -0.2273 170 7 116
-0.7728 0.2663 -0.2040 169 6 116
-0.7713 0.2584 -0.1801 167 6 116
-0.7702 0.2506 -0.1557 166 6 116
-0.7695 0.2431 -0.1310 165 5 116
-0.7692 0.2357 -0.1059 164 5 116
-0.7694 0.2285 -0.0805 163 5 116
-0.7700 0.2215 -0.0548 162 4 116
-0.7710 0.2146 -0.0291 161 4 116
-0.7725 0.2079 -0.0032 160 4 116
-0.7745 0.2013 0.0226 159 4 116
-0.7769 0.1948 0.0484 158 3 116
-0.7798 0.1884 0.0741 157 3 116
-0.7831 0.1820 0.0995 156 3 116
-0.7869 0.1758 0.1247 155 3 116
-0.7912 0.1696 0.1496 154 2 116
-0.7959 0.1634 0.1740 153 2 116
-0.8011 0.1573 0.1980 152 2 116
-0.8066 0.1512 0.2215 150 2 116
-0.8127 0.1451 0.2444 149 1 116
-0.8191 0.1390 0.2666 148 1 116
-0.8259 0.1328 0.2881 147 1 116
-0.8331 0.1266 0.3088 146 1 116
-0.8407 0.1204 0.3288 145 1 116
-0.8487 0.1141 0.3478 144 1 116
-0.8570 0.1077 0.3659 143 0 116
-0.8656 0.1012 0.3830 142 0 116
-0.8744 0.0946 0.3991 141 0 116
-0.8836 0.0879 0.4142 140 0 116
-0.8930 0.0810 0.4281 139 0 116
-0.9026 0.0741 0.4409 137 0 116
-0.9124 0.0670 0.4525 136 0 116
-0.9224 0.0597 0.4629 135 0 116
-0.9326 0.0523 0.4720 134 0 116
-0.9428 0.0447 0.4799 133 0 116
-0.9532 0.0370 0.4865 132 0 116
-0.9636 0.0291 0.4918 131 0 116
-0.9740 0.0210 0.4958 130 0 116
-0.9844 0.0127 0.4985 129 0 116
-0.9948 0.0043 0.4998 128 0 116
-1.0052 -0.0043 0.4998 126 0 116
-1.0154 -0.0131 0.4985 125 0 116
-1.0255 -0.0221 0.4958 124 0 116
-1.0355 -0.0312 0.4918 123 0 116
-1.0453 -0.0406 0.4865 122 0 116
-1.0549 -0.0500 0.4799 121 0 116
-1.0643 -0.0597 0.4720 120 0 116
-1.0734 -0.0695 0.4629 119 0 116
-1.0822 -0.0794 0.4525 118 0 116
-1.0907 -0.0895 0.4409 117 0 116
-1.0988 -0.0997 0.4281 115 0 116
-1.1066 -0.1100 0.4142 114 0 116
-1.1140 -0.1205 0.3991 113 0 116
-1.1209 -0.1310 0.3830 112 0 116
-1.1274 -0.1416 0.3659 111 0 116
-1.1335 -0.1523 0.3478 110 1 116
-1.1391 -0.1631 0.3288 109 1 116
-1.1441 -0.1739 0.3088 108 1 116
-1.1487 -0.1847 0.2881 107 1 116
-1.1527 -0.1956 0.2666 106 1 116
-1.1562 -0.2064 0.2444 105 1 116
-1.1591 -0.2173 0.2215 104 2 116
-1.1615 -0.2281 0.1980 102 2 116
-1.1632 -0.2389 0.1740 101 2 116
-1.1644 -0.2496 0.1496 100 2 116
-1.1650 -0.2602 0.1247 99 3 116
-1.1649 -0.2708 0.0995 98 3 116
-1.1643 -0.2813 0.0741 97 3 116
-1.1631 -0.2916 0.0484 96 3 116
-1.1612 -0.3018 0.0226 95 4 116
-1.1588 -0.3118 -0.0032 94 4 116
-1.1557 -0.3217 -0.0291 93 4 116
-1.1521 -0.3314 -0.0548 92 4 116
-1.1478 -0.3409 -0.0805 91 5 116
-1.1430 -0.3503 -0.1059 90 5 116
-1.1376 -0.3594 -0.1310 89 5 116
-1.1316 -0.3682 -0.1557 88 6 116
-1.1251 -0.3769 -0.1801 87 6 116
-1.1181 -0.3853 -0.2040 85 6 116
-1.1105 -0.3934 -0.2273 84 7 116
-1.1025 -0.4013 -0.2500 83 7 116
-1.0939 -0.4089 -0.2720 82 8 116
-1.0849 -0.4162 -0.2934 81 8 116
-1.0754 -0.4232 -0.3139 80 8 116
-1.0655 -0.4300 -0.3336 79 9 116
-1.0552 -0.4364 -0.3524 78 9 116
-1.0445 -0.4426 -0.3703 77 10 116
-1.0335 -0.4484 -0.3871 76 10 116
-1.0221 -0.4540 -0.4030 75 10 116
-1.0104 -0.4593 -0.4177 74 11 116
-0.9985 -0.4643 -0.4314 73 11 116
-0.9862 -0.4690 -0.4439 72 12 116
-0.9738 -0.4734 -0.4552 71 12 116
-0.9611 -0.4775 -0.4653 70 13 116
-0.9483 -0.4814 -0.4741 69 13 116
-0.9354 -0.4850 -0.4817 68 14 116
-0.9223 -0.4884 -0.4880 67 14 116
-0.9091 -0.4915 -0.4930 66 15 116
-0.8959 -0.4943 -0.4966 65 15 116
-0.8826 -0.4970 -0.4990 64 16 116
-0.8693 -0.4994 -0.5000 63 16 116
-0.8561 -0.5017 -0.4996 63 17 116
-0.8429 -0.5037 -0.4980 62 18 116
-0.8297 -0.5056 -0.4950 61 18 116
-0.8167 -0.5074 -0.4906 60 19 116
-0.8037 -0.5090 -0.4850 59 19 116
-0.7910 -0.5105 -0.4781 58 20 116
-0.7783 -0.5119 -0.4698 57 20 116
-0.7659 -0.5133 -0.4604 56 21 116
-0.7537 -0.5145 -0.4497 55 22 116
-0.7417 -0.5158 -0.4378 54 22 116
-0.7299 -0.5170 -0.4247 53 23 116
-0.7184 -0.5182 -0.4105 52 24 116
-0.7072 -0.5194 -0.3952 52 24 116
-0.6963 -0.5207 -0.3788 51 25 116
-0.6857 -0.5221 -0.3615 50 26 116
-0.6754 -0.5235 -0.3431 49 26 116
-0.6655 -0.5250 -0.3239 48 27 116
-0.6558 -0.5267 -0.3037 47 28 116
-0.6466 -0.5285 -0.2828 46 28 116
-0.6377 -0.5304 -0.2611 45 29 116
-0.6291 -0.5325 -0.2387 45 30 116
-0.6210 -0.5349 -0.2157 44 30 116
-0.6132 -0.5374 -0.1921 43 31 116
-0.6057 -0.5402 -0.1680 42 32 116
-0.5987 -0.5433 -0.1434 41 33 116
-0.5920 -0.5466 -0.1185 41 33 116
-0.5856 -0.5501 -0.0932 40 34 116
-0.5797 -0.5540 -0.0677 39 35 116
-0.5741 -0.5582 -0.0420 38 36 116
-0.5688 -0.5627 -0.0162 37 36 116
-0.5639 -0.5675 0.0097 37 37 116
-0.5593 -0.5727 0.0355 36 38 116
-0.5550 -0.5782 0.0613 35 39 116
-0.5511 -0.5841 0.0868 34 40 116
-0.5474 -0.5903 0.1122 34 40 116
-0.5441 -0.5969 0.1372 33 41 116
-0.5410 -0.6039 0.1619 32 42 116
-0.5381 -0.6113 0.1861 31 43 116
-0.5355 -0.6190 0.2098 31 44 116
-0.5331 -0.6271 0.2330 30 44 116
-0.5309 -0.6355 0.2556 29 45 116
-0.5289 -0.6443 0.2774 28 46 116
-0.5271 -0.6535 0.2986 28 47 116
-0.5254 -0.6630 0.3189 27 48 116
-0.5239 -0.6729 0.3384 26 49 116
-0.5224 -0.6831 0.3570 26 50 116
-0.5210 -0.6936 0.3746 25 50 116
-0.5197 -0.7045 0.3912 24 51 116
-0.5185 -0.7156 0.4068 24 52 116
-0.5173 -0.7270 0.4213 23 53 116
-0.5161 -0.7387 0.4346 22 54 116
-0.5148 -0.7507 0.4468 22 55 116
-0.5136 -0.7628 0.4578 21 56 116
-0.5123 -0.7752 0.4676 21 57 116
-0.5109 -0.7878 0.4761 20 58 116
-0.5094 -0.8005 0.4834 19 59 116
-0.5078 -0.8134 0.4893 19 59 116
-0.5061 -0.8265 0.4940 18 60 116
-0.5042 -0.8396 0.4973 18 61 116
-0.5022 -0.8528 0.4993 17 62 116
-0.5000 -0.8660 0.5000 17 63 116
-0.4976 -0.8793 0.4993 16 64 116
-0.4950 -0.8926 0.4973 15 65 116
-0.4922 -0.9058 0.4940 15 66 116
-0.4892 -0.9190 0.4893 14 67 116
-0.4859 -0.9321 0.4834 14 68 116
-0.4823 -0.9451 0.4761 13 69 116
-0.4785 -0.9580 0.4676 13 70 116
-0.4745 -0.9706 0.4578 12 71 116
-0.4701 -0.9831 0.4468 12 72 116
-0.4655 -0.9954 0.4346 12 73 116
-0.4606 -1.0074 0.4213 11 74 116
-0.4554 -1.0192 0.4068 11 75 116
-0.4499 -1.0307 0.3912 10 76 116
-0.4441 -1.0418 0.3746 10 77 116
-0.4380 -1.0526 0.3570 9 78 116
-0.4316 -1.0630 0.3384 9 79 116
-0.4249 -1.0730 0.3189 8 80 116
-0.4180 -1.0825 0.2986 8 81 116
-0.4107 -1.0917 0.2774 8 82 116
-0.4032 -1.1004 0.2556 7 83 116
-0.3954 -1.1086 0.2330 7 84 116
-0.3873 -1.1162 0.2098 7 85 116
-0.3790 -1.1234 0.1861 6 86 116
-0.3704 -1.1301 0.1619 6 87 116
-0.3616 -1.1362 0.1372 6 88 116
-0.3526 -1.1417 0.1122 5 89 116
-0.3433 -1.1467 0.0868 5 90 116
-0.3338 -1.1511 0.0613 5 91 116
-0.3242 -1.1549 0.0355 4 93 116
-0.3143 -1.1581 0.0097 4 94 116
-0.3043 -1.1607 -0.0162 4 95 116
-0.2941 -1.1627 -0.0420 3 96 116
-0.2838 -1.1641 -0.0677 3 97 116
-0.2734 -1.1648 -0.0932 3 98 116
-0.2629 -1.1650 -0.1185 3 99 116
-0.2523 -1.1646 -0.1434 2 100 116
-0.2416 -1.1636 -0.1680 2 101 116
-0.2308 -1.1620 -0.1921 2 102 116
-0.2200 -1.1598 -0.2157 2 103 116
-0.2092 -1.1570 -0.2387 2 104 116
-0.1983 -1.1536 -0.2611 1 105 116
-0.1874 -1.1498 -0.2828 1 106 116
-0.1766 -1.1453 -0.3037 1 108 116
-0.1658 -1.1404 -0.3239 1 109 116
-0.1550 -1.1349 -0.3431 1 110 116
-0.1443 -1.1290 -0.3615 1 111 116
-0.1337 -1.1226 -0.3788 0 112 116
-0.1231 -1.1157 -0.3952 0 113 116
-0.1126 -1.1085 -0.4105 0 114 116
-0.1023 -1.1008 -0.4247 0 115 116
-0.0920 -1.0928 -0.4378 0 116 116
-0.0819 -1.0844 -0.4497 0 117 116
-0.0720 -1.0756 -0.4604 0 118 116
-0.0621 -1.0666 -0.4698 0 120 116
-0.0524 -1.0573 -0.4781 0 121 116
-0.0429 -1.0478 -0.4850 0 122 116
-0.0336 -1.0380 -0.4906 0 123 116
-0.0244 -1.0281 -0.4950 0 124 116
-0.0154 -1.0180 -0.4980 0 125 116
-0.0065 -1.0077 -0.4996 0 126 116
0.0021 -0.9974 -0.5000 0 127 116
0.0106 -0.9870 -0.4990 0 128 116
0.0189 -0.9766 -0.4966 0 129 116
0.0271 -0.9662 -0.4930 0 131 116
0.0350 -0.9558 -0.4880 0 132 116
0.0428 -0.9454 -0.4817 0 133 116
0.0504 -0.9351 -0.4741 0 134 116
0.0579 -0.9250 -0.4653 0 135 116
0.0652 -0.9149 -0.4552 0 136 116
0.0723 -0.9051 -0.4439 0 137 116
0.0793 -0.8954 -0.4314 0 138 116
0.0862 -0.8859 -0.4177 0 139 116
0.0929 -0.8767 -0.4030 0 140 116
0.0995 -0.8677 -0.3871 0 142 116
0.1060 -0.8591 -0.3703 0 143 116
0.1125 -0.8507 -0.3524 1 144 116
0.1188 -0.8427 -0.3336 1 145 116
0.1251 -0.8350 -0.3139 1 146 116
0.1313 -0.8277 -0.2934 1 147 116
0.1374 -0.8208 -0.2720 1 148 116
0.1436 -0.8142 -0.2500 1 149 116
0.1497 -0.8081 -0.2273 2 150 116
0.1558 -0.8024 -0.2040 2 151 116
0.1619 -0.7971 -0.1801 2 152 116
0.1681 -0.7923 -0.1557 2 153 116
0.1742 -0.7879 -0.1310 3 155 116
0.1805 -0.7840 -0.1059 3 156 116
0.1868 -0.7806 -0.0805 3 157 116
0.1932 -0.7776 -0.0548 3 158 116
0.1996 -0.7750 -0.0291 4 159 116
0.2062 -0.7730 -0.0032 4 160 116
0.2129 -0.7714 0.0226 4 161 116
0.2198 -0.7702 0.0484 4 162 116
0.2268 -0.7695 0.0741 5 163 116
0.2339 -0.7692 0.0995 5 164 116
0.2412 -0.7694 0.1247 5 165 116
0.2487 -0.7700 0.1496 6 166 116
0.2564 -0.7710 0.1740 6 167 116
0.2643 -0.7724 0.1980 6 168 116
0.2724 -0.7742 0.2215 7 169 116
0.2807 -0.7763 0.2444 7 170 116
0.2892 -0.7788 0.2666 7 171 116
0.2979 -0.7817 0.2881 8 172 116
0.3069 -0.7848 0.3088 8 173 116
0.3161 -0.7883 0.3288 9 174 116
0.3256 -0.7920 0.3478 9 175 116
0.3352 -0.7960 0.3659 9 176 116
0.3452 -0.8002 0.3830 10 178 116
0.3553 -0.8046 0.3991 10 179 116
0.3657 -0.8091 0.4142 11 180 116
0.3763 -0.8139 0.4281 11 181 116
0.3872 -0.8187 0.4409 12 182 116
0.3982 -0.8237 0.4525 12 182 116
0.4095 -0.8287 0.4629 13 183 116
0.4210 -0.8338 0.4720 13 184 116
0.4327 -0.8389 0.4799 14 185 116
0.4445 -0.8440 0.4865 14 186 116
0.4566 -0.8490 0.4918 15 187 116
0.4688 -0.8540 0.4958 15 188 116
0.4812 -0.8589 0.4985 16 189 116
0.4937 -0.8637 0.4998 16 190 116
0.5063 -0.8683 0.4998 17 191 116
0.5191 -0.8728 0.4985 17 192 116
0.5319 -0.8771 0.4958 18 193 116
0.5448 -0.8812 0.4918 19 194 116
0.5578 -0.8850 0.4865 19 195 116
0.5708 -0.8886 0.4799 20 196 116
0.5838 -0.8919 0.4720 20 197 116
0.5969 -0.8948 0.4629 21 198 116
0.6099 -0.8975 0.4525 22 199 116
0.6229 -0.8998 0.4409 22 200 116
0.6358 -0.9018 0.4281 23 200 116
0.6486 -0.9033 0.4142 23 201 116
0.6613 -0.9045 0.3991 24 202 116
0.6739 -0.9052 0.3830 25 203 116
0.6864 -0.9056 0.3659 25 204 116
0.6987 -0.9055 0.3478 26 205 116
0.7108 -0.9049 0.3288 27 206 116
0.7227 -0.9039 0.3088 27 207 116
0.7343 -0.9024 0.2881 28 207 116
0.7457 -0.9005 0.2666 29 208 116
0.7569 -0.8981 0.2444 30 209 116
0.7677 -0.8952 0.2215 30 210 116
0.7783 -0.8918 0.1980 31 211 116
0.7885 -0.8879 0.1740 32 212 116
0.7984 -0.8836 0.1496 32 212 116
0.8079 -0.8788 0.1247 33 213 116
0.8170 -0.8735 0.0995 34 214 116
0.8257 -0.8677 0.0741 35 215 116
0.8341 -0.8615 0.0484 35 216 116
0.8420 -0.8548 0.0226 36 216 116
0.8494 -0.8476 -0.0032 37 217 116
0.8565 -0.8400 -0.0291 38 218 116
0.8631 -0.8320 -0.0548 39 219 116
0.8692 -0.8236 -0.0805 39 220 116
0.8748 -0.8147 -0.1059 40 220 116
0.8800 -0.8055 -0.1310 41 221 116
0.8847 -0.7959 -0.1557 42 222 116
0.8889 -0.7860 -0.1801 43 223 116
0.8927 -0.7757 -0.2040 43 223 116
0.8959 -0.7650 -0.2273 44 224 116
0.8987 -0.7541 -0.2500 45 225 116
0.9010 -0.7429 -0.2720 46 225 116
0.9029 -0.7314 -0.2934 47 226 116
0.9042 -0.7197 -0.3139 48 227 116
0.9051 -0.7078 -0.3336 48 227 116
0.9055 -0.6956 -0.3524 49 228 116
0.9055 -0.6833 -0.3703 50 229 116
0.9051 -0.6708 -0.3871 51 229 116
0.9042 -0.6582 -0.4030 52 230 116
0.9030 -0.6454 -0.4177 53 231 116
0.9013 -0.6325 -0.4314 54 231 116
0.8993 -0.6196 -0.4439 55 232 116
0.8969 -0.6066 -0.4552 56 233 116
0.8941 -0.5936 -0.4653 56 233 116
0.8911 -0.5806 -0.4741 57 234 116
0.8877 -0.5676 -0.4817 58 234 116
0.8841 -0.5546 -0.4880 59 235 116
0.8802 -0.5416 -0.4930 60 236 116
0.8760 -0.5287 -0.4966 61 236 116
0.8717 -0.5159 -0.4990 62 237 116
0.8672 -0.5032 -0.5000 63 237 116
0.8625 -0.4906 -0.4996 64 238 116
0.8577 -0.4781 -0.4980 65 238 116
0.8528 -0.4657 -0.4950 66 239 116
0.8477 -0.4536 -0.4906 67 239 116
0.8427 -0.4416 -0.4850 68 240 116
0.8376 -0.4297 -0.4781 69 240 116
0.8325 -0.4181 -0.4698 70 241 116
0.8274 -0.4067 -0.4604 71 241 116
0.8224 -0.3954 -0.4497 72 242 116
0.8175 -0.3844 -0.4378 73 242 116
0.8127 -0.3736 -0.4247 74 243 116
0.8080 -0.3631 -0.4105 75 243 116
0.8035 -0.3528 -0.3952 76 244 116
0.7991 -0.3427 -0.3788 77 244 116
0.7950 -0.3328 -0.3615 78 245 116
0.7911 -0.3232 -0.3431 79 245 116
0.7874 -0.3138 -0.3239 80 245 116
0.7840 -0.3046 -0.3037 81 246 116
0.7809 -0.2957 -0.2828 82 246 116
0.7782 -0.2870 -0.2611 83 247 116
0.7758 -0.2786 -0.2387 84 247 116
0.7737 -0.2703 -0.2157 85 247 116
0.7720 -0.2623 -0.1921 86 248 116
0.7707 -0.2545 -0.1680 87 248 116
0.7698 -0.2468 -0.1434 88 248 116
0.7693 -0.2394 -0.1185 89 249 116
0.7692 -0.2321 -0.0932 90 249 116
0.7696 -0.2250 -0.0677 91 249 116
0.7704 -0.2180 -0.0420 92 250 116
0.7717 -0.2112 -0.0162 93 250 116
0.7734 -0.2046 0.0097 94 250 116
0.7756 -0.1980 0.0355 95 251 116
0.7783 -0.1916 0.0613 97 251 116
0.7814 -0.1852 0.0868 98 251 116
0.7850 -0.1789 0.1122 99 251 116
0.7890 -0.1727 0.1372 100 252 116
0.7935 -0.1665 0.1619 101 252 116
0.7984 -0.1604 0.1861 102 252 116
0.8038 -0.1543 0.2098 103 252 116
0.8096 -0.1482 0.2330 104 252 116
0.8158 -0.1420 0.2556 105 253 116
0.8225 -0.1359 0.2774 106 253 116
0.8295 -0.1297 0.2986 107 253 116
0.8369 -0.1235 0.3189 108 253 116
0.8447 -0.1172 0.3384 109 253 116
0.8528 -0.1109 0.3570 111 253 116
0.8612 -0.1044 0.3746 112 254 116
0.8700 -0.0979 0.3912 113 254 116
0.8790 -0.0912 0.4068 114 254 116
0.8883 -0.0845 0.4213 115 254 116
0.8978 -0.0776 0.4346 116 254 116
0.9075 -0.0705 0.4468 117 254 116
0.9174 -0.0634 0.4578 118 254 116
0.9275 -0.0560 0.4676 119 254 116
0.9377 -0.0485 0.4761 120 254 116
0.9480 -0.0409 0.4834 122 254 116
0.9584 -0.0331 0.4893 123 254 116
0.9688 -0.0251 0.4940 124 254 116
0.9792 -0.0169 0.4973 125 254 116
0.9896 -0.0085 0.4993 126 254 116
