ply
format ascii 1.0
comment King Wen Hexagram #46 Hex_46 3D Point Cloud
element vertex 729
property float x
property float y
property float z
property uchar red
property uchar green
property uchar blue
end_header
1.0000 0.0000 0.5000 127 255 184
1.0103 0.0087 0.4991 128 254 184
1.0205 0.0176 0.4964 129 254 184
1.0306 0.0267 0.4918 130 254 184
1.0405 0.0359 0.4855 131 254 184
1.0502 0.0453 0.4774 132 254 184
1.0596 0.0548 0.4676 134 254 184
1.0689 0.0646 0.4561 135 254 184
1.0778 0.0744 0.4429 136 254 184
1.0865 0.0844 0.4281 137 254 184
1.0948 0.0946 0.4117 138 254 184
1.1028 0.1049 0.3939 139 254 184
1.1103 0.1152 0.3746 140 254 184
1.1175 0.1257 0.3539 141 254 184
1.1242 0.1363 0.3320 142 254 184
1.1305 0.1470 0.3088 143 253 184
1.1363 0.1577 0.2846 145 253 184
1.1417 0.1685 0.2593 146 253 184
1.1465 0.1793 0.2330 147 253 184
1.1508 0.1902 0.2059 148 253 184
1.1545 0.2010 0.1781 149 253 184
1.1577 0.2119 0.1496 150 252 184
1.1604 0.2227 0.1205 151 252 184
1.1624 0.2335 0.0911 152 252 184
1.1639 0.2442 0.0613 153 252 184
1.1648 0.2549 0.0312 154 252 184
1.1650 0.2655 0.0011 155 251 184
1.1647 0.2760 -0.0291 156 251 184
1.1638 0.2864 -0.0591 157 251 184
1.1622 0.2967 -0.0889 159 251 184
1.1601 0.3068 -0.1185 160 250 184
1.1573 0.3168 -0.1475 161 250 184
1.1540 0.3266 -0.1761 162 250 184
1.1500 0.3362 -0.2040 163 249 184
1.1455 0.3456 -0.2311 164 249 184
1.1404 0.3548 -0.2574 165 249 184
1.1347 0.3638 -0.2828 166 248 184
1.1285 0.3726 -0.3072 167 248 184
1.1217 0.3811 -0.3304 168 248 184
1.1144 0.3894 -0.3524 169 247 184
1.1065 0.3974 -0.3732 170 247 184
1.0982 0.4051 -0.3925 171 247 184
1.0894 0.4125 -0.4105 172 246 184
1.0802 0.4197 -0.4270 173 246 184
1.0705 0.4266 -0.4419 174 245 184
1.0604 0.4332 -0.4552 175 245 184
1.0499 0.4395 -0.4668 176 245 184
1.0390 0.4455 -0.4768 177 244 184
1.0278 0.4513 -0.4850 178 244 184
1.0163 0.4567 -0.4914 179 243 184
1.0045 0.4618 -0.4961 180 243 184
0.9924 0.4667 -0.4990 181 242 184
0.9800 0.4712 -0.5000 182 242 184
0.9675 0.4755 -0.4992 183 241 184
0.9548 0.4795 -0.4966 184 241 184
0.9419 0.4832 -0.4922 185 240 184
0.9288 0.4867 -0.4860 186 240 184
0.9157 0.4899 -0.4781 187 239 184
0.9025 0.4929 -0.4684 188 239 184
0.8893 0.4957 -0.4569 189 238 184
0.8760 0.4982 -0.4439 190 238 184
0.8627 0.5006 -0.4292 191 237 184
0.8495 0.5027 -0.4129 192 237 184
0.8363 0.5047 -0.3952 193 236 184
0.8232 0.5065 -0.3760 194 236 184
0.8102 0.5082 -0.3555 195 235 184
0.7973 0.5098 -0.3336 196 234 184
0.7846 0.5112 -0.3105 197 234 184
0.7721 0.5126 -0.2863 198 233 184
0.7598 0.5139 -0.2611 198 233 184
0.7476 0.5151 -0.2349 199 232 184
0.7358 0.5164 -0.2079 200 231 184
0.7241 0.5176 -0.1801 201 231 184
0.7128 0.5188 -0.1516 202 230 184
0.7017 0.5201 -0.1226 203 229 184
0.6910 0.5214 -0.0932 204 229 184
0.6805 0.5228 -0.0634 205 228 184
0.6704 0.5242 -0.0334 206 227 184
0.6606 0.5258 -0.0032 206 227 184
0.6512 0.5275 0.0269 207 226 184
0.6421 0.5294 0.0570 208 225 184
0.6334 0.5315 0.0868 209 225 184
0.6250 0.5337 0.1164 210 224 184
0.6170 0.5361 0.1455 211 223 184
0.6094 0.5388 0.1740 211 223 184
0.6021 0.5417 0.2020 212 222 184
0.5953 0.5449 0.2292 213 221 184
0.5888 0.5483 0.2556 214 220 184
0.5826 0.5520 0.2810 215 220 184
0.5768 0.5561 0.3054 215 219 184
0.5714 0.5604 0.3288 216 218 184
0.5663 0.5651 0.3509 217 217 184
0.5615 0.5701 0.3717 218 216 184
0.5571 0.5754 0.3912 219 216 184
0.5530 0.5811 0.4093 219 215 184
0.5492 0.5872 0.4258 220 214 184
0.5457 0.5936 0.4409 221 213 184
0.5425 0.6004 0.4543 222 212 184
0.5395 0.6075 0.4661 222 212 184
0.5368 0.6151 0.4761 223 211 184
0.5343 0.6230 0.4845 224 210 184
0.5320 0.6312 0.4910 224 209 184
0.5299 0.6399 0.4958 225 208 184
0.5280 0.6489 0.4988 226 207 184
0.5262 0.6582 0.5000 227 207 184
0.5246 0.6679 0.4993 227 206 184
0.5231 0.6780 0.4969 228 205 184
0.5217 0.6883 0.4926 229 204 184
0.5204 0.6990 0.4865 229 203 184
0.5191 0.7100 0.4787 230 202 184
0.5179 0.7213 0.4691 231 201 184
0.5167 0.7328 0.4578 231 200 184
0.5155 0.7447 0.4449 232 200 184
0.5142 0.7567 0.4303 232 199 184
0.5129 0.7690 0.4142 233 198 184
0.5116 0.7815 0.3965 234 197 184
0.5101 0.7941 0.3774 234 196 184
0.5086 0.8070 0.3570 235 195 184
0.5070 0.8199 0.3352 235 194 184
0.5052 0.8330 0.3122 236 193 184
0.5032 0.8462 0.2881 237 192 184
0.5011 0.8594 0.2629 237 191 184
0.4988 0.8727 0.2368 238 190 184
0.4963 0.8859 0.2098 238 189 184
0.4936 0.8992 0.1821 239 188 184
0.4907 0.9124 0.1537 239 187 184
0.4875 0.9256 0.1247 240 186 184
0.4841 0.9386 0.0953 240 185 184
0.4805 0.9516 0.0655 241 184 184
0.4765 0.9643 0.0355 241 183 184
0.4723 0.9769 0.0054 242 182 184
0.4678 0.9893 -0.0248 242 182 184
0.4631 1.0015 -0.0548 243 181 184
0.4580 1.0134 -0.0847 243 180 184
0.4526 1.0250 -0.1143 244 179 184
0.4470 1.0363 -0.1434 244 178 184
0.4411 1.0472 -0.1720 245 176 184
0.4348 1.0578 -0.2000 245 175 184
0.4283 1.0680 -0.2273 245 174 184
0.4215 1.0778 -0.2537 246 173 184
0.4144 1.0872 -0.2792 246 172 184
0.4070 1.0961 -0.3037 247 171 184
0.3993 1.1045 -0.3271 247 170 184
0.3914 1.1125 -0.3493 247 169 184
0.3832 1.1199 -0.3703 248 168 184
0.3747 1.1268 -0.3899 248 167 184
0.3660 1.1332 -0.4080 248 166 184
0.3571 1.1390 -0.4247 249 165 184
0.3480 1.1443 -0.4398 249 164 184
0.3386 1.1489 -0.4534 249 163 184
0.3290 1.1530 -0.4653 250 162 184
0.3193 1.1565 -0.4755 250 161 184
0.3093 1.1594 -0.4839 250 160 184
0.2992 1.1617 -0.4906 250 159 184
0.2890 1.1634 -0.4955 251 158 184
0.2786 1.1645 -0.4987 251 157 184
0.2682 1.1650 -0.5000 251 156 184
0.2576 1.1649 -0.4994 251 155 184
0.2469 1.1642 -0.4971 252 153 184
0.2362 1.1628 -0.4930 252 152 184
0.2254 1.1609 -0.4870 252 151 184
0.2146 1.1584 -0.4793 252 150 184
0.2037 1.1554 -0.4698 253 149 184
0.1929 1.1518 -0.4587 253 148 184
0.1820 1.1476 -0.4458 253 147 184
0.1712 1.1429 -0.4314 253 146 184
0.1604 1.1377 -0.4154 253 145 184
0.1497 1.1320 -0.3978 253 144 184
0.1390 1.1259 -0.3788 254 143 184
0.1284 1.1192 -0.3585 254 142 184
0.1179 1.1122 -0.3368 254 140 184
0.1075 1.1047 -0.3139 254 139 184
0.0972 1.0968 -0.2899 254 138 184
0.0870 1.0886 -0.2648 254 137 184
0.0769 1.0800 -0.2387 254 136 184
0.0670 1.0711 -0.2118 254 135 184
0.0573 1.0620 -0.1841 254 134 184
0.0477 1.0526 -0.1557 254 133 184
0.0382 1.0429 -0.1268 254 132 184
0.0289 1.0331 -0.0974 254 131 184
0.0198 1.0230 -0.0677 254 129 184
0.0109 1.0129 -0.0377 254 128 184
0.0022 1.0026 -0.0075 254 127 184
-0.0064 0.9922 0.0226 254 126 184
-0.0148 0.9818 0.0527 254 125 184
-0.0230 0.9714 0.0826 254 124 184
-0.0311 0.9610 0.1122 254 123 184
-0.0389 0.9506 0.1413 254 122 184
-0.0466 0.9402 0.1700 254 121 184
-0.0542 0.9300 0.1980 254 120 184
-0.0615 0.9199 0.2254 254 118 184
-0.0688 0.9100 0.2519 254 117 184
-0.0758 0.9002 0.2774 254 116 184
-0.0828 0.8906 0.3020 254 115 184
-0.0896 0.8813 0.3255 254 114 184
-0.0962 0.8722 0.3478 254 113 184
-0.1028 0.8634 0.3688 254 112 184
-0.1093 0.8549 0.3885 253 111 184
-0.1156 0.8467 0.4068 253 110 184
-0.1219 0.8388 0.4236 253 109 184
-0.1282 0.8313 0.4388 253 108 184
-0.1344 0.8242 0.4525 253 106 184
-0.1405 0.8175 0.4645 253 105 184
-0.1466 0.8111 0.4748 252 104 184
-0.1527 0.8052 0.4834 252 103 184
-0.1589 0.7997 0.4902 252 102 184
-0.1650 0.7947 0.4953 252 101 184
-0.1711 0.7901 0.4985 252 100 184
-0.1773 0.7859 0.4999 251 99 184
-0.1836 0.7822 0.4995 251 98 184
-0.1900 0.7790 0.4973 251 97 184
-0.1964 0.7762 0.4933 251 96 184
-0.2029 0.7739 0.4875 250 95 184
-0.2096 0.7721 0.4799 250 94 184
-0.2163 0.7707 0.4706 250 93 184
-0.2232 0.7698 0.4595 249 91 184
-0.2303 0.7693 0.4468 249 90 184
-0.2375 0.7693 0.4325 249 89 184
-0.2449 0.7696 0.4166 248 88 184
-0.2525 0.7704 0.3991 248 87 184
-0.2603 0.7716 0.3802 248 86 184
-0.2683 0.7732 0.3600 247 85 184
-0.2765 0.7752 0.3384 247 84 184
-0.2849 0.7775 0.3156 247 83 184
-0.2935 0.7802 0.2916 246 82 184
-0.3024 0.7832 0.2666 246 81 184
-0.3115 0.7865 0.2406 246 80 184
-0.3208 0.7901 0.2137 245 79 184
-0.3304 0.7940 0.1861 245 78 184
-0.3402 0.7980 0.1578 244 77 184
-0.3502 0.8023 0.1289 244 76 184
-0.3605 0.8068 0.0995 243 75 184
-0.3710 0.8115 0.0698 243 74 184
-0.3817 0.8163 0.0398 242 73 184
-0.3927 0.8212 0.0097 242 72 184
-0.4038 0.8262 -0.0205 242 71 184
-0.4152 0.8312 -0.0505 241 70 184
-0.4268 0.8363 -0.0805 241 69 184
-0.4386 0.8414 -0.1101 240 68 184
-0.4506 0.8465 -0.1393 240 67 184
-0.4627 0.8515 -0.1680 239 66 184
-0.4750 0.8565 -0.1961 239 65 184
-0.4874 0.8613 -0.2234 238 64 184
-0.5000 0.8660 -0.2500 237 63 184
-0.5127 0.8706 -0.2757 237 62 184
-0.5255 0.8750 -0.3003 236 61 184
-0.5384 0.8792 -0.3239 236 60 184
-0.5513 0.8831 -0.3462 235 59 184
-0.5643 0.8868 -0.3674 235 59 184
-0.5773 0.8903 -0.3871 234 58 184
-0.5904 0.8934 -0.4055 233 57 184
-0.6034 0.8962 -0.4224 233 56 184
-0.6164 0.8987 -0.4378 232 55 184
-0.6293 0.9008 -0.4515 232 54 184
-0.6422 0.9026 -0.4637 231 53 184
-0.6550 0.9040 -0.4741 230 52 184
-0.6676 0.9049 -0.4828 230 51 184
-0.6802 0.9055 -0.4898 229 50 184
-0.6926 0.9056 -0.4950 228 50 184
-0.7048 0.9053 -0.4983 228 49 184
-0.7167 0.9045 -0.4999 227 48 184
-0.7285 0.9032 -0.4996 226 47 184
-0.7401 0.9015 -0.4975 226 46 184
-0.7513 0.8993 -0.4937 225 45 184
-0.7623 0.8967 -0.4880 224 44 184
-0.7730 0.8935 -0.4805 223 44 184
-0.7834 0.8899 -0.4713 223 43 184
-0.7935 0.8858 -0.4604 222 42 184
-0.8032 0.8812 -0.4478 221 41 184
-0.8125 0.8762 -0.4336 220 40 184
-0.8214 0.8706 -0.4177 220 40 184
-0.8299 0.8646 -0.4004 219 39 184
-0.8381 0.8582 -0.3816 218 38 184
-0.8458 0.8512 -0.3615 217 37 184
-0.8530 0.8439 -0.3400 217 36 184
-0.8598 0.8361 -0.3172 216 36 184
-0.8662 0.8278 -0.2934 215 35 184
-0.8721 0.8192 -0.2684 214 34 184
-0.8775 0.8102 -0.2425 213 33 184
-0.8824 0.8008 -0.2157 213 33 184
-0.8869 0.7910 -0.1881 212 32 184
-0.8909 0.7809 -0.1598 211 31 184
-0.8944 0.7704 -0.1310 210 30 184
-0.8974 0.7596 -0.1016 209 30 184
-0.8999 0.7486 -0.0719 209 29 184
-0.9020 0.7372 -0.0420 208 28 184
-0.9036 0.7256 -0.0118 207 28 184
-0.9047 0.7138 0.0183 206 27 184
-0.9054 0.7017 0.0484 205 26 184
-0.9056 0.6895 0.0783 204 26 184
-0.9054 0.6771 0.1080 203 25 184
-0.9047 0.6645 0.1372 202 24 184
-0.9036 0.6518 0.1659 202 24 184
-0.9022 0.6390 0.1941 201 23 184
-0.9003 0.6261 0.2215 200 22 184
-0.8981 0.6131 0.2481 199 22 184
-0.8955 0.6001 0.2739 198 21 184
-0.8926 0.5871 0.2986 197 20 184
-0.8894 0.5741 0.3222 196 20 184
-0.8859 0.5610 0.3447 195 19 184
-0.8822 0.5481 0.3659 194 19 184
-0.8781 0.5351 0.3858 193 18 184
-0.8739 0.5223 0.4043 192 18 184
-0.8695 0.5095 0.4213 191 17 184
-0.8649 0.4968 0.4367 191 16 184
-0.8601 0.4843 0.4506 190 16 184
-0.8552 0.4719 0.4629 189 15 184
-0.8503 0.4596 0.4734 188 15 184
-0.8452 0.4475 0.4823 187 14 184
-0.8401 0.4356 0.4893 186 14 184
-0.8350 0.4239 0.4946 185 13 184
-0.8300 0.4124 0.4981 184 13 184
-0.8249 0.4010 0.4998 183 12 184
-0.8200 0.3899 0.4997 182 12 184
-0.8151 0.3790 0.4978 181 11 184
-0.8103 0.3683 0.4940 180 11 184
-0.8057 0.3579 0.4884 179 10 184
-0.8013 0.3477 0.4811 178 10 184
-0.7970 0.3377 0.4720 177 10 184
-0.7930 0.3280 0.4612 176 9 184
-0.7892 0.3185 0.4487 175 9 184
-0.7857 0.3092 0.4346 174 8 184
-0.7824 0.3002 0.4189 173 8 184
-0.7795 0.2914 0.4017 172 8 184
-0.7769 0.2828 0.3830 171 7 184
-0.7747 0.2744 0.3629 170 7 184
-0.7728 0.2663 0.3416 169 6 184
-0.7713 0.2584 0.3189 167 6 184
-0.7702 0.2506 0.2951 166 6 184
-0.7695 0.2431 0.2702 165 5 184
-0.7692 0.2357 0.2444 164 5 184
-0.7694 0.2285 0.2176 163 5 184
-0.7700 0.2215 0.1901 162 4 184
-0.7710 0.2146 0.1619 161 4 184
-0.7725 0.2079 0.1330 160 4 184
-0.7745 0.2013 0.1037 159 4 184
-0.7769 0.1948 0.0741 158 3 184
-0.7798 0.1884 0.0441 157 3 184
-0.7831 0.1820 0.0140 156 3 184
-0.7869 0.1758 -0.0162 155 3 184
-0.7912 0.1696 -0.0463 154 2 184
-0.7959 0.1634 -0.0762 153 2 184
-0.8011 0.1573 -0.1059 152 2 184
-0.8066 0.1512 -0.1351 150 2 184
-0.8127 0.1451 -0.1639 149 1 184
-0.8191 0.1390 -0.1921 148 1 184
-0.8259 0.1328 -0.2196 147 1 184
-0.8331 0.1266 -0.2463 146 1 184
-0.8407 0.1204 -0.2720 145 1 184
-0.8487 0.1141 -0.2968 144 1 184
-0.8570 0.1077 -0.3206 143 0 184
-0.8656 0.1012 -0.3431 142 0 184
-0.8744 0.0946 -0.3644 141 0 184
-0.8836 0.0879 -0.3844 140 0 184
-0.8930 0.0810 -0.4030 139 0 184
-0.9026 0.0741 -0.4201 137 0 184
-0.9124 0.0670 -0.4357 136 0 184
-0.9224 0.0597 -0.4497 135 0 184
-0.9326 0.0523 -0.4620 134 0 184
-0.9428 0.0447 -0.4727 133 0 184
-0.9532 0.0370 -0.4817 132 0 184
-0.9636 0.0291 -0.4889 131 0 184
-0.9740 0.0210 -0.4943 130 0 184
-0.9844 0.0127 -0.4980 129 0 184
-0.9948 0.0043 -0.4998 128 0 184
-1.0052 -0.0043 -0.4998 126 0 184
-1.0154 -0.0131 -0.4980 125 0 184
-1.0255 -0.0221 -0.4943 124 0 184
-1.0355 -0.0312 -0.4889 123 0 184
-1.0453 -0.0406 -0.4817 122 0 184
-1.0549 -0.0500 -0.4727 121 0 184
-1.0643 -0.0597 -0.4620 120 0 184
-1.0734 -0.0695 -0.4497 119 0 184
-1.0822 -0.0794 -0.4357 118 0 184
-1.0907 -0.0895 -0.4201 117 0 184
-1.0988 -0.0997 -0.4030 115 0 184
-1.1066 -0.1100 -0.3844 114 0 184
-1.1140 -0.1205 -0.3644 113 0 184
-1.1209 -0.1310 -0.3431 112 0 184
-1.1274 -0.1416 -0.3206 111 0 184
-1.1335 -0.1523 -0.2968 110 1 184
-1.1391 -0.1631 -0.2720 109 1 184
-1.1441 -0.1739 -0.2463 108 1 184
-1.1487 -0.1847 -0.2196 107 1 184
-1.1527 -0.1956 -0.1921 106 1 184
-1.1562 -0.2064 -0.1639 105 1 184
-1.1591 -0.2173 -0.1351 104 2 184
-1.1615 -0.2281 -0.1059 102 2 184
-1.1632 -0.2389 -0.0762 101 2 184
-1.1644 -0.2496 -0.0463 100 2 184
-1.1650 -0.2602 -0.0162 99 3 184
-1.1649 -0.2708 0.0140 98 3 184
-1.1643 -0.2813 0.0441 97 3 184
-1.1631 -0.2916 0.0741 96 3 184
-1.1612 -0.3018 0.1037 95 4 184
-1.1588 -0.3118 0.1330 94 4 184
-1.1557 -0.3217 0.1619 93 4 184
-1.1521 -0.3314 0.1901 92 4 184
-1.1478 -0.3409 0.2176 91 5 184
-1.1430 -0.3503 0.2444 90 5 184
-1.1376 -0.3594 0.2702 89 5 184
-1.1316 -0.3682 0.2951 88 6 184
-1.1251 -0.3769 0.3189 87 6 184
-1.1181 -0.3853 0.3416 85 6 184
-1.1105 -0.3934 0.3629 84 7 184
-1.1025 -0.4013 0.3830 83 7 184
-1.0939 -0.4089 0.4017 82 8 184
-1.0849 -0.4162 0.4189 81 8 184
-1.0754 -0.4232 0.4346 80 8 184
-1.0655 -0.4300 0.4487 79 9 184
-1.0552 -0.4364 0.4612 78 9 184
-1.0445 -0.4426 0.4720 77 10 184
-1.0335 -0.4484 0.4811 76 10 184
-1.0221 -0.4540 0.4884 75 10 184
-1.0104 -0.4593 0.4940 74 11 184
-0.9985 -0.4643 0.4978 73 11 184
-0.9862 -0.4690 0.4997 72 12 184
-0.9738 -0.4734 0.4998 71 12 184
-0.9611 -0.4775 0.4981 70 13 184
-0.9483 -0.4814 0.4946 69 13 184
-0.9354 -0.4850 0.4893 68 14 184
-0.9223 -0.4884 0.4823 67 14 184
-0.9091 -0.4915 0.4734 66 15 184
-0.8959 -0.4943 0.4629 65 15 184
-0.8826 -0.4970 0.4506 64 16 184
-0.8693 -0.4994 0.4367 63 16 184
-0.8561 -0.5017 0.4213 63 17 184
-0.8429 -0.5037 0.4043 62 18 184
-0.8297 -0.5056 0.3858 61 18 184
-0.8167 -0.5074 0.3659 60 19 184
-0.8037 -0.5090 0.3447 59 19 184
-0.7910 -0.5105 0.3222 58 20 184
-0.7783 -0.5119 0.2986 57 20 184
-0.7659 -0.5133 0.2739 56 21 184
-0.7537 -0.5145 0.2481 55 22 184
-0.7417 -0.5158 0.2215 54 22 184
-0.7299 -0.5170 0.1941 53 23 184
-0.7184 -0.5182 0.1659 52 24 184
-0.7072 -0.5194 0.1372 52 24 184
-0.6963 -0.5207 0.1080 51 25 184
-0.6857 -0.5221 0.0783 50 26 184
-0.6754 -0.5235 0.0484 49 26 184
-0.6655 -0.5250 0.0183 48 27 184
-0.6558 -0.5267 -0.0118 47 28 184
-0.6466 -0.5285 -0.0420 46 28 184
-0.6377 -0.5304 -0.0719 45 29 184
-0.6291 -0.5325 -0.1016 45 30 184
-0.6210 -0.5349 -0.1310 44 30 184
-0.6132 -0.5374 -0.1598 43 31 184
-0.6057 -0.5402 -0.1881 42 32 184
-0.5987 -0.5433 -0.2157 41 33 184
-0.5920 -0.5466 -0.2425 41 33 184
-0.5856 -0.5501 -0.2684 40 34 184
-0.5797 -0.5540 -0.2934 39 35 184
-0.5741 -0.5582 -0.3172 38 36 184
-0.5688 -0.5627 -0.3400 37 36 184
-0.5639 -0.5675 -0.3615 37 37 184
-0.5593 -0.5727 -0.3816 36 38 184
-0.5550 -0.5782 -0.4004 35 39 184
-0.5511 -0.5841 -0.4177 34 40 184
-0.5474 -0.5903 -0.4336 34 40 184
-0.5441 -0.5969 -0.4478 33 41 184
-0.5410 -0.6039 -0.4604 32 42 184
-0.5381 -0.6113 -0.4713 31 43 184
-0.5355 -0.6190 -0.4805 31 44 184
-0.5331 -0.6271 -0.4880 30 44 184
-0.5309 -0.6355 -0.4937 29 45 184
-0.5289 -0.6443 -0.4975 28 46 184
-0.5271 -0.6535 -0.4996 28 47 184
-0.5254 -0.6630 -0.4999 27 48 184
-0.5239 -0.6729 -0.4983 26 49 184
-0.5224 -0.6831 -0.4950 26 50 184
-0.5210 -0.6936 -0.4898 25 50 184
-0.5197 -0.7045 -0.4828 24 51 184
-0.5185 -0.7156 -0.4741 24 52 184
-0.5173 -0.7270 -0.4637 23 53 184
-0.5161 -0.7387 -0.4515 22 54 184
-0.5148 -0.7507 -0.4378 22 55 184
-0.5136 -0.7628 -0.4224 21 56 184
-0.5123 -0.7752 -0.4055 21 57 184
-0.5109 -0.7878 -0.3871 20 58 184
-0.5094 -0.8005 -0.3674 19 59 184
-0.5078 -0.8134 -0.3462 19 59 184
-0.5061 -0.8265 -0.3239 18 60 184
-0.5042 -0.8396 -0.3003 18 61 184
-0.5022 -0.8528 -0.2757 17 62 184
-0.5000 -0.8660 -0.2500 17 63 184
-0.4976 -0.8793 -0.2234 16 64 184
-0.4950 -0.8926 -0.1961 15 65 184
-0.4922 -0.9058 -0.1680 15 66 184
-0.4892 -0.9190 -0.1393 14 67 184
-0.4859 -0.9321 -0.1101 14 68 184
-0.4823 -0.9451 -0.0805 13 69 184
-0.4785 -0.9580 -0.0505 13 70 184
-0.4745 -0.9706 -0.0205 12 71 184
-0.4701 -0.9831 0.0097 12 72 184
-0.4655 -0.9954 0.0398 12 73 184
-0.4606 -1.0074 0.0698 11 74 184
-0.4554 -1.0192 0.0995 11 75 184
-0.4499 -1.0307 0.1289 10 76 184
-0.4441 -1.0418 0.1578 10 77 184
-0.4380 -1.0526 0.1861 9 78 184
-0.4316 -1.0630 0.2137 9 79 184
-0.4249 -1.0730 0.2406 8 80 184
-0.4180 -1.0825 0.2666 8 81 184
-0.4107 -1.0917 0.2916 8 82 184
-0.4032 -1.1004 0.3156 7 83 184
-0.3954 -1.1086 0.3384 7 84 184
-0.3873 -1.1162 0.3600 7 85 184
-0.3790 -1.1234 0.3802 6 86 184
-0.3704 -1.1301 0.3991 6 87 184
-0.3616 -1.1362 0.4166 6 88 184
-0.3526 -1.1417 0.4325 5 89 184
-0.3433 -1.1467 0.4468 5 90 184
-0.3338 -1.1511 0.4595 5 91 184
-0.3242 -1.1549 0.4706 4 93 184
-0.3143 -1.1581 0.4799 4 94 184
-0.3043 -1.1607 0.4875 4 95 184
-0.2941 -1.1627 0.4933 3 96 184
-0.2838 -1.1641 0.4973 3 97 184
-0.2734 -1.1648 0.4995 3 98 184
-0.2629 -1.1650 0.4999 3 99 184
-0.2523 -1.1646 0.4985 2 100 184
-0.2416 -1.1636 0.4953 2 101 184
-0.2308 -1.1620 0.4902 2 102 184
-0.2200 -1.1598 0.4834 2 103 184
-0.2092 -1.1570 0.4748 2 104 184
-0.1983 -1.1536 0.4645 1 105 184
-0.1874 -1.1498 0.4525 1 106 184
-0.1766 -1.1453 0.4388 1 108 184
-0.1658 -1.1404 0.4236 1 109 184
-0.1550 -1.1349 0.4068 1 110 184
-0.1443 -1.1290 0.3885 1 111 184
-0.1337 -1.1226 0.3688 0 112 184
-0.1231 -1.1157 0.3478 0 113 184
-0.1126 -1.1085 0.3255 0 114 184
-0.1023 -1.1008 0.3020 0 115 184
-0.0920 -1.0928 0.2774 0 116 184
-0.0819 -1.0844 0.2519 0 117 184
-0.0720 -1.0756 0.2254 0 118 184
-0.0621 -1.0666 0.1980 0 120 184
-0.0524 -1.0573 0.1700 0 121 184
-0.0429 -1.0478 0.1413 0 122 184
-0.0336 -1.0380 0.1122 0 123 184
-0.0244 -1.0281 0.0826 0 124 184
-0.0154 -1.0180 0.0527 0 125 184
-0.0065 -1.0077 0.0226 0 126 184
0.0021 -0.9974 -0.0075 0 127 184
0.0106 -0.9870 -0.0377 0 128 184
0.0189 -0.9766 -0.0677 0 129 184
0.0271 -0.9662 -0.0974 0 131 184
0.0350 -0.9558 -0.1268 0 132 184
0.0428 -0.9454 -0.1557 0 133 184
0.0504 -0.9351 -0.1841 0 134 184
0.0579 -0.9250 -0.2118 0 135 184
0.0652 -0.9149 -0.2387 0 136 184
0.0723 -0.9051 -0.2648 0 137 184
0.0793 -0.8954 -0.2899 0 138 184
0.0862 -0.8859 -0.3139 0 139 184
0.0929 -0.8767 -0.3368 0 140 184
0.0995 -0.8677 -0.3585 0 142 184
0.1060 -0.8591 -0.3788 0 143 184
0.1125 -0.8507 -0.3978 1 144 184
0.1188 -0.8427 -0.4154 1 145 184
0.1251 -0.8350 -0.4314 1 146 184
0.1313 -0.8277 -0.4458 1 147 184
0.1374 -0.8208 -0.4587 1 148 184
0.1436 -0.8142 -0.4698 1 149 184
0.1497 -0.8081 -0.4793 2 150 184
0.1558 -0.8024 -0.4870 2 151 184
0.1619 -0.7971 -0.4930 2 152 184
0.1681 -0.7923 -0.4971 2 153 184
0.1742 -0.7879 -0.4994 3 155 184
0.1805 -0.7840 -0.5000 3 156 184
0.1868 -0.7806 -0.4987 3 157 184
0.1932 -0.7776 -0.4955 3 158 184
0.1996 -0.7750 -0.4906 4 159 184
0.2062 -0.7730 -0.4839 4 160 184
0.2129 -0.7714 -0.4755 4 161 184
0.2198 -0.7702 -0.4653 4 162 184
0.2268 -0.7695 -0.4534 5 163 184
0.2339 -0.7692 -0.4398 5 164 184
0.2412 -0.7694 -0.4247 5 165 184
0.2487 -0.7700 -0.4080 6 166 184
0.2564 -0.7710 -0.3899 6 167 184
0.2643 -0.7724 -0.3703 6 168 184
0.2724 -0.7742 -0.3493 7 169 184
0.2807 -0.7763 -0.3271 7 170 184
0.2892 -0.7788 -0.3037 7 171 184
0.2979 -0.7817 -0.2792 8 172 184
0.3069 -0.7848 -0.2537 8 173 184
0.3161 -0.7883 -0.2273 9 174 184
0.3256 -0.7920 -0.2000 9 175 184
0.3352 -0.7960 -0.1720 9 176 184
0.3452 -0.8002 -0.1434 10 178 184
0.3553 -0.8046 -0.1143 10 179 184
0.3657 -0.8091 -0.0847 11 180 184
0.3763 -0.8139 -0.0548 11 181 184
0.3872 -0.8187 -0.0248 12 182 184
0.3982 -0.8237 0.0054 12 182 184
0.4095 -0.8287 0.0355 13 183 184
0.4210 -0.8338 0.0655 13 184 184
0.4327 -0.8389 0.0953 14 185 184
0.4445 -0.8440 0.1247 14 186 184
0.4566 -0.8490 0.1537 15 187 184
0.4688 -0.8540 0.1821 15 188 184
0.4812 -0.8589 0.2098 16 189 184
0.4937 -0.8637 0.2368 16 190 184
0.5063 -0.8683 0.2629 17 191 184
0.5191 -0.8728 0.2881 17 192 184
0.5319 -0.8771 0.3122 18 193 184
0.5448 -0.8812 0.3352 19 194 184
0.5578 -0.8850 0.3570 19 195 184
0.5708 -0.8886 0.3774 20 196 184
0.5838 -0.8919 0.3965 20 197 184
0.5969 -0.8948 0.4142 21 198 184
0.6099 -0.8975 0.4303 22 199 184
0.6229 -0.8998 0.4449 22 200 184
0.6358 -0.9018 0.4578 23 200 184
0.6486 -0.9033 0.4691 23 201 184
0.6613 -0.9045 0.4787 24 202 184
0.6739 -0.9052 0.4865 25 203 184
0.6864 -0.9056 0.4926 25 204 184
0.6987 -0.9055 0.4969 26 205 184
0.7108 -0.9049 0.4993 27 206 184
0.7227 -0.9039 0.5000 27 207 184
0.7343 -0.9024 0.4988 28 207 184
0.7457 -0.9005 0.4958 29 208 184
0.7569 -0.8981 0.4910 30 209 184
0.7677 -0.8952 0.4845 30 210 184
0.7783 -0.8918 0.4761 31 211 184
0.7885 -0.8879 0.4661 32 212 184
0.7984 -0.8836 0.4543 32 212 184
0.8079 -0.8788 0.4409 33 213 184
0.8170 -0.8735 0.4258 34 214 184
0.8257 -0.8677 0.4093 35 215 184
0.8341 -0.8615 0.3912 35 216 184
0.8420 -0.8548 0.3717 36 216 184
0.8494 -0.8476 0.3509 37 217 184
0.8565 -0.8400 0.3288 38 218 184
0.8631 -0.8320 0.3054 39 219 184
0.8692 -0.8236 0.2810 39 220 184
0.8748 -0.8147 0.2556 40 220 184
0.8800 -0.8055 0.2292 41 221 184
0.8847 -0.7959 0.2020 42 222 184
0.8889 -0.7860 0.1740 43 223 184
0.8927 -0.7757 0.1455 43 223 184
0.8959 -0.7650 0.1164 44 224 184
0.8987 -0.7541 0.0868 45 225 184
0.9010 -0.7429 0.0570 46 225 184
0.9029 -0.7314 0.0269 47 226 184
0.9042 -0.7197 -0.0032 48 227 184
0.9051 -0.7078 -0.0334 48 227 184
0.9055 -0.6956 -0.0634 49 228 184
0.9055 -0.6833 -0.0932 50 229 184
0.9051 -0.6708 -0.1226 51 229 184
0.9042 -0.6582 -0.1516 52 230 184
0.9030 -0.6454 -0.1801 53 231 184
0.9013 -0.6325 -0.2079 54 231 184
0.8993 -0.6196 -0.2349 55 232 184
0.8969 -0.6066 -0.2611 56 233 184
0.8941 -0.5936 -0.2863 56 233 184
0.8911 -0.5806 -0.3105 57 234 184
0.8877 -0.5676 -0.3336 58 234 184
0.8841 -0.5546 -0.3555 59 235 184
0.8802 -0.5416 -0.3760 60 236 184
0.8760 -0.5287 -0.3952 61 236 184
0.8717 -0.5159 -0.4129 62 237 184
0.8672 -0.5032 -0.4292 63 237 184
0.8625 -0.4906 -0.4439 64 238 184
0.8577 -0.4781 -0.4569 65 238 184
0.8528 -0.4657 -0.4684 66 239 184
0.8477 -0.4536 -0.4781 67 239 184
0.8427 -0.4416 -0.4860 68 240 184
0.8376 -0.4297 -0.4922 69 240 184
0.8325 -0.4181 -0.4966 70 241 184
0.8274 -0.4067 -0.4992 71 241 184
0.8224 -0.3954 -0.5000 72 242 184
0.8175 -0.3844 -0.4990 73 242 184
0.8127 -0.3736 -0.4961 74 243 184
0.8080 -0.3631 -0.4914 75 243 184
0.8035 -0.3528 -0.4850 76 244 184
0.7991 -0.3427 -0.4768 77 244 184
0.7950 -0.3328 -0.4668 78 245 184
0.7911 -0.3232 -0.4552 79 245 184
0.7874 -0.3138 -0.4419 80 245 184
0.7840 -0.3046 -0.4270 81 246 184
0.7809 -0.2957 -0.4105 82 246 184
0.7782 -0.2870 -0.3925 83 247 184
0.7758 -0.2786 -0.3732 84 247 184
0.7737 -0.2703 -0.3524 85 247 184
0.7720 -0.2623 -0.3304 86 248 184
0.7707 -0.2545 -0.3072 87 248 184
0.7698 -0.2468 -0.2828 88 248 184
0.7693 -0.2394 -0.2574 89 249 184
0.7692 -0.2321 -0.2311 90 249 184
0.7696 -0.2250 -0.2040 91 249 184
0.7704 -0.2180 -0.1761 92 250 184
0.7717 -0.2112 -0.1475 93 250 184
0.7734 -0.2046 -0.1185 94 250 184
0.7756 -0.1980 -0.0889 95 251 184
0.7783 -0.1916 -0.0591 97 251 184
0.7814 -0.1852 -0.0291 98 251 184
0.7850 -0.1789 0.0011 99 251 184
0.7890 -0.1727 0.0312 100 252 184
0.7935 -0.1665 0.0613 101 252 184
0.7984 -0.1604 0.0911 102 252 184
0.8038 -0.1543 0.1205 103 252 184
0.8096 -0.1482 0.1496 104 252 184
0.8158 -0.1420 0.1781 105 253 184
0.8225 -0.1359 0.2059 106 253 184
0.8295 -0.1297 0.2330 107 253 184
0.8369 -0.1235 0.2593 108 253 184
0.8447 -0.1172 0.2846 109 253 184
0.8528 -0.1109 0.3088 111 253 184
0.8612 -0.1044 0.3320 112 254 184
0.8700 -0.0979 0.3539 113 254 184
0.8790 -0.0912 0.3746 114 254 184
0.8883 -0.0845 0.3939 115 254 184
0.8978 -0.0776 0.4117 116 254 184
0.9075 -0.0705 0.4281 117 254 184
0.9174 -0.0634 0.4429 118 254 184
0.9275 -0.0560 0.4561 119 254 184
0.9377 -0.0485 0.4676 120 254 184
0.9480 -0.0409 0.4774 122 254 184
0.9584 -0.0331 0.4855 123 254 184
0.9688 -0.0251 0.4918 124 254 184
0.9792 -0.0169 0.4964 125 254 184
0.9896 -0.0085 0.4991 126 254 184
