ply
format ascii 1.0
comment King Wen Hexagram #50 Hex_50 3D Point Cloud
element vertex 729
property float x
property float y
property float z
property uchar red
property uchar green
property uchar blue
end_header
1.0000 0.0000 0.5000 127 255 200
1.0103 0.0087 0.4998 128 254 200
1.0205 0.0176 0.4993 129 254 200
1.0306 0.0267 0.4985 130 254 200
1.0405 0.0359 0.4973 131 254 200
1.0502 0.0453 0.4958 132 254 200
1.0596 0.0548 0.4940 134 254 200
1.0689 0.0646 0.4918 135 254 200
1.0778 0.0744 0.4893 136 254 200
1.0865 0.0844 0.4865 137 254 200
1.0948 0.0946 0.4834 138 254 200
1.1028 0.1049 0.4799 139 254 200
1.1103 0.1152 0.4761 140 254 200
1.1175 0.1257 0.4720 141 254 200
1.1242 0.1363 0.4676 142 254 200
1.1305 0.1470 0.4629 143 253 200
1.1363 0.1577 0.4578 145 253 200
1.1417 0.1685 0.4525 146 253 200
1.1465 0.1793 0.4468 147 253 200
1.1508 0.1902 0.4409 148 253 200
1.1545 0.2010 0.4346 149 253 200
1.1577 0.2119 0.4281 150 252 200
1.1604 0.2227 0.4213 151 252 200
1.1624 0.2335 0.4142 152 252 200
1.1639 0.2442 0.4068 153 252 200
1.1648 0.2549 0.3991 154 252 200
1.1650 0.2655 0.3912 155 251 200
1.1647 0.2760 0.3830 156 251 200
1.1638 0.2864 0.3746 157 251 200
1.1622 0.2967 0.3659 159 251 200
1.1601 0.3068 0.3570 160 250 200
1.1573 0.3168 0.3478 161 250 200
1.1540 0.3266 0.3384 162 250 200
1.1500 0.3362 0.3288 163 249 200
1.1455 0.3456 0.3189 164 249 200
1.1404 0.3548 0.3088 165 249 200
1.1347 0.3638 0.2986 166 248 200
1.1285 0.3726 0.2881 167 248 200
1.1217 0.3811 0.2774 168 248 200
1.1144 0.3894 0.2666 169 247 200
1.1065 0.3974 0.2556 170 247 200
1.0982 0.4051 0.2444 171 247 200
1.0894 0.4125 0.2330 172 246 200
1.0802 0.4197 0.2215 173 246 200
1.0705 0.4266 0.2098 174 245 200
1.0604 0.4332 0.1980 175 245 200
1.0499 0.4395 0.1861 176 245 200
1.0390 0.4455 0.1740 177 244 200
1.0278 0.4513 0.1619 178 244 200
1.0163 0.4567 0.1496 179 243 200
1.0045 0.4618 0.1372 180 243 200
0.9924 0.4667 0.1247 181 242 200
0.9800 0.4712 0.1122 182 242 200
0.9675 0.4755 0.0995 183 241 200
0.9548 0.4795 0.0868 184 241 200
0.9419 0.4832 0.0741 185 240 200
0.9288 0.4867 0.0613 186 240 200
0.9157 0.4899 0.0484 187 239 200
0.9025 0.4929 0.0355 188 239 200
0.8893 0.4957 0.0226 189 238 200
0.8760 0.4982 0.0097 190 238 200
0.8627 0.5006 -0.0032 191 237 200
0.8495 0.5027 -0.0162 192 237 200
0.8363 0.5047 -0.0291 193 236 200
0.8232 0.5065 -0.0420 194 236 200
0.8102 0.5082 -0.0548 195 235 200
0.7973 0.5098 -0.0677 196 234 200
0.7846 0.5112 -0.0805 197 234 200
0.7721 0.5126 -0.0932 198 233 200
0.7598 0.5139 -0.1059 198 233 200
0.7476 0.5151 -0.1185 199 232 200
0.7358 0.5164 -0.1310 200 231 200
0.7241 0.5176 -0.1434 201 231 200
0.7128 0.5188 -0.1557 202 230 200
0.7017 0.5201 -0.1680 203 229 200
0.6910 0.5214 -0.1801 204 229 200
0.6805 0.5228 -0.1921 205 228 200
0.6704 0.5242 -0.2040 206 227 200
0.6606 0.5258 -0.2157 206 227 200
0.6512 0.5275 -0.2273 207 226 200
0.6421 0.5294 -0.2387 208 225 200
0.6334 0.5315 -0.2500 209 225 200
0.6250 0.5337 -0.2611 210 224 200
0.6170 0.5361 -0.2720 211 223 200
0.6094 0.5388 -0.2828 211 223 200
0.6021 0.5417 -0.2934 212 222 200
0.5953 0.5449 -0.3037 213 221 200
0.5888 0.5483 -0.3139 214 220 200
0.5826 0.5520 -0.3239 215 220 200
0.5768 0.5561 -0.3336 215 219 200
0.5714 0.5604 -0.3431 216 218 200
0.5663 0.5651 -0.3524 217 217 200
0.5615 0.5701 -0.3615 218 216 200
0.5571 0.5754 -0.3703 219 216 200
0.5530 0.5811 -0.3788 219 215 200
0.5492 0.5872 -0.3871 220 214 200
0.5457 0.5936 -0.3952 221 213 200
0.5425 0.6004 -0.4030 222 212 200
0.5395 0.6075 -0.4105 222 212 200
0.5368 0.6151 -0.4177 223 211 200
0.5343 0.6230 -0.4247 224 210 200
0.5320 0.6312 -0.4314 224 209 200
0.5299 0.6399 -0.4378 225 208 200
0.5280 0.6489 -0.4439 226 207 200
0.5262 0.6582 -0.4497 227 207 200
0.5246 0.6679 -0.4552 227 206 200
0.5231 0.6780 -0.4604 228 205 200
0.5217 0.6883 -0.4653 229 204 200
0.5204 0.6990 -0.4698 229 203 200
0.5191 0.7100 -0.4741 230 202 200
0.5179 0.7213 -0.4781 231 201 200
0.5167 0.7328 -0.4817 231 200 200
0.5155 0.7447 -0.4850 232 200 200
0.5142 0.7567 -0.4880 232 199 200
0.5129 0.7690 -0.4906 233 198 200
0.5116 0.7815 -0.4930 234 197 200
0.5101 0.7941 -0.4950 234 196 200
0.5086 0.8070 -0.4966 235 195 200
0.5070 0.8199 -0.4980 235 194 200
0.5052 0.8330 -0.4990 236 193 200
0.5032 0.8462 -0.4996 237 192 200
0.5011 0.8594 -0.5000 237 191 200
0.4988 0.8727 -0.5000 238 190 200
0.4963 0.8859 -0.4996 238 189 200
0.4936 0.8992 -0.4990 239 188 200
0.4907 0.9124 -0.4980 239 187 200
0.4875 0.9256 -0.4966 240 186 200
0.4841 0.9386 -0.4950 240 185 200
0.4805 0.9516 -0.4930 241 184 200
0.4765 0.9643 -0.4906 241 183 200
0.4723 0.9769 -0.4880 242 182 200
0.4678 0.9893 -0.4850 242 182 200
0.4631 1.0015 -0.4817 243 181 200
0.4580 1.0134 -0.4781 243 180 200
0.4526 1.0250 -0.4741 244 179 200
0.4470 1.0363 -0.4698 244 178 200
0.4411 1.0472 -0.4653 245 176 200
0.4348 1.0578 -0.4604 245 175 200
0.4283 1.0680 -0.4552 245 174 200
0.4215 1.0778 -0.4497 246 173 200
0.4144 1.0872 -0.4439 246 172 200
0.4070 1.0961 -0.4378 247 171 200
0.3993 1.1045 -0.4314 247 170 200
0.3914 1.1125 -0.4247 247 169 200
0.3832 1.1199 -0.4177 248 168 200
0.3747 1.1268 -0.4105 248 167 200
0.3660 1.1332 -0.4030 248 166 200
0.3571 1.1390 -0.3952 249 165 200
0.3480 1.1443 -0.3871 249 164 200
0.3386 1.1489 -0.3788 249 163 200
0.3290 1.1530 -0.3703 250 162 200
0.3193 1.1565 -0.3615 250 161 200
0.3093 1.1594 -0.3524 250 160 200
0.2992 1.1617 -0.3431 250 159 200
0.2890 1.1634 -0.3336 251 158 200
0.2786 1.1645 -0.3239 251 157 200
0.2682 1.1650 -0.3139 251 156 200
0.2576 1.1649 -0.3037 251 155 200
0.2469 1.1642 -0.2934 252 153 200
0.2362 1.1628 -0.2828 252 152 200
0.2254 1.1609 -0.2720 252 151 200
0.2146 1.1584 -0.2611 252 150 200
0.2037 1.1554 -0.2500 253 149 200
0.1929 1.1518 -0.2387 253 148 200
0.1820 1.1476 -0.2273 253 147 200
0.1712 1.1429 -0.2157 253 146 200
0.1604 1.1377 -0.2040 253 145 200
0.1497 1.1320 -0.1921 253 144 200
0.1390 1.1259 -0.1801 254 143 200
0.1284 1.1192 -0.1680 254 142 200
0.1179 1.1122 -0.1557 254 140 200
0.1075 1.1047 -0.1434 254 139 200
0.0972 1.0968 -0.1310 254 138 200
0.0870 1.0886 -0.1185 254 137 200
0.0769 1.0800 -0.1059 254 136 200
0.0670 1.0711 -0.0932 254 135 200
0.0573 1.0620 -0.0805 254 134 200
0.0477 1.0526 -0.0677 254 133 200
0.0382 1.0429 -0.0548 254 132 200
0.0289 1.0331 -0.0420 254 131 200
0.0198 1.0230 -0.0291 254 129 200
0.0109 1.0129 -0.0162 254 128 200
0.0022 1.0026 -0.0032 254 127 200
-0.0064 0.9922 0.0097 254 126 200
-0.0148 0.9818 0.0226 254 125 200
-0.0230 0.9714 0.0355 254 124 200
-0.0311 0.9610 0.0484 254 123 200
-0.0389 0.9506 0.0613 254 122 200
-0.0466 0.9402 0.0741 254 121 200
-0.0542 0.9300 0.0868 254 120 200
-0.0615 0.9199 0.0995 254 118 200
-0.0688 0.9100 0.1122 254 117 200
-0.0758 0.9002 0.1247 254 116 200
-0.0828 0.8906 0.1372 254 115 200
-0.0896 0.8813 0.1496 254 114 200
-0.0962 0.8722 0.1619 254 113 200
-0.1028 0.8634 0.1740 254 112 200
-0.1093 0.8549 0.1861 253 111 200
-0.1156 0.8467 0.1980 253 110 200
-0.1219 0.8388 0.2098 253 109 200
-0.1282 0.8313 0.2215 253 108 200
-0.1344 0.8242 0.2330 253 106 200
-0.1405 0.8175 0.2444 253 105 200
-0.1466 0.8111 0.2556 252 104 200
-0.1527 0.8052 0.2666 252 103 200
-0.1589 0.7997 0.2774 252 102 200
-0.1650 0.7947 0.2881 252 101 200
-0.1711 0.7901 0.2986 252 100 200
-0.1773 0.7859 0.3088 251 99 200
-0.1836 0.7822 0.3189 251 98 200
-0.1900 0.7790 0.3288 251 97 200
-0.1964 0.7762 0.3384 251 96 200
-0.2029 0.7739 0.3478 250 95 200
-0.2096 0.7721 0.3570 250 94 200
-0.2163 0.7707 0.3659 250 93 200
-0.2232 0.7698 0.3746 249 91 200
-0.2303 0.7693 0.3830 249 90 200
-0.2375 0.7693 0.3912 249 89 200
-0.2449 0.7696 0.3991 248 88 200
-0.2525 0.7704 0.4068 248 87 200
-0.2603 0.7716 0.4142 248 86 200
-0.2683 0.7732 0.4213 247 85 200
-0.2765 0.7752 0.4281 247 84 200
-0.2849 0.7775 0.4346 247 83 200
-0.2935 0.7802 0.4409 246 82 200
-0.3024 0.7832 0.4468 246 81 200
-0.3115 0.7865 0.4525 246 80 200
-0.3208 0.7901 0.4578 245 79 200
-0.3304 0.7940 0.4629 245 78 200
-0.3402 0.7980 0.4676 244 77 200
-0.3502 0.8023 0.4720 244 76 200
-0.3605 0.8068 0.4761 243 75 200
-0.3710 0.8115 0.4799 243 74 200
-0.3817 0.8163 0.4834 242 73 200
-0.3927 0.8212 0.4865 242 72 200
-0.4038 0.8262 0.4893 242 71 200
-0.4152 0.8312 0.4918 241 70 200
-0.4268 0.8363 0.4940 241 69 200
-0.4386 0.8414 0.4958 240 68 200
-0.4506 0.8465 0.4973 240 67 200
-0.4627 0.8515 0.4985 239 66 200
-0.4750 0.8565 0.4993 239 65 200
-0.4874 0.8613 0.4998 238 64 200
-0.5000 0.8660 0.5000 237 63 200
-0.5127 0.8706 0.4998 237 62 200
-0.5255 0.8750 0.4993 236 61 200
-0.5384 0.8792 0.4985 236 60 200
-0.5513 0.8831 0.4973 235 59 200
-0.5643 0.8868 0.4958 235 59 200
-0.5773 0.8903 0.4940 234 58 200
-0.5904 0.8934 0.4918 233 57 200
-0.6034 0.8962 0.4893 233 56 200
-0.6164 0.8987 0.4865 232 55 200
-0.6293 0.9008 0.4834 232 54 200
-0.6422 0.9026 0.4799 231 53 200
-0.6550 0.9040 0.4761 230 52 200
-0.6676 0.9049 0.4720 230 51 200
-0.6802 0.9055 0.4676 229 50 200
-0.6926 0.9056 0.4629 228 50 200
-0.7048 0.9053 0.4578 228 49 200
-0.7167 0.9045 0.4525 227 48 200
-0.7285 0.9032 0.4468 226 47 200
-0.7401 0.9015 0.4409 226 46 200
-0.7513 0.8993 0.4346 225 45 200
-0.7623 0.8967 0.4281 224 44 200
-0.7730 0.8935 0.4213 223 44 200
-0.7834 0.8899 0.4142 223 43 200
-0.7935 0.8858 0.4068 222 42 200
-0.8032 0.8812 0.3991 221 41 200
-0.8125 0.8762 0.3912 220 40 200
-0.8214 0.8706 0.3830 220 40 200
-0.8299 0.8646 0.3746 219 39 200
-0.8381 0.8582 0.3659 218 38 200
-0.8458 0.8512 0.3570 217 37 200
-0.8530 0.8439 0.3478 217 36 200
-0.8598 0.8361 0.3384 216 36 200
-0.8662 0.8278 0.3288 215 35 200
-0.8721 0.8192 0.3189 214 34 200
-0.8775 0.8102 0.3088 213 33 200
-0.8824 0.8008 0.2986 213 33 200
-0.8869 0.7910 0.2881 212 32 200
-0.8909 0.7809 0.2774 211 31 200
-0.8944 0.7704 0.2666 210 30 200
-0.8974 0.7596 0.2556 209 30 200
-0.8999 0.7486 0.2444 209 29 200
-0.9020 0.7372 0.2330 208 28 200
-0.9036 0.7256 0.2215 207 28 200
-0.9047 0.7138 0.2098 206 27 200
-0.9054 0.7017 0.1980 205 26 200
-0.9056 0.6895 0.1861 204 26 200
-0.9054 0.6771 0.1740 203 25 200
-0.9047 0.6645 0.1619 202 24 200
-0.9036 0.6518 0.1496 202 24 200
-0.9022 0.6390 0.1372 201 23 200
-0.9003 0.6261 0.1247 200 22 200
-0.8981 0.6131 0.1122 199 22 200
-0.8955 0.6001 0.0995 198 21 200
-0.8926 0.5871 0.0868 197 20 200
-0.8894 0.5741 0.0741 196 20 200
-0.8859 0.5610 0.0613 195 19 200
-0.8822 0.5481 0.0484 194 19 200
-0.8781 0.5351 0.0355 193 18 200
-0.8739 0.5223 0.0226 192 18 200
-0.8695 0.5095 0.0097 191 17 200
-0.8649 0.4968 -0.0032 191 16 200
-0.8601 0.4843 -0.0162 190 16 200
-0.8552 0.4719 -0.0291 189 15 200
-0.8503 0.4596 -0.0420 188 15 200
-0.8452 0.4475 -0.0548 187 14 200
-0.8401 0.4356 -0.0677 186 14 200
-0.8350 0.4239 -0.0805 185 13 200
-0.8300 0.4124 -0.0932 184 13 200
-0.8249 0.4010 -0.1059 183 12 200
-0.8200 0.3899 -0.1185 182 12 200
-0.8151 0.3790 -0.1310 181 11 200
-0.8103 0.3683 -0.1434 180 11 200
-0.8057 0.3579 -0.1557 179 10 200
-0.8013 0.3477 -0.1680 178 10 200
-0.7970 0.3377 -0.1801 177 10 200
-0.7930 0.3280 -0.1921 176 9 200
-0.7892 0.3185 -0.2040 175 9 200
-0.7857 0.3092 -0.2157 174 8 200
-0.7824 0.3002 -0.2273 173 8 200
-0.7795 0.2914 -0.2387 172 8 200
-0.7769 0.2828 -0.2500 171 7 200
-0.7747 0.2744 -0.2611 170 7 200
-0.7728 0.2663 -0.2720 169 6 200
-0.7713 0.2584 -0.2828 167 6 200
-0.7702 0.2506 -0.2934 166 6 200
-0.7695 0.2431 -0.3037 165 5 200
-0.7692 0.2357 -0.3139 164 5 200
-0.7694 0.2285 -0.3239 163 5 200
-0.7700 0.2215 -0.3336 162 4 200
-0.7710 0.2146 -0.3431 161 4 200
-0.7725 0.2079 -0.3524 160 4 200
-0.7745 0.2013 -0.3615 159 4 200
-0.7769 0.1948 -0.3703 158 3 200
-0.7798 0.1884 -0.3788 157 3 200
-0.7831 0.1820 -0.3871 156 3 200
-0.7869 0.1758 -0.3952 155 3 200
-0.7912 0.1696 -0.4030 154 2 200
-0.7959 0.1634 -0.4105 153 2 200
-0.8011 0.1573 -0.4177 152 2 200
-0.8066 0.1512 -0.4247 150 2 200
-0.8127 0.1451 -0.4314 149 1 200
-0.8191 0.1390 -0.4378 148 1 200
-0.8259 0.1328 -0.4439 147 1 200
-0.8331 0.1266 -0.4497 146 1 200
-0.8407 0.1204 -0.4552 145 1 200
-0.8487 0.1141 -0.4604 144 1 200
-0.8570 0.1077 -0.4653 143 0 200
-0.8656 0.1012 -0.4698 142 0 200
-0.8744 0.0946 -0.4741 141 0 200
-0.8836 0.0879 -0.4781 140 0 200
-0.8930 0.0810 -0.4817 139 0 200
-0.9026 0.0741 -0.4850 137 0 200
-0.9124 0.0670 -0.4880 136 0 200
-0.9224 0.0597 -0.4906 135 0 200
-0.9326 0.0523 -0.4930 134 0 200
-0.9428 0.0447 -0.4950 133 0 200
-0.9532 0.0370 -0.4966 132 0 200
-0.9636 0.0291 -0.4980 131 0 200
-0.9740 0.0210 -0.4990 130 0 200
-0.9844 0.0127 -0.4996 129 0 200
-0.9948 0.0043 -0.5000 128 0 200
-1.0052 -0.0043 -0.5000 126 0 200
-1.0154 -0.0131 -0.4996 125 0 200
-1.0255 -0.0221 -0.4990 124 0 200
-1.0355 -0.0312 -0.4980 123 0 200
-1.0453 -0.0406 -0.4966 122 0 200
-1.0549 -0.0500 -0.4950 121 0 200
-1.0643 -0.0597 -0.4930 120 0 200
-1.0734 -0.0695 -0.4906 119 0 200
-1.0822 -0.0794 -0.4880 118 0 200
-1.0907 -0.0895 -0.4850 117 0 200
-1.0988 -0.0997 -0.4817 115 0 200
-1.1066 -0.1100 -0.4781 114 0 200
-1.1140 -0.1205 -0.4741 113 0 200
-1.1209 -0.1310 -0.4698 112 0 200
-1.1274 -0.1416 -0.4653 111 0 200
-1.1335 -0.1523 -0.4604 110 1 200
-1.1391 -0.1631 -0.4552 109 1 200
-1.1441 -0.1739 -0.4497 108 1 200
-1.1487 -0.1847 -0.4439 107 1 200
-1.1527 -0.1956 -0.4378 106 1 200
-1.1562 -0.2064 -0.4314 105 1 200
-1.1591 -0.2173 -0.4247 104 2 200
-1.1615 -0.2281 -0.4177 102 2 200
-1.1632 -0.2389 -0.4105 101 2 200
-1.1644 -0.2496 -0.4030 100 2 200
-1.1650 -0.2602 -0.3952 99 3 200
-1.1649 -0.2708 -0.3871 98 3 200
-1.1643 -0.2813 -0.3788 97 3 200
-1.1631 -0.2916 -0.3703 96 3 200
-1.1612 -0.3018 -0.3615 95 4 200
-1.1588 -0.3118 -0.3524 94 4 200
-1.1557 -0.3217 -0.3431 93 4 200
-1.1521 -0.3314 -0.3336 92 4 200
-1.1478 -0.3409 -0.3239 91 5 200
-1.1430 -0.3503 -0.3139 90 5 200
-1.1376 -0.3594 -0.3037 89 5 200
-1.1316 -0.3682 -0.2934 88 6 200
-1.1251 -0.3769 -0.2828 87 6 200
-1.1181 -0.3853 -0.2720 85 6 200
-1.1105 -0.3934 -0.2611 84 7 200
-1.1025 -0.4013 -0.2500 83 7 200
-1.0939 -0.4089 -0.2387 82 8 200
-1.0849 -0.4162 -0.2273 81 8 200
-1.0754 -0.4232 -0.2157 80 8 200
-1.0655 -0.4300 -0.2040 79 9 200
-1.0552 -0.4364 -0.1921 78 9 200
-1.0445 -0.4426 -0.1801 77 10 200
-1.0335 -0.4484 -0.1680 76 10 200
-1.0221 -0.4540 -0.1557 75 10 200
-1.0104 -0.4593 -0.1434 74 11 200
-0.9985 -0.4643 -0.1310 73 11 200
-0.9862 -0.4690 -0.1185 72 12 200
-0.9738 -0.4734 -0.1059 71 12 200
-0.9611 -0.4775 -0.0932 70 13 200
-0.9483 -0.4814 -0.0805 69 13 200
-0.9354 -0.4850 -0.0677 68 14 200
-0.9223 -0.4884 -0.0548 67 14 200
-0.9091 -0.4915 -0.0420 66 15 200
-0.8959 -0.4943 -0.0291 65 15 200
-0.8826 -0.4970 -0.0162 64 16 200
-0.8693 -0.4994 -0.0032 63 16 200
-0.8561 -0.5017 0.0097 63 17 200
-0.8429 -0.5037 0.0226 62 18 200
-0.8297 -0.5056 0.0355 61 18 200
-0.8167 -0.5074 0.0484 60 19 200
-0.8037 -0.5090 0.0613 59 19 200
-0.7910 -0.5105 0.0741 58 20 200
-0.7783 -0.5119 0.0868 57 20 200
-0.7659 -0.5133 0.0995 56 21 200
-0.7537 -0.5145 0.1122 55 22 200
-0.7417 -0.5158 0.1247 54 22 200
-0.7299 -0.5170 0.1372 53 23 200
-0.7184 -0.5182 0.1496 52 24 200
-0.7072 -0.5194 0.1619 52 24 200
-0.6963 -0.5207 0.1740 51 25 200
-0.6857 -0.5221 0.1861 50 26 200
-0.6754 -0.5235 0.1980 49 26 200
-0.6655 -0.5250 0.2098 48 27 200
-0.6558 -0.5267 0.2215 47 28 200
-0.6466 -0.5285 0.2330 46 28 200
-0.6377 -0.5304 0.2444 45 29 200
-0.6291 -0.5325 0.2556 45 30 200
-0.6210 -0.5349 0.2666 44 30 200
-0.6132 -0.5374 0.2774 43 31 200
-0.6057 -0.5402 0.2881 42 32 200
-0.5987 -0.5433 0.2986 41 33 200
-0.5920 -0.5466 0.3088 41 33 200
-0.5856 -0.5501 0.3189 40 34 200
-0.5797 -0.5540 0.3288 39 35 200
-0.5741 -0.5582 0.3384 38 36 200
-0.5688 -0.5627 0.3478 37 36 200
-0.5639 -0.5675 0.3570 37 37 200
-0.5593 -0.5727 0.3659 36 38 200
-0.5550 -0.5782 0.3746 35 39 200
-0.5511 -0.5841 0.3830 34 40 200
-0.5474 -0.5903 0.3912 34 40 200
-0.5441 -0.5969 0.3991 33 41 200
-0.5410 -0.6039 0.4068 32 42 200
-0.5381 -0.6113 0.4142 31 43 200
-0.5355 -0.6190 0.4213 31 44 200
-0.5331 -0.6271 0.4281 30 44 200
-0.5309 -0.6355 0.4346 29 45 200
-0.5289 -0.6443 0.4409 28 46 200
-0.5271 -0.6535 0.4468 28 47 200
-0.5254 -0.6630 0.4525 27 48 200
-0.5239 -0.6729 0.4578 26 49 200
-0.5224 -0.6831 0.4629 26 50 200
-0.5210 -0.6936 0.4676 25 50 200
-0.5197 -0.7045 0.4720 24 51 200
-0.5185 -0.7156 0.4761 24 52 200
-0.5173 -0.7270 0.4799 23 53 200
-0.5161 -0.7387 0.4834 22 54 200
-0.5148 -0.7507 0.4865 22 55 200
-0.5136 -0.7628 0.4893 21 56 200
-0.5123 -0.7752 0.4918 21 57 200
-0.5109 -0.7878 0.4940 20 58 200
-0.5094 -0.8005 0.4958 19 59 200
-0.5078 -0.8134 0.4973 19 59 200
-0.5061 -0.8265 0.4985 18 60 200
-0.5042 -0.8396 0.4993 18 61 200
-0.5022 -0.8528 0.4998 17 62 200
-0.5000 -0.8660 0.5000 17 63 200
-0.4976 -0.8793 0.4998 16 64 200
-0.4950 -0.8926 0.4993 15 65 200
-0.4922 -0.9058 0.4985 15 66 200
-0.4892 -0.9190 0.4973 14 67 200
-0.4859 -0.9321 0.4958 14 68 200
-0.4823 -0.9451 0.4940 13 69 200
-0.4785 -0.9580 0.4918 13 70 200
-0.4745 -0.9706 0.4893 12 71 200
-0.4701 -0.9831 0.4865 12 72 200
-0.4655 -0.9954 0.4834 12 73 200
-0.4606 -1.0074 0.4799 11 74 200
-0.4554 -1.0192 0.4761 11 75 200
-0.4499 -1.0307 0.4720 10 76 200
-0.4441 -1.0418 0.4676 10 77 200
-0.4380 -1.0526 0.4629 9 78 200
-0.4316 -1.0630 0.4578 9 79 200
-0.4249 -1.0730 0.4525 8 80 200
-0.4180 -1.0825 0.4468 8 81 200
-0.4107 -1.0917 0.4409 8 82 200
-0.4032 -1.1004 0.4346 7 83 200
-0.3954 -1.1086 0.4281 7 84 200
-0.3873 -1.1162 0.4213 7 85 200
-0.3790 -1.1234 0.4142 6 86 200
-0.3704 -1.1301 0.4068 6 87 200
-0.3616 -1.1362 0.3991 6 88 200
-0.3526 -1.1417 0.3912 5 89 200
-0.3433 -1.1467 0.3830 5 90 200
-0.3338 -1.1511 0.3746 5 91 200
-0.3242 -1.1549 0.3659 4 93 200
-0.3143 -1.1581 0.3570 4 94 200
-0.3043 -1.1607 0.3478 4 95 200
-0.2941 -1.1627 0.3384 3 96 200
-0.2838 -1.1641 0.3288 3 97 200
-0.2734 -1.1648 0.3189 3 98 200
-0.2629 -1.1650 0.3088 3 99 200
-0.2523 -1.1646 0.2986 2 100 200
-0.2416 -1.1636 0.2881 2 101 200
-0.2308 -1.1620 0.2774 2 102 200
-0.2200 -1.1598 0.2666 2 103 200
-0.2092 -1.1570 0.2556 2 104 200
-0.1983 -1.1536 0.2444 1 105 200
-0.1874 -1.1498 0.2330 1 106 200
-0.1766 -1.1453 0.2215 1 108 200
-0.1658 -1.1404 0.2098 1 109 200
-0.1550 -1.1349 0.1980 1 110 200
-0.1443 -1.1290 0.1861 1 111 200
-0.1337 -1.1226 0.1740 0 112 200
-0.1231 -1.1157 0.1619 0 113 200
-0.1126 -1.1085 0.1496 0 114 200
-0.1023 -1.1008 0.1372 0 115 200
-0.0920 -1.0928 0.1247 0 116 200
-0.0819 -1.0844 0.1122 0 117 200
-0.0720 -1.0756 0.0995 0 118 200
-0.0621 -1.0666 0.0868 0 120 200
-0.0524 -1.0573 0.0741 0 121 200
-0.0429 -1.0478 0.0613 0 122 200
-0.0336 -1.0380 0.0484 0 123 200
-0.0244 -1.0281 0.0355 0 124 200
-0.0154 -1.0180 0.0226 0 125 200
-0.0065 -1.0077 0.0097 0 126 200
0.0021 -0.9974 -0.0032 0 127 200
0.0106 -0.9870 -0.0162 0 128 200
0.0189 -0.9766 -0.0291 0 129 200
0.0271 -0.9662 -0.0420 0 131 200
0.0350 -0.9558 -0.0548 0 132 200
0.0428 -0.9454 -0.0677 0 133 200
0.0504 -0.9351 -0.0805 0 134 200
0.0579 -0.9250 -0.0932 0 135 200
0.0652 -0.9149 -0.1059 0 136 200
0.0723 -0.9051 -0.1185 0 137 200
0.0793 -0.8954 -0.1310 0 138 200
0.0862 -0.8859 -0.1434 0 139 200
0.0929 -0.8767 -0.1557 0 140 200
0.0995 -0.8677 -0.1680 0 142 200
0.1060 -0.8591 -0.1801 0 143 200
0.1125 -0.8507 -0.1921 1 144 200
0.1188 -0.8427 -0.2040 1 145 200
0.1251 -0.8350 -0.2157 1 146 200
0.1313 -0.8277 -0.2273 1 147 200
0.1374 -0.8208 -0.2387 1 148 200
0.1436 -0.8142 -0.2500 1 149 200
0.1497 -0.8081 -0.2611 2 150 200
0.1558 -0.8024 -0.2720 2 151 200
0.1619 -0.7971 -0.2828 2 152 200
0.1681 -0.7923 -0.2934 2 153 200
0.1742 -0.7879 -0.3037 3 155 200
0.1805 -0.7840 -0.3139 3 156 200
0.1868 -0.7806 -0.3239 3 157 200
0.1932 -0.7776 -0.3336 3 158 200
0.1996 -0.7750 -0.3431 4 159 200
0.2062 -0.7730 -0.3524 4 160 200
0.2129 -0.7714 -0.3615 4 161 200
0.2198 -0.7702 -0.3703 4 162 200
0.2268 -0.7695 -0.3788 5 163 200
0.2339 -0.7692 -0.3871 5 164 200
0.2412 -0.7694 -0.3952 5 165 200
0.2487 -0.7700 -0.4030 6 166 200
0.2564 -0.7710 -0.4105 6 167 200
0.2643 -0.7724 -0.4177 6 168 200
0.2724 -0.7742 -0.4247 7 169 200
0.2807 -0.7763 -0.4314 7 170 200
0.2892 -0.7788 -0.4378 7 171 200
0.2979 -0.7817 -0.4439 8 172 200
0.3069 -0.7848 -0.4497 8 173 200
0.3161 -0.7883 -0.4552 9 174 200
0.3256 -0.7920 -0.4604 9 175 200
0.3352 -0.7960 -0.4653 9 176 200
0.3452 -0.8002 -0.4698 10 178 200
0.3553 -0.8046 -0.4741 10 179 200
0.3657 -0.8091 -0.4781 11 180 200
0.3763 -0.8139 -0.4817 11 181 200
0.3872 -0.8187 -0.4850 12 182 200
0.3982 -0.8237 -0.4880 12 182 200
0.4095 -0.8287 -0.4906 13 183 200
0.4210 -0.8338 -0.4930 13 184 200
0.4327 -0.8389 -0.4950 14 185 200
0.4445 -0.8440 -0.4966 14 186 200
0.4566 -0.8490 -0.4980 15 187 200
0.4688 -0.8540 -0.4990 15 188 200
0.4812 -0.8589 -0.4996 16 189 200
0.4937 -0.8637 -0.5000 16 190 200
0.5063 -0.8683 -0.5000 17 191 200
0.5191 -0.8728 -0.4996 17 192 200
0.5319 -0.8771 -0.4990 18 193 200
0.5448 -0.8812 -0.4980 19 194 200
0.5578 -0.8850 -0.4966 19 195 200
0.5708 -0.8886 -0.4950 20 196 200
0.5838 -0.8919 -0.4930 20 197 200
0.5969 -0.8948 -0.4906 21 198 200
0.6099 -0.8975 -0.4880 22 199 200
0.6229 -0.8998 -0.4850 22 200 200
0.6358 -0.9018 -0.4817 23 200 200
0.6486 -0.9033 -0.4781 23 201 200
0.6613 -0.9045 -0.4741 24 202 200
0.6739 -0.9052 -0.4698 25 203 200
0.6864 -0.9056 -0.4653 25 204 200
0.6987 -0.9055 -0.4604 26 205 200
0.7108 -0.9049 -0.4552 27 206 200
0.7227 -0.9039 -0.4497 27 207 200
0.7343 -0.9024 -0.4439 28 207 200
0.7457 -0.9005 -0.4378 29 208 200
0.7569 -0.8981 -0.4314 30 209 200
0.7677 -0.8952 -0.4247 30 210 200
0.7783 -0.8918 -0.4177 31 211 200
0.7885 -0.8879 -0.4105 32 212 200
0.7984 -0.8836 -0.4030 32 212 200
0.8079 -0.8788 -0.3952 33 213 200
0.8170 -0.8735 -0.3871 34 214 200
0.8257 -0.8677 -0.3788 35 215 200
0.8341 -0.8615 -0.3703 35 216 200
0.8420 -0.8548 -0.3615 36 216 200
0.8494 -0.8476 -0.3524 37 217 200
0.8565 -0.8400 -0.3431 38 218 200
0.8631 -0.8320 -0.3336 39 219 200
0.8692 -0.8236 -0.3239 39 220 200
0.8748 -0.8147 -0.3139 40 220 200
0.8800 -0.8055 -0.3037 41 221 200
0.8847 -0.7959 -0.2934 42 222 200
0.8889 -0.7860 -0.2828 43 223 200
0.8927 -0.7757 -0.2720 43 223 200
0.8959 -0.7650 -0.2611 44 224 200
0.8987 -0.7541 -0.2500 45 225 200
0.9010 -0.7429 -0.2387 46 225 200
0.9029 -0.7314 -0.2273 47 226 200
0.9042 -0.7197 -0.2157 48 227 200
0.9051 -0.7078 -0.2040 48 227 200
0.9055 -0.6956 -0.1921 49 228 200
0.9055 -0.6833 -0.1801 50 229 200
0.9051 -0.6708 -0.1680 51 229 200
0.9042 -0.6582 -0.1557 52 230 200
0.9030 -0.6454 -0.1434 53 231 200
0.9013 -0.6325 -0.1310 54 231 200
0.8993 -0.6196 -0.1185 55 232 200
0.8969 -0.6066 -0.1059 56 233 200
0.8941 -0.5936 -0.0932 56 233 200
0.8911 -0.5806 -0.0805 57 234 200
0.8877 -0.5676 -0.0677 58 234 200
0.8841 -0.5546 -0.0548 59 235 200
0.8802 -0.5416 -0.0420 60 236 200
0.8760 -0.5287 -0.0291 61 236 200
0.8717 -0.5159 -0.0162 62 237 200
0.8672 -0.5032 -0.0032 63 237 200
0.8625 -0.4906 0.0097 64 238 200
0.8577 -0.4781 0.0226 65 238 200
0.8528 -0.4657 0.0355 66 239 200
0.8477 -0.4536 0.0484 67 239 200
0.8427 -0.4416 0.0613 68 240 200
0.8376 -0.4297 0.0741 69 240 200
0.8325 -0.4181 0.0868 70 241 200
0.8274 -0.4067 0.0995 71 241 200
0.8224 -0.3954 0.1122 72 242 200
0.8175 -0.3844 0.1247 73 242 200
0.8127 -0.3736 0.1372 74 243 200
0.8080 -0.3631 0.1496 75 243 200
0.8035 -0.3528 0.1619 76 244 200
0.7991 -0.3427 0.1740 77 244 200
0.7950 -0.3328 0.1861 78 245 200
0.7911 -0.3232 0.1980 79 245 200
0.7874 -0.3138 0.2098 80 245 200
0.7840 -0.3046 0.2215 81 246 200
0.7809 -0.2957 0.2330 82 246 200
0.7782 -0.2870 0.2444 83 247 200
0.7758 -0.2786 0.2556 84 247 200
0.7737 -0.2703 0.2666 85 247 200
0.7720 -0.2623 0.2774 86 248 200
0.7707 -0.2545 0.2881 87 248 200
0.7698 -0.2468 0.2986 88 248 200
0.7693 -0.2394 0.3088 89 249 200
0.7692 -0.2321 0.3189 90 249 200
0.7696 -0.2250 0.3288 91 249 200
0.7704 -0.2180 0.3384 92 250 200
0.7717 -0.2112 0.3478 93 250 200
0.7734 -0.2046 0.3570 94 250 200
0.7756 -0.1980 0.3659 95 251 200
0.7783 -0.1916 0.3746 97 251 200
0.7814 -0.1852 0.3830 98 251 200
0.7850 -0.1789 0.3912 99 251 200
0.7890 -0.1727 0.3991 100 252 200
0.7935 -0.1665 0.4068 101 252 200
0.7984 -0.1604 0.4142 102 252 200
0.8038 -0.1543 0.4213 103 252 200
0.8096 -0.1482 0.4281 104 252 200
0.8158 -0.1420 0.4346 105 253 200
0.8225 -0.1359 0.4409 106 253 200
0.8295 -0.1297 0.4468 107 253 200
0.8369 -0.1235 0.4525 108 253 200
0.8447 -0.1172 0.4578 109 253 200
0.8528 -0.1109 0.4629 111 253 200
0.8612 -0.1044 0.4676 112 254 200
0.8700 -0.0979 0.4720 113 254 200
0.8790 -0.0912 0.4761 114 254 200
0.8883 -0.0845 0.4799 115 254 200
0.8978 -0.0776 0.4834 116 254 200
0.9075 -0.0705 0.4865 117 254 200
0.9174 -0.0634 0.4893 118 254 200
0.9275 -0.0560 0.4918 119 254 200
0.9377 -0.0485 0.4940 120 254 200
0.9480 -0.0409 0.4958 122 254 200
0.9584 -0.0331 0.4973 123 254 200
0.9688 -0.0251 0.4985 124 254 200
0.9792 -0.0169 0.4993 125 254 200
0.9896 -0.0085 0.4998 126 254 200
