# King Wen sovereign avatar mesh
# shap_e_hex_27.ply
# vertices=729 faces=727
o kingwen_avatar
v 1.000000 0.000000 0.500000 0.498039 1.000000 0.423529
v 1.010300 0.008700 0.499700 0.501961 0.996078 0.423529
v 1.020500 0.017600 0.498800 0.505882 0.996078 0.423529
v 1.030600 0.026700 0.497300 0.509804 0.996078 0.423529
v 1.040500 0.035900 0.495300 0.513725 0.996078 0.423529
v 1.050200 0.045300 0.492600 0.517647 0.996078 0.423529
v 1.059600 0.054800 0.489300 0.525490 0.996078 0.423529
v 1.068900 0.064600 0.485500 0.529412 0.996078 0.423529
v 1.077800 0.074400 0.481100 0.533333 0.996078 0.423529
v 1.086500 0.084400 0.476100 0.537255 0.996078 0.423529
v 1.094800 0.094600 0.470600 0.541176 0.996078 0.423529
v 1.102800 0.104900 0.464500 0.545098 0.996078 0.423529
v 1.110300 0.115200 0.457800 0.549020 0.996078 0.423529
v 1.117500 0.125700 0.450600 0.552941 0.996078 0.423529
v 1.124200 0.136300 0.442900 0.556863 0.996078 0.423529
v 1.130500 0.147000 0.434600 0.560784 0.992157 0.423529
v 1.136300 0.157700 0.425800 0.568627 0.992157 0.423529
v 1.141700 0.168500 0.416600 0.572549 0.992157 0.423529
v 1.146500 0.179300 0.406800 0.576471 0.992157 0.423529
v 1.150800 0.190200 0.396500 0.580392 0.992157 0.423529
v 1.154500 0.201000 0.385800 0.584314 0.992157 0.423529
v 1.157700 0.211900 0.374600 0.588235 0.988235 0.423529
v 1.160400 0.222700 0.362900 0.592157 0.988235 0.423529
v 1.162400 0.233500 0.350900 0.596078 0.988235 0.423529
v 1.163900 0.244200 0.338400 0.600000 0.988235 0.423529
v 1.164800 0.254900 0.325500 0.603922 0.988235 0.423529
v 1.165000 0.265500 0.312200 0.607843 0.984314 0.423529
v 1.164700 0.276000 0.298600 0.611765 0.984314 0.423529
v 1.163800 0.286400 0.284600 0.615686 0.984314 0.423529
v 1.162200 0.296700 0.270200 0.623529 0.984314 0.423529
v 1.160100 0.306800 0.255600 0.627451 0.980392 0.423529
v 1.157300 0.316800 0.240600 0.631373 0.980392 0.423529
v 1.154000 0.326600 0.225400 0.635294 0.980392 0.423529
v 1.150000 0.336200 0.209800 0.639216 0.976471 0.423529
v 1.145500 0.345600 0.194100 0.643137 0.976471 0.423529
v 1.140400 0.354800 0.178100 0.647059 0.976471 0.423529
v 1.134700 0.363800 0.161900 0.650980 0.972549 0.423529
v 1.128500 0.372600 0.145500 0.654902 0.972549 0.423529
v 1.121700 0.381100 0.128900 0.658824 0.972549 0.423529
v 1.114400 0.389400 0.112200 0.662745 0.968627 0.423529
v 1.106500 0.397400 0.095300 0.666667 0.968627 0.423529
v 1.098200 0.405100 0.078300 0.670588 0.968627 0.423529
v 1.089400 0.412500 0.061300 0.674510 0.964706 0.423529
v 1.080200 0.419700 0.044100 0.678431 0.964706 0.423529
v 1.070500 0.426600 0.026900 0.682353 0.960784 0.423529
v 1.060400 0.433200 0.009700 0.686275 0.960784 0.423529
v 1.049900 0.439500 -0.007500 0.690196 0.960784 0.423529
v 1.039000 0.445500 -0.024800 0.694118 0.956863 0.423529
v 1.027800 0.451300 -0.042000 0.698039 0.956863 0.423529
v 1.016300 0.456700 -0.059100 0.701961 0.952941 0.423529
v 1.004500 0.461800 -0.076200 0.705882 0.952941 0.423529
v 0.992400 0.466700 -0.093200 0.709804 0.949020 0.423529
v 0.980000 0.471200 -0.110100 0.713725 0.949020 0.423529
v 0.967500 0.475500 -0.126800 0.717647 0.945098 0.423529
v 0.954800 0.479500 -0.143400 0.721569 0.945098 0.423529
v 0.941900 0.483200 -0.159800 0.725490 0.941176 0.423529
v 0.928800 0.486700 -0.176100 0.729412 0.941176 0.423529
v 0.915700 0.489900 -0.192100 0.733333 0.937255 0.423529
v 0.902500 0.492900 -0.207900 0.737255 0.937255 0.423529
v 0.889300 0.495700 -0.223400 0.741176 0.933333 0.423529
v 0.876000 0.498200 -0.238700 0.745098 0.933333 0.423529
v 0.862700 0.500600 -0.253700 0.749020 0.929412 0.423529
v 0.849500 0.502700 -0.268400 0.752941 0.929412 0.423529
v 0.836300 0.504700 -0.282800 0.756863 0.925490 0.423529
v 0.823200 0.506500 -0.296800 0.760784 0.925490 0.423529
v 0.810200 0.508200 -0.310500 0.764706 0.921569 0.423529
v 0.797300 0.509800 -0.323900 0.768627 0.917647 0.423529
v 0.784600 0.511200 -0.336800 0.772549 0.917647 0.423529
v 0.772100 0.512600 -0.349300 0.776471 0.913725 0.423529
v 0.759800 0.513900 -0.361500 0.776471 0.913725 0.423529
v 0.747600 0.515100 -0.373200 0.780392 0.909804 0.423529
v 0.735800 0.516400 -0.384400 0.784314 0.905882 0.423529
v 0.724100 0.517600 -0.395200 0.788235 0.905882 0.423529
v 0.712800 0.518800 -0.405500 0.792157 0.901961 0.423529
v 0.701700 0.520100 -0.415400 0.796078 0.898039 0.423529
v 0.691000 0.521400 -0.424700 0.800000 0.898039 0.423529
v 0.680500 0.522800 -0.433600 0.803922 0.894118 0.423529
v 0.670400 0.524200 -0.441900 0.807843 0.890196 0.423529
v 0.660600 0.525800 -0.449700 0.807843 0.890196 0.423529
v 0.651200 0.527500 -0.456900 0.811765 0.886275 0.423529
v 0.642100 0.529400 -0.463700 0.815686 0.882353 0.423529
v 0.633400 0.531500 -0.469800 0.819608 0.882353 0.423529
v 0.625000 0.533700 -0.475500 0.823529 0.878431 0.423529
v 0.617000 0.536100 -0.480500 0.827451 0.874510 0.423529
v 0.609400 0.538800 -0.485000 0.827451 0.874510 0.423529
v 0.602100 0.541700 -0.488900 0.831373 0.870588 0.423529
v 0.595300 0.544900 -0.492200 0.835294 0.866667 0.423529
v 0.588800 0.548300 -0.495000 0.839216 0.862745 0.423529
v 0.582600 0.552000 -0.497100 0.843137 0.862745 0.423529
v 0.576800 0.556100 -0.498700 0.843137 0.858824 0.423529
v 0.571400 0.560400 -0.499600 0.847059 0.854902 0.423529
v 0.566300 0.565100 -0.500000 0.850980 0.850980 0.423529
v 0.561500 0.570100 -0.499800 0.854902 0.847059 0.423529
v 0.557100 0.575400 -0.499000 0.858824 0.847059 0.423529
v 0.553000 0.581100 -0.497500 0.858824 0.843137 0.423529
v 0.549200 0.587200 -0.495500 0.862745 0.839216 0.423529
v 0.545700 0.593600 -0.493000 0.866667 0.835294 0.423529
v 0.542500 0.600400 -0.489800 0.870588 0.831373 0.423529
v 0.539500 0.607500 -0.486000 0.870588 0.831373 0.423529
v 0.536800 0.615100 -0.481700 0.874510 0.827451 0.423529
v 0.534300 0.623000 -0.476800 0.878431 0.823529 0.423529
v 0.532000 0.631200 -0.471300 0.878431 0.819608 0.423529
v 0.529900 0.639900 -0.465300 0.882353 0.815686 0.423529
v 0.528000 0.648900 -0.458700 0.886275 0.811765 0.423529
v 0.526200 0.658200 -0.451500 0.890196 0.811765 0.423529
v 0.524600 0.667900 -0.443900 0.890196 0.807843 0.423529
v 0.523100 0.678000 -0.435700 0.894118 0.803922 0.423529
v 0.521700 0.688300 -0.427000 0.898039 0.800000 0.423529
v 0.520400 0.699000 -0.417700 0.898039 0.796078 0.423529
v 0.519100 0.710000 -0.408000 0.901961 0.792157 0.423529
v 0.517900 0.721300 -0.397800 0.905882 0.788235 0.423529
v 0.516700 0.732800 -0.387100 0.905882 0.784314 0.423529
v 0.515500 0.744700 -0.376000 0.909804 0.784314 0.423529
v 0.514200 0.756700 -0.364400 0.909804 0.780392 0.423529
v 0.512900 0.769000 -0.352400 0.913725 0.776471 0.423529
v 0.511600 0.781500 -0.340000 0.917647 0.772549 0.423529
v 0.510100 0.794100 -0.327100 0.917647 0.768627 0.423529
v 0.508600 0.807000 -0.313900 0.921569 0.764706 0.423529
v 0.507000 0.819900 -0.300300 0.921569 0.760784 0.423529
v 0.505200 0.833000 -0.286300 0.925490 0.756863 0.423529
v 0.503200 0.846200 -0.272000 0.929412 0.752941 0.423529
v 0.501100 0.859400 -0.257400 0.929412 0.749020 0.423529
v 0.498800 0.872700 -0.242500 0.933333 0.745098 0.423529
v 0.496300 0.885900 -0.227300 0.933333 0.741176 0.423529
v 0.493600 0.899200 -0.211800 0.937255 0.737255 0.423529
v 0.490700 0.912400 -0.196100 0.937255 0.733333 0.423529
v 0.487500 0.925600 -0.180100 0.941176 0.729412 0.423529
v 0.484100 0.938600 -0.163900 0.941176 0.725490 0.423529
v 0.480500 0.951600 -0.147500 0.945098 0.721569 0.423529
v 0.476500 0.964300 -0.131000 0.945098 0.717647 0.423529
v 0.472300 0.976900 -0.114300 0.949020 0.713725 0.423529
v 0.467800 0.989300 -0.097400 0.949020 0.713725 0.423529
v 0.463100 1.001500 -0.080500 0.952941 0.709804 0.423529
v 0.458000 1.013400 -0.063400 0.952941 0.705882 0.423529
v 0.452600 1.025000 -0.046300 0.956863 0.701961 0.423529
v 0.447000 1.036300 -0.029100 0.956863 0.698039 0.423529
v 0.441100 1.047200 -0.011800 0.960784 0.690196 0.423529
v 0.434800 1.057800 0.005400 0.960784 0.686275 0.423529
v 0.428300 1.068000 0.022600 0.960784 0.682353 0.423529
v 0.421500 1.077800 0.039800 0.964706 0.678431 0.423529
v 0.414400 1.087200 0.057000 0.964706 0.674510 0.423529
v 0.407000 1.096100 0.074100 0.968627 0.670588 0.423529
v 0.399300 1.104500 0.091100 0.968627 0.666667 0.423529
v 0.391400 1.112500 0.108000 0.968627 0.662745 0.423529
v 0.383200 1.119900 0.124700 0.972549 0.658824 0.423529
v 0.374700 1.126800 0.141300 0.972549 0.654902 0.423529
v 0.366000 1.133200 0.157800 0.972549 0.650980 0.423529
v 0.357100 1.139000 0.174000 0.976471 0.647059 0.423529
v 0.348000 1.144300 0.190100 0.976471 0.643137 0.423529
v 0.338600 1.148900 0.205900 0.976471 0.639216 0.423529
v 0.329000 1.153000 0.221500 0.980392 0.635294 0.423529
v 0.319300 1.156500 0.236800 0.980392 0.631373 0.423529
v 0.309300 1.159400 0.251900 0.980392 0.627451 0.423529
v 0.299200 1.161700 0.266600 0.980392 0.623529 0.423529
v 0.289000 1.163400 0.281000 0.984314 0.619608 0.423529
v 0.278600 1.164500 0.295100 0.984314 0.615686 0.423529
v 0.268200 1.165000 0.308800 0.984314 0.611765 0.423529
v 0.257600 1.164900 0.322200 0.984314 0.607843 0.423529
v 0.246900 1.164200 0.335200 0.988235 0.600000 0.423529
v 0.236200 1.162800 0.347800 0.988235 0.596078 0.423529
v 0.225400 1.160900 0.360000 0.988235 0.592157 0.423529
v 0.214600 1.158400 0.371700 0.988235 0.588235 0.423529
v 0.203700 1.155400 0.383000 0.992157 0.584314 0.423529
v 0.192900 1.151800 0.393900 0.992157 0.580392 0.423529
v 0.182000 1.147600 0.404300 0.992157 0.576471 0.423529
v 0.171200 1.142900 0.414200 0.992157 0.572549 0.423529
v 0.160400 1.137700 0.423600 0.992157 0.568627 0.423529
v 0.149700 1.132000 0.432500 0.992157 0.564706 0.423529
v 0.139000 1.125900 0.440900 0.996078 0.560784 0.423529
v 0.128400 1.119200 0.448700 0.996078 0.556863 0.423529
v 0.117900 1.112200 0.456100 0.996078 0.549020 0.423529
v 0.107500 1.104700 0.462900 0.996078 0.545098 0.423529
v 0.097200 1.096800 0.469100 0.996078 0.541176 0.423529
v 0.087000 1.088600 0.474800 0.996078 0.537255 0.423529
v 0.076900 1.080000 0.479900 0.996078 0.533333 0.423529
v 0.067000 1.071100 0.484500 0.996078 0.529412 0.423529
v 0.057300 1.062000 0.488400 0.996078 0.525490 0.423529
v 0.047700 1.052600 0.491800 0.996078 0.521569 0.423529
v 0.038200 1.042900 0.494600 0.996078 0.517647 0.423529
v 0.028900 1.033100 0.496900 0.996078 0.513725 0.423529
v 0.019800 1.023000 0.498500 0.996078 0.505882 0.423529
v 0.010900 1.012900 0.499500 0.996078 0.501961 0.423529
v 0.002200 1.002600 0.500000 0.996078 0.498039 0.423529
v -0.006400 0.992200 0.499800 0.996078 0.494118 0.423529
v -0.014800 0.981800 0.499100 0.996078 0.490196 0.423529
v -0.023000 0.971400 0.497800 0.996078 0.486275 0.423529
v -0.031100 0.961000 0.495800 0.996078 0.482353 0.423529
v -0.038900 0.950600 0.493300 0.996078 0.478431 0.423529
v -0.046600 0.940200 0.490200 0.996078 0.474510 0.423529
v -0.054200 0.930000 0.486500 0.996078 0.470588 0.423529
v -0.061500 0.919900 0.482300 0.996078 0.462745 0.423529
v -0.068800 0.910000 0.477400 0.996078 0.458824 0.423529
v -0.075800 0.900200 0.472000 0.996078 0.454902 0.423529
v -0.082800 0.890600 0.466100 0.996078 0.450980 0.423529
v -0.089600 0.881300 0.459500 0.996078 0.447059 0.423529
v -0.096200 0.872200 0.452500 0.996078 0.443137 0.423529
v -0.102800 0.863400 0.444900 0.996078 0.439216 0.423529
v -0.109300 0.854900 0.436700 0.992157 0.435294 0.423529
v -0.115600 0.846700 0.428100 0.992157 0.431373 0.423529
v -0.121900 0.838800 0.418900 0.992157 0.427451 0.423529
v -0.128200 0.831300 0.409300 0.992157 0.423529 0.423529
v -0.134400 0.824200 0.399100 0.992157 0.415686 0.423529
v -0.140500 0.817500 0.388500 0.992157 0.411765 0.423529
v -0.146600 0.811100 0.377400 0.988235 0.407843 0.423529
v -0.152700 0.805200 0.365900 0.988235 0.403922 0.423529
v -0.158900 0.799700 0.353900 0.988235 0.400000 0.423529
v -0.165000 0.794700 0.341600 0.988235 0.396078 0.423529
v -0.171100 0.790100 0.328800 0.988235 0.392157 0.423529
v -0.177300 0.785900 0.315600 0.984314 0.388235 0.423529
v -0.183600 0.782200 0.302000 0.984314 0.384314 0.423529
v -0.190000 0.779000 0.288100 0.984314 0.380392 0.423529
v -0.196400 0.776200 0.273900 0.984314 0.376471 0.423529
v -0.202900 0.773900 0.259300 0.980392 0.372549 0.423529
v -0.209600 0.772100 0.244400 0.980392 0.368627 0.423529
v -0.216300 0.770700 0.229200 0.980392 0.364706 0.423529
v -0.223200 0.769800 0.213700 0.976471 0.356863 0.423529
v -0.230300 0.769300 0.198000 0.976471 0.352941 0.423529
v -0.237500 0.769300 0.182100 0.976471 0.349020 0.423529
v -0.244900 0.769600 0.165900 0.972549 0.345098 0.423529
v -0.252500 0.770400 0.149600 0.972549 0.341176 0.423529
v -0.260300 0.771600 0.133000 0.972549 0.337255 0.423529
v -0.268300 0.773200 0.116400 0.968627 0.333333 0.423529
v -0.276500 0.775200 0.099500 0.968627 0.329412 0.423529
v -0.284900 0.777500 0.082600 0.968627 0.325490 0.423529
v -0.293500 0.780200 0.065500 0.964706 0.321569 0.423529
v -0.302400 0.783200 0.048400 0.964706 0.317647 0.423529
v -0.311500 0.786500 0.031200 0.964706 0.313725 0.423529
v -0.320800 0.790100 0.014000 0.960784 0.309804 0.423529
v -0.330400 0.794000 -0.003200 0.960784 0.305882 0.423529
v -0.340200 0.798000 -0.020500 0.956863 0.301961 0.423529
v -0.350200 0.802300 -0.037700 0.956863 0.298039 0.423529
v -0.360500 0.806800 -0.054800 0.952941 0.294118 0.423529
v -0.371000 0.811500 -0.071900 0.952941 0.290196 0.423529
v -0.381700 0.816300 -0.088900 0.949020 0.286275 0.423529
v -0.392700 0.821200 -0.105900 0.949020 0.282353 0.423529
v -0.403800 0.826200 -0.122600 0.949020 0.278431 0.423529
v -0.415200 0.831200 -0.139300 0.945098 0.274510 0.423529
v -0.426800 0.836300 -0.155700 0.945098 0.270588 0.423529
v -0.438600 0.841400 -0.172000 0.941176 0.266667 0.423529
v -0.450600 0.846500 -0.188100 0.941176 0.262745 0.423529
v -0.462700 0.851500 -0.204000 0.937255 0.258824 0.423529
v -0.475000 0.856500 -0.219600 0.937255 0.254902 0.423529
v -0.487400 0.861300 -0.234900 0.933333 0.250980 0.423529
v -0.500000 0.866000 -0.250000 0.929412 0.247059 0.423529
v -0.512700 0.870600 -0.264800 0.929412 0.243137 0.423529
v -0.525500 0.875000 -0.279200 0.925490 0.239216 0.423529
v -0.538400 0.879200 -0.293400 0.925490 0.235294 0.423529
v -0.551300 0.883100 -0.307200 0.921569 0.231373 0.423529
v -0.564300 0.886800 -0.320600 0.921569 0.231373 0.423529
v -0.577300 0.890300 -0.333600 0.917647 0.227451 0.423529
v -0.590400 0.893400 -0.346200 0.913725 0.223529 0.423529
v -0.603400 0.896200 -0.358500 0.913725 0.219608 0.423529
v -0.616400 0.898700 -0.370300 0.909804 0.215686 0.423529
v -0.629300 0.900800 -0.381600 0.909804 0.211765 0.423529
v -0.642200 0.902600 -0.392500 0.905882 0.207843 0.423529
v -0.655000 0.904000 -0.403000 0.901961 0.203922 0.423529
v -0.667600 0.904900 -0.412900 0.901961 0.200000 0.423529
v -0.680200 0.905500 -0.422400 0.898039 0.196078 0.423529
v -0.692600 0.905600 -0.431400 0.894118 0.196078 0.423529
v -0.704800 0.905300 -0.439800 0.894118 0.192157 0.423529
v -0.716700 0.904500 -0.447800 0.890196 0.188235 0.423529
v -0.728500 0.903200 -0.455200 0.886275 0.184314 0.423529
v -0.740100 0.901500 -0.462000 0.886275 0.180392 0.423529
v -0.751300 0.899300 -0.468400 0.882353 0.176471 0.423529
v -0.762300 0.896700 -0.474100 0.878431 0.172549 0.423529
v -0.773000 0.893500 -0.479300 0.874510 0.172549 0.423529
v -0.783400 0.889900 -0.483900 0.874510 0.168627 0.423529
v -0.793500 0.885800 -0.488000 0.870588 0.164706 0.423529
v -0.803200 0.881200 -0.491400 0.866667 0.160784 0.423529
v -0.812500 0.876200 -0.494300 0.862745 0.156863 0.423529
v -0.821400 0.870600 -0.496600 0.862745 0.156863 0.423529
v -0.829900 0.864600 -0.498300 0.858824 0.152941 0.423529
v -0.838100 0.858200 -0.499400 0.854902 0.149020 0.423529
v -0.845800 0.851200 -0.500000 0.850980 0.145098 0.423529
v -0.853000 0.843900 -0.499900 0.850980 0.141176 0.423529
v -0.859800 0.836100 -0.499200 0.847059 0.141176 0.423529
v -0.866200 0.827800 -0.498000 0.843137 0.137255 0.423529
v -0.872100 0.819200 -0.496100 0.839216 0.133333 0.423529
v -0.877500 0.810200 -0.493700 0.835294 0.129412 0.423529
v -0.882400 0.800800 -0.490600 0.835294 0.129412 0.423529
v -0.886900 0.791000 -0.487000 0.831373 0.125490 0.423529
v -0.890900 0.780900 -0.482800 0.827451 0.121569 0.423529
v -0.894400 0.770400 -0.478100 0.823529 0.117647 0.423529
v -0.897400 0.759600 -0.472700 0.819608 0.117647 0.423529
v -0.899900 0.748600 -0.466800 0.819608 0.113725 0.423529
v -0.902000 0.737200 -0.460400 0.815686 0.109804 0.423529
v -0.903600 0.725600 -0.453400 0.811765 0.109804 0.423529
v -0.904700 0.713800 -0.445800 0.807843 0.105882 0.423529
v -0.905400 0.701700 -0.437800 0.803922 0.101961 0.423529
v -0.905600 0.689500 -0.429200 0.800000 0.101961 0.423529
v -0.905400 0.677100 -0.420100 0.796078 0.098039 0.423529
v -0.904700 0.664500 -0.410500 0.792157 0.094118 0.423529
v -0.903600 0.651800 -0.400400 0.792157 0.094118 0.423529
v -0.902200 0.639000 -0.389900 0.788235 0.090196 0.423529
v -0.900300 0.626100 -0.378800 0.784314 0.086275 0.423529
v -0.898100 0.613100 -0.367400 0.780392 0.086275 0.423529
v -0.895500 0.600100 -0.355500 0.776471 0.082353 0.423529
v -0.892600 0.587100 -0.343100 0.772549 0.078431 0.423529
v -0.889400 0.574100 -0.330400 0.768627 0.078431 0.423529
v -0.885900 0.561000 -0.317200 0.764706 0.074510 0.423529
v -0.882200 0.548100 -0.303700 0.760784 0.074510 0.423529
v -0.878100 0.535100 -0.289900 0.756863 0.070588 0.423529
v -0.873900 0.522300 -0.275700 0.752941 0.070588 0.423529
v -0.869500 0.509500 -0.261100 0.749020 0.066667 0.423529
v -0.864900 0.496800 -0.246300 0.749020 0.062745 0.423529
v -0.860100 0.484300 -0.231100 0.745098 0.062745 0.423529
v -0.855200 0.471900 -0.215700 0.741176 0.058824 0.423529
v -0.850300 0.459600 -0.200000 0.737255 0.058824 0.423529
v -0.845200 0.447500 -0.184100 0.733333 0.054902 0.423529
v -0.840100 0.435600 -0.168000 0.729412 0.054902 0.423529
v -0.835000 0.423900 -0.151600 0.725490 0.050980 0.423529
v -0.830000 0.412400 -0.135100 0.721569 0.050980 0.423529
v -0.824900 0.401000 -0.118500 0.717647 0.047059 0.423529
v -0.820000 0.389900 -0.101600 0.713725 0.047059 0.423529
v -0.815100 0.379000 -0.084700 0.709804 0.043137 0.423529
v -0.810300 0.368300 -0.067700 0.705882 0.043137 0.423529
v -0.805700 0.357900 -0.050500 0.701961 0.039216 0.423529
v -0.801300 0.347700 -0.033400 0.698039 0.039216 0.423529
v -0.797000 0.337700 -0.016200 0.694118 0.039216 0.423529
v -0.793000 0.328000 0.001100 0.690196 0.035294 0.423529
v -0.789200 0.318500 0.018300 0.686275 0.035294 0.423529
v -0.785700 0.309200 0.035500 0.682353 0.031373 0.423529
v -0.782400 0.300200 0.052700 0.678431 0.031373 0.423529
v -0.779500 0.291400 0.069800 0.674510 0.031373 0.423529
v -0.776900 0.282800 0.086800 0.670588 0.027451 0.423529
v -0.774700 0.274400 0.103700 0.666667 0.027451 0.423529
v -0.772800 0.266300 0.120500 0.662745 0.023529 0.423529
v -0.771300 0.258400 0.137200 0.654902 0.023529 0.423529
v -0.770200 0.250600 0.153700 0.650980 0.023529 0.423529
v -0.769500 0.243100 0.170000 0.647059 0.019608 0.423529
v -0.769200 0.235700 0.186100 0.643137 0.019608 0.423529
v -0.769400 0.228500 0.202000 0.639216 0.019608 0.423529
v -0.770000 0.221500 0.217600 0.635294 0.015686 0.423529
v -0.771000 0.214600 0.233000 0.631373 0.015686 0.423529
v -0.772500 0.207900 0.248100 0.627451 0.015686 0.423529
v -0.774500 0.201300 0.262900 0.623529 0.015686 0.423529
v -0.776900 0.194800 0.277400 0.619608 0.011765 0.423529
v -0.779800 0.188400 0.291600 0.615686 0.011765 0.423529
v -0.783100 0.182000 0.305400 0.611765 0.011765 0.423529
v -0.786900 0.175800 0.318900 0.607843 0.011765 0.423529
v -0.791200 0.169600 0.332000 0.603922 0.007843 0.423529
v -0.795900 0.163400 0.344700 0.600000 0.007843 0.423529
v -0.801100 0.157300 0.357000 0.596078 0.007843 0.423529
v -0.806600 0.151200 0.368800 0.588235 0.007843 0.423529
v -0.812700 0.145100 0.380200 0.584314 0.003922 0.423529
v -0.819100 0.139000 0.391200 0.580392 0.003922 0.423529
v -0.825900 0.132800 0.401700 0.576471 0.003922 0.423529
v -0.833100 0.126600 0.411700 0.572549 0.003922 0.423529
v -0.840700 0.120400 0.421300 0.568627 0.003922 0.423529
v -0.848700 0.114100 0.430300 0.564706 0.003922 0.423529
v -0.857000 0.107700 0.438800 0.560784 0.000000 0.423529
v -0.865600 0.101200 0.446800 0.556863 0.000000 0.423529
v -0.874400 0.094600 0.454300 0.552941 0.000000 0.423529
v -0.883600 0.087900 0.461200 0.549020 0.000000 0.423529
v -0.893000 0.081000 0.467600 0.545098 0.000000 0.423529
v -0.902600 0.074100 0.473400 0.537255 0.000000 0.423529
v -0.912400 0.067000 0.478700 0.533333 0.000000 0.423529
v -0.922400 0.059700 0.483400 0.529412 0.000000 0.423529
v -0.932600 0.052300 0.487500 0.525490 0.000000 0.423529
v -0.942800 0.044700 0.491000 0.521569 0.000000 0.423529
v -0.953200 0.037000 0.494000 0.517647 0.000000 0.423529
v -0.963600 0.029100 0.496400 0.513725 0.000000 0.423529
v -0.974000 0.021000 0.498100 0.509804 0.000000 0.423529
v -0.984400 0.012700 0.499300 0.505882 0.000000 0.423529
v -0.994800 0.004300 0.499900 0.501961 0.000000 0.423529
v -1.005200 -0.004300 0.499900 0.494118 0.000000 0.423529
v -1.015400 -0.013100 0.499300 0.490196 0.000000 0.423529
v -1.025500 -0.022100 0.498100 0.486275 0.000000 0.423529
v -1.035500 -0.031200 0.496400 0.482353 0.000000 0.423529
v -1.045300 -0.040600 0.494000 0.478431 0.000000 0.423529
v -1.054900 -0.050000 0.491000 0.474510 0.000000 0.423529
v -1.064300 -0.059700 0.487500 0.470588 0.000000 0.423529
v -1.073400 -0.069500 0.483400 0.466667 0.000000 0.423529
v -1.082200 -0.079400 0.478700 0.462745 0.000000 0.423529
v -1.090700 -0.089500 0.473400 0.458824 0.000000 0.423529
v -1.098800 -0.099700 0.467600 0.450980 0.000000 0.423529
v -1.106600 -0.110000 0.461200 0.447059 0.000000 0.423529
v -1.114000 -0.120500 0.454300 0.443137 0.000000 0.423529
v -1.120900 -0.131000 0.446800 0.439216 0.000000 0.423529
v -1.127400 -0.141600 0.438800 0.435294 0.000000 0.423529
v -1.133500 -0.152300 0.430300 0.431373 0.003922 0.423529
v -1.139100 -0.163100 0.421300 0.427451 0.003922 0.423529
v -1.144100 -0.173900 0.411700 0.423529 0.003922 0.423529
v -1.148700 -0.184700 0.401700 0.419608 0.003922 0.423529
v -1.152700 -0.195600 0.391200 0.415686 0.003922 0.423529
v -1.156200 -0.206400 0.380200 0.411765 0.003922 0.423529
v -1.159100 -0.217300 0.368800 0.407843 0.007843 0.423529
v -1.161500 -0.228100 0.357000 0.400000 0.007843 0.423529
v -1.163200 -0.238900 0.344700 0.396078 0.007843 0.423529
v -1.164400 -0.249600 0.332000 0.392157 0.007843 0.423529
v -1.165000 -0.260200 0.318900 0.388235 0.011765 0.423529
v -1.164900 -0.270800 0.305400 0.384314 0.011765 0.423529
v -1.164300 -0.281300 0.291600 0.380392 0.011765 0.423529
v -1.163100 -0.291600 0.277400 0.376471 0.011765 0.423529
v -1.161200 -0.301800 0.262900 0.372549 0.015686 0.423529
v -1.158800 -0.311800 0.248100 0.368627 0.015686 0.423529
v -1.155700 -0.321700 0.233000 0.364706 0.015686 0.423529
v -1.152100 -0.331400 0.217600 0.360784 0.015686 0.423529
v -1.147800 -0.340900 0.202000 0.356863 0.019608 0.423529
v -1.143000 -0.350300 0.186100 0.352941 0.019608 0.423529
v -1.137600 -0.359400 0.170000 0.349020 0.019608 0.423529
v -1.131600 -0.368200 0.153700 0.345098 0.023529 0.423529
v -1.125100 -0.376900 0.137200 0.341176 0.023529 0.423529
v -1.118100 -0.385300 0.120500 0.333333 0.023529 0.423529
v -1.110500 -0.393400 0.103700 0.329412 0.027451 0.423529
v -1.102500 -0.401300 0.086800 0.325490 0.027451 0.423529
v -1.093900 -0.408900 0.069800 0.321569 0.031373 0.423529
v -1.084900 -0.416200 0.052700 0.317647 0.031373 0.423529
v -1.075400 -0.423200 0.035500 0.313725 0.031373 0.423529
v -1.065500 -0.430000 0.018300 0.309804 0.035294 0.423529
v -1.055200 -0.436400 0.001100 0.305882 0.035294 0.423529
v -1.044500 -0.442600 -0.016200 0.301961 0.039216 0.423529
v -1.033500 -0.448400 -0.033400 0.298039 0.039216 0.423529
v -1.022100 -0.454000 -0.050500 0.294118 0.039216 0.423529
v -1.010400 -0.459300 -0.067700 0.290196 0.043137 0.423529
v -0.998500 -0.464300 -0.084700 0.286275 0.043137 0.423529
v -0.986200 -0.469000 -0.101600 0.282353 0.047059 0.423529
v -0.973800 -0.473400 -0.118500 0.278431 0.047059 0.423529
v -0.961100 -0.477500 -0.135100 0.274510 0.050980 0.423529
v -0.948300 -0.481400 -0.151600 0.270588 0.050980 0.423529
v -0.935400 -0.485000 -0.168000 0.266667 0.054902 0.423529
v -0.922300 -0.488400 -0.184100 0.262745 0.054902 0.423529
v -0.909100 -0.491500 -0.200000 0.258824 0.058824 0.423529
v -0.895900 -0.494300 -0.215700 0.254902 0.058824 0.423529
v -0.882600 -0.497000 -0.231100 0.250980 0.062745 0.423529
v -0.869300 -0.499400 -0.246300 0.247059 0.062745 0.423529
v -0.856100 -0.501700 -0.261100 0.247059 0.066667 0.423529
v -0.842900 -0.503700 -0.275700 0.243137 0.070588 0.423529
v -0.829700 -0.505600 -0.289900 0.239216 0.070588 0.423529
v -0.816700 -0.507400 -0.303700 0.235294 0.074510 0.423529
v -0.803700 -0.509000 -0.317200 0.231373 0.074510 0.423529
v -0.791000 -0.510500 -0.330400 0.227451 0.078431 0.423529
v -0.778300 -0.511900 -0.343100 0.223529 0.078431 0.423529
v -0.765900 -0.513300 -0.355500 0.219608 0.082353 0.423529
v -0.753700 -0.514500 -0.367400 0.215686 0.086275 0.423529
v -0.741700 -0.515800 -0.378800 0.211765 0.086275 0.423529
v -0.729900 -0.517000 -0.389900 0.207843 0.090196 0.423529
v -0.718400 -0.518200 -0.400400 0.203922 0.094118 0.423529
v -0.707200 -0.519400 -0.410500 0.203922 0.094118 0.423529
v -0.696300 -0.520700 -0.420100 0.200000 0.098039 0.423529
v -0.685700 -0.522100 -0.429200 0.196078 0.101961 0.423529
v -0.675400 -0.523500 -0.437800 0.192157 0.101961 0.423529
v -0.665500 -0.525000 -0.445800 0.188235 0.105882 0.423529
v -0.655800 -0.526700 -0.453400 0.184314 0.109804 0.423529
v -0.646600 -0.528500 -0.460400 0.180392 0.109804 0.423529
v -0.637700 -0.530400 -0.466800 0.176471 0.113725 0.423529
v -0.629100 -0.532500 -0.472700 0.176471 0.117647 0.423529
v -0.621000 -0.534900 -0.478100 0.172549 0.117647 0.423529
v -0.613200 -0.537400 -0.482800 0.168627 0.121569 0.423529
v -0.605700 -0.540200 -0.487000 0.164706 0.125490 0.423529
v -0.598700 -0.543300 -0.490600 0.160784 0.129412 0.423529
v -0.592000 -0.546600 -0.493700 0.160784 0.129412 0.423529
v -0.585600 -0.550100 -0.496100 0.156863 0.133333 0.423529
v -0.579700 -0.554000 -0.498000 0.152941 0.137255 0.423529
v -0.574100 -0.558200 -0.499200 0.149020 0.141176 0.423529
v -0.568800 -0.562700 -0.499900 0.145098 0.141176 0.423529
v -0.563900 -0.567500 -0.500000 0.145098 0.145098 0.423529
v -0.559300 -0.572700 -0.499400 0.141176 0.149020 0.423529
v -0.555000 -0.578200 -0.498300 0.137255 0.152941 0.423529
v -0.551100 -0.584100 -0.496600 0.133333 0.156863 0.423529
v -0.547400 -0.590300 -0.494300 0.133333 0.156863 0.423529
v -0.544100 -0.596900 -0.491400 0.129412 0.160784 0.423529
v -0.541000 -0.603900 -0.488000 0.125490 0.164706 0.423529
v -0.538100 -0.611300 -0.483900 0.121569 0.168627 0.423529
v -0.535500 -0.619000 -0.479300 0.121569 0.172549 0.423529
v -0.533100 -0.627100 -0.474100 0.117647 0.172549 0.423529
v -0.530900 -0.635500 -0.468400 0.113725 0.176471 0.423529
v -0.528900 -0.644300 -0.462000 0.109804 0.180392 0.423529
v -0.527100 -0.653500 -0.455200 0.109804 0.184314 0.423529
v -0.525400 -0.663000 -0.447800 0.105882 0.188235 0.423529
v -0.523900 -0.672900 -0.439800 0.101961 0.192157 0.423529
v -0.522400 -0.683100 -0.431400 0.101961 0.196078 0.423529
v -0.521000 -0.693600 -0.422400 0.098039 0.196078 0.423529
v -0.519700 -0.704500 -0.412900 0.094118 0.200000 0.423529
v -0.518500 -0.715600 -0.403000 0.094118 0.203922 0.423529
v -0.517300 -0.727000 -0.392500 0.090196 0.207843 0.423529
v -0.516100 -0.738700 -0.381600 0.086275 0.211765 0.423529
v -0.514800 -0.750700 -0.370300 0.086275 0.215686 0.423529
v -0.513600 -0.762800 -0.358500 0.082353 0.219608 0.423529
v -0.512300 -0.775200 -0.346200 0.082353 0.223529 0.423529
v -0.510900 -0.787800 -0.333600 0.078431 0.227451 0.423529
v -0.509400 -0.800500 -0.320600 0.074510 0.231373 0.423529
v -0.507800 -0.813400 -0.307200 0.074510 0.231373 0.423529
v -0.506100 -0.826500 -0.293400 0.070588 0.235294 0.423529
v -0.504200 -0.839600 -0.279200 0.070588 0.239216 0.423529
v -0.502200 -0.852800 -0.264800 0.066667 0.243137 0.423529
v -0.500000 -0.866000 -0.250000 0.066667 0.247059 0.423529
v -0.497600 -0.879300 -0.234900 0.062745 0.250980 0.423529
v -0.495000 -0.892600 -0.219600 0.058824 0.254902 0.423529
v -0.492200 -0.905800 -0.204000 0.058824 0.258824 0.423529
v -0.489200 -0.919000 -0.188100 0.054902 0.262745 0.423529
v -0.485900 -0.932100 -0.172000 0.054902 0.266667 0.423529
v -0.482300 -0.945100 -0.155700 0.050980 0.270588 0.423529
v -0.478500 -0.958000 -0.139300 0.050980 0.274510 0.423529
v -0.474500 -0.970600 -0.122600 0.047059 0.278431 0.423529
v -0.470100 -0.983100 -0.105900 0.047059 0.282353 0.423529
v -0.465500 -0.995400 -0.088900 0.047059 0.286275 0.423529
v -0.460600 -1.007400 -0.071900 0.043137 0.290196 0.423529
v -0.455400 -1.019200 -0.054800 0.043137 0.294118 0.423529
v -0.449900 -1.030700 -0.037700 0.039216 0.298039 0.423529
v -0.444100 -1.041800 -0.020500 0.039216 0.301961 0.423529
v -0.438000 -1.052600 -0.003200 0.035294 0.305882 0.423529
v -0.431600 -1.063000 0.014000 0.035294 0.309804 0.423529
v -0.424900 -1.073000 0.031200 0.031373 0.313725 0.423529
v -0.418000 -1.082500 0.048400 0.031373 0.317647 0.423529
v -0.410700 -1.091700 0.065500 0.031373 0.321569 0.423529
v -0.403200 -1.100400 0.082600 0.027451 0.325490 0.423529
v -0.395400 -1.108600 0.099500 0.027451 0.329412 0.423529
v -0.387300 -1.116200 0.116400 0.027451 0.333333 0.423529
v -0.379000 -1.123400 0.133000 0.023529 0.337255 0.423529
v -0.370400 -1.130100 0.149600 0.023529 0.341176 0.423529
v -0.361600 -1.136200 0.165900 0.023529 0.345098 0.423529
v -0.352600 -1.141700 0.182100 0.019608 0.349020 0.423529
v -0.343300 -1.146700 0.198000 0.019608 0.352941 0.423529
v -0.333800 -1.151100 0.213700 0.019608 0.356863 0.423529
v -0.324200 -1.154900 0.229200 0.015686 0.364706 0.423529
v -0.314300 -1.158100 0.244400 0.015686 0.368627 0.423529
v -0.304300 -1.160700 0.259300 0.015686 0.372549 0.423529
v -0.294100 -1.162700 0.273900 0.011765 0.376471 0.423529
v -0.283800 -1.164100 0.288100 0.011765 0.380392 0.423529
v -0.273400 -1.164800 0.302000 0.011765 0.384314 0.423529
v -0.262900 -1.165000 0.315600 0.011765 0.388235 0.423529
v -0.252300 -1.164600 0.328800 0.007843 0.392157 0.423529
v -0.241600 -1.163600 0.341600 0.007843 0.396078 0.423529
v -0.230800 -1.162000 0.353900 0.007843 0.400000 0.423529
v -0.220000 -1.159800 0.365900 0.007843 0.403922 0.423529
v -0.209200 -1.157000 0.377400 0.007843 0.407843 0.423529
v -0.198300 -1.153600 0.388500 0.003922 0.411765 0.423529
v -0.187400 -1.149800 0.399100 0.003922 0.415686 0.423529
v -0.176600 -1.145300 0.409300 0.003922 0.423529 0.423529
v -0.165800 -1.140400 0.418900 0.003922 0.427451 0.423529
v -0.155000 -1.134900 0.428100 0.003922 0.431373 0.423529
v -0.144300 -1.129000 0.436700 0.003922 0.435294 0.423529
v -0.133700 -1.122600 0.444900 0.000000 0.439216 0.423529
v -0.123100 -1.115700 0.452500 0.000000 0.443137 0.423529
v -0.112600 -1.108500 0.459500 0.000000 0.447059 0.423529
v -0.102300 -1.100800 0.466100 0.000000 0.450980 0.423529
v -0.092000 -1.092800 0.472000 0.000000 0.454902 0.423529
v -0.081900 -1.084400 0.477400 0.000000 0.458824 0.423529
v -0.072000 -1.075600 0.482300 0.000000 0.462745 0.423529
v -0.062100 -1.066600 0.486500 0.000000 0.470588 0.423529
v -0.052400 -1.057300 0.490200 0.000000 0.474510 0.423529
v -0.042900 -1.047800 0.493300 0.000000 0.478431 0.423529
v -0.033600 -1.038000 0.495800 0.000000 0.482353 0.423529
v -0.024400 -1.028100 0.497800 0.000000 0.486275 0.423529
v -0.015400 -1.018000 0.499100 0.000000 0.490196 0.423529
v -0.006500 -1.007700 0.499800 0.000000 0.494118 0.423529
v 0.002100 -0.997400 0.500000 0.000000 0.498039 0.423529
v 0.010600 -0.987000 0.499500 0.000000 0.501961 0.423529
v 0.018900 -0.976600 0.498500 0.000000 0.505882 0.423529
v 0.027100 -0.966200 0.496900 0.000000 0.513725 0.423529
v 0.035000 -0.955800 0.494600 0.000000 0.517647 0.423529
v 0.042800 -0.945400 0.491800 0.000000 0.521569 0.423529
v 0.050400 -0.935100 0.488400 0.000000 0.525490 0.423529
v 0.057900 -0.925000 0.484500 0.000000 0.529412 0.423529
v 0.065200 -0.914900 0.479900 0.000000 0.533333 0.423529
v 0.072300 -0.905100 0.474800 0.000000 0.537255 0.423529
v 0.079300 -0.895400 0.469100 0.000000 0.541176 0.423529
v 0.086200 -0.885900 0.462900 0.000000 0.545098 0.423529
v 0.092900 -0.876700 0.456100 0.000000 0.549020 0.423529
v 0.099500 -0.867700 0.448700 0.000000 0.556863 0.423529
v 0.106000 -0.859100 0.440900 0.000000 0.560784 0.423529
v 0.112500 -0.850700 0.432500 0.003922 0.564706 0.423529
v 0.118800 -0.842700 0.423600 0.003922 0.568627 0.423529
v 0.125100 -0.835000 0.414200 0.003922 0.572549 0.423529
v 0.131300 -0.827700 0.404300 0.003922 0.576471 0.423529
v 0.137400 -0.820800 0.393900 0.003922 0.580392 0.423529
v 0.143600 -0.814200 0.383000 0.003922 0.584314 0.423529
v 0.149700 -0.808100 0.371700 0.007843 0.588235 0.423529
v 0.155800 -0.802400 0.360000 0.007843 0.592157 0.423529
v 0.161900 -0.797100 0.347800 0.007843 0.596078 0.423529
v 0.168100 -0.792300 0.335200 0.007843 0.600000 0.423529
v 0.174200 -0.787900 0.322200 0.011765 0.607843 0.423529
v 0.180500 -0.784000 0.308800 0.011765 0.611765 0.423529
v 0.186800 -0.780600 0.295100 0.011765 0.615686 0.423529
v 0.193200 -0.777600 0.281000 0.011765 0.619608 0.423529
v 0.199600 -0.775000 0.266600 0.015686 0.623529 0.423529
v 0.206200 -0.773000 0.251900 0.015686 0.627451 0.423529
v 0.212900 -0.771400 0.236800 0.015686 0.631373 0.423529
v 0.219800 -0.770200 0.221500 0.015686 0.635294 0.423529
v 0.226800 -0.769500 0.205900 0.019608 0.639216 0.423529
v 0.233900 -0.769200 0.190100 0.019608 0.643137 0.423529
v 0.241200 -0.769400 0.174000 0.019608 0.647059 0.423529
v 0.248700 -0.770000 0.157800 0.023529 0.650980 0.423529
v 0.256400 -0.771000 0.141300 0.023529 0.654902 0.423529
v 0.264300 -0.772400 0.124700 0.023529 0.658824 0.423529
v 0.272400 -0.774200 0.108000 0.027451 0.662745 0.423529
v 0.280700 -0.776300 0.091100 0.027451 0.666667 0.423529
v 0.289200 -0.778800 0.074100 0.027451 0.670588 0.423529
v 0.297900 -0.781700 0.057000 0.031373 0.674510 0.423529
v 0.306900 -0.784800 0.039800 0.031373 0.678431 0.423529
v 0.316100 -0.788300 0.022600 0.035294 0.682353 0.423529
v 0.325600 -0.792000 0.005400 0.035294 0.686275 0.423529
v 0.335200 -0.796000 -0.011800 0.035294 0.690196 0.423529
v 0.345200 -0.800200 -0.029100 0.039216 0.698039 0.423529
v 0.355300 -0.804600 -0.046300 0.039216 0.701961 0.423529
v 0.365700 -0.809100 -0.063400 0.043137 0.705882 0.423529
v 0.376300 -0.813900 -0.080500 0.043137 0.709804 0.423529
v 0.387200 -0.818700 -0.097400 0.047059 0.713725 0.423529
v 0.398200 -0.823700 -0.114300 0.047059 0.713725 0.423529
v 0.409500 -0.828700 -0.131000 0.050980 0.717647 0.423529
v 0.421000 -0.833800 -0.147500 0.050980 0.721569 0.423529
v 0.432700 -0.838900 -0.163900 0.054902 0.725490 0.423529
v 0.444500 -0.844000 -0.180100 0.054902 0.729412 0.423529
v 0.456600 -0.849000 -0.196100 0.058824 0.733333 0.423529
v 0.468800 -0.854000 -0.211800 0.058824 0.737255 0.423529
v 0.481200 -0.858900 -0.227300 0.062745 0.741176 0.423529
v 0.493700 -0.863700 -0.242500 0.062745 0.745098 0.423529
v 0.506300 -0.868300 -0.257400 0.066667 0.749020 0.423529
v 0.519100 -0.872800 -0.272000 0.066667 0.752941 0.423529
v 0.531900 -0.877100 -0.286300 0.070588 0.756863 0.423529
v 0.544800 -0.881200 -0.300300 0.074510 0.760784 0.423529
v 0.557800 -0.885000 -0.313900 0.074510 0.764706 0.423529
v 0.570800 -0.888600 -0.327100 0.078431 0.768627 0.423529
v 0.583800 -0.891900 -0.340000 0.078431 0.772549 0.423529
v 0.596900 -0.894800 -0.352400 0.082353 0.776471 0.423529
v 0.609900 -0.897500 -0.364400 0.086275 0.780392 0.423529
v 0.622900 -0.899800 -0.376000 0.086275 0.784314 0.423529
v 0.635800 -0.901800 -0.387100 0.090196 0.784314 0.423529
v 0.648600 -0.903300 -0.397800 0.090196 0.788235 0.423529
v 0.661300 -0.904500 -0.408000 0.094118 0.792157 0.423529
v 0.673900 -0.905200 -0.417700 0.098039 0.796078 0.423529
v 0.686400 -0.905600 -0.427000 0.098039 0.800000 0.423529
v 0.698700 -0.905500 -0.435700 0.101961 0.803922 0.423529
v 0.710800 -0.904900 -0.443900 0.105882 0.807843 0.423529
v 0.722700 -0.903900 -0.451500 0.105882 0.811765 0.423529
v 0.734300 -0.902400 -0.458700 0.109804 0.811765 0.423529
v 0.745700 -0.900500 -0.465300 0.113725 0.815686 0.423529
v 0.756900 -0.898100 -0.471300 0.117647 0.819608 0.423529
v 0.767700 -0.895200 -0.476800 0.117647 0.823529 0.423529
v 0.778300 -0.891800 -0.481700 0.121569 0.827451 0.423529
v 0.788500 -0.887900 -0.486000 0.125490 0.831373 0.423529
v 0.798400 -0.883600 -0.489800 0.125490 0.831373 0.423529
v 0.807900 -0.878800 -0.493000 0.129412 0.835294 0.423529
v 0.817000 -0.873500 -0.495500 0.133333 0.839216 0.423529
v 0.825700 -0.867700 -0.497500 0.137255 0.843137 0.423529
v 0.834100 -0.861500 -0.499000 0.137255 0.847059 0.423529
v 0.842000 -0.854800 -0.499800 0.141176 0.847059 0.423529
v 0.849400 -0.847600 -0.500000 0.145098 0.850980 0.423529
v 0.856500 -0.840000 -0.499600 0.149020 0.854902 0.423529
v 0.863100 -0.832000 -0.498700 0.152941 0.858824 0.423529
v 0.869200 -0.823600 -0.497100 0.152941 0.862745 0.423529
v 0.874800 -0.814700 -0.495000 0.156863 0.862745 0.423529
v 0.880000 -0.805500 -0.492200 0.160784 0.866667 0.423529
v 0.884700 -0.795900 -0.488900 0.164706 0.870588 0.423529
v 0.888900 -0.786000 -0.485000 0.168627 0.874510 0.423529
v 0.892700 -0.775700 -0.480500 0.168627 0.874510 0.423529
v 0.895900 -0.765000 -0.475500 0.172549 0.878431 0.423529
v 0.898700 -0.754100 -0.469800 0.176471 0.882353 0.423529
v 0.901000 -0.742900 -0.463700 0.180392 0.882353 0.423529
v 0.902900 -0.731400 -0.456900 0.184314 0.886275 0.423529
v 0.904200 -0.719700 -0.449700 0.188235 0.890196 0.423529
v 0.905100 -0.707800 -0.441900 0.188235 0.890196 0.423529
v 0.905500 -0.695600 -0.433600 0.192157 0.894118 0.423529
v 0.905500 -0.683300 -0.424700 0.196078 0.898039 0.423529
v 0.905100 -0.670800 -0.415400 0.200000 0.898039 0.423529
v 0.904200 -0.658200 -0.405500 0.203922 0.901961 0.423529
v 0.903000 -0.645400 -0.395200 0.207843 0.905882 0.423529
v 0.901300 -0.632500 -0.384400 0.211765 0.905882 0.423529
v 0.899300 -0.619600 -0.373200 0.215686 0.909804 0.423529
v 0.896900 -0.606600 -0.361500 0.219608 0.913725 0.423529
v 0.894100 -0.593600 -0.349300 0.219608 0.913725 0.423529
v 0.891100 -0.580600 -0.336800 0.223529 0.917647 0.423529
v 0.887700 -0.567600 -0.323900 0.227451 0.917647 0.423529
v 0.884100 -0.554600 -0.310500 0.231373 0.921569 0.423529
v 0.880200 -0.541600 -0.296800 0.235294 0.925490 0.423529
v 0.876000 -0.528700 -0.282800 0.239216 0.925490 0.423529
v 0.871700 -0.515900 -0.268400 0.243137 0.929412 0.423529
v 0.867200 -0.503200 -0.253700 0.247059 0.929412 0.423529
v 0.862500 -0.490600 -0.238700 0.250980 0.933333 0.423529
v 0.857700 -0.478100 -0.223400 0.254902 0.933333 0.423529
v 0.852800 -0.465700 -0.207900 0.258824 0.937255 0.423529
v 0.847700 -0.453600 -0.192100 0.262745 0.937255 0.423529
v 0.842700 -0.441600 -0.176100 0.266667 0.941176 0.423529
v 0.837600 -0.429700 -0.159800 0.270588 0.941176 0.423529
v 0.832500 -0.418100 -0.143400 0.274510 0.945098 0.423529
v 0.827400 -0.406700 -0.126800 0.278431 0.945098 0.423529
v 0.822400 -0.395400 -0.110100 0.282353 0.949020 0.423529
v 0.817500 -0.384400 -0.093200 0.286275 0.949020 0.423529
v 0.812700 -0.373600 -0.076200 0.290196 0.952941 0.423529
v 0.808000 -0.363100 -0.059100 0.294118 0.952941 0.423529
v 0.803500 -0.352800 -0.042000 0.298039 0.956863 0.423529
v 0.799100 -0.342700 -0.024800 0.301961 0.956863 0.423529
v 0.795000 -0.332800 -0.007500 0.305882 0.960784 0.423529
v 0.791100 -0.323200 0.009700 0.309804 0.960784 0.423529
v 0.787400 -0.313800 0.026900 0.313725 0.960784 0.423529
v 0.784000 -0.304600 0.044100 0.317647 0.964706 0.423529
v 0.780900 -0.295700 0.061300 0.321569 0.964706 0.423529
v 0.778200 -0.287000 0.078300 0.325490 0.968627 0.423529
v 0.775800 -0.278600 0.095300 0.329412 0.968627 0.423529
v 0.773700 -0.270300 0.112200 0.333333 0.968627 0.423529
v 0.772000 -0.262300 0.128900 0.337255 0.972549 0.423529
v 0.770700 -0.254500 0.145500 0.341176 0.972549 0.423529
v 0.769800 -0.246800 0.161900 0.345098 0.972549 0.423529
v 0.769300 -0.239400 0.178100 0.349020 0.976471 0.423529
v 0.769200 -0.232100 0.194100 0.352941 0.976471 0.423529
v 0.769600 -0.225000 0.209800 0.356863 0.976471 0.423529
v 0.770400 -0.218000 0.225400 0.360784 0.980392 0.423529
v 0.771700 -0.211200 0.240600 0.364706 0.980392 0.423529
v 0.773400 -0.204600 0.255600 0.368627 0.980392 0.423529
v 0.775600 -0.198000 0.270200 0.372549 0.984314 0.423529
v 0.778300 -0.191600 0.284600 0.380392 0.984314 0.423529
v 0.781400 -0.185200 0.298600 0.384314 0.984314 0.423529
v 0.785000 -0.178900 0.312200 0.388235 0.984314 0.423529
v 0.789000 -0.172700 0.325500 0.392157 0.988235 0.423529
v 0.793500 -0.166500 0.338400 0.396078 0.988235 0.423529
v 0.798400 -0.160400 0.350900 0.400000 0.988235 0.423529
v 0.803800 -0.154300 0.362900 0.403922 0.988235 0.423529
v 0.809600 -0.148200 0.374600 0.407843 0.988235 0.423529
v 0.815800 -0.142000 0.385800 0.411765 0.992157 0.423529
v 0.822500 -0.135900 0.396500 0.415686 0.992157 0.423529
v 0.829500 -0.129700 0.406800 0.419608 0.992157 0.423529
v 0.836900 -0.123500 0.416600 0.423529 0.992157 0.423529
v 0.844700 -0.117200 0.425800 0.427451 0.992157 0.423529
v 0.852800 -0.110900 0.434600 0.435294 0.992157 0.423529
v 0.861200 -0.104400 0.442900 0.439216 0.996078 0.423529
v 0.870000 -0.097900 0.450600 0.443137 0.996078 0.423529
v 0.879000 -0.091200 0.457800 0.447059 0.996078 0.423529
v 0.888300 -0.084500 0.464500 0.450980 0.996078 0.423529
v 0.897800 -0.077600 0.470600 0.454902 0.996078 0.423529
v 0.907500 -0.070500 0.476100 0.458824 0.996078 0.423529
v 0.917400 -0.063400 0.481100 0.462745 0.996078 0.423529
v 0.927500 -0.056000 0.485500 0.466667 0.996078 0.423529
v 0.937700 -0.048500 0.489300 0.470588 0.996078 0.423529
v 0.948000 -0.040900 0.492600 0.478431 0.996078 0.423529
v 0.958400 -0.033100 0.495300 0.482353 0.996078 0.423529
v 0.968800 -0.025100 0.497300 0.486275 0.996078 0.423529
v 0.979200 -0.016900 0.498800 0.490196 0.996078 0.423529
v 0.989600 -0.008500 0.499700 0.494118 0.996078 0.423529
f 502 229 412
f 229 412 319
f 412 319 413
f 319 413 318
f 413 318 501
f 318 501 414
f 501 414 230
f 414 230 317
f 230 317 415
f 317 415 316
f 415 316 500
f 316 500 416
f 500 416 417
f 416 417 315
f 417 315 231
f 315 231 499
f 231 499 418
f 499 418 314
f 418 314 419
f 314 419 313
f 419 313 232
f 313 232 498
f 232 498 420
f 498 420 312
f 420 312 421
f 312 421 311
f 421 311 497
f 311 497 233
f 497 233 422
f 233 422 310
f 422 310 309
f 310 309 423
f 309 423 496
f 423 496 234
f 496 234 308
f 234 308 424
f 308 424 307
f 424 307 495
f 307 495 425
f 495 425 306
f 425 306 235
f 306 235 426
f 235 426 305
f 426 305 494
f 305 494 304
f 494 304 236
f 304 236 427
f 236 427 303
f 427 303 493
f 303 493 428
f 493 428 302
f 428 302 237
f 302 237 301
f 237 301 429
f 301 429 492
f 429 492 300
f 492 300 238
f 300 238 299
f 238 299 430
f 299 430 298
f 430 298 491
f 298 491 239
f 491 239 431
f 239 431 297
f 431 297 296
f 297 296 490
f 296 490 240
f 490 240 432
f 240 432 295
f 432 295 294
f 295 294 433
f 294 433 241
f 433 241 293
f 241 293 489
f 293 489 292
f 489 292 242
f 292 242 291
f 242 291 434
f 291 434 488
f 434 488 290
f 488 290 243
f 290 243 289
f 243 289 435
f 289 435 288
f 435 288 487
f 288 487 244
f 487 244 287
f 244 287 286
f 287 286 436
f 286 436 245
f 436 245 285
f 245 285 284
f 285 284 486
f 284 486 246
f 486 246 437
f 246 437 283
f 437 283 282
f 283 282 247
f 282 247 281
f 247 281 485
f 281 485 280
f 485 280 248
f 280 248 438
f 248 438 279
f 438 279 249
f 279 249 278
f 249 278 277
f 278 277 250
f 277 250 484
f 250 484 439
f 484 439 276
f 439 276 275
f 276 275 251
f 275 251 274
f 251 274 252
f 274 252 273
f 252 273 272
f 273 272 253
f 272 253 440
f 253 440 271
f 440 271 483
f 271 483 254
f 483 254 270
f 254 270 255
f 270 255 269
f 255 269 268
f 269 268 256
f 268 256 267
f 256 267 257
f 267 257 266
f 257 266 258
f 266 258 265
f 258 265 259
f 265 259 264
f 259 264 260
f 264 260 263
f 260 263 261
f 263 261 262
f 261 262 441
f 262 441 482
f 441 482 442
f 482 442 481
f 442 481 443
f 481 443 480
f 443 480 444
f 480 444 479
f 444 479 445
f 479 445 478
f 445 478 446
f 478 446 477
f 446 477 447
f 477 447 476
f 447 476 448
f 476 448 475
f 448 475 449
f 475 449 474
f 449 474 450
f 474 450 473
f 450 473 451
f 473 451 472
f 451 472 452
f 472 452 471
f 452 471 453
f 471 453 470
f 453 470 454
f 470 454 469
f 454 469 455
f 469 455 468
f 455 468 456
f 468 456 467
f 456 467 457
f 467 457 466
f 457 466 458
f 466 458 465
f 458 465 459
f 465 459 464
f 459 464 460
f 464 460 463
f 460 463 461
f 463 461 462
f 461 462 97
f 462 97 98
f 97 98 96
f 98 96 99
f 96 99 95
f 99 95 100
f 95 100 94
f 100 94 101
f 94 101 93
f 101 93 102
f 93 102 92
f 102 92 103
f 92 103 91
f 103 91 104
f 91 104 90
f 104 90 105
f 90 105 89
f 105 89 106
f 89 106 88
f 106 88 107
f 88 107 87
f 107 87 108
f 87 108 86
f 108 86 109
f 86 109 85
f 109 85 110
f 85 110 84
f 110 84 111
f 84 111 83
f 111 83 112
f 83 112 82
f 112 82 113
f 82 113 81
f 113 81 114
f 81 114 80
f 114 80 115
f 80 115 79
f 115 79 116
f 79 116 78
f 116 78 117
f 78 117 77
f 117 77 626
f 77 626 627
f 626 627 625
f 627 625 628
f 625 628 624
f 628 624 629
f 624 629 623
f 629 623 630
f 623 630 622
f 630 622 631
f 622 631 118
f 631 118 621
f 118 621 632
f 621 632 76
f 632 76 633
f 76 633 620
f 633 620 634
f 620 634 619
f 634 619 635
f 619 635 618
f 635 618 636
f 618 636 637
f 636 637 617
f 637 617 638
f 617 638 119
f 638 119 75
f 119 75 616
f 75 616 639
f 616 639 640
f 639 640 615
f 640 615 641
f 615 641 614
f 641 614 642
f 614 642 74
f 642 74 120
f 74 120 643
f 120 643 613
f 643 613 644
f 613 644 645
f 644 645 612
f 645 612 73
f 612 73 646
f 73 646 121
f 646 121 611
f 121 611 647
f 611 647 648
f 647 648 610
f 648 610 649
f 610 649 72
f 649 72 650
f 72 650 122
f 650 122 609
f 122 609 651
f 609 651 71
f 651 71 652
f 71 652 608
f 652 608 653
f 608 653 123
f 653 123 654
f 123 654 70
f 654 70 607
f 70 607 655
f 607 655 656
f 655 656 124
f 656 124 69
f 124 69 606
f 69 606 657
f 606 657 658
f 657 658 605
f 658 605 68
f 605 68 125
f 68 125 659
f 125 659 660
f 659 660 67
f 660 67 604
f 67 604 661
f 604 661 126
f 661 126 662
f 126 662 66
f 662 66 603
f 66 603 663
f 603 663 127
f 663 127 664
f 127 664 65
f 664 65 665
f 65 665 602
f 665 602 128
f 602 128 64
f 128 64 666
f 64 666 667
f 666 667 601
f 667 601 63
f 601 63 668
f 63 668 129
f 668 129 62
f 129 62 669
f 62 669 600
f 669 600 670
f 600 670 130
f 670 130 61
f 130 61 671
f 61 671 599
f 671 599 60
f 599 60 672
f 60 672 131
f 672 131 59
f 131 59 673
f 59 673 598
f 673 598 58
f 598 58 674
f 58 674 132
f 674 132 675
f 132 675 57
f 675 57 133
f 57 133 597
f 133 597 676
f 597 676 56
f 676 56 677
f 56 677 55
f 677 55 134
f 55 134 678
f 134 678 54
f 678 54 596
f 54 596 679
f 596 679 53
f 679 53 135
f 53 135 52
f 135 52 680
f 52 680 595
f 680 595 51
f 595 51 681
f 51 681 136
f 681 136 50
f 136 50 682
f 50 682 49
f 682 49 594
f 49 594 683
f 594 683 137
f 683 137 48
f 137 48 684
f 48 684 47
f 684 47 46
f 47 46 685
f 46 685 138
f 685 138 593
f 138 593 45
f 593 45 686
f 45 686 44
f 686 44 139
f 44 139 687
f 139 687 43
f 687 43 42
f 43 42 592
f 42 592 688
f 592 688 41
f 688 41 140
f 41 140 689
f 140 689 40
f 689 40 39
f 40 39 690
f 39 690 38
f 690 38 591
f 38 591 141
f 591 141 37
f 141 37 691
f 37 691 36
f 691 36 692
f 36 692 35
f 692 35 142
f 35 142 34
f 142 34 693
f 34 693 590
f 693 590 33
f 590 33 32
f 33 32 694
f 32 694 31
f 694 31 143
f 31 143 695
f 143 695 30
f 695 30 29
f 30 29 696
f 29 696 589
f 696 589 28
f 589 28 27
f 28 27 697
f 27 697 144
f 697 144 26
f 144 26 25
f 26 25 698
f 25 698 24
f 698 24 699
f 24 699 23
f 699 23 22
f 23 22 588
f 22 588 145
f 588 145 700
f 145 700 21
f 700 21 20
f 21 20 701
f 20 701 19
f 701 19 18
f 19 18 702
f 18 702 17
f 702 17 146
f 17 146 703
f 146 703 16
f 703 16 15
f 16 15 587
f 15 587 704
f 587 704 14
f 704 14 13
f 14 13 705
f 13 705 12
f 705 12 706
f 12 706 11
f 706 11 147
f 11 147 10
f 147 10 707
f 10 707 9
f 707 9 708
f 9 708 8
f 708 8 7
f 8 7 709
f 7 709 6
f 709 6 586
f 6 586 710
f 586 710 5
f 710 5 711
f 5 711 4
f 711 4 148
f 4 148 3
f 148 3 712
f 3 712 2
f 712 2 713
f 2 713 1
f 713 1 714
f 1 714 729
f 714 729 728
f 729 728 715
f 728 715 727
f 715 727 716
f 727 716 726
f 716 726 717
f 726 717 725
f 717 725 718
f 725 718 724
f 718 724 719
f 724 719 723
f 719 723 720
f 723 720 722
f 720 722 721
f 722 721 149
f 721 149 585
f 149 585 150
f 585 150 584
f 150 584 151
f 584 151 583
f 151 583 152
f 583 152 582
f 152 582 153
f 582 153 154
f 153 154 581
f 154 581 155
f 581 155 580
f 155 580 156
f 580 156 579
f 156 579 157
f 579 157 578
f 157 578 158
f 578 158 577
f 158 577 159
f 577 159 576
f 159 576 160
f 576 160 575
f 160 575 161
f 575 161 574
f 161 574 162
f 574 162 573
f 162 573 163
f 573 163 572
f 163 572 164
f 572 164 571
f 164 571 165
f 571 165 570
f 165 570 166
f 570 166 569
f 166 569 167
f 569 167 568
f 167 568 567
f 568 567 168
f 567 168 566
f 168 566 169
f 566 169 565
f 169 565 170
f 565 170 564
f 170 564 563
f 564 563 171
f 563 171 562
f 171 562 172
f 562 172 561
f 172 561 173
f 561 173 560
f 173 560 559
f 560 559 174
f 559 174 558
f 174 558 175
f 558 175 557
f 175 557 176
f 557 176 556
f 176 556 555
f 556 555 177
f 555 177 554
f 177 554 178
f 554 178 553
f 178 553 179
f 553 179 552
f 179 552 180
f 552 180 551
f 180 551 181
f 551 181 550
f 181 550 182
f 550 182 549
f 182 549 183
f 549 183 548
f 183 548 184
f 548 184 547
f 184 547 185
f 547 185 546
f 185 546 186
f 546 186 545
f 186 545 187
f 545 187 544
f 187 544 188
f 544 188 543
f 188 543 189
f 543 189 542
f 189 542 190
f 542 190 191
f 190 191 541
f 191 541 192
f 541 192 540
f 192 540 193
f 540 193 539
f 193 539 194
f 539 194 538
f 194 538 195
f 538 195 196
f 195 196 537
f 196 537 197
f 537 197 536
f 197 536 198
f 536 198 199
f 198 199 535
f 199 535 200
f 535 200 534
f 200 534 201
f 534 201 533
f 201 533 202
f 533 202 203
f 202 203 532
f 203 532 204
f 532 204 531
f 204 531 205
f 531 205 530
f 205 530 206
f 530 206 529
f 206 529 207
f 529 207 528
f 207 528 208
f 528 208 527
f 208 527 209
f 527 209 526
f 209 526 210
f 526 210 525
f 210 525 211
f 525 211 524
f 211 524 212
f 524 212 523
f 212 523 213
f 523 213 522
f 213 522 214
f 522 214 521
f 214 521 215
f 521 215 520
f 215 520 216
f 520 216 519
f 216 519 217
f 519 217 518
f 217 518 517
f 518 517 218
f 517 218 516
f 218 516 219
f 516 219 515
f 219 515 220
f 515 220 514
f 220 514 357
f 514 357 356
f 357 356 358
f 356 358 355
f 358 355 359
f 355 359 354
f 359 354 360
f 354 360 353
f 360 353 361
f 353 361 513
f 361 513 352
f 513 352 362
f 352 362 351
f 362 351 363
f 351 363 221
f 363 221 364
f 221 364 350
f 364 350 365
f 350 365 349
f 365 349 366
f 349 366 348
f 366 348 367
f 348 367 347
f 367 347 368
f 347 368 369
f 368 369 346
f 369 346 370
f 346 370 345
f 370 345 371
f 345 371 512
f 371 512 372
f 512 372 344
f 372 344 373
f 344 373 343
f 373 343 374
f 343 374 375
f 374 375 222
f 375 222 342
f 222 342 376
f 342 376 341
f 376 341 377
f 341 377 378
f 377 378 340
f 378 340 511
f 340 511 379
f 511 379 339
f 379 339 380
f 339 380 381
f 380 381 338
f 381 338 382
f 338 382 223
f 382 223 383
f 223 383 337
f 383 337 510
f 337 510 384
f 510 384 336
f 384 336 385
f 336 385 386
f 385 386 335
f 386 335 387
f 335 387 388
f 387 388 334
f 388 334 509
f 334 509 389
f 509 389 224
f 389 224 390
f 224 390 333
f 390 333 391
f 333 391 332
f 391 332 392
f 332 392 508
f 392 508 393
f 508 393 331
f 393 331 394
f 331 394 395
f 394 395 225
f 395 225 330
f 225 330 396
f 330 396 507
f 396 507 397
f 507 397 329
f 397 329 398
f 329 398 328
f 398 328 399
f 328 399 400
f 399 400 226
f 400 226 506
f 226 506 327
f 506 327 401
f 327 401 402
f 401 402 326
f 402 326 403
f 326 403 505
f 403 505 325
f 505 325 404
f 325 404 227
f 404 227 405
f 227 405 324
f 405 324 406
f 324 406 504
f 406 504 323
f 504 323 407
f 323 407 408
f 407 408 322
f 408 322 228
f 322 228 409
f 228 409 503
f 409 503 321
f 503 321 410
f 321 410 320
f 410 320 411
