ply
format ascii 1.0
comment King Wen Hexagram #3 Hex_3 3D Point Cloud
element vertex 729
property float x
property float y
property float z
property uchar red
property uchar green
property uchar blue
end_header
1.0000 0.0000 0.5000 127 255 12
1.0103 0.0087 0.4997 128 254 12
1.0205 0.0176 0.4988 129 254 12
1.0306 0.0267 0.4973 130 254 12
1.0405 0.0359 0.4953 131 254 12
1.0502 0.0453 0.4926 132 254 12
1.0596 0.0548 0.4893 134 254 12
1.0689 0.0646 0.4855 135 254 12
1.0778 0.0744 0.4811 136 254 12
1.0865 0.0844 0.4761 137 254 12
1.0948 0.0946 0.4706 138 254 12
1.1028 0.1049 0.4645 139 254 12
1.1103 0.1152 0.4578 140 254 12
1.1175 0.1257 0.4506 141 254 12
1.1242 0.1363 0.4429 142 254 12
1.1305 0.1470 0.4346 143 253 12
1.1363 0.1577 0.4258 145 253 12
1.1417 0.1685 0.4166 146 253 12
1.1465 0.1793 0.4068 147 253 12
1.1508 0.1902 0.3965 148 253 12
1.1545 0.2010 0.3858 149 253 12
1.1577 0.2119 0.3746 150 252 12
1.1604 0.2227 0.3629 151 252 12
1.1624 0.2335 0.3509 152 252 12
1.1639 0.2442 0.3384 153 252 12
1.1648 0.2549 0.3255 154 252 12
1.1650 0.2655 0.3122 155 251 12
1.1647 0.2760 0.2986 156 251 12
1.1638 0.2864 0.2846 157 251 12
1.1622 0.2967 0.2702 159 251 12
1.1601 0.3068 0.2556 160 250 12
1.1573 0.3168 0.2406 161 250 12
1.1540 0.3266 0.2254 162 250 12
1.1500 0.3362 0.2098 163 249 12
1.1455 0.3456 0.1941 164 249 12
1.1404 0.3548 0.1781 165 249 12
1.1347 0.3638 0.1619 166 248 12
1.1285 0.3726 0.1455 167 248 12
1.1217 0.3811 0.1289 168 248 12
1.1144 0.3894 0.1122 169 247 12
1.1065 0.3974 0.0953 170 247 12
1.0982 0.4051 0.0783 171 247 12
1.0894 0.4125 0.0613 172 246 12
1.0802 0.4197 0.0441 173 246 12
1.0705 0.4266 0.0269 174 245 12
1.0604 0.4332 0.0097 175 245 12
1.0499 0.4395 -0.0075 176 245 12
1.0390 0.4455 -0.0248 177 244 12
1.0278 0.4513 -0.0420 178 244 12
1.0163 0.4567 -0.0591 179 243 12
1.0045 0.4618 -0.0762 180 243 12
0.9924 0.4667 -0.0932 181 242 12
0.9800 0.4712 -0.1101 182 242 12
0.9675 0.4755 -0.1268 183 241 12
0.9548 0.4795 -0.1434 184 241 12
0.9419 0.4832 -0.1598 185 240 12
0.9288 0.4867 -0.1761 186 240 12
0.9157 0.4899 -0.1921 187 239 12
0.9025 0.4929 -0.2079 188 239 12
0.8893 0.4957 -0.2234 189 238 12
0.8760 0.4982 -0.2387 190 238 12
0.8627 0.5006 -0.2537 191 237 12
0.8495 0.5027 -0.2684 192 237 12
0.8363 0.5047 -0.2828 193 236 12
0.8232 0.5065 -0.2968 194 236 12
0.8102 0.5082 -0.3105 195 235 12
0.7973 0.5098 -0.3239 196 234 12
0.7846 0.5112 -0.3368 197 234 12
0.7721 0.5126 -0.3493 198 233 12
0.7598 0.5139 -0.3615 198 233 12
0.7476 0.5151 -0.3732 199 232 12
0.7358 0.5164 -0.3844 200 231 12
0.7241 0.5176 -0.3952 201 231 12
0.7128 0.5188 -0.4055 202 230 12
0.7017 0.5201 -0.4154 203 229 12
0.6910 0.5214 -0.4247 204 229 12
0.6805 0.5228 -0.4336 205 228 12
0.6704 0.5242 -0.4419 206 227 12
0.6606 0.5258 -0.4497 206 227 12
0.6512 0.5275 -0.4569 207 226 12
0.6421 0.5294 -0.4637 208 225 12
0.6334 0.5315 -0.4698 209 225 12
0.6250 0.5337 -0.4755 210 224 12
0.6170 0.5361 -0.4805 211 223 12
0.6094 0.5388 -0.4850 211 223 12
0.6021 0.5417 -0.4889 212 222 12
0.5953 0.5449 -0.4922 213 221 12
0.5888 0.5483 -0.4950 214 220 12
0.5826 0.5520 -0.4971 215 220 12
0.5768 0.5561 -0.4987 215 219 12
0.5714 0.5604 -0.4996 216 218 12
0.5663 0.5651 -0.5000 217 217 12
0.5615 0.5701 -0.4998 218 216 12
0.5571 0.5754 -0.4990 219 216 12
0.5530 0.5811 -0.4975 219 215 12
0.5492 0.5872 -0.4955 220 214 12
0.5457 0.5936 -0.4930 221 213 12
0.5425 0.6004 -0.4898 222 212 12
0.5395 0.6075 -0.4860 222 212 12
0.5368 0.6151 -0.4817 223 211 12
0.5343 0.6230 -0.4768 224 210 12
0.5320 0.6312 -0.4713 224 209 12
0.5299 0.6399 -0.4653 225 208 12
0.5280 0.6489 -0.4587 226 207 12
0.5262 0.6582 -0.4515 227 207 12
0.5246 0.6679 -0.4439 227 206 12
0.5231 0.6780 -0.4357 228 205 12
0.5217 0.6883 -0.4270 229 204 12
0.5204 0.6990 -0.4177 229 203 12
0.5191 0.7100 -0.4080 230 202 12
0.5179 0.7213 -0.3978 231 201 12
0.5167 0.7328 -0.3871 231 200 12
0.5155 0.7447 -0.3760 232 200 12
0.5142 0.7567 -0.3644 232 199 12
0.5129 0.7690 -0.3524 233 198 12
0.5116 0.7815 -0.3400 234 197 12
0.5101 0.7941 -0.3271 234 196 12
0.5086 0.8070 -0.3139 235 195 12
0.5070 0.8199 -0.3003 235 194 12
0.5052 0.8330 -0.2863 236 193 12
0.5032 0.8462 -0.2720 237 192 12
0.5011 0.8594 -0.2574 237 191 12
0.4988 0.8727 -0.2425 238 190 12
0.4963 0.8859 -0.2273 238 189 12
0.4936 0.8992 -0.2118 239 188 12
0.4907 0.9124 -0.1961 239 187 12
0.4875 0.9256 -0.1801 240 186 12
0.4841 0.9386 -0.1639 240 185 12
0.4805 0.9516 -0.1475 241 184 12
0.4765 0.9643 -0.1310 241 183 12
0.4723 0.9769 -0.1143 242 182 12
0.4678 0.9893 -0.0974 242 182 12
0.4631 1.0015 -0.0805 243 181 12
0.4580 1.0134 -0.0634 243 180 12
0.4526 1.0250 -0.0463 244 179 12
0.4470 1.0363 -0.0291 244 178 12
0.4411 1.0472 -0.0118 245 176 12
0.4348 1.0578 0.0054 245 175 12
0.4283 1.0680 0.0226 245 174 12
0.4215 1.0778 0.0398 246 173 12
0.4144 1.0872 0.0570 246 172 12
0.4070 1.0961 0.0741 247 171 12
0.3993 1.1045 0.0911 247 170 12
0.3914 1.1125 0.1080 247 169 12
0.3832 1.1199 0.1247 248 168 12
0.3747 1.1268 0.1413 248 167 12
0.3660 1.1332 0.1578 248 166 12
0.3571 1.1390 0.1740 249 165 12
0.3480 1.1443 0.1901 249 164 12
0.3386 1.1489 0.2059 249 163 12
0.3290 1.1530 0.2215 250 162 12
0.3193 1.1565 0.2368 250 161 12
0.3093 1.1594 0.2519 250 160 12
0.2992 1.1617 0.2666 250 159 12
0.2890 1.1634 0.2810 251 158 12
0.2786 1.1645 0.2951 251 157 12
0.2682 1.1650 0.3088 251 156 12
0.2576 1.1649 0.3222 251 155 12
0.2469 1.1642 0.3352 252 153 12
0.2362 1.1628 0.3478 252 152 12
0.2254 1.1609 0.3600 252 151 12
0.2146 1.1584 0.3717 252 150 12
0.2037 1.1554 0.3830 253 149 12
0.1929 1.1518 0.3939 253 148 12
0.1820 1.1476 0.4043 253 147 12
0.1712 1.1429 0.4142 253 146 12
0.1604 1.1377 0.4236 253 145 12
0.1497 1.1320 0.4325 253 144 12
0.1390 1.1259 0.4409 254 143 12
0.1284 1.1192 0.4487 254 142 12
0.1179 1.1122 0.4561 254 140 12
0.1075 1.1047 0.4629 254 139 12
0.0972 1.0968 0.4691 254 138 12
0.0870 1.0886 0.4748 254 137 12
0.0769 1.0800 0.4799 254 136 12
0.0670 1.0711 0.4845 254 135 12
0.0573 1.0620 0.4884 254 134 12
0.0477 1.0526 0.4918 254 133 12
0.0382 1.0429 0.4946 254 132 12
0.0289 1.0331 0.4969 254 131 12
0.0198 1.0230 0.4985 254 129 12
0.0109 1.0129 0.4995 254 128 12
0.0022 1.0026 0.5000 254 127 12
-0.0064 0.9922 0.4998 254 126 12
-0.0148 0.9818 0.4991 254 125 12
-0.0230 0.9714 0.4978 254 124 12
-0.0311 0.9610 0.4958 254 123 12
-0.0389 0.9506 0.4933 254 122 12
-0.0466 0.9402 0.4902 254 121 12
-0.0542 0.9300 0.4865 254 120 12
-0.0615 0.9199 0.4823 254 118 12
-0.0688 0.9100 0.4774 254 117 12
-0.0758 0.9002 0.4720 254 116 12
-0.0828 0.8906 0.4661 254 115 12
-0.0896 0.8813 0.4595 254 114 12
-0.0962 0.8722 0.4525 254 113 12
-0.1028 0.8634 0.4449 254 112 12
-0.1093 0.8549 0.4367 253 111 12
-0.1156 0.8467 0.4281 253 110 12
-0.1219 0.8388 0.4189 253 109 12
-0.1282 0.8313 0.4093 253 108 12
-0.1344 0.8242 0.3991 253 106 12
-0.1405 0.8175 0.3885 253 105 12
-0.1466 0.8111 0.3774 252 104 12
-0.1527 0.8052 0.3659 252 103 12
-0.1589 0.7997 0.3539 252 102 12
-0.1650 0.7947 0.3416 252 101 12
-0.1711 0.7901 0.3288 252 100 12
-0.1773 0.7859 0.3156 251 99 12
-0.1836 0.7822 0.3020 251 98 12
-0.1900 0.7790 0.2881 251 97 12
-0.1964 0.7762 0.2739 251 96 12
-0.2029 0.7739 0.2593 250 95 12
-0.2096 0.7721 0.2444 250 94 12
-0.2163 0.7707 0.2292 250 93 12
-0.2232 0.7698 0.2137 249 91 12
-0.2303 0.7693 0.1980 249 90 12
-0.2375 0.7693 0.1821 249 89 12
-0.2449 0.7696 0.1659 248 88 12
-0.2525 0.7704 0.1496 248 87 12
-0.2603 0.7716 0.1330 248 86 12
-0.2683 0.7732 0.1164 247 85 12
-0.2765 0.7752 0.0995 247 84 12
-0.2849 0.7775 0.0826 247 83 12
-0.2935 0.7802 0.0655 246 82 12
-0.3024 0.7832 0.0484 246 81 12
-0.3115 0.7865 0.0312 246 80 12
-0.3208 0.7901 0.0140 245 79 12
-0.3304 0.7940 -0.0032 245 78 12
-0.3402 0.7980 -0.0205 244 77 12
-0.3502 0.8023 -0.0377 244 76 12
-0.3605 0.8068 -0.0548 243 75 12
-0.3710 0.8115 -0.0719 243 74 12
-0.3817 0.8163 -0.0889 242 73 12
-0.3927 0.8212 -0.1059 242 72 12
-0.4038 0.8262 -0.1226 242 71 12
-0.4152 0.8312 -0.1393 241 70 12
-0.4268 0.8363 -0.1557 241 69 12
-0.4386 0.8414 -0.1720 240 68 12
-0.4506 0.8465 -0.1881 240 67 12
-0.4627 0.8515 -0.2040 239 66 12
-0.4750 0.8565 -0.2196 239 65 12
-0.4874 0.8613 -0.2349 238 64 12
-0.5000 0.8660 -0.2500 237 63 12
-0.5127 0.8706 -0.2648 237 62 12
-0.5255 0.8750 -0.2792 236 61 12
-0.5384 0.8792 -0.2934 236 60 12
-0.5513 0.8831 -0.3072 235 59 12
-0.5643 0.8868 -0.3206 235 59 12
-0.5773 0.8903 -0.3336 234 58 12
-0.5904 0.8934 -0.3462 233 57 12
-0.6034 0.8962 -0.3585 233 56 12
-0.6164 0.8987 -0.3703 232 55 12
-0.6293 0.9008 -0.3816 232 54 12
-0.6422 0.9026 -0.3925 231 53 12
-0.6550 0.9040 -0.4030 230 52 12
-0.6676 0.9049 -0.4129 230 51 12
-0.6802 0.9055 -0.4224 229 50 12
-0.6926 0.9056 -0.4314 228 50 12
-0.7048 0.9053 -0.4398 228 49 12
-0.7167 0.9045 -0.4478 227 48 12
-0.7285 0.9032 -0.4552 226 47 12
-0.7401 0.9015 -0.4620 226 46 12
-0.7513 0.8993 -0.4684 225 45 12
-0.7623 0.8967 -0.4741 224 44 12
-0.7730 0.8935 -0.4793 223 44 12
-0.7834 0.8899 -0.4839 223 43 12
-0.7935 0.8858 -0.4880 222 42 12
-0.8032 0.8812 -0.4914 221 41 12
-0.8125 0.8762 -0.4943 220 40 12
-0.8214 0.8706 -0.4966 220 40 12
-0.8299 0.8646 -0.4983 219 39 12
-0.8381 0.8582 -0.4994 218 38 12
-0.8458 0.8512 -0.5000 217 37 12
-0.8530 0.8439 -0.4999 217 36 12
-0.8598 0.8361 -0.4992 216 36 12
-0.8662 0.8278 -0.4980 215 35 12
-0.8721 0.8192 -0.4961 214 34 12
-0.8775 0.8102 -0.4937 213 33 12
-0.8824 0.8008 -0.4906 213 33 12
-0.8869 0.7910 -0.4870 212 32 12
-0.8909 0.7809 -0.4828 211 31 12
-0.8944 0.7704 -0.4781 210 30 12
-0.8974 0.7596 -0.4727 209 30 12
-0.8999 0.7486 -0.4668 209 29 12
-0.9020 0.7372 -0.4604 208 28 12
-0.9036 0.7256 -0.4534 207 28 12
-0.9047 0.7138 -0.4458 206 27 12
-0.9054 0.7017 -0.4378 205 26 12
-0.9056 0.6895 -0.4292 204 26 12
-0.9054 0.6771 -0.4201 203 25 12
-0.9047 0.6645 -0.4105 202 24 12
-0.9036 0.6518 -0.4004 202 24 12
-0.9022 0.6390 -0.3899 201 23 12
-0.9003 0.6261 -0.3788 200 22 12
-0.8981 0.6131 -0.3674 199 22 12
-0.8955 0.6001 -0.3555 198 21 12
-0.8926 0.5871 -0.3431 197 20 12
-0.8894 0.5741 -0.3304 196 20 12
-0.8859 0.5610 -0.3172 195 19 12
-0.8822 0.5481 -0.3037 194 19 12
-0.8781 0.5351 -0.2899 193 18 12
-0.8739 0.5223 -0.2757 192 18 12
-0.8695 0.5095 -0.2611 191 17 12
-0.8649 0.4968 -0.2463 191 16 12
-0.8601 0.4843 -0.2311 190 16 12
-0.8552 0.4719 -0.2157 189 15 12
-0.8503 0.4596 -0.2000 188 15 12
-0.8452 0.4475 -0.1841 187 14 12
-0.8401 0.4356 -0.1680 186 14 12
-0.8350 0.4239 -0.1516 185 13 12
-0.8300 0.4124 -0.1351 184 13 12
-0.8249 0.4010 -0.1185 183 12 12
-0.8200 0.3899 -0.1016 182 12 12
-0.8151 0.3790 -0.0847 181 11 12
-0.8103 0.3683 -0.0677 180 11 12
-0.8057 0.3579 -0.0505 179 10 12
-0.8013 0.3477 -0.0334 178 10 12
-0.7970 0.3377 -0.0162 177 10 12
-0.7930 0.3280 0.0011 176 9 12
-0.7892 0.3185 0.0183 175 9 12
-0.7857 0.3092 0.0355 174 8 12
-0.7824 0.3002 0.0527 173 8 12
-0.7795 0.2914 0.0698 172 8 12
-0.7769 0.2828 0.0868 171 7 12
-0.7747 0.2744 0.1037 170 7 12
-0.7728 0.2663 0.1205 169 6 12
-0.7713 0.2584 0.1372 167 6 12
-0.7702 0.2506 0.1537 166 6 12
-0.7695 0.2431 0.1700 165 5 12
-0.7692 0.2357 0.1861 164 5 12
-0.7694 0.2285 0.2020 163 5 12
-0.7700 0.2215 0.2176 162 4 12
-0.7710 0.2146 0.2330 161 4 12
-0.7725 0.2079 0.2481 160 4 12
-0.7745 0.2013 0.2629 159 4 12
-0.7769 0.1948 0.2774 158 3 12
-0.7798 0.1884 0.2916 157 3 12
-0.7831 0.1820 0.3054 156 3 12
-0.7869 0.1758 0.3189 155 3 12
-0.7912 0.1696 0.3320 154 2 12
-0.7959 0.1634 0.3447 153 2 12
-0.8011 0.1573 0.3570 152 2 12
-0.8066 0.1512 0.3688 150 2 12
-0.8127 0.1451 0.3802 149 1 12
-0.8191 0.1390 0.3912 148 1 12
-0.8259 0.1328 0.4017 147 1 12
-0.8331 0.1266 0.4117 146 1 12
-0.8407 0.1204 0.4213 145 1 12
-0.8487 0.1141 0.4303 144 1 12
-0.8570 0.1077 0.4388 143 0 12
-0.8656 0.1012 0.4468 142 0 12
-0.8744 0.0946 0.4543 141 0 12
-0.8836 0.0879 0.4612 140 0 12
-0.8930 0.0810 0.4676 139 0 12
-0.9026 0.0741 0.4734 137 0 12
-0.9124 0.0670 0.4787 136 0 12
-0.9224 0.0597 0.4834 135 0 12
-0.9326 0.0523 0.4875 134 0 12
-0.9428 0.0447 0.4910 133 0 12
-0.9532 0.0370 0.4940 132 0 12
-0.9636 0.0291 0.4964 131 0 12
-0.9740 0.0210 0.4981 130 0 12
-0.9844 0.0127 0.4993 129 0 12
-0.9948 0.0043 0.4999 128 0 12
-1.0052 -0.0043 0.4999 126 0 12
-1.0154 -0.0131 0.4993 125 0 12
-1.0255 -0.0221 0.4981 124 0 12
-1.0355 -0.0312 0.4964 123 0 12
-1.0453 -0.0406 0.4940 122 0 12
-1.0549 -0.0500 0.4910 121 0 12
-1.0643 -0.0597 0.4875 120 0 12
-1.0734 -0.0695 0.4834 119 0 12
-1.0822 -0.0794 0.4787 118 0 12
-1.0907 -0.0895 0.4734 117 0 12
-1.0988 -0.0997 0.4676 115 0 12
-1.1066 -0.1100 0.4612 114 0 12
-1.1140 -0.1205 0.4543 113 0 12
-1.1209 -0.1310 0.4468 112 0 12
-1.1274 -0.1416 0.4388 111 0 12
-1.1335 -0.1523 0.4303 110 1 12
-1.1391 -0.1631 0.4213 109 1 12
-1.1441 -0.1739 0.4117 108 1 12
-1.1487 -0.1847 0.4017 107 1 12
-1.1527 -0.1956 0.3912 106 1 12
-1.1562 -0.2064 0.3802 105 1 12
-1.1591 -0.2173 0.3688 104 2 12
-1.1615 -0.2281 0.3570 102 2 12
-1.1632 -0.2389 0.3447 101 2 12
-1.1644 -0.2496 0.3320 100 2 12
-1.1650 -0.2602 0.3189 99 3 12
-1.1649 -0.2708 0.3054 98 3 12
-1.1643 -0.2813 0.2916 97 3 12
-1.1631 -0.2916 0.2774 96 3 12
-1.1612 -0.3018 0.2629 95 4 12
-1.1588 -0.3118 0.2481 94 4 12
-1.1557 -0.3217 0.2330 93 4 12
-1.1521 -0.3314 0.2176 92 4 12
-1.1478 -0.3409 0.2020 91 5 12
-1.1430 -0.3503 0.1861 90 5 12
-1.1376 -0.3594 0.1700 89 5 12
-1.1316 -0.3682 0.1537 88 6 12
-1.1251 -0.3769 0.1372 87 6 12
-1.1181 -0.3853 0.1205 85 6 12
-1.1105 -0.3934 0.1037 84 7 12
-1.1025 -0.4013 0.0868 83 7 12
-1.0939 -0.4089 0.0698 82 8 12
-1.0849 -0.4162 0.0527 81 8 12
-1.0754 -0.4232 0.0355 80 8 12
-1.0655 -0.4300 0.0183 79 9 12
-1.0552 -0.4364 0.0011 78 9 12
-1.0445 -0.4426 -0.0162 77 10 12
-1.0335 -0.4484 -0.0334 76 10 12
-1.0221 -0.4540 -0.0505 75 10 12
-1.0104 -0.4593 -0.0677 74 11 12
-0.9985 -0.4643 -0.0847 73 11 12
-0.9862 -0.4690 -0.1016 72 12 12
-0.9738 -0.4734 -0.1185 71 12 12
-0.9611 -0.4775 -0.1351 70 13 12
-0.9483 -0.4814 -0.1516 69 13 12
-0.9354 -0.4850 -0.1680 68 14 12
-0.9223 -0.4884 -0.1841 67 14 12
-0.9091 -0.4915 -0.2000 66 15 12
-0.8959 -0.4943 -0.2157 65 15 12
-0.8826 -0.4970 -0.2311 64 16 12
-0.8693 -0.4994 -0.2463 63 16 12
-0.8561 -0.5017 -0.2611 63 17 12
-0.8429 -0.5037 -0.2757 62 18 12
-0.8297 -0.5056 -0.2899 61 18 12
-0.8167 -0.5074 -0.3037 60 19 12
-0.8037 -0.5090 -0.3172 59 19 12
-0.7910 -0.5105 -0.3304 58 20 12
-0.7783 -0.5119 -0.3431 57 20 12
-0.7659 -0.5133 -0.3555 56 21 12
-0.7537 -0.5145 -0.3674 55 22 12
-0.7417 -0.5158 -0.3788 54 22 12
-0.7299 -0.5170 -0.3899 53 23 12
-0.7184 -0.5182 -0.4004 52 24 12
-0.7072 -0.5194 -0.4105 52 24 12
-0.6963 -0.5207 -0.4201 51 25 12
-0.6857 -0.5221 -0.4292 50 26 12
-0.6754 -0.5235 -0.4378 49 26 12
-0.6655 -0.5250 -0.4458 48 27 12
-0.6558 -0.5267 -0.4534 47 28 12
-0.6466 -0.5285 -0.4604 46 28 12
-0.6377 -0.5304 -0.4668 45 29 12
-0.6291 -0.5325 -0.4727 45 30 12
-0.6210 -0.5349 -0.4781 44 30 12
-0.6132 -0.5374 -0.4828 43 31 12
-0.6057 -0.5402 -0.4870 42 32 12
-0.5987 -0.5433 -0.4906 41 33 12
-0.5920 -0.5466 -0.4937 41 33 12
-0.5856 -0.5501 -0.4961 40 34 12
-0.5797 -0.5540 -0.4980 39 35 12
-0.5741 -0.5582 -0.4992 38 36 12
-0.5688 -0.5627 -0.4999 37 36 12
-0.5639 -0.5675 -0.5000 37 37 12
-0.5593 -0.5727 -0.4994 36 38 12
-0.5550 -0.5782 -0.4983 35 39 12
-0.5511 -0.5841 -0.4966 34 40 12
-0.5474 -0.5903 -0.4943 34 40 12
-0.5441 -0.5969 -0.4914 33 41 12
-0.5410 -0.6039 -0.4880 32 42 12
-0.5381 -0.6113 -0.4839 31 43 12
-0.5355 -0.6190 -0.4793 31 44 12
-0.5331 -0.6271 -0.4741 30 44 12
-0.5309 -0.6355 -0.4684 29 45 12
-0.5289 -0.6443 -0.4620 28 46 12
-0.5271 -0.6535 -0.4552 28 47 12
-0.5254 -0.6630 -0.4478 27 48 12
-0.5239 -0.6729 -0.4398 26 49 12
-0.5224 -0.6831 -0.4314 26 50 12
-0.5210 -0.6936 -0.4224 25 50 12
-0.5197 -0.7045 -0.4129 24 51 12
-0.5185 -0.7156 -0.4030 24 52 12
-0.5173 -0.7270 -0.3925 23 53 12
-0.5161 -0.7387 -0.3816 22 54 12
-0.5148 -0.7507 -0.3703 22 55 12
-0.5136 -0.7628 -0.3585 21 56 12
-0.5123 -0.7752 -0.3462 21 57 12
-0.5109 -0.7878 -0.3336 20 58 12
-0.5094 -0.8005 -0.3206 19 59 12
-0.5078 -0.8134 -0.3072 19 59 12
-0.5061 -0.8265 -0.2934 18 60 12
-0.5042 -0.8396 -0.2792 18 61 12
-0.5022 -0.8528 -0.2648 17 62 12
-0.5000 -0.8660 -0.2500 17 63 12
-0.4976 -0.8793 -0.2349 16 64 12
-0.4950 -0.8926 -0.2196 15 65 12
-0.4922 -0.9058 -0.2040 15 66 12
-0.4892 -0.9190 -0.1881 14 67 12
-0.4859 -0.9321 -0.1720 14 68 12
-0.4823 -0.9451 -0.1557 13 69 12
-0.4785 -0.9580 -0.1393 13 70 12
-0.4745 -0.9706 -0.1226 12 71 12
-0.4701 -0.9831 -0.1059 12 72 12
-0.4655 -0.9954 -0.0889 12 73 12
-0.4606 -1.0074 -0.0719 11 74 12
-0.4554 -1.0192 -0.0548 11 75 12
-0.4499 -1.0307 -0.0377 10 76 12
-0.4441 -1.0418 -0.0205 10 77 12
-0.4380 -1.0526 -0.0032 9 78 12
-0.4316 -1.0630 0.0140 9 79 12
-0.4249 -1.0730 0.0312 8 80 12
-0.4180 -1.0825 0.0484 8 81 12
-0.4107 -1.0917 0.0655 8 82 12
-0.4032 -1.1004 0.0826 7 83 12
-0.3954 -1.1086 0.0995 7 84 12
-0.3873 -1.1162 0.1164 7 85 12
-0.3790 -1.1234 0.1330 6 86 12
-0.3704 -1.1301 0.1496 6 87 12
-0.3616 -1.1362 0.1659 6 88 12
-0.3526 -1.1417 0.1821 5 89 12
-0.3433 -1.1467 0.1980 5 90 12
-0.3338 -1.1511 0.2137 5 91 12
-0.3242 -1.1549 0.2292 4 93 12
-0.3143 -1.1581 0.2444 4 94 12
-0.3043 -1.1607 0.2593 4 95 12
-0.2941 -1.1627 0.2739 3 96 12
-0.2838 -1.1641 0.2881 3 97 12
-0.2734 -1.1648 0.3020 3 98 12
-0.2629 -1.1650 0.3156 3 99 12
-0.2523 -1.1646 0.3288 2 100 12
-0.2416 -1.1636 0.3416 2 101 12
-0.2308 -1.1620 0.3539 2 102 12
-0.2200 -1.1598 0.3659 2 103 12
-0.2092 -1.1570 0.3774 2 104 12
-0.1983 -1.1536 0.3885 1 105 12
-0.1874 -1.1498 0.3991 1 106 12
-0.1766 -1.1453 0.4093 1 108 12
-0.1658 -1.1404 0.4189 1 109 12
-0.1550 -1.1349 0.4281 1 110 12
-0.1443 -1.1290 0.4367 1 111 12
-0.1337 -1.1226 0.4449 0 112 12
-0.1231 -1.1157 0.4525 0 113 12
-0.1126 -1.1085 0.4595 0 114 12
-0.1023 -1.1008 0.4661 0 115 12
-0.0920 -1.0928 0.4720 0 116 12
-0.0819 -1.0844 0.4774 0 117 12
-0.0720 -1.0756 0.4823 0 118 12
-0.0621 -1.0666 0.4865 0 120 12
-0.0524 -1.0573 0.4902 0 121 12
-0.0429 -1.0478 0.4933 0 122 12
-0.0336 -1.0380 0.4958 0 123 12
-0.0244 -1.0281 0.4978 0 124 12
-0.0154 -1.0180 0.4991 0 125 12
-0.0065 -1.0077 0.4998 0 126 12
0.0021 -0.9974 0.5000 0 127 12
0.0106 -0.9870 0.4995 0 128 12
0.0189 -0.9766 0.4985 0 129 12
0.0271 -0.9662 0.4969 0 131 12
0.0350 -0.9558 0.4946 0 132 12
0.0428 -0.9454 0.4918 0 133 12
0.0504 -0.9351 0.4884 0 134 12
0.0579 -0.9250 0.4845 0 135 12
0.0652 -0.9149 0.4799 0 136 12
0.0723 -0.9051 0.4748 0 137 12
0.0793 -0.8954 0.4691 0 138 12
0.0862 -0.8859 0.4629 0 139 12
0.0929 -0.8767 0.4561 0 140 12
0.0995 -0.8677 0.4487 0 142 12
0.1060 -0.8591 0.4409 0 143 12
0.1125 -0.8507 0.4325 1 144 12
0.1188 -0.8427 0.4236 1 145 12
0.1251 -0.8350 0.4142 1 146 12
0.1313 -0.8277 0.4043 1 147 12
0.1374 -0.8208 0.3939 1 148 12
0.1436 -0.8142 0.3830 1 149 12
0.1497 -0.8081 0.3717 2 150 12
0.1558 -0.8024 0.3600 2 151 12
0.1619 -0.7971 0.3478 2 152 12
0.1681 -0.7923 0.3352 2 153 12
0.1742 -0.7879 0.3222 3 155 12
0.1805 -0.7840 0.3088 3 156 12
0.1868 -0.7806 0.2951 3 157 12
0.1932 -0.7776 0.2810 3 158 12
0.1996 -0.7750 0.2666 4 159 12
0.2062 -0.7730 0.2519 4 160 12
0.2129 -0.7714 0.2368 4 161 12
0.2198 -0.7702 0.2215 4 162 12
0.2268 -0.7695 0.2059 5 163 12
0.2339 -0.7692 0.1901 5 164 12
0.2412 -0.7694 0.1740 5 165 12
0.2487 -0.7700 0.1578 6 166 12
0.2564 -0.7710 0.1413 6 167 12
0.2643 -0.7724 0.1247 6 168 12
0.2724 -0.7742 0.1080 7 169 12
0.2807 -0.7763 0.0911 7 170 12
0.2892 -0.7788 0.0741 7 171 12
0.2979 -0.7817 0.0570 8 172 12
0.3069 -0.7848 0.0398 8 173 12
0.3161 -0.7883 0.0226 9 174 12
0.3256 -0.7920 0.0054 9 175 12
0.3352 -0.7960 -0.0118 9 176 12
0.3452 -0.8002 -0.0291 10 178 12
0.3553 -0.8046 -0.0463 10 179 12
0.3657 -0.8091 -0.0634 11 180 12
0.3763 -0.8139 -0.0805 11 181 12
0.3872 -0.8187 -0.0974 12 182 12
0.3982 -0.8237 -0.1143 12 182 12
0.4095 -0.8287 -0.1310 13 183 12
0.4210 -0.8338 -0.1475 13 184 12
0.4327 -0.8389 -0.1639 14 185 12
0.4445 -0.8440 -0.1801 14 186 12
0.4566 -0.8490 -0.1961 15 187 12
0.4688 -0.8540 -0.2118 15 188 12
0.4812 -0.8589 -0.2273 16 189 12
0.4937 -0.8637 -0.2425 16 190 12
0.5063 -0.8683 -0.2574 17 191 12
0.5191 -0.8728 -0.2720 17 192 12
0.5319 -0.8771 -0.2863 18 193 12
0.5448 -0.8812 -0.3003 19 194 12
0.5578 -0.8850 -0.3139 19 195 12
0.5708 -0.8886 -0.3271 20 196 12
0.5838 -0.8919 -0.3400 20 197 12
0.5969 -0.8948 -0.3524 21 198 12
0.6099 -0.8975 -0.3644 22 199 12
0.6229 -0.8998 -0.3760 22 200 12
0.6358 -0.9018 -0.3871 23 200 12
0.6486 -0.9033 -0.3978 23 201 12
0.6613 -0.9045 -0.4080 24 202 12
0.6739 -0.9052 -0.4177 25 203 12
0.6864 -0.9056 -0.4270 25 204 12
0.6987 -0.9055 -0.4357 26 205 12
0.7108 -0.9049 -0.4439 27 206 12
0.7227 -0.9039 -0.4515 27 207 12
0.7343 -0.9024 -0.4587 28 207 12
0.7457 -0.9005 -0.4653 29 208 12
0.7569 -0.8981 -0.4713 30 209 12
0.7677 -0.8952 -0.4768 30 210 12
0.7783 -0.8918 -0.4817 31 211 12
0.7885 -0.8879 -0.4860 32 212 12
0.7984 -0.8836 -0.4898 32 212 12
0.8079 -0.8788 -0.4930 33 213 12
0.8170 -0.8735 -0.4955 34 214 12
0.8257 -0.8677 -0.4975 35 215 12
0.8341 -0.8615 -0.4990 35 216 12
0.8420 -0.8548 -0.4998 36 216 12
0.8494 -0.8476 -0.5000 37 217 12
0.8565 -0.8400 -0.4996 38 218 12
0.8631 -0.8320 -0.4987 39 219 12
0.8692 -0.8236 -0.4971 39 220 12
0.8748 -0.8147 -0.4950 40 220 12
0.8800 -0.8055 -0.4922 41 221 12
0.8847 -0.7959 -0.4889 42 222 12
0.8889 -0.7860 -0.4850 43 223 12
0.8927 -0.7757 -0.4805 43 223 12
0.8959 -0.7650 -0.4755 44 224 12
0.8987 -0.7541 -0.4698 45 225 12
0.9010 -0.7429 -0.4637 46 225 12
0.9029 -0.7314 -0.4569 47 226 12
0.9042 -0.7197 -0.4497 48 227 12
0.9051 -0.7078 -0.4419 48 227 12
0.9055 -0.6956 -0.4336 49 228 12
0.9055 -0.6833 -0.4247 50 229 12
0.9051 -0.6708 -0.4154 51 229 12
0.9042 -0.6582 -0.4055 52 230 12
0.9030 -0.6454 -0.3952 53 231 12
0.9013 -0.6325 -0.3844 54 231 12
0.8993 -0.6196 -0.3732 55 232 12
0.8969 -0.6066 -0.3615 56 233 12
0.8941 -0.5936 -0.3493 56 233 12
0.8911 -0.5806 -0.3368 57 234 12
0.8877 -0.5676 -0.3239 58 234 12
0.8841 -0.5546 -0.3105 59 235 12
0.8802 -0.5416 -0.2968 60 236 12
0.8760 -0.5287 -0.2828 61 236 12
0.8717 -0.5159 -0.2684 62 237 12
0.8672 -0.5032 -0.2537 63 237 12
0.8625 -0.4906 -0.2387 64 238 12
0.8577 -0.4781 -0.2234 65 238 12
0.8528 -0.4657 -0.2079 66 239 12
0.8477 -0.4536 -0.1921 67 239 12
0.8427 -0.4416 -0.1761 68 240 12
0.8376 -0.4297 -0.1598 69 240 12
0.8325 -0.4181 -0.1434 70 241 12
0.8274 -0.4067 -0.1268 71 241 12
0.8224 -0.3954 -0.1101 72 242 12
0.8175 -0.3844 -0.0932 73 242 12
0.8127 -0.3736 -0.0762 74 243 12
0.8080 -0.3631 -0.0591 75 243 12
0.8035 -0.3528 -0.0420 76 244 12
0.7991 -0.3427 -0.0248 77 244 12
0.7950 -0.3328 -0.0075 78 245 12
0.7911 -0.3232 0.0097 79 245 12
0.7874 -0.3138 0.0269 80 245 12
0.7840 -0.3046 0.0441 81 246 12
0.7809 -0.2957 0.0613 82 246 12
0.7782 -0.2870 0.0783 83 247 12
0.7758 -0.2786 0.0953 84 247 12
0.7737 -0.2703 0.1122 85 247 12
0.7720 -0.2623 0.1289 86 248 12
0.7707 -0.2545 0.1455 87 248 12
0.7698 -0.2468 0.1619 88 248 12
0.7693 -0.2394 0.1781 89 249 12
0.7692 -0.2321 0.1941 90 249 12
0.7696 -0.2250 0.2098 91 249 12
0.7704 -0.2180 0.2254 92 250 12
0.7717 -0.2112 0.2406 93 250 12
0.7734 -0.2046 0.2556 94 250 12
0.7756 -0.1980 0.2702 95 251 12
0.7783 -0.1916 0.2846 97 251 12
0.7814 -0.1852 0.2986 98 251 12
0.7850 -0.1789 0.3122 99 251 12
0.7890 -0.1727 0.3255 100 252 12
0.7935 -0.1665 0.3384 101 252 12
0.7984 -0.1604 0.3509 102 252 12
0.8038 -0.1543 0.3629 103 252 12
0.8096 -0.1482 0.3746 104 252 12
0.8158 -0.1420 0.3858 105 253 12
0.8225 -0.1359 0.3965 106 253 12
0.8295 -0.1297 0.4068 107 253 12
0.8369 -0.1235 0.4166 108 253 12
0.8447 -0.1172 0.4258 109 253 12
0.8528 -0.1109 0.4346 111 253 12
0.8612 -0.1044 0.4429 112 254 12
0.8700 -0.0979 0.4506 113 254 12
0.8790 -0.0912 0.4578 114 254 12
0.8883 -0.0845 0.4645 115 254 12
0.8978 -0.0776 0.4706 116 254 12
0.9075 -0.0705 0.4761 117 254 12
0.9174 -0.0634 0.4811 118 254 12
0.9275 -0.0560 0.4855 119 254 12
0.9377 -0.0485 0.4893 120 254 12
0.9480 -0.0409 0.4926 122 254 12
0.9584 -0.0331 0.4953 123 254 12
0.9688 -0.0251 0.4973 124 254 12
0.9792 -0.0169 0.4988 125 254 12
0.9896 -0.0085 0.4997 126 254 12
