# King Wen sovereign avatar mesh
# shap_e_hex_12.ply
# vertices=729 faces=727
o kingwen_avatar
v 1.000000 0.000000 0.500000 0.498039 1.000000 0.188235
v 1.010300 0.008700 0.499500 0.501961 0.996078 0.188235
v 1.020500 0.017600 0.498100 0.505882 0.996078 0.188235
v 1.030600 0.026700 0.495800 0.509804 0.996078 0.188235
v 1.040500 0.035900 0.492600 0.513725 0.996078 0.188235
v 1.050200 0.045300 0.488400 0.517647 0.996078 0.188235
v 1.059600 0.054800 0.483400 0.525490 0.996078 0.188235
v 1.068900 0.064600 0.477400 0.529412 0.996078 0.188235
v 1.077800 0.074400 0.470600 0.533333 0.996078 0.188235
v 1.086500 0.084400 0.462900 0.537255 0.996078 0.188235
v 1.094800 0.094600 0.454300 0.541176 0.996078 0.188235
v 1.102800 0.104900 0.444900 0.545098 0.996078 0.188235
v 1.110300 0.115200 0.434600 0.549020 0.996078 0.188235
v 1.117500 0.125700 0.423600 0.552941 0.996078 0.188235
v 1.124200 0.136300 0.411700 0.556863 0.996078 0.188235
v 1.130500 0.147000 0.399100 0.560784 0.992157 0.188235
v 1.136300 0.157700 0.385800 0.568627 0.992157 0.188235
v 1.141700 0.168500 0.371700 0.572549 0.992157 0.188235
v 1.146500 0.179300 0.357000 0.576471 0.992157 0.188235
v 1.150800 0.190200 0.341600 0.580392 0.992157 0.188235
v 1.154500 0.201000 0.325500 0.584314 0.992157 0.188235
v 1.157700 0.211900 0.308800 0.588235 0.988235 0.188235
v 1.160400 0.222700 0.291600 0.592157 0.988235 0.188235
v 1.162400 0.233500 0.273900 0.596078 0.988235 0.188235
v 1.163900 0.244200 0.255600 0.600000 0.988235 0.188235
v 1.164800 0.254900 0.236800 0.603922 0.988235 0.188235
v 1.165000 0.265500 0.217600 0.607843 0.984314 0.188235
v 1.164700 0.276000 0.198000 0.611765 0.984314 0.188235
v 1.163800 0.286400 0.178100 0.615686 0.984314 0.188235
v 1.162200 0.296700 0.157800 0.623529 0.984314 0.188235
v 1.160100 0.306800 0.137200 0.627451 0.980392 0.188235
v 1.157300 0.316800 0.116400 0.631373 0.980392 0.188235
v 1.154000 0.326600 0.095300 0.635294 0.980392 0.188235
v 1.150000 0.336200 0.074100 0.639216 0.976471 0.188235
v 1.145500 0.345600 0.052700 0.643137 0.976471 0.188235
v 1.140400 0.354800 0.031200 0.647059 0.976471 0.188235
v 1.134700 0.363800 0.009700 0.650980 0.972549 0.188235
v 1.128500 0.372600 -0.011800 0.654902 0.972549 0.188235
v 1.121700 0.381100 -0.033400 0.658824 0.972549 0.188235
v 1.114400 0.389400 -0.054800 0.662745 0.968627 0.188235
v 1.106500 0.397400 -0.076200 0.666667 0.968627 0.188235
v 1.098200 0.405100 -0.097400 0.670588 0.968627 0.188235
v 1.089400 0.412500 -0.118500 0.674510 0.964706 0.188235
v 1.080200 0.419700 -0.139300 0.678431 0.964706 0.188235
v 1.070500 0.426600 -0.159800 0.682353 0.960784 0.188235
v 1.060400 0.433200 -0.180100 0.686275 0.960784 0.188235
v 1.049900 0.439500 -0.200000 0.690196 0.960784 0.188235
v 1.039000 0.445500 -0.219600 0.694118 0.956863 0.188235
v 1.027800 0.451300 -0.238700 0.698039 0.956863 0.188235
v 1.016300 0.456700 -0.257400 0.701961 0.952941 0.188235
v 1.004500 0.461800 -0.275700 0.705882 0.952941 0.188235
v 0.992400 0.466700 -0.293400 0.709804 0.949020 0.188235
v 0.980000 0.471200 -0.310500 0.713725 0.949020 0.188235
v 0.967500 0.475500 -0.327100 0.717647 0.945098 0.188235
v 0.954800 0.479500 -0.343100 0.721569 0.945098 0.188235
v 0.941900 0.483200 -0.358500 0.725490 0.941176 0.188235
v 0.928800 0.486700 -0.373200 0.729412 0.941176 0.188235
v 0.915700 0.489900 -0.387100 0.733333 0.937255 0.188235
v 0.902500 0.492900 -0.400400 0.737255 0.937255 0.188235
v 0.889300 0.495700 -0.412900 0.741176 0.933333 0.188235
v 0.876000 0.498200 -0.424700 0.745098 0.933333 0.188235
v 0.862700 0.500600 -0.435700 0.749020 0.929412 0.188235
v 0.849500 0.502700 -0.445800 0.752941 0.929412 0.188235
v 0.836300 0.504700 -0.455200 0.756863 0.925490 0.188235
v 0.823200 0.506500 -0.463700 0.760784 0.925490 0.188235
v 0.810200 0.508200 -0.471300 0.764706 0.921569 0.188235
v 0.797300 0.509800 -0.478100 0.768627 0.917647 0.188235
v 0.784600 0.511200 -0.483900 0.772549 0.917647 0.188235
v 0.772100 0.512600 -0.488900 0.776471 0.913725 0.188235
v 0.759800 0.513900 -0.493000 0.776471 0.913725 0.188235
v 0.747600 0.515100 -0.496100 0.780392 0.909804 0.188235
v 0.735800 0.516400 -0.498300 0.784314 0.905882 0.188235
v 0.724100 0.517600 -0.499600 0.788235 0.905882 0.188235
v 0.712800 0.518800 -0.500000 0.792157 0.901961 0.188235
v 0.701700 0.520100 -0.499400 0.796078 0.898039 0.188235
v 0.691000 0.521400 -0.498000 0.800000 0.898039 0.188235
v 0.680500 0.522800 -0.495500 0.803922 0.894118 0.188235
v 0.670400 0.524200 -0.492200 0.807843 0.890196 0.188235
v 0.660600 0.525800 -0.488000 0.807843 0.890196 0.188235
v 0.651200 0.527500 -0.482800 0.811765 0.886275 0.188235
v 0.642100 0.529400 -0.476800 0.815686 0.882353 0.188235
v 0.633400 0.531500 -0.469800 0.819608 0.882353 0.188235
v 0.625000 0.533700 -0.462000 0.823529 0.878431 0.188235
v 0.617000 0.536100 -0.453400 0.827451 0.874510 0.188235
v 0.609400 0.538800 -0.443900 0.827451 0.874510 0.188235
v 0.602100 0.541700 -0.433600 0.831373 0.870588 0.188235
v 0.595300 0.544900 -0.422400 0.835294 0.866667 0.188235
v 0.588800 0.548300 -0.410500 0.839216 0.862745 0.188235
v 0.582600 0.552000 -0.397800 0.843137 0.862745 0.188235
v 0.576800 0.556100 -0.384400 0.843137 0.858824 0.188235
v 0.571400 0.560400 -0.370300 0.847059 0.854902 0.188235
v 0.566300 0.565100 -0.355500 0.850980 0.850980 0.188235
v 0.561500 0.570100 -0.340000 0.854902 0.847059 0.188235
v 0.557100 0.575400 -0.323900 0.858824 0.847059 0.188235
v 0.553000 0.581100 -0.307200 0.858824 0.843137 0.188235
v 0.549200 0.587200 -0.289900 0.862745 0.839216 0.188235
v 0.545700 0.593600 -0.272000 0.866667 0.835294 0.188235
v 0.542500 0.600400 -0.253700 0.870588 0.831373 0.188235
v 0.539500 0.607500 -0.234900 0.870588 0.831373 0.188235
v 0.536800 0.615100 -0.215700 0.874510 0.827451 0.188235
v 0.534300 0.623000 -0.196100 0.878431 0.823529 0.188235
v 0.532000 0.631200 -0.176100 0.878431 0.819608 0.188235
v 0.529900 0.639900 -0.155700 0.882353 0.815686 0.188235
v 0.528000 0.648900 -0.135100 0.886275 0.811765 0.188235
v 0.526200 0.658200 -0.114300 0.890196 0.811765 0.188235
v 0.524600 0.667900 -0.093200 0.890196 0.807843 0.188235
v 0.523100 0.678000 -0.071900 0.894118 0.803922 0.188235
v 0.521700 0.688300 -0.050500 0.898039 0.800000 0.188235
v 0.520400 0.699000 -0.029100 0.898039 0.796078 0.188235
v 0.519100 0.710000 -0.007500 0.901961 0.792157 0.188235
v 0.517900 0.721300 0.014000 0.905882 0.788235 0.188235
v 0.516700 0.732800 0.035500 0.905882 0.784314 0.188235
v 0.515500 0.744700 0.057000 0.909804 0.784314 0.188235
v 0.514200 0.756700 0.078300 0.909804 0.780392 0.188235
v 0.512900 0.769000 0.099500 0.913725 0.776471 0.188235
v 0.511600 0.781500 0.120500 0.917647 0.772549 0.188235
v 0.510100 0.794100 0.141300 0.917647 0.768627 0.188235
v 0.508600 0.807000 0.161900 0.921569 0.764706 0.188235
v 0.507000 0.819900 0.182100 0.921569 0.760784 0.188235
v 0.505200 0.833000 0.202000 0.925490 0.756863 0.188235
v 0.503200 0.846200 0.221500 0.929412 0.752941 0.188235
v 0.501100 0.859400 0.240600 0.929412 0.749020 0.188235
v 0.498800 0.872700 0.259300 0.933333 0.745098 0.188235
v 0.496300 0.885900 0.277400 0.933333 0.741176 0.188235
v 0.493600 0.899200 0.295100 0.937255 0.737255 0.188235
v 0.490700 0.912400 0.312200 0.937255 0.733333 0.188235
v 0.487500 0.925600 0.328800 0.941176 0.729412 0.188235
v 0.484100 0.938600 0.344700 0.941176 0.725490 0.188235
v 0.480500 0.951600 0.360000 0.945098 0.721569 0.188235
v 0.476500 0.964300 0.374600 0.945098 0.717647 0.188235
v 0.472300 0.976900 0.388500 0.949020 0.713725 0.188235
v 0.467800 0.989300 0.401700 0.949020 0.713725 0.188235
v 0.463100 1.001500 0.414200 0.952941 0.709804 0.188235
v 0.458000 1.013400 0.425800 0.952941 0.705882 0.188235
v 0.452600 1.025000 0.436700 0.956863 0.701961 0.188235
v 0.447000 1.036300 0.446800 0.956863 0.698039 0.188235
v 0.441100 1.047200 0.456100 0.960784 0.690196 0.188235
v 0.434800 1.057800 0.464500 0.960784 0.686275 0.188235
v 0.428300 1.068000 0.472000 0.960784 0.682353 0.188235
v 0.421500 1.077800 0.478700 0.964706 0.678431 0.188235
v 0.414400 1.087200 0.484500 0.964706 0.674510 0.188235
v 0.407000 1.096100 0.489300 0.968627 0.670588 0.188235
v 0.399300 1.104500 0.493300 0.968627 0.666667 0.188235
v 0.391400 1.112500 0.496400 0.968627 0.662745 0.188235
v 0.383200 1.119900 0.498500 0.972549 0.658824 0.188235
v 0.374700 1.126800 0.499700 0.972549 0.654902 0.188235
v 0.366000 1.133200 0.500000 0.972549 0.650980 0.188235
v 0.357100 1.139000 0.499300 0.976471 0.647059 0.188235
v 0.348000 1.144300 0.497800 0.976471 0.643137 0.188235
v 0.338600 1.148900 0.495300 0.976471 0.639216 0.188235
v 0.329000 1.153000 0.491800 0.980392 0.635294 0.188235
v 0.319300 1.156500 0.487500 0.980392 0.631373 0.188235
v 0.309300 1.159400 0.482300 0.980392 0.627451 0.188235
v 0.299200 1.161700 0.476100 0.980392 0.623529 0.188235
v 0.289000 1.163400 0.469100 0.984314 0.619608 0.188235
v 0.278600 1.164500 0.461200 0.984314 0.615686 0.188235
v 0.268200 1.165000 0.452500 0.984314 0.611765 0.188235
v 0.257600 1.164900 0.442900 0.984314 0.607843 0.188235
v 0.246900 1.164200 0.432500 0.988235 0.600000 0.188235
v 0.236200 1.162800 0.421300 0.988235 0.596078 0.188235
v 0.225400 1.160900 0.409300 0.988235 0.592157 0.188235
v 0.214600 1.158400 0.396500 0.988235 0.588235 0.188235
v 0.203700 1.155400 0.383000 0.992157 0.584314 0.188235
v 0.192900 1.151800 0.368800 0.992157 0.580392 0.188235
v 0.182000 1.147600 0.353900 0.992157 0.576471 0.188235
v 0.171200 1.142900 0.338400 0.992157 0.572549 0.188235
v 0.160400 1.137700 0.322200 0.992157 0.568627 0.188235
v 0.149700 1.132000 0.305400 0.992157 0.564706 0.188235
v 0.139000 1.125900 0.288100 0.996078 0.560784 0.188235
v 0.128400 1.119200 0.270200 0.996078 0.556863 0.188235
v 0.117900 1.112200 0.251900 0.996078 0.549020 0.188235
v 0.107500 1.104700 0.233000 0.996078 0.545098 0.188235
v 0.097200 1.096800 0.213700 0.996078 0.541176 0.188235
v 0.087000 1.088600 0.194100 0.996078 0.537255 0.188235
v 0.076900 1.080000 0.174000 0.996078 0.533333 0.188235
v 0.067000 1.071100 0.153700 0.996078 0.529412 0.188235
v 0.057300 1.062000 0.133000 0.996078 0.525490 0.188235
v 0.047700 1.052600 0.112200 0.996078 0.521569 0.188235
v 0.038200 1.042900 0.091100 0.996078 0.517647 0.188235
v 0.028900 1.033100 0.069800 0.996078 0.513725 0.188235
v 0.019800 1.023000 0.048400 0.996078 0.505882 0.188235
v 0.010900 1.012900 0.026900 0.996078 0.501961 0.188235
v 0.002200 1.002600 0.005400 0.996078 0.498039 0.188235
v -0.006400 0.992200 -0.016200 0.996078 0.494118 0.188235
v -0.014800 0.981800 -0.037700 0.996078 0.490196 0.188235
v -0.023000 0.971400 -0.059100 0.996078 0.486275 0.188235
v -0.031100 0.961000 -0.080500 0.996078 0.482353 0.188235
v -0.038900 0.950600 -0.101600 0.996078 0.478431 0.188235
v -0.046600 0.940200 -0.122600 0.996078 0.474510 0.188235
v -0.054200 0.930000 -0.143400 0.996078 0.470588 0.188235
v -0.061500 0.919900 -0.163900 0.996078 0.462745 0.188235
v -0.068800 0.910000 -0.184100 0.996078 0.458824 0.188235
v -0.075800 0.900200 -0.204000 0.996078 0.454902 0.188235
v -0.082800 0.890600 -0.223400 0.996078 0.450980 0.188235
v -0.089600 0.881300 -0.242500 0.996078 0.447059 0.188235
v -0.096200 0.872200 -0.261100 0.996078 0.443137 0.188235
v -0.102800 0.863400 -0.279200 0.996078 0.439216 0.188235
v -0.109300 0.854900 -0.296800 0.992157 0.435294 0.188235
v -0.115600 0.846700 -0.313900 0.992157 0.431373 0.188235
v -0.121900 0.838800 -0.330400 0.992157 0.427451 0.188235
v -0.128200 0.831300 -0.346200 0.992157 0.423529 0.188235
v -0.134400 0.824200 -0.361500 0.992157 0.415686 0.188235
v -0.140500 0.817500 -0.376000 0.992157 0.411765 0.188235
v -0.146600 0.811100 -0.389900 0.988235 0.407843 0.188235
v -0.152700 0.805200 -0.403000 0.988235 0.403922 0.188235
v -0.158900 0.799700 -0.415400 0.988235 0.400000 0.188235
v -0.165000 0.794700 -0.427000 0.988235 0.396078 0.188235
v -0.171100 0.790100 -0.437800 0.988235 0.392157 0.188235
v -0.177300 0.785900 -0.447800 0.984314 0.388235 0.188235
v -0.183600 0.782200 -0.456900 0.984314 0.384314 0.188235
v -0.190000 0.779000 -0.465300 0.984314 0.380392 0.188235
v -0.196400 0.776200 -0.472700 0.984314 0.376471 0.188235
v -0.202900 0.773900 -0.479300 0.980392 0.372549 0.188235
v -0.209600 0.772100 -0.485000 0.980392 0.368627 0.188235
v -0.216300 0.770700 -0.489800 0.980392 0.364706 0.188235
v -0.223200 0.769800 -0.493700 0.976471 0.356863 0.188235
v -0.230300 0.769300 -0.496600 0.976471 0.352941 0.188235
v -0.237500 0.769300 -0.498700 0.976471 0.349020 0.188235
v -0.244900 0.769600 -0.499800 0.972549 0.345098 0.188235
v -0.252500 0.770400 -0.500000 0.972549 0.341176 0.188235
v -0.260300 0.771600 -0.499200 0.972549 0.337255 0.188235
v -0.268300 0.773200 -0.497500 0.968627 0.333333 0.188235
v -0.276500 0.775200 -0.495000 0.968627 0.329412 0.188235
v -0.284900 0.777500 -0.491400 0.968627 0.325490 0.188235
v -0.293500 0.780200 -0.487000 0.964706 0.321569 0.188235
v -0.302400 0.783200 -0.481700 0.964706 0.317647 0.188235
v -0.311500 0.786500 -0.475500 0.964706 0.313725 0.188235
v -0.320800 0.790100 -0.468400 0.960784 0.309804 0.188235
v -0.330400 0.794000 -0.460400 0.960784 0.305882 0.188235
v -0.340200 0.798000 -0.451500 0.956863 0.301961 0.188235
v -0.350200 0.802300 -0.441900 0.956863 0.298039 0.188235
v -0.360500 0.806800 -0.431400 0.952941 0.294118 0.188235
v -0.371000 0.811500 -0.420100 0.952941 0.290196 0.188235
v -0.381700 0.816300 -0.408000 0.949020 0.286275 0.188235
v -0.392700 0.821200 -0.395200 0.949020 0.282353 0.188235
v -0.403800 0.826200 -0.381600 0.949020 0.278431 0.188235
v -0.415200 0.831200 -0.367400 0.945098 0.274510 0.188235
v -0.426800 0.836300 -0.352400 0.945098 0.270588 0.188235
v -0.438600 0.841400 -0.336800 0.941176 0.266667 0.188235
v -0.450600 0.846500 -0.320600 0.941176 0.262745 0.188235
v -0.462700 0.851500 -0.303700 0.937255 0.258824 0.188235
v -0.475000 0.856500 -0.286300 0.937255 0.254902 0.188235
v -0.487400 0.861300 -0.268400 0.933333 0.250980 0.188235
v -0.500000 0.866000 -0.250000 0.929412 0.247059 0.188235
v -0.512700 0.870600 -0.231100 0.929412 0.243137 0.188235
v -0.525500 0.875000 -0.211800 0.925490 0.239216 0.188235
v -0.538400 0.879200 -0.192100 0.925490 0.235294 0.188235
v -0.551300 0.883100 -0.172000 0.921569 0.231373 0.188235
v -0.564300 0.886800 -0.151600 0.921569 0.231373 0.188235
v -0.577300 0.890300 -0.131000 0.917647 0.227451 0.188235
v -0.590400 0.893400 -0.110100 0.913725 0.223529 0.188235
v -0.603400 0.896200 -0.088900 0.913725 0.219608 0.188235
v -0.616400 0.898700 -0.067700 0.909804 0.215686 0.188235
v -0.629300 0.900800 -0.046300 0.909804 0.211765 0.188235
v -0.642200 0.902600 -0.024800 0.905882 0.207843 0.188235
v -0.655000 0.904000 -0.003200 0.901961 0.203922 0.188235
v -0.667600 0.904900 0.018300 0.901961 0.200000 0.188235
v -0.680200 0.905500 0.039800 0.898039 0.196078 0.188235
v -0.692600 0.905600 0.061300 0.894118 0.196078 0.188235
v -0.704800 0.905300 0.082600 0.894118 0.192157 0.188235
v -0.716700 0.904500 0.103700 0.890196 0.188235 0.188235
v -0.728500 0.903200 0.124700 0.886275 0.184314 0.188235
v -0.740100 0.901500 0.145500 0.886275 0.180392 0.188235
v -0.751300 0.899300 0.165900 0.882353 0.176471 0.188235
v -0.762300 0.896700 0.186100 0.878431 0.172549 0.188235
v -0.773000 0.893500 0.205900 0.874510 0.172549 0.188235
v -0.783400 0.889900 0.225400 0.874510 0.168627 0.188235
v -0.793500 0.885800 0.244400 0.870588 0.164706 0.188235
v -0.803200 0.881200 0.262900 0.866667 0.160784 0.188235
v -0.812500 0.876200 0.281000 0.862745 0.156863 0.188235
v -0.821400 0.870600 0.298600 0.862745 0.156863 0.188235
v -0.829900 0.864600 0.315600 0.858824 0.152941 0.188235
v -0.838100 0.858200 0.332000 0.854902 0.149020 0.188235
v -0.845800 0.851200 0.347800 0.850980 0.145098 0.188235
v -0.853000 0.843900 0.362900 0.850980 0.141176 0.188235
v -0.859800 0.836100 0.377400 0.847059 0.141176 0.188235
v -0.866200 0.827800 0.391200 0.843137 0.137255 0.188235
v -0.872100 0.819200 0.404300 0.839216 0.133333 0.188235
v -0.877500 0.810200 0.416600 0.835294 0.129412 0.188235
v -0.882400 0.800800 0.428100 0.835294 0.129412 0.188235
v -0.886900 0.791000 0.438800 0.831373 0.125490 0.188235
v -0.890900 0.780900 0.448700 0.827451 0.121569 0.188235
v -0.894400 0.770400 0.457800 0.823529 0.117647 0.188235
v -0.897400 0.759600 0.466100 0.819608 0.117647 0.188235
v -0.899900 0.748600 0.473400 0.819608 0.113725 0.188235
v -0.902000 0.737200 0.479900 0.815686 0.109804 0.188235
v -0.903600 0.725600 0.485500 0.811765 0.109804 0.188235
v -0.904700 0.713800 0.490200 0.807843 0.105882 0.188235
v -0.905400 0.701700 0.494000 0.803922 0.101961 0.188235
v -0.905600 0.689500 0.496900 0.800000 0.101961 0.188235
v -0.905400 0.677100 0.498800 0.796078 0.098039 0.188235
v -0.904700 0.664500 0.499800 0.792157 0.094118 0.188235
v -0.903600 0.651800 0.499900 0.792157 0.094118 0.188235
v -0.902200 0.639000 0.499100 0.788235 0.090196 0.188235
v -0.900300 0.626100 0.497300 0.784314 0.086275 0.188235
v -0.898100 0.613100 0.494600 0.780392 0.086275 0.188235
v -0.895500 0.600100 0.491000 0.776471 0.082353 0.188235
v -0.892600 0.587100 0.486500 0.772549 0.078431 0.188235
v -0.889400 0.574100 0.481100 0.768627 0.078431 0.188235
v -0.885900 0.561000 0.474800 0.764706 0.074510 0.188235
v -0.882200 0.548100 0.467600 0.760784 0.074510 0.188235
v -0.878100 0.535100 0.459500 0.756863 0.070588 0.188235
v -0.873900 0.522300 0.450600 0.752941 0.070588 0.188235
v -0.869500 0.509500 0.440900 0.749020 0.066667 0.188235
v -0.864900 0.496800 0.430300 0.749020 0.062745 0.188235
v -0.860100 0.484300 0.418900 0.745098 0.062745 0.188235
v -0.855200 0.471900 0.406800 0.741176 0.058824 0.188235
v -0.850300 0.459600 0.393900 0.737255 0.058824 0.188235
v -0.845200 0.447500 0.380200 0.733333 0.054902 0.188235
v -0.840100 0.435600 0.365900 0.729412 0.054902 0.188235
v -0.835000 0.423900 0.350900 0.725490 0.050980 0.188235
v -0.830000 0.412400 0.335200 0.721569 0.050980 0.188235
v -0.824900 0.401000 0.318900 0.717647 0.047059 0.188235
v -0.820000 0.389900 0.302000 0.713725 0.047059 0.188235
v -0.815100 0.379000 0.284600 0.709804 0.043137 0.188235
v -0.810300 0.368300 0.266600 0.705882 0.043137 0.188235
v -0.805700 0.357900 0.248100 0.701961 0.039216 0.188235
v -0.801300 0.347700 0.229200 0.698039 0.039216 0.188235
v -0.797000 0.337700 0.209800 0.694118 0.039216 0.188235
v -0.793000 0.328000 0.190100 0.690196 0.035294 0.188235
v -0.789200 0.318500 0.170000 0.686275 0.035294 0.188235
v -0.785700 0.309200 0.149600 0.682353 0.031373 0.188235
v -0.782400 0.300200 0.128900 0.678431 0.031373 0.188235
v -0.779500 0.291400 0.108000 0.674510 0.031373 0.188235
v -0.776900 0.282800 0.086800 0.670588 0.027451 0.188235
v -0.774700 0.274400 0.065500 0.666667 0.027451 0.188235
v -0.772800 0.266300 0.044100 0.662745 0.023529 0.188235
v -0.771300 0.258400 0.022600 0.654902 0.023529 0.188235
v -0.770200 0.250600 0.001100 0.650980 0.023529 0.188235
v -0.769500 0.243100 -0.020500 0.647059 0.019608 0.188235
v -0.769200 0.235700 -0.042000 0.643137 0.019608 0.188235
v -0.769400 0.228500 -0.063400 0.639216 0.019608 0.188235
v -0.770000 0.221500 -0.084700 0.635294 0.015686 0.188235
v -0.771000 0.214600 -0.105900 0.631373 0.015686 0.188235
v -0.772500 0.207900 -0.126800 0.627451 0.015686 0.188235
v -0.774500 0.201300 -0.147500 0.623529 0.015686 0.188235
v -0.776900 0.194800 -0.168000 0.619608 0.011765 0.188235
v -0.779800 0.188400 -0.188100 0.615686 0.011765 0.188235
v -0.783100 0.182000 -0.207900 0.611765 0.011765 0.188235
v -0.786900 0.175800 -0.227300 0.607843 0.011765 0.188235
v -0.791200 0.169600 -0.246300 0.603922 0.007843 0.188235
v -0.795900 0.163400 -0.264800 0.600000 0.007843 0.188235
v -0.801100 0.157300 -0.282800 0.596078 0.007843 0.188235
v -0.806600 0.151200 -0.300300 0.588235 0.007843 0.188235
v -0.812700 0.145100 -0.317200 0.584314 0.003922 0.188235
v -0.819100 0.139000 -0.333600 0.580392 0.003922 0.188235
v -0.825900 0.132800 -0.349300 0.576471 0.003922 0.188235
v -0.833100 0.126600 -0.364400 0.572549 0.003922 0.188235
v -0.840700 0.120400 -0.378800 0.568627 0.003922 0.188235
v -0.848700 0.114100 -0.392500 0.564706 0.003922 0.188235
v -0.857000 0.107700 -0.405500 0.560784 0.000000 0.188235
v -0.865600 0.101200 -0.417700 0.556863 0.000000 0.188235
v -0.874400 0.094600 -0.429200 0.552941 0.000000 0.188235
v -0.883600 0.087900 -0.439800 0.549020 0.000000 0.188235
v -0.893000 0.081000 -0.449700 0.545098 0.000000 0.188235
v -0.902600 0.074100 -0.458700 0.537255 0.000000 0.188235
v -0.912400 0.067000 -0.466800 0.533333 0.000000 0.188235
v -0.922400 0.059700 -0.474100 0.529412 0.000000 0.188235
v -0.932600 0.052300 -0.480500 0.525490 0.000000 0.188235
v -0.942800 0.044700 -0.486000 0.521569 0.000000 0.188235
v -0.953200 0.037000 -0.490600 0.517647 0.000000 0.188235
v -0.963600 0.029100 -0.494300 0.513725 0.000000 0.188235
v -0.974000 0.021000 -0.497100 0.509804 0.000000 0.188235
v -0.984400 0.012700 -0.499000 0.505882 0.000000 0.188235
v -0.994800 0.004300 -0.499900 0.501961 0.000000 0.188235
v -1.005200 -0.004300 -0.499900 0.494118 0.000000 0.188235
v -1.015400 -0.013100 -0.499000 0.490196 0.000000 0.188235
v -1.025500 -0.022100 -0.497100 0.486275 0.000000 0.188235
v -1.035500 -0.031200 -0.494300 0.482353 0.000000 0.188235
v -1.045300 -0.040600 -0.490600 0.478431 0.000000 0.188235
v -1.054900 -0.050000 -0.486000 0.474510 0.000000 0.188235
v -1.064300 -0.059700 -0.480500 0.470588 0.000000 0.188235
v -1.073400 -0.069500 -0.474100 0.466667 0.000000 0.188235
v -1.082200 -0.079400 -0.466800 0.462745 0.000000 0.188235
v -1.090700 -0.089500 -0.458700 0.458824 0.000000 0.188235
v -1.098800 -0.099700 -0.449700 0.450980 0.000000 0.188235
v -1.106600 -0.110000 -0.439800 0.447059 0.000000 0.188235
v -1.114000 -0.120500 -0.429200 0.443137 0.000000 0.188235
v -1.120900 -0.131000 -0.417700 0.439216 0.000000 0.188235
v -1.127400 -0.141600 -0.405500 0.435294 0.000000 0.188235
v -1.133500 -0.152300 -0.392500 0.431373 0.003922 0.188235
v -1.139100 -0.163100 -0.378800 0.427451 0.003922 0.188235
v -1.144100 -0.173900 -0.364400 0.423529 0.003922 0.188235
v -1.148700 -0.184700 -0.349300 0.419608 0.003922 0.188235
v -1.152700 -0.195600 -0.333600 0.415686 0.003922 0.188235
v -1.156200 -0.206400 -0.317200 0.411765 0.003922 0.188235
v -1.159100 -0.217300 -0.300300 0.407843 0.007843 0.188235
v -1.161500 -0.228100 -0.282800 0.400000 0.007843 0.188235
v -1.163200 -0.238900 -0.264800 0.396078 0.007843 0.188235
v -1.164400 -0.249600 -0.246300 0.392157 0.007843 0.188235
v -1.165000 -0.260200 -0.227300 0.388235 0.011765 0.188235
v -1.164900 -0.270800 -0.207900 0.384314 0.011765 0.188235
v -1.164300 -0.281300 -0.188100 0.380392 0.011765 0.188235
v -1.163100 -0.291600 -0.168000 0.376471 0.011765 0.188235
v -1.161200 -0.301800 -0.147500 0.372549 0.015686 0.188235
v -1.158800 -0.311800 -0.126800 0.368627 0.015686 0.188235
v -1.155700 -0.321700 -0.105900 0.364706 0.015686 0.188235
v -1.152100 -0.331400 -0.084700 0.360784 0.015686 0.188235
v -1.147800 -0.340900 -0.063400 0.356863 0.019608 0.188235
v -1.143000 -0.350300 -0.042000 0.352941 0.019608 0.188235
v -1.137600 -0.359400 -0.020500 0.349020 0.019608 0.188235
v -1.131600 -0.368200 0.001100 0.345098 0.023529 0.188235
v -1.125100 -0.376900 0.022600 0.341176 0.023529 0.188235
v -1.118100 -0.385300 0.044100 0.333333 0.023529 0.188235
v -1.110500 -0.393400 0.065500 0.329412 0.027451 0.188235
v -1.102500 -0.401300 0.086800 0.325490 0.027451 0.188235
v -1.093900 -0.408900 0.108000 0.321569 0.031373 0.188235
v -1.084900 -0.416200 0.128900 0.317647 0.031373 0.188235
v -1.075400 -0.423200 0.149600 0.313725 0.031373 0.188235
v -1.065500 -0.430000 0.170000 0.309804 0.035294 0.188235
v -1.055200 -0.436400 0.190100 0.305882 0.035294 0.188235
v -1.044500 -0.442600 0.209800 0.301961 0.039216 0.188235
v -1.033500 -0.448400 0.229200 0.298039 0.039216 0.188235
v -1.022100 -0.454000 0.248100 0.294118 0.039216 0.188235
v -1.010400 -0.459300 0.266600 0.290196 0.043137 0.188235
v -0.998500 -0.464300 0.284600 0.286275 0.043137 0.188235
v -0.986200 -0.469000 0.302000 0.282353 0.047059 0.188235
v -0.973800 -0.473400 0.318900 0.278431 0.047059 0.188235
v -0.961100 -0.477500 0.335200 0.274510 0.050980 0.188235
v -0.948300 -0.481400 0.350900 0.270588 0.050980 0.188235
v -0.935400 -0.485000 0.365900 0.266667 0.054902 0.188235
v -0.922300 -0.488400 0.380200 0.262745 0.054902 0.188235
v -0.909100 -0.491500 0.393900 0.258824 0.058824 0.188235
v -0.895900 -0.494300 0.406800 0.254902 0.058824 0.188235
v -0.882600 -0.497000 0.418900 0.250980 0.062745 0.188235
v -0.869300 -0.499400 0.430300 0.247059 0.062745 0.188235
v -0.856100 -0.501700 0.440900 0.247059 0.066667 0.188235
v -0.842900 -0.503700 0.450600 0.243137 0.070588 0.188235
v -0.829700 -0.505600 0.459500 0.239216 0.070588 0.188235
v -0.816700 -0.507400 0.467600 0.235294 0.074510 0.188235
v -0.803700 -0.509000 0.474800 0.231373 0.074510 0.188235
v -0.791000 -0.510500 0.481100 0.227451 0.078431 0.188235
v -0.778300 -0.511900 0.486500 0.223529 0.078431 0.188235
v -0.765900 -0.513300 0.491000 0.219608 0.082353 0.188235
v -0.753700 -0.514500 0.494600 0.215686 0.086275 0.188235
v -0.741700 -0.515800 0.497300 0.211765 0.086275 0.188235
v -0.729900 -0.517000 0.499100 0.207843 0.090196 0.188235
v -0.718400 -0.518200 0.499900 0.203922 0.094118 0.188235
v -0.707200 -0.519400 0.499800 0.203922 0.094118 0.188235
v -0.696300 -0.520700 0.498800 0.200000 0.098039 0.188235
v -0.685700 -0.522100 0.496900 0.196078 0.101961 0.188235
v -0.675400 -0.523500 0.494000 0.192157 0.101961 0.188235
v -0.665500 -0.525000 0.490200 0.188235 0.105882 0.188235
v -0.655800 -0.526700 0.485500 0.184314 0.109804 0.188235
v -0.646600 -0.528500 0.479900 0.180392 0.109804 0.188235
v -0.637700 -0.530400 0.473400 0.176471 0.113725 0.188235
v -0.629100 -0.532500 0.466100 0.176471 0.117647 0.188235
v -0.621000 -0.534900 0.457800 0.172549 0.117647 0.188235
v -0.613200 -0.537400 0.448700 0.168627 0.121569 0.188235
v -0.605700 -0.540200 0.438800 0.164706 0.125490 0.188235
v -0.598700 -0.543300 0.428100 0.160784 0.129412 0.188235
v -0.592000 -0.546600 0.416600 0.160784 0.129412 0.188235
v -0.585600 -0.550100 0.404300 0.156863 0.133333 0.188235
v -0.579700 -0.554000 0.391200 0.152941 0.137255 0.188235
v -0.574100 -0.558200 0.377400 0.149020 0.141176 0.188235
v -0.568800 -0.562700 0.362900 0.145098 0.141176 0.188235
v -0.563900 -0.567500 0.347800 0.145098 0.145098 0.188235
v -0.559300 -0.572700 0.332000 0.141176 0.149020 0.188235
v -0.555000 -0.578200 0.315600 0.137255 0.152941 0.188235
v -0.551100 -0.584100 0.298600 0.133333 0.156863 0.188235
v -0.547400 -0.590300 0.281000 0.133333 0.156863 0.188235
v -0.544100 -0.596900 0.262900 0.129412 0.160784 0.188235
v -0.541000 -0.603900 0.244400 0.125490 0.164706 0.188235
v -0.538100 -0.611300 0.225400 0.121569 0.168627 0.188235
v -0.535500 -0.619000 0.205900 0.121569 0.172549 0.188235
v -0.533100 -0.627100 0.186100 0.117647 0.172549 0.188235
v -0.530900 -0.635500 0.165900 0.113725 0.176471 0.188235
v -0.528900 -0.644300 0.145500 0.109804 0.180392 0.188235
v -0.527100 -0.653500 0.124700 0.109804 0.184314 0.188235
v -0.525400 -0.663000 0.103700 0.105882 0.188235 0.188235
v -0.523900 -0.672900 0.082600 0.101961 0.192157 0.188235
v -0.522400 -0.683100 0.061300 0.101961 0.196078 0.188235
v -0.521000 -0.693600 0.039800 0.098039 0.196078 0.188235
v -0.519700 -0.704500 0.018300 0.094118 0.200000 0.188235
v -0.518500 -0.715600 -0.003200 0.094118 0.203922 0.188235
v -0.517300 -0.727000 -0.024800 0.090196 0.207843 0.188235
v -0.516100 -0.738700 -0.046300 0.086275 0.211765 0.188235
v -0.514800 -0.750700 -0.067700 0.086275 0.215686 0.188235
v -0.513600 -0.762800 -0.088900 0.082353 0.219608 0.188235
v -0.512300 -0.775200 -0.110100 0.082353 0.223529 0.188235
v -0.510900 -0.787800 -0.131000 0.078431 0.227451 0.188235
v -0.509400 -0.800500 -0.151600 0.074510 0.231373 0.188235
v -0.507800 -0.813400 -0.172000 0.074510 0.231373 0.188235
v -0.506100 -0.826500 -0.192100 0.070588 0.235294 0.188235
v -0.504200 -0.839600 -0.211800 0.070588 0.239216 0.188235
v -0.502200 -0.852800 -0.231100 0.066667 0.243137 0.188235
v -0.500000 -0.866000 -0.250000 0.066667 0.247059 0.188235
v -0.497600 -0.879300 -0.268400 0.062745 0.250980 0.188235
v -0.495000 -0.892600 -0.286300 0.058824 0.254902 0.188235
v -0.492200 -0.905800 -0.303700 0.058824 0.258824 0.188235
v -0.489200 -0.919000 -0.320600 0.054902 0.262745 0.188235
v -0.485900 -0.932100 -0.336800 0.054902 0.266667 0.188235
v -0.482300 -0.945100 -0.352400 0.050980 0.270588 0.188235
v -0.478500 -0.958000 -0.367400 0.050980 0.274510 0.188235
v -0.474500 -0.970600 -0.381600 0.047059 0.278431 0.188235
v -0.470100 -0.983100 -0.395200 0.047059 0.282353 0.188235
v -0.465500 -0.995400 -0.408000 0.047059 0.286275 0.188235
v -0.460600 -1.007400 -0.420100 0.043137 0.290196 0.188235
v -0.455400 -1.019200 -0.431400 0.043137 0.294118 0.188235
v -0.449900 -1.030700 -0.441900 0.039216 0.298039 0.188235
v -0.444100 -1.041800 -0.451500 0.039216 0.301961 0.188235
v -0.438000 -1.052600 -0.460400 0.035294 0.305882 0.188235
v -0.431600 -1.063000 -0.468400 0.035294 0.309804 0.188235
v -0.424900 -1.073000 -0.475500 0.031373 0.313725 0.188235
v -0.418000 -1.082500 -0.481700 0.031373 0.317647 0.188235
v -0.410700 -1.091700 -0.487000 0.031373 0.321569 0.188235
v -0.403200 -1.100400 -0.491400 0.027451 0.325490 0.188235
v -0.395400 -1.108600 -0.495000 0.027451 0.329412 0.188235
v -0.387300 -1.116200 -0.497500 0.027451 0.333333 0.188235
v -0.379000 -1.123400 -0.499200 0.023529 0.337255 0.188235
v -0.370400 -1.130100 -0.500000 0.023529 0.341176 0.188235
v -0.361600 -1.136200 -0.499800 0.023529 0.345098 0.188235
v -0.352600 -1.141700 -0.498700 0.019608 0.349020 0.188235
v -0.343300 -1.146700 -0.496600 0.019608 0.352941 0.188235
v -0.333800 -1.151100 -0.493700 0.019608 0.356863 0.188235
v -0.324200 -1.154900 -0.489800 0.015686 0.364706 0.188235
v -0.314300 -1.158100 -0.485000 0.015686 0.368627 0.188235
v -0.304300 -1.160700 -0.479300 0.015686 0.372549 0.188235
v -0.294100 -1.162700 -0.472700 0.011765 0.376471 0.188235
v -0.283800 -1.164100 -0.465300 0.011765 0.380392 0.188235
v -0.273400 -1.164800 -0.456900 0.011765 0.384314 0.188235
v -0.262900 -1.165000 -0.447800 0.011765 0.388235 0.188235
v -0.252300 -1.164600 -0.437800 0.007843 0.392157 0.188235
v -0.241600 -1.163600 -0.427000 0.007843 0.396078 0.188235
v -0.230800 -1.162000 -0.415400 0.007843 0.400000 0.188235
v -0.220000 -1.159800 -0.403000 0.007843 0.403922 0.188235
v -0.209200 -1.157000 -0.389900 0.007843 0.407843 0.188235
v -0.198300 -1.153600 -0.376000 0.003922 0.411765 0.188235
v -0.187400 -1.149800 -0.361500 0.003922 0.415686 0.188235
v -0.176600 -1.145300 -0.346200 0.003922 0.423529 0.188235
v -0.165800 -1.140400 -0.330400 0.003922 0.427451 0.188235
v -0.155000 -1.134900 -0.313900 0.003922 0.431373 0.188235
v -0.144300 -1.129000 -0.296800 0.003922 0.435294 0.188235
v -0.133700 -1.122600 -0.279200 0.000000 0.439216 0.188235
v -0.123100 -1.115700 -0.261100 0.000000 0.443137 0.188235
v -0.112600 -1.108500 -0.242500 0.000000 0.447059 0.188235
v -0.102300 -1.100800 -0.223400 0.000000 0.450980 0.188235
v -0.092000 -1.092800 -0.204000 0.000000 0.454902 0.188235
v -0.081900 -1.084400 -0.184100 0.000000 0.458824 0.188235
v -0.072000 -1.075600 -0.163900 0.000000 0.462745 0.188235
v -0.062100 -1.066600 -0.143400 0.000000 0.470588 0.188235
v -0.052400 -1.057300 -0.122600 0.000000 0.474510 0.188235
v -0.042900 -1.047800 -0.101600 0.000000 0.478431 0.188235
v -0.033600 -1.038000 -0.080500 0.000000 0.482353 0.188235
v -0.024400 -1.028100 -0.059100 0.000000 0.486275 0.188235
v -0.015400 -1.018000 -0.037700 0.000000 0.490196 0.188235
v -0.006500 -1.007700 -0.016200 0.000000 0.494118 0.188235
v 0.002100 -0.997400 0.005400 0.000000 0.498039 0.188235
v 0.010600 -0.987000 0.026900 0.000000 0.501961 0.188235
v 0.018900 -0.976600 0.048400 0.000000 0.505882 0.188235
v 0.027100 -0.966200 0.069800 0.000000 0.513725 0.188235
v 0.035000 -0.955800 0.091100 0.000000 0.517647 0.188235
v 0.042800 -0.945400 0.112200 0.000000 0.521569 0.188235
v 0.050400 -0.935100 0.133000 0.000000 0.525490 0.188235
v 0.057900 -0.925000 0.153700 0.000000 0.529412 0.188235
v 0.065200 -0.914900 0.174000 0.000000 0.533333 0.188235
v 0.072300 -0.905100 0.194100 0.000000 0.537255 0.188235
v 0.079300 -0.895400 0.213700 0.000000 0.541176 0.188235
v 0.086200 -0.885900 0.233000 0.000000 0.545098 0.188235
v 0.092900 -0.876700 0.251900 0.000000 0.549020 0.188235
v 0.099500 -0.867700 0.270200 0.000000 0.556863 0.188235
v 0.106000 -0.859100 0.288100 0.000000 0.560784 0.188235
v 0.112500 -0.850700 0.305400 0.003922 0.564706 0.188235
v 0.118800 -0.842700 0.322200 0.003922 0.568627 0.188235
v 0.125100 -0.835000 0.338400 0.003922 0.572549 0.188235
v 0.131300 -0.827700 0.353900 0.003922 0.576471 0.188235
v 0.137400 -0.820800 0.368800 0.003922 0.580392 0.188235
v 0.143600 -0.814200 0.383000 0.003922 0.584314 0.188235
v 0.149700 -0.808100 0.396500 0.007843 0.588235 0.188235
v 0.155800 -0.802400 0.409300 0.007843 0.592157 0.188235
v 0.161900 -0.797100 0.421300 0.007843 0.596078 0.188235
v 0.168100 -0.792300 0.432500 0.007843 0.600000 0.188235
v 0.174200 -0.787900 0.442900 0.011765 0.607843 0.188235
v 0.180500 -0.784000 0.452500 0.011765 0.611765 0.188235
v 0.186800 -0.780600 0.461200 0.011765 0.615686 0.188235
v 0.193200 -0.777600 0.469100 0.011765 0.619608 0.188235
v 0.199600 -0.775000 0.476100 0.015686 0.623529 0.188235
v 0.206200 -0.773000 0.482300 0.015686 0.627451 0.188235
v 0.212900 -0.771400 0.487500 0.015686 0.631373 0.188235
v 0.219800 -0.770200 0.491800 0.015686 0.635294 0.188235
v 0.226800 -0.769500 0.495300 0.019608 0.639216 0.188235
v 0.233900 -0.769200 0.497800 0.019608 0.643137 0.188235
v 0.241200 -0.769400 0.499300 0.019608 0.647059 0.188235
v 0.248700 -0.770000 0.500000 0.023529 0.650980 0.188235
v 0.256400 -0.771000 0.499700 0.023529 0.654902 0.188235
v 0.264300 -0.772400 0.498500 0.023529 0.658824 0.188235
v 0.272400 -0.774200 0.496400 0.027451 0.662745 0.188235
v 0.280700 -0.776300 0.493300 0.027451 0.666667 0.188235
v 0.289200 -0.778800 0.489300 0.027451 0.670588 0.188235
v 0.297900 -0.781700 0.484500 0.031373 0.674510 0.188235
v 0.306900 -0.784800 0.478700 0.031373 0.678431 0.188235
v 0.316100 -0.788300 0.472000 0.035294 0.682353 0.188235
v 0.325600 -0.792000 0.464500 0.035294 0.686275 0.188235
v 0.335200 -0.796000 0.456100 0.035294 0.690196 0.188235
v 0.345200 -0.800200 0.446800 0.039216 0.698039 0.188235
v 0.355300 -0.804600 0.436700 0.039216 0.701961 0.188235
v 0.365700 -0.809100 0.425800 0.043137 0.705882 0.188235
v 0.376300 -0.813900 0.414200 0.043137 0.709804 0.188235
v 0.387200 -0.818700 0.401700 0.047059 0.713725 0.188235
v 0.398200 -0.823700 0.388500 0.047059 0.713725 0.188235
v 0.409500 -0.828700 0.374600 0.050980 0.717647 0.188235
v 0.421000 -0.833800 0.360000 0.050980 0.721569 0.188235
v 0.432700 -0.838900 0.344700 0.054902 0.725490 0.188235
v 0.444500 -0.844000 0.328800 0.054902 0.729412 0.188235
v 0.456600 -0.849000 0.312200 0.058824 0.733333 0.188235
v 0.468800 -0.854000 0.295100 0.058824 0.737255 0.188235
v 0.481200 -0.858900 0.277400 0.062745 0.741176 0.188235
v 0.493700 -0.863700 0.259300 0.062745 0.745098 0.188235
v 0.506300 -0.868300 0.240600 0.066667 0.749020 0.188235
v 0.519100 -0.872800 0.221500 0.066667 0.752941 0.188235
v 0.531900 -0.877100 0.202000 0.070588 0.756863 0.188235
v 0.544800 -0.881200 0.182100 0.074510 0.760784 0.188235
v 0.557800 -0.885000 0.161900 0.074510 0.764706 0.188235
v 0.570800 -0.888600 0.141300 0.078431 0.768627 0.188235
v 0.583800 -0.891900 0.120500 0.078431 0.772549 0.188235
v 0.596900 -0.894800 0.099500 0.082353 0.776471 0.188235
v 0.609900 -0.897500 0.078300 0.086275 0.780392 0.188235
v 0.622900 -0.899800 0.057000 0.086275 0.784314 0.188235
v 0.635800 -0.901800 0.035500 0.090196 0.784314 0.188235
v 0.648600 -0.903300 0.014000 0.090196 0.788235 0.188235
v 0.661300 -0.904500 -0.007500 0.094118 0.792157 0.188235
v 0.673900 -0.905200 -0.029100 0.098039 0.796078 0.188235
v 0.686400 -0.905600 -0.050500 0.098039 0.800000 0.188235
v 0.698700 -0.905500 -0.071900 0.101961 0.803922 0.188235
v 0.710800 -0.904900 -0.093200 0.105882 0.807843 0.188235
v 0.722700 -0.903900 -0.114300 0.105882 0.811765 0.188235
v 0.734300 -0.902400 -0.135100 0.109804 0.811765 0.188235
v 0.745700 -0.900500 -0.155700 0.113725 0.815686 0.188235
v 0.756900 -0.898100 -0.176100 0.117647 0.819608 0.188235
v 0.767700 -0.895200 -0.196100 0.117647 0.823529 0.188235
v 0.778300 -0.891800 -0.215700 0.121569 0.827451 0.188235
v 0.788500 -0.887900 -0.234900 0.125490 0.831373 0.188235
v 0.798400 -0.883600 -0.253700 0.125490 0.831373 0.188235
v 0.807900 -0.878800 -0.272000 0.129412 0.835294 0.188235
v 0.817000 -0.873500 -0.289900 0.133333 0.839216 0.188235
v 0.825700 -0.867700 -0.307200 0.137255 0.843137 0.188235
v 0.834100 -0.861500 -0.323900 0.137255 0.847059 0.188235
v 0.842000 -0.854800 -0.340000 0.141176 0.847059 0.188235
v 0.849400 -0.847600 -0.355500 0.145098 0.850980 0.188235
v 0.856500 -0.840000 -0.370300 0.149020 0.854902 0.188235
v 0.863100 -0.832000 -0.384400 0.152941 0.858824 0.188235
v 0.869200 -0.823600 -0.397800 0.152941 0.862745 0.188235
v 0.874800 -0.814700 -0.410500 0.156863 0.862745 0.188235
v 0.880000 -0.805500 -0.422400 0.160784 0.866667 0.188235
v 0.884700 -0.795900 -0.433600 0.164706 0.870588 0.188235
v 0.888900 -0.786000 -0.443900 0.168627 0.874510 0.188235
v 0.892700 -0.775700 -0.453400 0.168627 0.874510 0.188235
v 0.895900 -0.765000 -0.462000 0.172549 0.878431 0.188235
v 0.898700 -0.754100 -0.469800 0.176471 0.882353 0.188235
v 0.901000 -0.742900 -0.476800 0.180392 0.882353 0.188235
v 0.902900 -0.731400 -0.482800 0.184314 0.886275 0.188235
v 0.904200 -0.719700 -0.488000 0.188235 0.890196 0.188235
v 0.905100 -0.707800 -0.492200 0.188235 0.890196 0.188235
v 0.905500 -0.695600 -0.495500 0.192157 0.894118 0.188235
v 0.905500 -0.683300 -0.498000 0.196078 0.898039 0.188235
v 0.905100 -0.670800 -0.499400 0.200000 0.898039 0.188235
v 0.904200 -0.658200 -0.500000 0.203922 0.901961 0.188235
v 0.903000 -0.645400 -0.499600 0.207843 0.905882 0.188235
v 0.901300 -0.632500 -0.498300 0.211765 0.905882 0.188235
v 0.899300 -0.619600 -0.496100 0.215686 0.909804 0.188235
v 0.896900 -0.606600 -0.493000 0.219608 0.913725 0.188235
v 0.894100 -0.593600 -0.488900 0.219608 0.913725 0.188235
v 0.891100 -0.580600 -0.483900 0.223529 0.917647 0.188235
v 0.887700 -0.567600 -0.478100 0.227451 0.917647 0.188235
v 0.884100 -0.554600 -0.471300 0.231373 0.921569 0.188235
v 0.880200 -0.541600 -0.463700 0.235294 0.925490 0.188235
v 0.876000 -0.528700 -0.455200 0.239216 0.925490 0.188235
v 0.871700 -0.515900 -0.445800 0.243137 0.929412 0.188235
v 0.867200 -0.503200 -0.435700 0.247059 0.929412 0.188235
v 0.862500 -0.490600 -0.424700 0.250980 0.933333 0.188235
v 0.857700 -0.478100 -0.412900 0.254902 0.933333 0.188235
v 0.852800 -0.465700 -0.400400 0.258824 0.937255 0.188235
v 0.847700 -0.453600 -0.387100 0.262745 0.937255 0.188235
v 0.842700 -0.441600 -0.373200 0.266667 0.941176 0.188235
v 0.837600 -0.429700 -0.358500 0.270588 0.941176 0.188235
v 0.832500 -0.418100 -0.343100 0.274510 0.945098 0.188235
v 0.827400 -0.406700 -0.327100 0.278431 0.945098 0.188235
v 0.822400 -0.395400 -0.310500 0.282353 0.949020 0.188235
v 0.817500 -0.384400 -0.293400 0.286275 0.949020 0.188235
v 0.812700 -0.373600 -0.275700 0.290196 0.952941 0.188235
v 0.808000 -0.363100 -0.257400 0.294118 0.952941 0.188235
v 0.803500 -0.352800 -0.238700 0.298039 0.956863 0.188235
v 0.799100 -0.342700 -0.219600 0.301961 0.956863 0.188235
v 0.795000 -0.332800 -0.200000 0.305882 0.960784 0.188235
v 0.791100 -0.323200 -0.180100 0.309804 0.960784 0.188235
v 0.787400 -0.313800 -0.159800 0.313725 0.960784 0.188235
v 0.784000 -0.304600 -0.139300 0.317647 0.964706 0.188235
v 0.780900 -0.295700 -0.118500 0.321569 0.964706 0.188235
v 0.778200 -0.287000 -0.097400 0.325490 0.968627 0.188235
v 0.775800 -0.278600 -0.076200 0.329412 0.968627 0.188235
v 0.773700 -0.270300 -0.054800 0.333333 0.968627 0.188235
v 0.772000 -0.262300 -0.033400 0.337255 0.972549 0.188235
v 0.770700 -0.254500 -0.011800 0.341176 0.972549 0.188235
v 0.769800 -0.246800 0.009700 0.345098 0.972549 0.188235
v 0.769300 -0.239400 0.031200 0.349020 0.976471 0.188235
v 0.769200 -0.232100 0.052700 0.352941 0.976471 0.188235
v 0.769600 -0.225000 0.074100 0.356863 0.976471 0.188235
v 0.770400 -0.218000 0.095300 0.360784 0.980392 0.188235
v 0.771700 -0.211200 0.116400 0.364706 0.980392 0.188235
v 0.773400 -0.204600 0.137200 0.368627 0.980392 0.188235
v 0.775600 -0.198000 0.157800 0.372549 0.984314 0.188235
v 0.778300 -0.191600 0.178100 0.380392 0.984314 0.188235
v 0.781400 -0.185200 0.198000 0.384314 0.984314 0.188235
v 0.785000 -0.178900 0.217600 0.388235 0.984314 0.188235
v 0.789000 -0.172700 0.236800 0.392157 0.988235 0.188235
v 0.793500 -0.166500 0.255600 0.396078 0.988235 0.188235
v 0.798400 -0.160400 0.273900 0.400000 0.988235 0.188235
v 0.803800 -0.154300 0.291600 0.403922 0.988235 0.188235
v 0.809600 -0.148200 0.308800 0.407843 0.988235 0.188235
v 0.815800 -0.142000 0.325500 0.411765 0.992157 0.188235
v 0.822500 -0.135900 0.341600 0.415686 0.992157 0.188235
v 0.829500 -0.129700 0.357000 0.419608 0.992157 0.188235
v 0.836900 -0.123500 0.371700 0.423529 0.992157 0.188235
v 0.844700 -0.117200 0.385800 0.427451 0.992157 0.188235
v 0.852800 -0.110900 0.399100 0.435294 0.992157 0.188235
v 0.861200 -0.104400 0.411700 0.439216 0.996078 0.188235
v 0.870000 -0.097900 0.423600 0.443137 0.996078 0.188235
v 0.879000 -0.091200 0.434600 0.447059 0.996078 0.188235
v 0.888300 -0.084500 0.444900 0.450980 0.996078 0.188235
v 0.897800 -0.077600 0.454300 0.454902 0.996078 0.188235
v 0.907500 -0.070500 0.462900 0.458824 0.996078 0.188235
v 0.917400 -0.063400 0.470600 0.462745 0.996078 0.188235
v 0.927500 -0.056000 0.477400 0.466667 0.996078 0.188235
v 0.937700 -0.048500 0.483400 0.470588 0.996078 0.188235
v 0.948000 -0.040900 0.488400 0.478431 0.996078 0.188235
v 0.958400 -0.033100 0.492600 0.482353 0.996078 0.188235
v 0.968800 -0.025100 0.495800 0.486275 0.996078 0.188235
v 0.979200 -0.016900 0.498100 0.490196 0.996078 0.188235
v 0.989600 -0.008500 0.499500 0.494118 0.996078 0.188235
f 256 475 401
f 475 401 330
f 401 330 400
f 330 400 255
f 400 255 476
f 255 476 331
f 476 331 399
f 331 399 398
f 399 398 254
f 398 254 332
f 254 332 477
f 332 477 397
f 477 397 396
f 397 396 253
f 396 253 333
f 253 333 395
f 333 395 478
f 395 478 334
f 478 334 394
f 334 394 252
f 394 252 393
f 252 393 335
f 393 335 479
f 335 479 392
f 479 392 251
f 392 251 336
f 251 336 391
f 336 391 390
f 391 390 480
f 390 480 337
f 480 337 250
f 337 250 389
f 250 389 338
f 389 338 388
f 338 388 481
f 388 481 387
f 481 387 339
f 387 339 249
f 339 249 386
f 249 386 340
f 386 340 385
f 340 385 482
f 385 482 384
f 482 384 341
f 384 341 248
f 341 248 383
f 248 383 382
f 383 382 342
f 382 342 483
f 342 483 381
f 483 381 343
f 381 343 247
f 343 247 380
f 247 380 344
f 380 344 379
f 344 379 484
f 379 484 378
f 484 378 345
f 378 345 377
f 345 377 246
f 377 246 346
f 246 346 376
f 346 376 485
f 376 485 375
f 485 375 347
f 375 347 374
f 347 374 348
f 374 348 373
f 348 373 349
f 373 349 245
f 349 245 372
f 245 372 486
f 372 486 371
f 486 371 350
f 371 350 370
f 350 370 351
f 370 351 369
f 351 369 352
f 369 352 368
f 352 368 353
f 368 353 367
f 353 367 366
f 367 366 354
f 366 354 487
f 354 487 244
f 487 244 365
f 244 365 355
f 365 355 364
f 355 364 356
f 364 356 363
f 356 363 357
f 363 357 362
f 357 362 358
f 362 358 361
f 358 361 359
f 361 359 360
f 359 360 488
f 360 488 243
f 488 243 489
f 243 489 242
f 489 242 490
f 242 490 491
f 490 491 241
f 491 241 492
f 241 492 240
f 492 240 493
f 240 493 494
f 493 494 239
f 494 239 495
f 239 495 238
f 495 238 496
f 238 496 497
f 496 497 237
f 497 237 498
f 237 498 236
f 498 236 499
f 236 499 500
f 499 500 235
f 500 235 501
f 235 501 502
f 501 502 234
f 502 234 503
f 234 503 504
f 503 504 233
f 504 233 505
f 233 505 506
f 505 506 232
f 506 232 507
f 232 507 508
f 507 508 231
f 508 231 509
f 231 509 510
f 509 510 230
f 510 230 511
f 230 511 512
f 511 512 229
f 512 229 513
f 229 513 514
f 513 514 228
f 514 228 515
f 228 515 516
f 515 516 227
f 516 227 517
f 227 517 518
f 517 518 226
f 518 226 519
f 226 519 520
f 519 520 225
f 520 225 521
f 225 521 522
f 521 522 224
f 522 224 523
f 224 523 524
f 523 524 223
f 524 223 525
f 223 525 526
f 525 526 222
f 526 222 527
f 222 527 528
f 527 528 221
f 528 221 529
f 221 529 530
f 529 530 220
f 530 220 531
f 220 531 532
f 531 532 219
f 532 219 533
f 219 533 534
f 533 534 218
f 534 218 535
f 218 535 536
f 535 536 217
f 536 217 537
f 217 537 216
f 537 216 538
f 216 538 539
f 538 539 215
f 539 215 540
f 215 540 541
f 540 541 214
f 541 214 542
f 214 542 213
f 542 213 543
f 213 543 544
f 543 544 212
f 544 212 545
f 212 545 546
f 545 546 211
f 546 211 210
f 211 210 547
f 210 547 209
f 547 209 184
f 209 184 185
f 184 185 208
f 185 208 186
f 208 186 207
f 186 207 187
f 207 187 188
f 187 188 206
f 188 206 189
f 206 189 205
f 189 205 190
f 205 190 204
f 190 204 191
f 204 191 192
f 191 192 203
f 192 203 202
f 203 202 193
f 202 193 194
f 193 194 201
f 194 201 195
f 201 195 200
f 195 200 196
f 200 196 199
f 196 199 198
f 199 198 197
f 198 197 81
f 197 81 82
f 81 82 80
f 82 80 83
f 80 83 79
f 83 79 84
f 79 84 78
f 84 78 85
f 78 85 77
f 85 77 76
f 77 76 86
f 76 86 75
f 86 75 87
f 75 87 74
f 87 74 88
f 74 88 73
f 88 73 89
f 73 89 72
f 89 72 90
f 72 90 71
f 90 71 70
f 71 70 91
f 70 91 69
f 91 69 92
f 69 92 68
f 92 68 93
f 68 93 67
f 93 67 66
f 67 66 94
f 66 94 65
f 94 65 95
f 65 95 658
f 95 658 657
f 658 657 659
f 657 659 656
f 659 656 660
f 656 660 655
f 660 655 661
f 655 661 654
f 661 654 662
f 654 662 64
f 662 64 653
f 64 653 663
f 653 663 652
f 663 652 664
f 652 664 651
f 664 651 665
f 651 665 650
f 665 650 96
f 650 96 666
f 96 666 63
f 666 63 649
f 63 649 667
f 649 667 648
f 667 648 668
f 648 668 647
f 668 647 62
f 647 62 669
f 62 669 646
f 669 646 97
f 646 97 670
f 97 670 645
f 670 645 61
f 645 61 671
f 61 671 644
f 671 644 672
f 644 672 643
f 672 643 98
f 643 98 60
f 98 60 642
f 60 642 673
f 642 673 641
f 673 641 59
f 641 59 674
f 59 674 99
f 674 99 640
f 99 640 675
f 640 675 58
f 675 58 639
f 58 639 676
f 639 676 638
f 676 638 100
f 638 100 57
f 100 57 677
f 57 677 637
f 677 637 56
f 637 56 678
f 56 678 636
f 678 636 101
f 636 101 55
f 101 55 679
f 55 679 635
f 679 635 680
f 635 680 54
f 680 54 634
f 54 634 102
f 634 102 681
f 102 681 633
f 681 633 53
f 633 53 632
f 53 632 682
f 632 682 52
f 682 52 103
f 52 103 631
f 103 631 683
f 631 683 51
f 683 51 104
f 51 104 630
f 104 630 50
f 630 50 684
f 50 684 629
f 684 629 49
f 629 49 685
f 49 685 105
f 685 105 48
f 105 48 628
f 48 628 686
f 628 686 47
f 686 47 627
f 47 627 687
f 627 687 106
f 687 106 46
f 106 46 626
f 46 626 688
f 626 688 45
f 688 45 107
f 45 107 625
f 107 625 44
f 625 44 689
f 44 689 43
f 689 43 624
f 43 624 690
f 624 690 108
f 690 108 42
f 108 42 623
f 42 623 691
f 623 691 41
f 691 41 109
f 41 109 40
f 109 40 692
f 40 692 622
f 692 622 39
f 622 39 693
f 39 693 110
f 693 110 621
f 110 621 38
f 621 38 37
f 38 37 694
f 37 694 620
f 694 620 111
f 620 111 36
f 111 36 695
f 36 695 35
f 695 35 619
f 35 619 34
f 619 34 696
f 34 696 112
f 696 112 33
f 112 33 618
f 33 618 697
f 618 697 32
f 697 32 113
f 32 113 31
f 113 31 698
f 31 698 617
f 698 617 30
f 617 30 699
f 30 699 114
f 699 114 29
f 114 29 616
f 29 616 28
f 616 28 700
f 28 700 27
f 700 27 115
f 27 115 26
f 115 26 701
f 26 701 615
f 701 615 25
f 615 25 702
f 25 702 116
f 702 116 24
f 116 24 614
f 24 614 23
f 614 23 703
f 23 703 22
f 703 22 117
f 22 117 704
f 117 704 21
f 704 21 613
f 21 613 20
f 613 20 705
f 20 705 19
f 705 19 118
f 19 118 706
f 118 706 18
f 706 18 612
f 18 612 17
f 612 17 707
f 17 707 16
f 707 16 119
f 16 119 708
f 119 708 15
f 708 15 14
f 15 14 611
f 14 611 709
f 611 709 13
f 709 13 710
f 13 710 120
f 710 120 12
f 120 12 11
f 12 11 711
f 11 711 10
f 711 10 610
f 10 610 712
f 610 712 9
f 712 9 121
f 9 121 713
f 121 713 8
f 713 8 7
f 8 7 714
f 7 714 6
f 714 6 715
f 6 715 5
f 715 5 609
f 5 609 716
f 609 716 122
f 716 122 4
f 122 4 717
f 4 717 3
f 717 3 2
f 3 2 718
f 2 718 1
f 718 1 719
f 1 719 729
f 719 729 720
f 729 720 728
f 720 728 721
f 728 721 727
f 721 727 722
f 727 722 726
f 722 726 723
f 726 723 725
f 723 725 724
f 725 724 123
f 724 123 608
f 123 608 124
f 608 124 607
f 124 607 125
f 607 125 606
f 125 606 126
f 606 126 127
f 126 127 605
f 127 605 128
f 605 128 604
f 128 604 129
f 604 129 130
f 129 130 603
f 130 603 131
f 603 131 602
f 131 602 132
f 602 132 133
f 132 133 601
f 133 601 134
f 601 134 135
f 134 135 600
f 135 600 136
f 600 136 137
f 136 137 599
f 137 599 138
f 599 138 598
f 138 598 139
f 598 139 140
f 139 140 597
f 140 597 141
f 597 141 142
f 141 142 596
f 142 596 143
f 596 143 144
f 143 144 595
f 144 595 145
f 595 145 146
f 145 146 594
f 146 594 147
f 594 147 148
f 147 148 593
f 148 593 149
f 593 149 150
f 149 150 592
f 150 592 151
f 592 151 152
f 151 152 153
f 152 153 591
f 153 591 154
f 591 154 155
f 154 155 590
f 155 590 156
f 590 156 157
f 156 157 589
f 157 589 158
f 589 158 159
f 158 159 588
f 159 588 160
f 588 160 161
f 160 161 587
f 161 587 162
f 587 162 163
f 162 163 586
f 163 586 164
f 586 164 165
f 164 165 585
f 165 585 166
f 585 166 167
f 166 167 584
f 167 584 168
f 584 168 583
f 168 583 169
f 583 169 170
f 169 170 582
f 170 582 171
f 582 171 172
f 171 172 581
f 172 581 173
f 581 173 174
f 173 174 580
f 174 580 175
f 580 175 579
f 175 579 176
f 579 176 177
f 176 177 578
f 177 578 178
f 578 178 179
f 178 179 577
f 179 577 180
f 577 180 576
f 180 576 181
f 576 181 183
f 181 183 182
f 183 182 575
f 182 575 574
f 575 574 549
f 574 549 573
f 549 573 550
f 573 550 548
f 550 548 572
f 548 572 551
f 572 551 571
f 551 571 552
f 571 552 553
f 552 553 570
f 553 570 554
f 570 554 569
f 554 569 555
f 569 555 568
f 555 568 556
f 568 556 567
f 556 567 557
f 567 557 558
f 557 558 566
f 558 566 559
f 566 559 565
f 559 565 560
f 565 560 564
f 560 564 563
f 564 563 561
f 563 561 562
f 561 562 446
f 562 446 445
f 446 445 447
f 445 447 444
f 447 444 448
f 444 448 443
f 448 443 449
f 443 449 442
f 449 442 441
f 442 441 450
f 441 450 440
f 450 440 451
f 440 451 439
f 451 439 452
f 439 452 438
f 452 438 453
f 438 453 437
f 453 437 454
f 437 454 436
f 454 436 455
f 436 455 435
f 455 435 434
f 435 434 456
f 434 456 433
f 456 433 457
f 433 457 432
f 457 432 458
f 432 458 431
f 458 431 430
f 431 430 459
f 430 459 429
f 459 429 293
f 429 293 294
f 293 294 292
f 294 292 295
f 292 295 291
f 295 291 296
f 291 296 290
f 296 290 297
f 290 297 289
f 297 289 298
f 289 298 288
f 298 288 460
f 288 460 299
f 460 299 287
f 299 287 300
f 287 300 428
f 300 428 286
f 428 286 301
f 286 301 285
f 301 285 302
f 285 302 284
f 302 284 303
f 284 303 427
f 303 427 461
f 427 461 283
f 461 283 304
f 283 304 282
f 304 282 305
f 282 305 426
f 305 426 281
f 426 281 306
f 281 306 280
f 306 280 462
f 280 462 307
f 462 307 279
f 307 279 425
f 279 425 278
f 425 278 308
f 278 308 424
f 308 424 463
f 424 463 277
f 463 277 309
f 277 309 276
f 309 276 310
f 276 310 423
f 310 423 275
f 423 275 311
f 275 311 464
f 311 464 422
f 464 422 274
f 422 274 312
f 274 312 273
f 312 273 421
f 273 421 313
f 421 313 465
f 313 465 272
f 465 272 420
f 272 420 314
f 420 314 271
f 314 271 315
f 271 315 466
f 315 466 419
f 466 419 270
f 419 270 316
f 270 316 418
f 316 418 269
f 418 269 467
f 269 467 268
f 467 268 317
f 268 317 417
f 317 417 267
f 417 267 318
f 267 318 416
f 318 416 468
f 416 468 266
f 468 266 415
f 266 415 319
f 415 319 265
f 319 265 414
f 265 414 320
f 414 320 469
f 320 469 413
f 469 413 264
f 413 264 321
f 264 321 412
f 321 412 470
f 412 470 263
f 470 263 322
f 263 322 411
f 322 411 262
f 411 262 323
f 262 323 410
f 323 410 471
f 410 471 261
f 471 261 409
f 261 409 324
f 409 324 408
f 324 408 472
f 408 472 260
f 472 260 325
f 260 325 407
f 325 407 259
f 407 259 326
f 259 326 406
f 326 406 473
f 406 473 405
f 473 405 258
f 405 258 327
f 258 327 404
f 327 404 474
f 404 474 328
f 474 328 257
f 328 257 403
f 257 403 329
f 403 329 402
