# King Wen sovereign avatar mesh
# shap_e_hex_64.ply
# vertices=729 faces=727
o kingwen_avatar
v 1.000000 0.000000 0.500000 0.498039 1.000000 0.000000
v 1.010300 0.008700 0.500000 0.501961 0.996078 0.000000
v 1.020500 0.017600 0.499900 0.505882 0.996078 0.000000
v 1.030600 0.026700 0.499800 0.509804 0.996078 0.000000
v 1.040500 0.035900 0.499700 0.513725 0.996078 0.000000
v 1.050200 0.045300 0.499500 0.517647 0.996078 0.000000
v 1.059600 0.054800 0.499300 0.525490 0.996078 0.000000
v 1.068900 0.064600 0.499100 0.529412 0.996078 0.000000
v 1.077800 0.074400 0.498800 0.533333 0.996078 0.000000
v 1.086500 0.084400 0.498500 0.537255 0.996078 0.000000
v 1.094800 0.094600 0.498100 0.541176 0.996078 0.000000
v 1.102800 0.104900 0.497800 0.545098 0.996078 0.000000
v 1.110300 0.115200 0.497300 0.549020 0.996078 0.000000
v 1.117500 0.125700 0.496900 0.552941 0.996078 0.000000
v 1.124200 0.136300 0.496400 0.556863 0.996078 0.000000
v 1.130500 0.147000 0.495800 0.560784 0.992157 0.000000
v 1.136300 0.157700 0.495300 0.568627 0.992157 0.000000
v 1.141700 0.168500 0.494600 0.572549 0.992157 0.000000
v 1.146500 0.179300 0.494000 0.576471 0.992157 0.000000
v 1.150800 0.190200 0.493300 0.580392 0.992157 0.000000
v 1.154500 0.201000 0.492600 0.584314 0.992157 0.000000
v 1.157700 0.211900 0.491800 0.588235 0.988235 0.000000
v 1.160400 0.222700 0.491000 0.592157 0.988235 0.000000
v 1.162400 0.233500 0.490200 0.596078 0.988235 0.000000
v 1.163900 0.244200 0.489300 0.600000 0.988235 0.000000
v 1.164800 0.254900 0.488400 0.603922 0.988235 0.000000
v 1.165000 0.265500 0.487500 0.607843 0.984314 0.000000
v 1.164700 0.276000 0.486500 0.611765 0.984314 0.000000
v 1.163800 0.286400 0.485500 0.615686 0.984314 0.000000
v 1.162200 0.296700 0.484500 0.623529 0.984314 0.000000
v 1.160100 0.306800 0.483400 0.627451 0.980392 0.000000
v 1.157300 0.316800 0.482300 0.631373 0.980392 0.000000
v 1.154000 0.326600 0.481100 0.635294 0.980392 0.000000
v 1.150000 0.336200 0.479900 0.639216 0.976471 0.000000
v 1.145500 0.345600 0.478700 0.643137 0.976471 0.000000
v 1.140400 0.354800 0.477400 0.647059 0.976471 0.000000
v 1.134700 0.363800 0.476100 0.650980 0.972549 0.000000
v 1.128500 0.372600 0.474800 0.654902 0.972549 0.000000
v 1.121700 0.381100 0.473400 0.658824 0.972549 0.000000
v 1.114400 0.389400 0.472000 0.662745 0.968627 0.000000
v 1.106500 0.397400 0.470600 0.666667 0.968627 0.000000
v 1.098200 0.405100 0.469100 0.670588 0.968627 0.000000
v 1.089400 0.412500 0.467600 0.674510 0.964706 0.000000
v 1.080200 0.419700 0.466100 0.678431 0.964706 0.000000
v 1.070500 0.426600 0.464500 0.682353 0.960784 0.000000
v 1.060400 0.433200 0.462900 0.686275 0.960784 0.000000
v 1.049900 0.439500 0.461200 0.690196 0.960784 0.000000
v 1.039000 0.445500 0.459500 0.694118 0.956863 0.000000
v 1.027800 0.451300 0.457800 0.698039 0.956863 0.000000
v 1.016300 0.456700 0.456100 0.701961 0.952941 0.000000
v 1.004500 0.461800 0.454300 0.705882 0.952941 0.000000
v 0.992400 0.466700 0.452500 0.709804 0.949020 0.000000
v 0.980000 0.471200 0.450600 0.713725 0.949020 0.000000
v 0.967500 0.475500 0.448700 0.717647 0.945098 0.000000
v 0.954800 0.479500 0.446800 0.721569 0.945098 0.000000
v 0.941900 0.483200 0.444900 0.725490 0.941176 0.000000
v 0.928800 0.486700 0.442900 0.729412 0.941176 0.000000
v 0.915700 0.489900 0.440900 0.733333 0.937255 0.000000
v 0.902500 0.492900 0.438800 0.737255 0.937255 0.000000
v 0.889300 0.495700 0.436700 0.741176 0.933333 0.000000
v 0.876000 0.498200 0.434600 0.745098 0.933333 0.000000
v 0.862700 0.500600 0.432500 0.749020 0.929412 0.000000
v 0.849500 0.502700 0.430300 0.752941 0.929412 0.000000
v 0.836300 0.504700 0.428100 0.756863 0.925490 0.000000
v 0.823200 0.506500 0.425800 0.760784 0.925490 0.000000
v 0.810200 0.508200 0.423600 0.764706 0.921569 0.000000
v 0.797300 0.509800 0.421300 0.768627 0.917647 0.000000
v 0.784600 0.511200 0.418900 0.772549 0.917647 0.000000
v 0.772100 0.512600 0.416600 0.776471 0.913725 0.000000
v 0.759800 0.513900 0.414200 0.776471 0.913725 0.000000
v 0.747600 0.515100 0.411700 0.780392 0.909804 0.000000
v 0.735800 0.516400 0.409300 0.784314 0.905882 0.000000
v 0.724100 0.517600 0.406800 0.788235 0.905882 0.000000
v 0.712800 0.518800 0.404300 0.792157 0.901961 0.000000
v 0.701700 0.520100 0.401700 0.796078 0.898039 0.000000
v 0.691000 0.521400 0.399100 0.800000 0.898039 0.000000
v 0.680500 0.522800 0.396500 0.803922 0.894118 0.000000
v 0.670400 0.524200 0.393900 0.807843 0.890196 0.000000
v 0.660600 0.525800 0.391200 0.807843 0.890196 0.000000
v 0.651200 0.527500 0.388500 0.811765 0.886275 0.000000
v 0.642100 0.529400 0.385800 0.815686 0.882353 0.000000
v 0.633400 0.531500 0.383000 0.819608 0.882353 0.000000
v 0.625000 0.533700 0.380200 0.823529 0.878431 0.000000
v 0.617000 0.536100 0.377400 0.827451 0.874510 0.000000
v 0.609400 0.538800 0.374600 0.827451 0.874510 0.000000
v 0.602100 0.541700 0.371700 0.831373 0.870588 0.000000
v 0.595300 0.544900 0.368800 0.835294 0.866667 0.000000
v 0.588800 0.548300 0.365900 0.839216 0.862745 0.000000
v 0.582600 0.552000 0.362900 0.843137 0.862745 0.000000
v 0.576800 0.556100 0.360000 0.843137 0.858824 0.000000
v 0.571400 0.560400 0.357000 0.847059 0.854902 0.000000
v 0.566300 0.565100 0.353900 0.850980 0.850980 0.000000
v 0.561500 0.570100 0.350900 0.854902 0.847059 0.000000
v 0.557100 0.575400 0.347800 0.858824 0.847059 0.000000
v 0.553000 0.581100 0.344700 0.858824 0.843137 0.000000
v 0.549200 0.587200 0.341600 0.862745 0.839216 0.000000
v 0.545700 0.593600 0.338400 0.866667 0.835294 0.000000
v 0.542500 0.600400 0.335200 0.870588 0.831373 0.000000
v 0.539500 0.607500 0.332000 0.870588 0.831373 0.000000
v 0.536800 0.615100 0.328800 0.874510 0.827451 0.000000
v 0.534300 0.623000 0.325500 0.878431 0.823529 0.000000
v 0.532000 0.631200 0.322200 0.878431 0.819608 0.000000
v 0.529900 0.639900 0.318900 0.882353 0.815686 0.000000
v 0.528000 0.648900 0.315600 0.886275 0.811765 0.000000
v 0.526200 0.658200 0.312200 0.890196 0.811765 0.000000
v 0.524600 0.667900 0.308800 0.890196 0.807843 0.000000
v 0.523100 0.678000 0.305400 0.894118 0.803922 0.000000
v 0.521700 0.688300 0.302000 0.898039 0.800000 0.000000
v 0.520400 0.699000 0.298600 0.898039 0.796078 0.000000
v 0.519100 0.710000 0.295100 0.901961 0.792157 0.000000
v 0.517900 0.721300 0.291600 0.905882 0.788235 0.000000
v 0.516700 0.732800 0.288100 0.905882 0.784314 0.000000
v 0.515500 0.744700 0.284600 0.909804 0.784314 0.000000
v 0.514200 0.756700 0.281000 0.909804 0.780392 0.000000
v 0.512900 0.769000 0.277400 0.913725 0.776471 0.000000
v 0.511600 0.781500 0.273900 0.917647 0.772549 0.000000
v 0.510100 0.794100 0.270200 0.917647 0.768627 0.000000
v 0.508600 0.807000 0.266600 0.921569 0.764706 0.000000
v 0.507000 0.819900 0.262900 0.921569 0.760784 0.000000
v 0.505200 0.833000 0.259300 0.925490 0.756863 0.000000
v 0.503200 0.846200 0.255600 0.929412 0.752941 0.000000
v 0.501100 0.859400 0.251900 0.929412 0.749020 0.000000
v 0.498800 0.872700 0.248100 0.933333 0.745098 0.000000
v 0.496300 0.885900 0.244400 0.933333 0.741176 0.000000
v 0.493600 0.899200 0.240600 0.937255 0.737255 0.000000
v 0.490700 0.912400 0.236800 0.937255 0.733333 0.000000
v 0.487500 0.925600 0.233000 0.941176 0.729412 0.000000
v 0.484100 0.938600 0.229200 0.941176 0.725490 0.000000
v 0.480500 0.951600 0.225400 0.945098 0.721569 0.000000
v 0.476500 0.964300 0.221500 0.945098 0.717647 0.000000
v 0.472300 0.976900 0.217600 0.949020 0.713725 0.000000
v 0.467800 0.989300 0.213700 0.949020 0.713725 0.000000
v 0.463100 1.001500 0.209800 0.952941 0.709804 0.000000
v 0.458000 1.013400 0.205900 0.952941 0.705882 0.000000
v 0.452600 1.025000 0.202000 0.956863 0.701961 0.000000
v 0.447000 1.036300 0.198000 0.956863 0.698039 0.000000
v 0.441100 1.047200 0.194100 0.960784 0.690196 0.000000
v 0.434800 1.057800 0.190100 0.960784 0.686275 0.000000
v 0.428300 1.068000 0.186100 0.960784 0.682353 0.000000
v 0.421500 1.077800 0.182100 0.964706 0.678431 0.000000
v 0.414400 1.087200 0.178100 0.964706 0.674510 0.000000
v 0.407000 1.096100 0.174000 0.968627 0.670588 0.000000
v 0.399300 1.104500 0.170000 0.968627 0.666667 0.000000
v 0.391400 1.112500 0.165900 0.968627 0.662745 0.000000
v 0.383200 1.119900 0.161900 0.972549 0.658824 0.000000
v 0.374700 1.126800 0.157800 0.972549 0.654902 0.000000
v 0.366000 1.133200 0.153700 0.972549 0.650980 0.000000
v 0.357100 1.139000 0.149600 0.976471 0.647059 0.000000
v 0.348000 1.144300 0.145500 0.976471 0.643137 0.000000
v 0.338600 1.148900 0.141300 0.976471 0.639216 0.000000
v 0.329000 1.153000 0.137200 0.980392 0.635294 0.000000
v 0.319300 1.156500 0.133000 0.980392 0.631373 0.000000
v 0.309300 1.159400 0.128900 0.980392 0.627451 0.000000
v 0.299200 1.161700 0.124700 0.980392 0.623529 0.000000
v 0.289000 1.163400 0.120500 0.984314 0.619608 0.000000
v 0.278600 1.164500 0.116400 0.984314 0.615686 0.000000
v 0.268200 1.165000 0.112200 0.984314 0.611765 0.000000
v 0.257600 1.164900 0.108000 0.984314 0.607843 0.000000
v 0.246900 1.164200 0.103700 0.988235 0.600000 0.000000
v 0.236200 1.162800 0.099500 0.988235 0.596078 0.000000
v 0.225400 1.160900 0.095300 0.988235 0.592157 0.000000
v 0.214600 1.158400 0.091100 0.988235 0.588235 0.000000
v 0.203700 1.155400 0.086800 0.992157 0.584314 0.000000
v 0.192900 1.151800 0.082600 0.992157 0.580392 0.000000
v 0.182000 1.147600 0.078300 0.992157 0.576471 0.000000
v 0.171200 1.142900 0.074100 0.992157 0.572549 0.000000
v 0.160400 1.137700 0.069800 0.992157 0.568627 0.000000
v 0.149700 1.132000 0.065500 0.992157 0.564706 0.000000
v 0.139000 1.125900 0.061300 0.996078 0.560784 0.000000
v 0.128400 1.119200 0.057000 0.996078 0.556863 0.000000
v 0.117900 1.112200 0.052700 0.996078 0.549020 0.000000
v 0.107500 1.104700 0.048400 0.996078 0.545098 0.000000
v 0.097200 1.096800 0.044100 0.996078 0.541176 0.000000
v 0.087000 1.088600 0.039800 0.996078 0.537255 0.000000
v 0.076900 1.080000 0.035500 0.996078 0.533333 0.000000
v 0.067000 1.071100 0.031200 0.996078 0.529412 0.000000
v 0.057300 1.062000 0.026900 0.996078 0.525490 0.000000
v 0.047700 1.052600 0.022600 0.996078 0.521569 0.000000
v 0.038200 1.042900 0.018300 0.996078 0.517647 0.000000
v 0.028900 1.033100 0.014000 0.996078 0.513725 0.000000
v 0.019800 1.023000 0.009700 0.996078 0.505882 0.000000
v 0.010900 1.012900 0.005400 0.996078 0.501961 0.000000
v 0.002200 1.002600 0.001100 0.996078 0.498039 0.000000
v -0.006400 0.992200 -0.003200 0.996078 0.494118 0.000000
v -0.014800 0.981800 -0.007500 0.996078 0.490196 0.000000
v -0.023000 0.971400 -0.011800 0.996078 0.486275 0.000000
v -0.031100 0.961000 -0.016200 0.996078 0.482353 0.000000
v -0.038900 0.950600 -0.020500 0.996078 0.478431 0.000000
v -0.046600 0.940200 -0.024800 0.996078 0.474510 0.000000
v -0.054200 0.930000 -0.029100 0.996078 0.470588 0.000000
v -0.061500 0.919900 -0.033400 0.996078 0.462745 0.000000
v -0.068800 0.910000 -0.037700 0.996078 0.458824 0.000000
v -0.075800 0.900200 -0.042000 0.996078 0.454902 0.000000
v -0.082800 0.890600 -0.046300 0.996078 0.450980 0.000000
v -0.089600 0.881300 -0.050500 0.996078 0.447059 0.000000
v -0.096200 0.872200 -0.054800 0.996078 0.443137 0.000000
v -0.102800 0.863400 -0.059100 0.996078 0.439216 0.000000
v -0.109300 0.854900 -0.063400 0.992157 0.435294 0.000000
v -0.115600 0.846700 -0.067700 0.992157 0.431373 0.000000
v -0.121900 0.838800 -0.071900 0.992157 0.427451 0.000000
v -0.128200 0.831300 -0.076200 0.992157 0.423529 0.000000
v -0.134400 0.824200 -0.080500 0.992157 0.415686 0.000000
v -0.140500 0.817500 -0.084700 0.992157 0.411765 0.000000
v -0.146600 0.811100 -0.088900 0.988235 0.407843 0.000000
v -0.152700 0.805200 -0.093200 0.988235 0.403922 0.000000
v -0.158900 0.799700 -0.097400 0.988235 0.400000 0.000000
v -0.165000 0.794700 -0.101600 0.988235 0.396078 0.000000
v -0.171100 0.790100 -0.105900 0.988235 0.392157 0.000000
v -0.177300 0.785900 -0.110100 0.984314 0.388235 0.000000
v -0.183600 0.782200 -0.114300 0.984314 0.384314 0.000000
v -0.190000 0.779000 -0.118500 0.984314 0.380392 0.000000
v -0.196400 0.776200 -0.122600 0.984314 0.376471 0.000000
v -0.202900 0.773900 -0.126800 0.980392 0.372549 0.000000
v -0.209600 0.772100 -0.131000 0.980392 0.368627 0.000000
v -0.216300 0.770700 -0.135100 0.980392 0.364706 0.000000
v -0.223200 0.769800 -0.139300 0.976471 0.356863 0.000000
v -0.230300 0.769300 -0.143400 0.976471 0.352941 0.000000
v -0.237500 0.769300 -0.147500 0.976471 0.349020 0.000000
v -0.244900 0.769600 -0.151600 0.972549 0.345098 0.000000
v -0.252500 0.770400 -0.155700 0.972549 0.341176 0.000000
v -0.260300 0.771600 -0.159800 0.972549 0.337255 0.000000
v -0.268300 0.773200 -0.163900 0.968627 0.333333 0.000000
v -0.276500 0.775200 -0.168000 0.968627 0.329412 0.000000
v -0.284900 0.777500 -0.172000 0.968627 0.325490 0.000000
v -0.293500 0.780200 -0.176100 0.964706 0.321569 0.000000
v -0.302400 0.783200 -0.180100 0.964706 0.317647 0.000000
v -0.311500 0.786500 -0.184100 0.964706 0.313725 0.000000
v -0.320800 0.790100 -0.188100 0.960784 0.309804 0.000000
v -0.330400 0.794000 -0.192100 0.960784 0.305882 0.000000
v -0.340200 0.798000 -0.196100 0.956863 0.301961 0.000000
v -0.350200 0.802300 -0.200000 0.956863 0.298039 0.000000
v -0.360500 0.806800 -0.204000 0.952941 0.294118 0.000000
v -0.371000 0.811500 -0.207900 0.952941 0.290196 0.000000
v -0.381700 0.816300 -0.211800 0.949020 0.286275 0.000000
v -0.392700 0.821200 -0.215700 0.949020 0.282353 0.000000
v -0.403800 0.826200 -0.219600 0.949020 0.278431 0.000000
v -0.415200 0.831200 -0.223400 0.945098 0.274510 0.000000
v -0.426800 0.836300 -0.227300 0.945098 0.270588 0.000000
v -0.438600 0.841400 -0.231100 0.941176 0.266667 0.000000
v -0.450600 0.846500 -0.234900 0.941176 0.262745 0.000000
v -0.462700 0.851500 -0.238700 0.937255 0.258824 0.000000
v -0.475000 0.856500 -0.242500 0.937255 0.254902 0.000000
v -0.487400 0.861300 -0.246300 0.933333 0.250980 0.000000
v -0.500000 0.866000 -0.250000 0.929412 0.247059 0.000000
v -0.512700 0.870600 -0.253700 0.929412 0.243137 0.000000
v -0.525500 0.875000 -0.257400 0.925490 0.239216 0.000000
v -0.538400 0.879200 -0.261100 0.925490 0.235294 0.000000
v -0.551300 0.883100 -0.264800 0.921569 0.231373 0.000000
v -0.564300 0.886800 -0.268400 0.921569 0.231373 0.000000
v -0.577300 0.890300 -0.272000 0.917647 0.227451 0.000000
v -0.590400 0.893400 -0.275700 0.913725 0.223529 0.000000
v -0.603400 0.896200 -0.279200 0.913725 0.219608 0.000000
v -0.616400 0.898700 -0.282800 0.909804 0.215686 0.000000
v -0.629300 0.900800 -0.286300 0.909804 0.211765 0.000000
v -0.642200 0.902600 -0.289900 0.905882 0.207843 0.000000
v -0.655000 0.904000 -0.293400 0.901961 0.203922 0.000000
v -0.667600 0.904900 -0.296800 0.901961 0.200000 0.000000
v -0.680200 0.905500 -0.300300 0.898039 0.196078 0.000000
v -0.692600 0.905600 -0.303700 0.894118 0.196078 0.000000
v -0.704800 0.905300 -0.307200 0.894118 0.192157 0.000000
v -0.716700 0.904500 -0.310500 0.890196 0.188235 0.000000
v -0.728500 0.903200 -0.313900 0.886275 0.184314 0.000000
v -0.740100 0.901500 -0.317200 0.886275 0.180392 0.000000
v -0.751300 0.899300 -0.320600 0.882353 0.176471 0.000000
v -0.762300 0.896700 -0.323900 0.878431 0.172549 0.000000
v -0.773000 0.893500 -0.327100 0.874510 0.172549 0.000000
v -0.783400 0.889900 -0.330400 0.874510 0.168627 0.000000
v -0.793500 0.885800 -0.333600 0.870588 0.164706 0.000000
v -0.803200 0.881200 -0.336800 0.866667 0.160784 0.000000
v -0.812500 0.876200 -0.340000 0.862745 0.156863 0.000000
v -0.821400 0.870600 -0.343100 0.862745 0.156863 0.000000
v -0.829900 0.864600 -0.346200 0.858824 0.152941 0.000000
v -0.838100 0.858200 -0.349300 0.854902 0.149020 0.000000
v -0.845800 0.851200 -0.352400 0.850980 0.145098 0.000000
v -0.853000 0.843900 -0.355500 0.850980 0.141176 0.000000
v -0.859800 0.836100 -0.358500 0.847059 0.141176 0.000000
v -0.866200 0.827800 -0.361500 0.843137 0.137255 0.000000
v -0.872100 0.819200 -0.364400 0.839216 0.133333 0.000000
v -0.877500 0.810200 -0.367400 0.835294 0.129412 0.000000
v -0.882400 0.800800 -0.370300 0.835294 0.129412 0.000000
v -0.886900 0.791000 -0.373200 0.831373 0.125490 0.000000
v -0.890900 0.780900 -0.376000 0.827451 0.121569 0.000000
v -0.894400 0.770400 -0.378800 0.823529 0.117647 0.000000
v -0.897400 0.759600 -0.381600 0.819608 0.117647 0.000000
v -0.899900 0.748600 -0.384400 0.819608 0.113725 0.000000
v -0.902000 0.737200 -0.387100 0.815686 0.109804 0.000000
v -0.903600 0.725600 -0.389900 0.811765 0.109804 0.000000
v -0.904700 0.713800 -0.392500 0.807843 0.105882 0.000000
v -0.905400 0.701700 -0.395200 0.803922 0.101961 0.000000
v -0.905600 0.689500 -0.397800 0.800000 0.101961 0.000000
v -0.905400 0.677100 -0.400400 0.796078 0.098039 0.000000
v -0.904700 0.664500 -0.403000 0.792157 0.094118 0.000000
v -0.903600 0.651800 -0.405500 0.792157 0.094118 0.000000
v -0.902200 0.639000 -0.408000 0.788235 0.090196 0.000000
v -0.900300 0.626100 -0.410500 0.784314 0.086275 0.000000
v -0.898100 0.613100 -0.412900 0.780392 0.086275 0.000000
v -0.895500 0.600100 -0.415400 0.776471 0.082353 0.000000
v -0.892600 0.587100 -0.417700 0.772549 0.078431 0.000000
v -0.889400 0.574100 -0.420100 0.768627 0.078431 0.000000
v -0.885900 0.561000 -0.422400 0.764706 0.074510 0.000000
v -0.882200 0.548100 -0.424700 0.760784 0.074510 0.000000
v -0.878100 0.535100 -0.427000 0.756863 0.070588 0.000000
v -0.873900 0.522300 -0.429200 0.752941 0.070588 0.000000
v -0.869500 0.509500 -0.431400 0.749020 0.066667 0.000000
v -0.864900 0.496800 -0.433600 0.749020 0.062745 0.000000
v -0.860100 0.484300 -0.435700 0.745098 0.062745 0.000000
v -0.855200 0.471900 -0.437800 0.741176 0.058824 0.000000
v -0.850300 0.459600 -0.439800 0.737255 0.058824 0.000000
v -0.845200 0.447500 -0.441900 0.733333 0.054902 0.000000
v -0.840100 0.435600 -0.443900 0.729412 0.054902 0.000000
v -0.835000 0.423900 -0.445800 0.725490 0.050980 0.000000
v -0.830000 0.412400 -0.447800 0.721569 0.050980 0.000000
v -0.824900 0.401000 -0.449700 0.717647 0.047059 0.000000
v -0.820000 0.389900 -0.451500 0.713725 0.047059 0.000000
v -0.815100 0.379000 -0.453400 0.709804 0.043137 0.000000
v -0.810300 0.368300 -0.455200 0.705882 0.043137 0.000000
v -0.805700 0.357900 -0.456900 0.701961 0.039216 0.000000
v -0.801300 0.347700 -0.458700 0.698039 0.039216 0.000000
v -0.797000 0.337700 -0.460400 0.694118 0.039216 0.000000
v -0.793000 0.328000 -0.462000 0.690196 0.035294 0.000000
v -0.789200 0.318500 -0.463700 0.686275 0.035294 0.000000
v -0.785700 0.309200 -0.465300 0.682353 0.031373 0.000000
v -0.782400 0.300200 -0.466800 0.678431 0.031373 0.000000
v -0.779500 0.291400 -0.468400 0.674510 0.031373 0.000000
v -0.776900 0.282800 -0.469800 0.670588 0.027451 0.000000
v -0.774700 0.274400 -0.471300 0.666667 0.027451 0.000000
v -0.772800 0.266300 -0.472700 0.662745 0.023529 0.000000
v -0.771300 0.258400 -0.474100 0.654902 0.023529 0.000000
v -0.770200 0.250600 -0.475500 0.650980 0.023529 0.000000
v -0.769500 0.243100 -0.476800 0.647059 0.019608 0.000000
v -0.769200 0.235700 -0.478100 0.643137 0.019608 0.000000
v -0.769400 0.228500 -0.479300 0.639216 0.019608 0.000000
v -0.770000 0.221500 -0.480500 0.635294 0.015686 0.000000
v -0.771000 0.214600 -0.481700 0.631373 0.015686 0.000000
v -0.772500 0.207900 -0.482800 0.627451 0.015686 0.000000
v -0.774500 0.201300 -0.483900 0.623529 0.015686 0.000000
v -0.776900 0.194800 -0.485000 0.619608 0.011765 0.000000
v -0.779800 0.188400 -0.486000 0.615686 0.011765 0.000000
v -0.783100 0.182000 -0.487000 0.611765 0.011765 0.000000
v -0.786900 0.175800 -0.488000 0.607843 0.011765 0.000000
v -0.791200 0.169600 -0.488900 0.603922 0.007843 0.000000
v -0.795900 0.163400 -0.489800 0.600000 0.007843 0.000000
v -0.801100 0.157300 -0.490600 0.596078 0.007843 0.000000
v -0.806600 0.151200 -0.491400 0.588235 0.007843 0.000000
v -0.812700 0.145100 -0.492200 0.584314 0.003922 0.000000
v -0.819100 0.139000 -0.493000 0.580392 0.003922 0.000000
v -0.825900 0.132800 -0.493700 0.576471 0.003922 0.000000
v -0.833100 0.126600 -0.494300 0.572549 0.003922 0.000000
v -0.840700 0.120400 -0.495000 0.568627 0.003922 0.000000
v -0.848700 0.114100 -0.495500 0.564706 0.003922 0.000000
v -0.857000 0.107700 -0.496100 0.560784 0.000000 0.000000
v -0.865600 0.101200 -0.496600 0.556863 0.000000 0.000000
v -0.874400 0.094600 -0.497100 0.552941 0.000000 0.000000
v -0.883600 0.087900 -0.497500 0.549020 0.000000 0.000000
v -0.893000 0.081000 -0.498000 0.545098 0.000000 0.000000
v -0.902600 0.074100 -0.498300 0.537255 0.000000 0.000000
v -0.912400 0.067000 -0.498700 0.533333 0.000000 0.000000
v -0.922400 0.059700 -0.499000 0.529412 0.000000 0.000000
v -0.932600 0.052300 -0.499200 0.525490 0.000000 0.000000
v -0.942800 0.044700 -0.499400 0.521569 0.000000 0.000000
v -0.953200 0.037000 -0.499600 0.517647 0.000000 0.000000
v -0.963600 0.029100 -0.499800 0.513725 0.000000 0.000000
v -0.974000 0.021000 -0.499900 0.509804 0.000000 0.000000
v -0.984400 0.012700 -0.500000 0.505882 0.000000 0.000000
v -0.994800 0.004300 -0.500000 0.501961 0.000000 0.000000
v -1.005200 -0.004300 -0.500000 0.494118 0.000000 0.000000
v -1.015400 -0.013100 -0.500000 0.490196 0.000000 0.000000
v -1.025500 -0.022100 -0.499900 0.486275 0.000000 0.000000
v -1.035500 -0.031200 -0.499800 0.482353 0.000000 0.000000
v -1.045300 -0.040600 -0.499600 0.478431 0.000000 0.000000
v -1.054900 -0.050000 -0.499400 0.474510 0.000000 0.000000
v -1.064300 -0.059700 -0.499200 0.470588 0.000000 0.000000
v -1.073400 -0.069500 -0.499000 0.466667 0.000000 0.000000
v -1.082200 -0.079400 -0.498700 0.462745 0.000000 0.000000
v -1.090700 -0.089500 -0.498300 0.458824 0.000000 0.000000
v -1.098800 -0.099700 -0.498000 0.450980 0.000000 0.000000
v -1.106600 -0.110000 -0.497500 0.447059 0.000000 0.000000
v -1.114000 -0.120500 -0.497100 0.443137 0.000000 0.000000
v -1.120900 -0.131000 -0.496600 0.439216 0.000000 0.000000
v -1.127400 -0.141600 -0.496100 0.435294 0.000000 0.000000
v -1.133500 -0.152300 -0.495500 0.431373 0.003922 0.000000
v -1.139100 -0.163100 -0.495000 0.427451 0.003922 0.000000
v -1.144100 -0.173900 -0.494300 0.423529 0.003922 0.000000
v -1.148700 -0.184700 -0.493700 0.419608 0.003922 0.000000
v -1.152700 -0.195600 -0.493000 0.415686 0.003922 0.000000
v -1.156200 -0.206400 -0.492200 0.411765 0.003922 0.000000
v -1.159100 -0.217300 -0.491400 0.407843 0.007843 0.000000
v -1.161500 -0.228100 -0.490600 0.400000 0.007843 0.000000
v -1.163200 -0.238900 -0.489800 0.396078 0.007843 0.000000
v -1.164400 -0.249600 -0.488900 0.392157 0.007843 0.000000
v -1.165000 -0.260200 -0.488000 0.388235 0.011765 0.000000
v -1.164900 -0.270800 -0.487000 0.384314 0.011765 0.000000
v -1.164300 -0.281300 -0.486000 0.380392 0.011765 0.000000
v -1.163100 -0.291600 -0.485000 0.376471 0.011765 0.000000
v -1.161200 -0.301800 -0.483900 0.372549 0.015686 0.000000
v -1.158800 -0.311800 -0.482800 0.368627 0.015686 0.000000
v -1.155700 -0.321700 -0.481700 0.364706 0.015686 0.000000
v -1.152100 -0.331400 -0.480500 0.360784 0.015686 0.000000
v -1.147800 -0.340900 -0.479300 0.356863 0.019608 0.000000
v -1.143000 -0.350300 -0.478100 0.352941 0.019608 0.000000
v -1.137600 -0.359400 -0.476800 0.349020 0.019608 0.000000
v -1.131600 -0.368200 -0.475500 0.345098 0.023529 0.000000
v -1.125100 -0.376900 -0.474100 0.341176 0.023529 0.000000
v -1.118100 -0.385300 -0.472700 0.333333 0.023529 0.000000
v -1.110500 -0.393400 -0.471300 0.329412 0.027451 0.000000
v -1.102500 -0.401300 -0.469800 0.325490 0.027451 0.000000
v -1.093900 -0.408900 -0.468400 0.321569 0.031373 0.000000
v -1.084900 -0.416200 -0.466800 0.317647 0.031373 0.000000
v -1.075400 -0.423200 -0.465300 0.313725 0.031373 0.000000
v -1.065500 -0.430000 -0.463700 0.309804 0.035294 0.000000
v -1.055200 -0.436400 -0.462000 0.305882 0.035294 0.000000
v -1.044500 -0.442600 -0.460400 0.301961 0.039216 0.000000
v -1.033500 -0.448400 -0.458700 0.298039 0.039216 0.000000
v -1.022100 -0.454000 -0.456900 0.294118 0.039216 0.000000
v -1.010400 -0.459300 -0.455200 0.290196 0.043137 0.000000
v -0.998500 -0.464300 -0.453400 0.286275 0.043137 0.000000
v -0.986200 -0.469000 -0.451500 0.282353 0.047059 0.000000
v -0.973800 -0.473400 -0.449700 0.278431 0.047059 0.000000
v -0.961100 -0.477500 -0.447800 0.274510 0.050980 0.000000
v -0.948300 -0.481400 -0.445800 0.270588 0.050980 0.000000
v -0.935400 -0.485000 -0.443900 0.266667 0.054902 0.000000
v -0.922300 -0.488400 -0.441900 0.262745 0.054902 0.000000
v -0.909100 -0.491500 -0.439800 0.258824 0.058824 0.000000
v -0.895900 -0.494300 -0.437800 0.254902 0.058824 0.000000
v -0.882600 -0.497000 -0.435700 0.250980 0.062745 0.000000
v -0.869300 -0.499400 -0.433600 0.247059 0.062745 0.000000
v -0.856100 -0.501700 -0.431400 0.247059 0.066667 0.000000
v -0.842900 -0.503700 -0.429200 0.243137 0.070588 0.000000
v -0.829700 -0.505600 -0.427000 0.239216 0.070588 0.000000
v -0.816700 -0.507400 -0.424700 0.235294 0.074510 0.000000
v -0.803700 -0.509000 -0.422400 0.231373 0.074510 0.000000
v -0.791000 -0.510500 -0.420100 0.227451 0.078431 0.000000
v -0.778300 -0.511900 -0.417700 0.223529 0.078431 0.000000
v -0.765900 -0.513300 -0.415400 0.219608 0.082353 0.000000
v -0.753700 -0.514500 -0.412900 0.215686 0.086275 0.000000
v -0.741700 -0.515800 -0.410500 0.211765 0.086275 0.000000
v -0.729900 -0.517000 -0.408000 0.207843 0.090196 0.000000
v -0.718400 -0.518200 -0.405500 0.203922 0.094118 0.000000
v -0.707200 -0.519400 -0.403000 0.203922 0.094118 0.000000
v -0.696300 -0.520700 -0.400400 0.200000 0.098039 0.000000
v -0.685700 -0.522100 -0.397800 0.196078 0.101961 0.000000
v -0.675400 -0.523500 -0.395200 0.192157 0.101961 0.000000
v -0.665500 -0.525000 -0.392500 0.188235 0.105882 0.000000
v -0.655800 -0.526700 -0.389900 0.184314 0.109804 0.000000
v -0.646600 -0.528500 -0.387100 0.180392 0.109804 0.000000
v -0.637700 -0.530400 -0.384400 0.176471 0.113725 0.000000
v -0.629100 -0.532500 -0.381600 0.176471 0.117647 0.000000
v -0.621000 -0.534900 -0.378800 0.172549 0.117647 0.000000
v -0.613200 -0.537400 -0.376000 0.168627 0.121569 0.000000
v -0.605700 -0.540200 -0.373200 0.164706 0.125490 0.000000
v -0.598700 -0.543300 -0.370300 0.160784 0.129412 0.000000
v -0.592000 -0.546600 -0.367400 0.160784 0.129412 0.000000
v -0.585600 -0.550100 -0.364400 0.156863 0.133333 0.000000
v -0.579700 -0.554000 -0.361500 0.152941 0.137255 0.000000
v -0.574100 -0.558200 -0.358500 0.149020 0.141176 0.000000
v -0.568800 -0.562700 -0.355500 0.145098 0.141176 0.000000
v -0.563900 -0.567500 -0.352400 0.145098 0.145098 0.000000
v -0.559300 -0.572700 -0.349300 0.141176 0.149020 0.000000
v -0.555000 -0.578200 -0.346200 0.137255 0.152941 0.000000
v -0.551100 -0.584100 -0.343100 0.133333 0.156863 0.000000
v -0.547400 -0.590300 -0.340000 0.133333 0.156863 0.000000
v -0.544100 -0.596900 -0.336800 0.129412 0.160784 0.000000
v -0.541000 -0.603900 -0.333600 0.125490 0.164706 0.000000
v -0.538100 -0.611300 -0.330400 0.121569 0.168627 0.000000
v -0.535500 -0.619000 -0.327100 0.121569 0.172549 0.000000
v -0.533100 -0.627100 -0.323900 0.117647 0.172549 0.000000
v -0.530900 -0.635500 -0.320600 0.113725 0.176471 0.000000
v -0.528900 -0.644300 -0.317200 0.109804 0.180392 0.000000
v -0.527100 -0.653500 -0.313900 0.109804 0.184314 0.000000
v -0.525400 -0.663000 -0.310500 0.105882 0.188235 0.000000
v -0.523900 -0.672900 -0.307200 0.101961 0.192157 0.000000
v -0.522400 -0.683100 -0.303700 0.101961 0.196078 0.000000
v -0.521000 -0.693600 -0.300300 0.098039 0.196078 0.000000
v -0.519700 -0.704500 -0.296800 0.094118 0.200000 0.000000
v -0.518500 -0.715600 -0.293400 0.094118 0.203922 0.000000
v -0.517300 -0.727000 -0.289900 0.090196 0.207843 0.000000
v -0.516100 -0.738700 -0.286300 0.086275 0.211765 0.000000
v -0.514800 -0.750700 -0.282800 0.086275 0.215686 0.000000
v -0.513600 -0.762800 -0.279200 0.082353 0.219608 0.000000
v -0.512300 -0.775200 -0.275700 0.082353 0.223529 0.000000
v -0.510900 -0.787800 -0.272000 0.078431 0.227451 0.000000
v -0.509400 -0.800500 -0.268400 0.074510 0.231373 0.000000
v -0.507800 -0.813400 -0.264800 0.074510 0.231373 0.000000
v -0.506100 -0.826500 -0.261100 0.070588 0.235294 0.000000
v -0.504200 -0.839600 -0.257400 0.070588 0.239216 0.000000
v -0.502200 -0.852800 -0.253700 0.066667 0.243137 0.000000
v -0.500000 -0.866000 -0.250000 0.066667 0.247059 0.000000
v -0.497600 -0.879300 -0.246300 0.062745 0.250980 0.000000
v -0.495000 -0.892600 -0.242500 0.058824 0.254902 0.000000
v -0.492200 -0.905800 -0.238700 0.058824 0.258824 0.000000
v -0.489200 -0.919000 -0.234900 0.054902 0.262745 0.000000
v -0.485900 -0.932100 -0.231100 0.054902 0.266667 0.000000
v -0.482300 -0.945100 -0.227300 0.050980 0.270588 0.000000
v -0.478500 -0.958000 -0.223400 0.050980 0.274510 0.000000
v -0.474500 -0.970600 -0.219600 0.047059 0.278431 0.000000
v -0.470100 -0.983100 -0.215700 0.047059 0.282353 0.000000
v -0.465500 -0.995400 -0.211800 0.047059 0.286275 0.000000
v -0.460600 -1.007400 -0.207900 0.043137 0.290196 0.000000
v -0.455400 -1.019200 -0.204000 0.043137 0.294118 0.000000
v -0.449900 -1.030700 -0.200000 0.039216 0.298039 0.000000
v -0.444100 -1.041800 -0.196100 0.039216 0.301961 0.000000
v -0.438000 -1.052600 -0.192100 0.035294 0.305882 0.000000
v -0.431600 -1.063000 -0.188100 0.035294 0.309804 0.000000
v -0.424900 -1.073000 -0.184100 0.031373 0.313725 0.000000
v -0.418000 -1.082500 -0.180100 0.031373 0.317647 0.000000
v -0.410700 -1.091700 -0.176100 0.031373 0.321569 0.000000
v -0.403200 -1.100400 -0.172000 0.027451 0.325490 0.000000
v -0.395400 -1.108600 -0.168000 0.027451 0.329412 0.000000
v -0.387300 -1.116200 -0.163900 0.027451 0.333333 0.000000
v -0.379000 -1.123400 -0.159800 0.023529 0.337255 0.000000
v -0.370400 -1.130100 -0.155700 0.023529 0.341176 0.000000
v -0.361600 -1.136200 -0.151600 0.023529 0.345098 0.000000
v -0.352600 -1.141700 -0.147500 0.019608 0.349020 0.000000
v -0.343300 -1.146700 -0.143400 0.019608 0.352941 0.000000
v -0.333800 -1.151100 -0.139300 0.019608 0.356863 0.000000
v -0.324200 -1.154900 -0.135100 0.015686 0.364706 0.000000
v -0.314300 -1.158100 -0.131000 0.015686 0.368627 0.000000
v -0.304300 -1.160700 -0.126800 0.015686 0.372549 0.000000
v -0.294100 -1.162700 -0.122600 0.011765 0.376471 0.000000
v -0.283800 -1.164100 -0.118500 0.011765 0.380392 0.000000
v -0.273400 -1.164800 -0.114300 0.011765 0.384314 0.000000
v -0.262900 -1.165000 -0.110100 0.011765 0.388235 0.000000
v -0.252300 -1.164600 -0.105900 0.007843 0.392157 0.000000
v -0.241600 -1.163600 -0.101600 0.007843 0.396078 0.000000
v -0.230800 -1.162000 -0.097400 0.007843 0.400000 0.000000
v -0.220000 -1.159800 -0.093200 0.007843 0.403922 0.000000
v -0.209200 -1.157000 -0.088900 0.007843 0.407843 0.000000
v -0.198300 -1.153600 -0.084700 0.003922 0.411765 0.000000
v -0.187400 -1.149800 -0.080500 0.003922 0.415686 0.000000
v -0.176600 -1.145300 -0.076200 0.003922 0.423529 0.000000
v -0.165800 -1.140400 -0.071900 0.003922 0.427451 0.000000
v -0.155000 -1.134900 -0.067700 0.003922 0.431373 0.000000
v -0.144300 -1.129000 -0.063400 0.003922 0.435294 0.000000
v -0.133700 -1.122600 -0.059100 0.000000 0.439216 0.000000
v -0.123100 -1.115700 -0.054800 0.000000 0.443137 0.000000
v -0.112600 -1.108500 -0.050500 0.000000 0.447059 0.000000
v -0.102300 -1.100800 -0.046300 0.000000 0.450980 0.000000
v -0.092000 -1.092800 -0.042000 0.000000 0.454902 0.000000
v -0.081900 -1.084400 -0.037700 0.000000 0.458824 0.000000
v -0.072000 -1.075600 -0.033400 0.000000 0.462745 0.000000
v -0.062100 -1.066600 -0.029100 0.000000 0.470588 0.000000
v -0.052400 -1.057300 -0.024800 0.000000 0.474510 0.000000
v -0.042900 -1.047800 -0.020500 0.000000 0.478431 0.000000
v -0.033600 -1.038000 -0.016200 0.000000 0.482353 0.000000
v -0.024400 -1.028100 -0.011800 0.000000 0.486275 0.000000
v -0.015400 -1.018000 -0.007500 0.000000 0.490196 0.000000
v -0.006500 -1.007700 -0.003200 0.000000 0.494118 0.000000
v 0.002100 -0.997400 0.001100 0.000000 0.498039 0.000000
v 0.010600 -0.987000 0.005400 0.000000 0.501961 0.000000
v 0.018900 -0.976600 0.009700 0.000000 0.505882 0.000000
v 0.027100 -0.966200 0.014000 0.000000 0.513725 0.000000
v 0.035000 -0.955800 0.018300 0.000000 0.517647 0.000000
v 0.042800 -0.945400 0.022600 0.000000 0.521569 0.000000
v 0.050400 -0.935100 0.026900 0.000000 0.525490 0.000000
v 0.057900 -0.925000 0.031200 0.000000 0.529412 0.000000
v 0.065200 -0.914900 0.035500 0.000000 0.533333 0.000000
v 0.072300 -0.905100 0.039800 0.000000 0.537255 0.000000
v 0.079300 -0.895400 0.044100 0.000000 0.541176 0.000000
v 0.086200 -0.885900 0.048400 0.000000 0.545098 0.000000
v 0.092900 -0.876700 0.052700 0.000000 0.549020 0.000000
v 0.099500 -0.867700 0.057000 0.000000 0.556863 0.000000
v 0.106000 -0.859100 0.061300 0.000000 0.560784 0.000000
v 0.112500 -0.850700 0.065500 0.003922 0.564706 0.000000
v 0.118800 -0.842700 0.069800 0.003922 0.568627 0.000000
v 0.125100 -0.835000 0.074100 0.003922 0.572549 0.000000
v 0.131300 -0.827700 0.078300 0.003922 0.576471 0.000000
v 0.137400 -0.820800 0.082600 0.003922 0.580392 0.000000
v 0.143600 -0.814200 0.086800 0.003922 0.584314 0.000000
v 0.149700 -0.808100 0.091100 0.007843 0.588235 0.000000
v 0.155800 -0.802400 0.095300 0.007843 0.592157 0.000000
v 0.161900 -0.797100 0.099500 0.007843 0.596078 0.000000
v 0.168100 -0.792300 0.103700 0.007843 0.600000 0.000000
v 0.174200 -0.787900 0.108000 0.011765 0.607843 0.000000
v 0.180500 -0.784000 0.112200 0.011765 0.611765 0.000000
v 0.186800 -0.780600 0.116400 0.011765 0.615686 0.000000
v 0.193200 -0.777600 0.120500 0.011765 0.619608 0.000000
v 0.199600 -0.775000 0.124700 0.015686 0.623529 0.000000
v 0.206200 -0.773000 0.128900 0.015686 0.627451 0.000000
v 0.212900 -0.771400 0.133000 0.015686 0.631373 0.000000
v 0.219800 -0.770200 0.137200 0.015686 0.635294 0.000000
v 0.226800 -0.769500 0.141300 0.019608 0.639216 0.000000
v 0.233900 -0.769200 0.145500 0.019608 0.643137 0.000000
v 0.241200 -0.769400 0.149600 0.019608 0.647059 0.000000
v 0.248700 -0.770000 0.153700 0.023529 0.650980 0.000000
v 0.256400 -0.771000 0.157800 0.023529 0.654902 0.000000
v 0.264300 -0.772400 0.161900 0.023529 0.658824 0.000000
v 0.272400 -0.774200 0.165900 0.027451 0.662745 0.000000
v 0.280700 -0.776300 0.170000 0.027451 0.666667 0.000000
v 0.289200 -0.778800 0.174000 0.027451 0.670588 0.000000
v 0.297900 -0.781700 0.178100 0.031373 0.674510 0.000000
v 0.306900 -0.784800 0.182100 0.031373 0.678431 0.000000
v 0.316100 -0.788300 0.186100 0.035294 0.682353 0.000000
v 0.325600 -0.792000 0.190100 0.035294 0.686275 0.000000
v 0.335200 -0.796000 0.194100 0.035294 0.690196 0.000000
v 0.345200 -0.800200 0.198000 0.039216 0.698039 0.000000
v 0.355300 -0.804600 0.202000 0.039216 0.701961 0.000000
v 0.365700 -0.809100 0.205900 0.043137 0.705882 0.000000
v 0.376300 -0.813900 0.209800 0.043137 0.709804 0.000000
v 0.387200 -0.818700 0.213700 0.047059 0.713725 0.000000
v 0.398200 -0.823700 0.217600 0.047059 0.713725 0.000000
v 0.409500 -0.828700 0.221500 0.050980 0.717647 0.000000
v 0.421000 -0.833800 0.225400 0.050980 0.721569 0.000000
v 0.432700 -0.838900 0.229200 0.054902 0.725490 0.000000
v 0.444500 -0.844000 0.233000 0.054902 0.729412 0.000000
v 0.456600 -0.849000 0.236800 0.058824 0.733333 0.000000
v 0.468800 -0.854000 0.240600 0.058824 0.737255 0.000000
v 0.481200 -0.858900 0.244400 0.062745 0.741176 0.000000
v 0.493700 -0.863700 0.248100 0.062745 0.745098 0.000000
v 0.506300 -0.868300 0.251900 0.066667 0.749020 0.000000
v 0.519100 -0.872800 0.255600 0.066667 0.752941 0.000000
v 0.531900 -0.877100 0.259300 0.070588 0.756863 0.000000
v 0.544800 -0.881200 0.262900 0.074510 0.760784 0.000000
v 0.557800 -0.885000 0.266600 0.074510 0.764706 0.000000
v 0.570800 -0.888600 0.270200 0.078431 0.768627 0.000000
v 0.583800 -0.891900 0.273900 0.078431 0.772549 0.000000
v 0.596900 -0.894800 0.277400 0.082353 0.776471 0.000000
v 0.609900 -0.897500 0.281000 0.086275 0.780392 0.000000
v 0.622900 -0.899800 0.284600 0.086275 0.784314 0.000000
v 0.635800 -0.901800 0.288100 0.090196 0.784314 0.000000
v 0.648600 -0.903300 0.291600 0.090196 0.788235 0.000000
v 0.661300 -0.904500 0.295100 0.094118 0.792157 0.000000
v 0.673900 -0.905200 0.298600 0.098039 0.796078 0.000000
v 0.686400 -0.905600 0.302000 0.098039 0.800000 0.000000
v 0.698700 -0.905500 0.305400 0.101961 0.803922 0.000000
v 0.710800 -0.904900 0.308800 0.105882 0.807843 0.000000
v 0.722700 -0.903900 0.312200 0.105882 0.811765 0.000000
v 0.734300 -0.902400 0.315600 0.109804 0.811765 0.000000
v 0.745700 -0.900500 0.318900 0.113725 0.815686 0.000000
v 0.756900 -0.898100 0.322200 0.117647 0.819608 0.000000
v 0.767700 -0.895200 0.325500 0.117647 0.823529 0.000000
v 0.778300 -0.891800 0.328800 0.121569 0.827451 0.000000
v 0.788500 -0.887900 0.332000 0.125490 0.831373 0.000000
v 0.798400 -0.883600 0.335200 0.125490 0.831373 0.000000
v 0.807900 -0.878800 0.338400 0.129412 0.835294 0.000000
v 0.817000 -0.873500 0.341600 0.133333 0.839216 0.000000
v 0.825700 -0.867700 0.344700 0.137255 0.843137 0.000000
v 0.834100 -0.861500 0.347800 0.137255 0.847059 0.000000
v 0.842000 -0.854800 0.350900 0.141176 0.847059 0.000000
v 0.849400 -0.847600 0.353900 0.145098 0.850980 0.000000
v 0.856500 -0.840000 0.357000 0.149020 0.854902 0.000000
v 0.863100 -0.832000 0.360000 0.152941 0.858824 0.000000
v 0.869200 -0.823600 0.362900 0.152941 0.862745 0.000000
v 0.874800 -0.814700 0.365900 0.156863 0.862745 0.000000
v 0.880000 -0.805500 0.368800 0.160784 0.866667 0.000000
v 0.884700 -0.795900 0.371700 0.164706 0.870588 0.000000
v 0.888900 -0.786000 0.374600 0.168627 0.874510 0.000000
v 0.892700 -0.775700 0.377400 0.168627 0.874510 0.000000
v 0.895900 -0.765000 0.380200 0.172549 0.878431 0.000000
v 0.898700 -0.754100 0.383000 0.176471 0.882353 0.000000
v 0.901000 -0.742900 0.385800 0.180392 0.882353 0.000000
v 0.902900 -0.731400 0.388500 0.184314 0.886275 0.000000
v 0.904200 -0.719700 0.391200 0.188235 0.890196 0.000000
v 0.905100 -0.707800 0.393900 0.188235 0.890196 0.000000
v 0.905500 -0.695600 0.396500 0.192157 0.894118 0.000000
v 0.905500 -0.683300 0.399100 0.196078 0.898039 0.000000
v 0.905100 -0.670800 0.401700 0.200000 0.898039 0.000000
v 0.904200 -0.658200 0.404300 0.203922 0.901961 0.000000
v 0.903000 -0.645400 0.406800 0.207843 0.905882 0.000000
v 0.901300 -0.632500 0.409300 0.211765 0.905882 0.000000
v 0.899300 -0.619600 0.411700 0.215686 0.909804 0.000000
v 0.896900 -0.606600 0.414200 0.219608 0.913725 0.000000
v 0.894100 -0.593600 0.416600 0.219608 0.913725 0.000000
v 0.891100 -0.580600 0.418900 0.223529 0.917647 0.000000
v 0.887700 -0.567600 0.421300 0.227451 0.917647 0.000000
v 0.884100 -0.554600 0.423600 0.231373 0.921569 0.000000
v 0.880200 -0.541600 0.425800 0.235294 0.925490 0.000000
v 0.876000 -0.528700 0.428100 0.239216 0.925490 0.000000
v 0.871700 -0.515900 0.430300 0.243137 0.929412 0.000000
v 0.867200 -0.503200 0.432500 0.247059 0.929412 0.000000
v 0.862500 -0.490600 0.434600 0.250980 0.933333 0.000000
v 0.857700 -0.478100 0.436700 0.254902 0.933333 0.000000
v 0.852800 -0.465700 0.438800 0.258824 0.937255 0.000000
v 0.847700 -0.453600 0.440900 0.262745 0.937255 0.000000
v 0.842700 -0.441600 0.442900 0.266667 0.941176 0.000000
v 0.837600 -0.429700 0.444900 0.270588 0.941176 0.000000
v 0.832500 -0.418100 0.446800 0.274510 0.945098 0.000000
v 0.827400 -0.406700 0.448700 0.278431 0.945098 0.000000
v 0.822400 -0.395400 0.450600 0.282353 0.949020 0.000000
v 0.817500 -0.384400 0.452500 0.286275 0.949020 0.000000
v 0.812700 -0.373600 0.454300 0.290196 0.952941 0.000000
v 0.808000 -0.363100 0.456100 0.294118 0.952941 0.000000
v 0.803500 -0.352800 0.457800 0.298039 0.956863 0.000000
v 0.799100 -0.342700 0.459500 0.301961 0.956863 0.000000
v 0.795000 -0.332800 0.461200 0.305882 0.960784 0.000000
v 0.791100 -0.323200 0.462900 0.309804 0.960784 0.000000
v 0.787400 -0.313800 0.464500 0.313725 0.960784 0.000000
v 0.784000 -0.304600 0.466100 0.317647 0.964706 0.000000
v 0.780900 -0.295700 0.467600 0.321569 0.964706 0.000000
v 0.778200 -0.287000 0.469100 0.325490 0.968627 0.000000
v 0.775800 -0.278600 0.470600 0.329412 0.968627 0.000000
v 0.773700 -0.270300 0.472000 0.333333 0.968627 0.000000
v 0.772000 -0.262300 0.473400 0.337255 0.972549 0.000000
v 0.770700 -0.254500 0.474800 0.341176 0.972549 0.000000
v 0.769800 -0.246800 0.476100 0.345098 0.972549 0.000000
v 0.769300 -0.239400 0.477400 0.349020 0.976471 0.000000
v 0.769200 -0.232100 0.478700 0.352941 0.976471 0.000000
v 0.769600 -0.225000 0.479900 0.356863 0.976471 0.000000
v 0.770400 -0.218000 0.481100 0.360784 0.980392 0.000000
v 0.771700 -0.211200 0.482300 0.364706 0.980392 0.000000
v 0.773400 -0.204600 0.483400 0.368627 0.980392 0.000000
v 0.775600 -0.198000 0.484500 0.372549 0.984314 0.000000
v 0.778300 -0.191600 0.485500 0.380392 0.984314 0.000000
v 0.781400 -0.185200 0.486500 0.384314 0.984314 0.000000
v 0.785000 -0.178900 0.487500 0.388235 0.984314 0.000000
v 0.789000 -0.172700 0.488400 0.392157 0.988235 0.000000
v 0.793500 -0.166500 0.489300 0.396078 0.988235 0.000000
v 0.798400 -0.160400 0.490200 0.400000 0.988235 0.000000
v 0.803800 -0.154300 0.491000 0.403922 0.988235 0.000000
v 0.809600 -0.148200 0.491800 0.407843 0.988235 0.000000
v 0.815800 -0.142000 0.492600 0.411765 0.992157 0.000000
v 0.822500 -0.135900 0.493300 0.415686 0.992157 0.000000
v 0.829500 -0.129700 0.494000 0.419608 0.992157 0.000000
v 0.836900 -0.123500 0.494600 0.423529 0.992157 0.000000
v 0.844700 -0.117200 0.495300 0.427451 0.992157 0.000000
v 0.852800 -0.110900 0.495800 0.435294 0.992157 0.000000
v 0.861200 -0.104400 0.496400 0.439216 0.996078 0.000000
v 0.870000 -0.097900 0.496900 0.443137 0.996078 0.000000
v 0.879000 -0.091200 0.497300 0.447059 0.996078 0.000000
v 0.888300 -0.084500 0.497800 0.450980 0.996078 0.000000
v 0.897800 -0.077600 0.498100 0.454902 0.996078 0.000000
v 0.907500 -0.070500 0.498500 0.458824 0.996078 0.000000
v 0.917400 -0.063400 0.498800 0.462745 0.996078 0.000000
v 0.927500 -0.056000 0.499100 0.466667 0.996078 0.000000
v 0.937700 -0.048500 0.499300 0.470588 0.996078 0.000000
v 0.948000 -0.040900 0.499500 0.478431 0.996078 0.000000
v 0.958400 -0.033100 0.499700 0.482353 0.996078 0.000000
v 0.968800 -0.025100 0.499800 0.486275 0.996078 0.000000
v 0.979200 -0.016900 0.499900 0.490196 0.996078 0.000000
v 0.989600 -0.008500 0.500000 0.494118 0.996078 0.000000
f 396 274 518
f 274 518 516
f 518 516 395
f 516 395 275
f 395 275 273
f 275 273 517
f 273 517 397
f 517 397 519
f 397 519 276
f 519 276 394
f 276 394 398
f 394 398 272
f 398 272 515
f 272 515 277
f 515 277 393
f 277 393 520
f 393 520 399
f 520 399 271
f 399 271 514
f 271 514 278
f 514 278 392
f 278 392 521
f 392 521 400
f 521 400 513
f 400 513 270
f 513 270 279
f 270 279 522
f 279 522 391
f 522 391 401
f 391 401 512
f 401 512 269
f 512 269 280
f 269 280 523
f 280 523 390
f 523 390 402
f 390 402 511
f 402 511 268
f 511 268 524
f 268 524 281
f 524 281 389
f 281 389 403
f 389 403 510
f 403 510 267
f 510 267 525
f 267 525 282
f 525 282 388
f 282 388 404
f 388 404 266
f 404 266 509
f 266 509 283
f 509 283 526
f 283 526 387
f 526 387 405
f 387 405 508
f 405 508 265
f 508 265 527
f 265 527 284
f 527 284 386
f 284 386 406
f 386 406 507
f 406 507 264
f 507 264 528
f 264 528 285
f 528 285 385
f 285 385 407
f 385 407 263
f 407 263 506
f 263 506 286
f 506 286 529
f 286 529 384
f 529 384 408
f 384 408 505
f 408 505 262
f 505 262 530
f 262 530 287
f 530 287 383
f 287 383 409
f 383 409 261
f 409 261 504
f 261 504 531
f 504 531 288
f 531 288 382
f 288 382 410
f 382 410 503
f 410 503 260
f 503 260 289
f 260 289 532
f 289 532 381
f 532 381 411
f 381 411 259
f 411 259 502
f 259 502 290
f 502 290 533
f 290 533 380
f 533 380 412
f 380 412 258
f 412 258 501
f 258 501 534
f 501 534 291
f 534 291 379
f 291 379 413
f 379 413 500
f 413 500 257
f 500 257 535
f 257 535 292
f 535 292 378
f 292 378 414
f 378 414 256
f 414 256 499
f 256 499 536
f 499 536 293
f 536 293 377
f 293 377 415
f 377 415 498
f 415 498 255
f 498 255 294
f 255 294 537
f 294 537 376
f 537 376 416
f 376 416 254
f 416 254 497
f 254 497 295
f 497 295 538
f 295 538 375
f 538 375 417
f 375 417 253
f 417 253 496
f 253 496 296
f 496 296 539
f 296 539 374
f 539 374 418
f 374 418 252
f 418 252 495
f 252 495 540
f 495 540 297
f 540 297 373
f 297 373 419
f 373 419 494
f 419 494 251
f 494 251 298
f 251 298 541
f 298 541 372
f 541 372 420
f 372 420 250
f 420 250 493
f 250 493 299
f 493 299 542
f 299 542 371
f 542 371 421
f 371 421 492
f 421 492 249
f 492 249 300
f 249 300 543
f 300 543 370
f 543 370 422
f 370 422 491
f 422 491 248
f 491 248 301
f 248 301 544
f 301 544 369
f 544 369 545
f 369 545 423
f 545 423 247
f 423 247 490
f 247 490 302
f 490 302 546
f 302 546 368
f 546 368 424
f 368 424 246
f 424 246 489
f 246 489 303
f 489 303 547
f 303 547 367
f 547 367 425
f 367 425 245
f 425 245 488
f 245 488 304
f 488 304 366
f 304 366 426
f 366 426 184
f 426 184 487
f 184 487 244
f 487 244 305
f 244 305 365
f 305 365 427
f 365 427 486
f 427 486 243
f 486 243 306
f 243 306 185
f 306 185 364
f 185 364 428
f 364 428 485
f 428 485 242
f 485 242 307
f 242 307 186
f 307 186 363
f 186 363 429
f 363 429 241
f 429 241 484
f 241 484 308
f 484 308 362
f 308 362 430
f 362 430 187
f 430 187 240
f 187 240 483
f 240 483 309
f 483 309 361
f 309 361 431
f 361 431 482
f 431 482 239
f 482 239 188
f 239 188 310
f 188 310 360
f 310 360 432
f 360 432 189
f 432 189 481
f 189 481 238
f 481 238 311
f 238 311 359
f 311 359 433
f 359 433 190
f 433 190 237
f 190 237 480
f 237 480 312
f 480 312 358
f 312 358 434
f 358 434 191
f 434 191 479
f 191 479 236
f 479 236 313
f 236 313 357
f 313 357 435
f 357 435 192
f 435 192 235
f 192 235 478
f 235 478 314
f 478 314 356
f 314 356 436
f 356 436 193
f 436 193 477
f 193 477 234
f 477 234 315
f 234 315 355
f 315 355 437
f 355 437 194
f 437 194 233
f 194 233 476
f 233 476 316
f 476 316 354
f 316 354 195
f 354 195 438
f 195 438 475
f 438 475 232
f 475 232 317
f 232 317 353
f 317 353 196
f 353 196 439
f 196 439 474
f 439 474 231
f 474 231 318
f 231 318 352
f 318 352 197
f 352 197 440
f 197 440 473
f 440 473 230
f 473 230 319
f 230 319 351
f 319 351 198
f 351 198 441
f 198 441 472
f 441 472 229
f 472 229 320
f 229 320 350
f 320 350 442
f 350 442 199
f 442 199 228
f 199 228 471
f 228 471 321
f 471 321 349
f 321 349 443
f 349 443 200
f 443 200 470
f 200 470 227
f 470 227 322
f 227 322 348
f 322 348 201
f 348 201 444
f 201 444 469
f 444 469 226
f 469 226 323
f 226 323 347
f 323 347 445
f 347 445 202
f 445 202 468
f 202 468 225
f 468 225 324
f 225 324 346
f 324 346 446
f 346 446 203
f 446 203 224
f 203 224 467
f 224 467 325
f 467 325 345
f 325 345 204
f 345 204 447
f 204 447 466
f 447 466 223
f 466 223 326
f 223 326 344
f 326 344 448
f 344 448 205
f 448 205 465
f 205 465 222
f 465 222 327
f 222 327 343
f 327 343 206
f 343 206 449
f 206 449 221
f 449 221 464
f 221 464 328
f 464 328 342
f 328 342 207
f 342 207 450
f 207 450 220
f 450 220 463
f 220 463 329
f 463 329 341
f 329 341 451
f 341 451 208
f 451 208 462
f 208 462 219
f 462 219 330
f 219 330 340
f 330 340 452
f 340 452 209
f 452 209 218
f 209 218 461
f 218 461 331
f 461 331 339
f 331 339 453
f 339 453 210
f 453 210 460
f 210 460 217
f 460 217 332
f 217 332 338
f 332 338 454
f 338 454 211
f 454 211 459
f 211 459 333
f 459 333 216
f 333 216 212
f 216 212 337
f 212 337 455
f 337 455 458
f 455 458 215
f 458 215 334
f 215 334 336
f 334 336 457
f 336 457 213
f 457 213 335
f 213 335 214
f 335 214 456
f 214 456 152
f 456 152 639
f 152 639 31
f 639 31 32
f 31 32 638
f 32 638 153
f 638 153 154
f 153 154 640
f 154 640 30
f 640 30 33
f 30 33 155
f 33 155 637
f 155 637 151
f 637 151 641
f 151 641 29
f 641 29 34
f 29 34 150
f 34 150 636
f 150 636 642
f 636 642 28
f 642 28 156
f 28 156 35
f 156 35 149
f 35 149 635
f 149 635 643
f 635 643 157
f 643 157 27
f 157 27 36
f 27 36 634
f 36 634 148
f 634 148 644
f 148 644 158
f 644 158 26
f 158 26 37
f 26 37 633
f 37 633 147
f 633 147 159
f 147 159 645
f 159 645 25
f 645 25 38
f 25 38 632
f 38 632 146
f 632 146 160
f 146 160 646
f 160 646 24
f 646 24 39
f 24 39 631
f 39 631 145
f 631 145 647
f 145 647 161
f 647 161 23
f 161 23 40
f 23 40 144
f 40 144 630
f 144 630 648
f 630 648 162
f 648 162 22
f 162 22 41
f 22 41 629
f 41 629 143
f 629 143 163
f 143 163 649
f 163 649 21
f 649 21 42
f 21 42 142
f 42 142 628
f 142 628 650
f 628 650 164
f 650 164 20
f 164 20 43
f 20 43 141
f 43 141 627
f 141 627 165
f 627 165 651
f 165 651 19
f 651 19 44
f 19 44 626
f 44 626 140
f 626 140 652
f 140 652 166
f 652 166 18
f 166 18 45
f 18 45 625
f 45 625 139
f 625 139 167
f 139 167 653
f 167 653 17
f 653 17 46
f 17 46 624
f 46 624 138
f 624 138 168
f 138 168 654
f 168 654 16
f 654 16 47
f 16 47 623
f 47 623 137
f 623 137 655
f 137 655 169
f 655 169 15
f 169 15 48
f 15 48 136
f 48 136 622
f 136 622 656
f 622 656 170
f 656 170 14
f 170 14 49
f 14 49 621
f 49 621 135
f 621 135 171
f 135 171 657
f 171 657 13
f 657 13 50
f 13 50 134
f 50 134 620
f 134 620 172
f 620 172 658
f 172 658 12
f 658 12 51
f 12 51 133
f 51 133 619
f 133 619 173
f 619 173 659
f 173 659 11
f 659 11 52
f 11 52 132
f 52 132 618
f 132 618 174
f 618 174 660
f 174 660 10
f 660 10 53
f 10 53 131
f 53 131 617
f 131 617 175
f 617 175 661
f 175 661 9
f 661 9 54
f 9 54 616
f 54 616 130
f 616 130 176
f 130 176 662
f 176 662 8
f 662 8 55
f 8 55 129
f 55 129 615
f 129 615 177
f 615 177 663
f 177 663 7
f 663 7 56
f 7 56 614
f 56 614 128
f 614 128 178
f 128 178 664
f 178 664 6
f 664 6 57
f 6 57 127
f 57 127 613
f 127 613 179
f 613 179 665
f 179 665 5
f 665 5 58
f 5 58 612
f 58 612 126
f 612 126 666
f 126 666 180
f 666 180 4
f 180 4 59
f 4 59 125
f 59 125 611
f 125 611 667
f 611 667 3
f 667 3 181
f 3 181 60
f 181 60 610
f 60 610 124
f 610 124 668
f 124 668 2
f 668 2 182
f 2 182 61
f 182 61 123
f 61 123 609
f 123 609 669
f 609 669 1
f 669 1 183
f 1 183 62
f 183 62 608
f 62 608 122
f 608 122 670
f 122 670 729
f 670 729 63
f 729 63 607
f 63 607 121
f 607 121 671
f 121 671 549
f 671 549 728
f 549 728 64
f 728 64 606
f 64 606 120
f 606 120 550
f 120 550 672
f 550 672 727
f 672 727 551
f 727 551 65
f 551 65 119
f 65 119 605
f 119 605 673
f 605 673 726
f 673 726 66
f 726 66 552
f 66 552 118
f 552 118 604
f 118 604 548
f 604 548 674
f 548 674 725
f 674 725 553
f 725 553 67
f 553 67 603
f 67 603 117
f 603 117 675
f 117 675 724
f 675 724 554
f 724 554 68
f 554 68 116
f 68 116 602
f 116 602 676
f 602 676 723
f 676 723 555
f 723 555 69
f 555 69 115
f 69 115 601
f 115 601 677
f 601 677 722
f 677 722 556
f 722 556 70
f 556 70 600
f 70 600 114
f 600 114 678
f 114 678 721
f 678 721 557
f 721 557 71
f 557 71 599
f 71 599 113
f 599 113 679
f 113 679 720
f 679 720 558
f 720 558 72
f 558 72 598
f 72 598 112
f 598 112 680
f 112 680 719
f 680 719 559
f 719 559 73
f 559 73 597
f 73 597 111
f 597 111 681
f 111 681 718
f 681 718 74
f 718 74 560
f 74 560 110
f 560 110 596
f 110 596 682
f 596 682 717
f 682 717 75
f 717 75 561
f 75 561 595
f 561 595 109
f 595 109 683
f 109 683 716
f 683 716 76
f 716 76 562
f 76 562 108
f 562 108 594
f 108 594 684
f 594 684 715
f 684 715 563
f 715 563 77
f 563 77 107
f 77 107 593
f 107 593 685
f 593 685 714
f 685 714 564
f 714 564 78
f 564 78 106
f 78 106 592
f 106 592 686
f 592 686 713
f 686 713 79
f 713 79 565
f 79 565 105
f 565 105 591
f 105 591 687
f 591 687 712
f 687 712 566
f 712 566 80
f 566 80 104
f 80 104 590
f 104 590 688
f 590 688 711
f 688 711 81
f 711 81 567
f 81 567 589
f 567 589 103
f 589 103 689
f 103 689 710
f 689 710 568
f 710 568 82
f 568 82 588
f 82 588 102
f 588 102 690
f 102 690 709
f 690 709 83
f 709 83 569
f 83 569 587
f 569 587 101
f 587 101 691
f 101 691 708
f 691 708 84
f 708 84 570
f 84 570 100
f 570 100 586
f 100 586 692
f 586 692 707
f 692 707 571
f 707 571 85
f 571 85 99
f 85 99 585
f 99 585 693
f 585 693 706
f 693 706 572
f 706 572 86
f 572 86 98
f 86 98 584
f 98 584 694
f 584 694 705
f 694 705 87
f 705 87 573
f 87 573 97
f 573 97 583
f 97 583 695
f 583 695 704
f 695 704 88
f 704 88 574
f 88 574 96
f 574 96 582
f 96 582 696
f 582 696 703
f 696 703 89
f 703 89 581
f 89 581 575
f 581 575 95
f 575 95 697
f 95 697 576
f 697 576 702
f 576 702 90
f 702 90 580
f 90 580 94
f 580 94 698
f 94 698 701
f 698 701 579
f 701 579 577
f 579 577 91
f 577 91 93
f 91 93 92
f 93 92 699
f 92 699 700
f 699 700 578
