# King Wen sovereign avatar mesh
# shap_e_hex_22.ply
# vertices=729 faces=727
o kingwen_avatar
v 1.000000 0.000000 0.500000 0.498039 1.000000 0.345098
v 1.010300 0.008700 0.499100 0.501961 0.996078 0.345098
v 1.020500 0.017600 0.496400 0.505882 0.996078 0.345098
v 1.030600 0.026700 0.491800 0.509804 0.996078 0.345098
v 1.040500 0.035900 0.485500 0.513725 0.996078 0.345098
v 1.050200 0.045300 0.477400 0.517647 0.996078 0.345098
v 1.059600 0.054800 0.467600 0.525490 0.996078 0.345098
v 1.068900 0.064600 0.456100 0.529412 0.996078 0.345098
v 1.077800 0.074400 0.442900 0.533333 0.996078 0.345098
v 1.086500 0.084400 0.428100 0.537255 0.996078 0.345098
v 1.094800 0.094600 0.411700 0.541176 0.996078 0.345098
v 1.102800 0.104900 0.393900 0.545098 0.996078 0.345098
v 1.110300 0.115200 0.374600 0.549020 0.996078 0.345098
v 1.117500 0.125700 0.353900 0.552941 0.996078 0.345098
v 1.124200 0.136300 0.332000 0.556863 0.996078 0.345098
v 1.130500 0.147000 0.308800 0.560784 0.992157 0.345098
v 1.136300 0.157700 0.284600 0.568627 0.992157 0.345098
v 1.141700 0.168500 0.259300 0.572549 0.992157 0.345098
v 1.146500 0.179300 0.233000 0.576471 0.992157 0.345098
v 1.150800 0.190200 0.205900 0.580392 0.992157 0.345098
v 1.154500 0.201000 0.178100 0.584314 0.992157 0.345098
v 1.157700 0.211900 0.149600 0.588235 0.988235 0.345098
v 1.160400 0.222700 0.120500 0.592157 0.988235 0.345098
v 1.162400 0.233500 0.091100 0.596078 0.988235 0.345098
v 1.163900 0.244200 0.061300 0.600000 0.988235 0.345098
v 1.164800 0.254900 0.031200 0.603922 0.988235 0.345098
v 1.165000 0.265500 0.001100 0.607843 0.984314 0.345098
v 1.164700 0.276000 -0.029100 0.611765 0.984314 0.345098
v 1.163800 0.286400 -0.059100 0.615686 0.984314 0.345098
v 1.162200 0.296700 -0.088900 0.623529 0.984314 0.345098
v 1.160100 0.306800 -0.118500 0.627451 0.980392 0.345098
v 1.157300 0.316800 -0.147500 0.631373 0.980392 0.345098
v 1.154000 0.326600 -0.176100 0.635294 0.980392 0.345098
v 1.150000 0.336200 -0.204000 0.639216 0.976471 0.345098
v 1.145500 0.345600 -0.231100 0.643137 0.976471 0.345098
v 1.140400 0.354800 -0.257400 0.647059 0.976471 0.345098
v 1.134700 0.363800 -0.282800 0.650980 0.972549 0.345098
v 1.128500 0.372600 -0.307200 0.654902 0.972549 0.345098
v 1.121700 0.381100 -0.330400 0.658824 0.972549 0.345098
v 1.114400 0.389400 -0.352400 0.662745 0.968627 0.345098
v 1.106500 0.397400 -0.373200 0.666667 0.968627 0.345098
v 1.098200 0.405100 -0.392500 0.670588 0.968627 0.345098
v 1.089400 0.412500 -0.410500 0.674510 0.964706 0.345098
v 1.080200 0.419700 -0.427000 0.678431 0.964706 0.345098
v 1.070500 0.426600 -0.441900 0.682353 0.960784 0.345098
v 1.060400 0.433200 -0.455200 0.686275 0.960784 0.345098
v 1.049900 0.439500 -0.466800 0.690196 0.960784 0.345098
v 1.039000 0.445500 -0.476800 0.694118 0.956863 0.345098
v 1.027800 0.451300 -0.485000 0.698039 0.956863 0.345098
v 1.016300 0.456700 -0.491400 0.701961 0.952941 0.345098
v 1.004500 0.461800 -0.496100 0.705882 0.952941 0.345098
v 0.992400 0.466700 -0.499000 0.709804 0.949020 0.345098
v 0.980000 0.471200 -0.500000 0.713725 0.949020 0.345098
v 0.967500 0.475500 -0.499200 0.717647 0.945098 0.345098
v 0.954800 0.479500 -0.496600 0.721569 0.945098 0.345098
v 0.941900 0.483200 -0.492200 0.725490 0.941176 0.345098
v 0.928800 0.486700 -0.486000 0.729412 0.941176 0.345098
v 0.915700 0.489900 -0.478100 0.733333 0.937255 0.345098
v 0.902500 0.492900 -0.468400 0.737255 0.937255 0.345098
v 0.889300 0.495700 -0.456900 0.741176 0.933333 0.345098
v 0.876000 0.498200 -0.443900 0.745098 0.933333 0.345098
v 0.862700 0.500600 -0.429200 0.749020 0.929412 0.345098
v 0.849500 0.502700 -0.412900 0.752941 0.929412 0.345098
v 0.836300 0.504700 -0.395200 0.756863 0.925490 0.345098
v 0.823200 0.506500 -0.376000 0.760784 0.925490 0.345098
v 0.810200 0.508200 -0.355500 0.764706 0.921569 0.345098
v 0.797300 0.509800 -0.333600 0.768627 0.917647 0.345098
v 0.784600 0.511200 -0.310500 0.772549 0.917647 0.345098
v 0.772100 0.512600 -0.286300 0.776471 0.913725 0.345098
v 0.759800 0.513900 -0.261100 0.776471 0.913725 0.345098
v 0.747600 0.515100 -0.234900 0.780392 0.909804 0.345098
v 0.735800 0.516400 -0.207900 0.784314 0.905882 0.345098
v 0.724100 0.517600 -0.180100 0.788235 0.905882 0.345098
v 0.712800 0.518800 -0.151600 0.792157 0.901961 0.345098
v 0.701700 0.520100 -0.122600 0.796078 0.898039 0.345098
v 0.691000 0.521400 -0.093200 0.800000 0.898039 0.345098
v 0.680500 0.522800 -0.063400 0.803922 0.894118 0.345098
v 0.670400 0.524200 -0.033400 0.807843 0.890196 0.345098
v 0.660600 0.525800 -0.003200 0.807843 0.890196 0.345098
v 0.651200 0.527500 0.026900 0.811765 0.886275 0.345098
v 0.642100 0.529400 0.057000 0.815686 0.882353 0.345098
v 0.633400 0.531500 0.086800 0.819608 0.882353 0.345098
v 0.625000 0.533700 0.116400 0.823529 0.878431 0.345098
v 0.617000 0.536100 0.145500 0.827451 0.874510 0.345098
v 0.609400 0.538800 0.174000 0.827451 0.874510 0.345098
v 0.602100 0.541700 0.202000 0.831373 0.870588 0.345098
v 0.595300 0.544900 0.229200 0.835294 0.866667 0.345098
v 0.588800 0.548300 0.255600 0.839216 0.862745 0.345098
v 0.582600 0.552000 0.281000 0.843137 0.862745 0.345098
v 0.576800 0.556100 0.305400 0.843137 0.858824 0.345098
v 0.571400 0.560400 0.328800 0.847059 0.854902 0.345098
v 0.566300 0.565100 0.350900 0.850980 0.850980 0.345098
v 0.561500 0.570100 0.371700 0.854902 0.847059 0.345098
v 0.557100 0.575400 0.391200 0.858824 0.847059 0.345098
v 0.553000 0.581100 0.409300 0.858824 0.843137 0.345098
v 0.549200 0.587200 0.425800 0.862745 0.839216 0.345098
v 0.545700 0.593600 0.440900 0.866667 0.835294 0.345098
v 0.542500 0.600400 0.454300 0.870588 0.831373 0.345098
v 0.539500 0.607500 0.466100 0.870588 0.831373 0.345098
v 0.536800 0.615100 0.476100 0.874510 0.827451 0.345098
v 0.534300 0.623000 0.484500 0.878431 0.823529 0.345098
v 0.532000 0.631200 0.491000 0.878431 0.819608 0.345098
v 0.529900 0.639900 0.495800 0.882353 0.815686 0.345098
v 0.528000 0.648900 0.498800 0.886275 0.811765 0.345098
v 0.526200 0.658200 0.500000 0.890196 0.811765 0.345098
v 0.524600 0.667900 0.499300 0.890196 0.807843 0.345098
v 0.523100 0.678000 0.496900 0.894118 0.803922 0.345098
v 0.521700 0.688300 0.492600 0.898039 0.800000 0.345098
v 0.520400 0.699000 0.486500 0.898039 0.796078 0.345098
v 0.519100 0.710000 0.478700 0.901961 0.792157 0.345098
v 0.517900 0.721300 0.469100 0.905882 0.788235 0.345098
v 0.516700 0.732800 0.457800 0.905882 0.784314 0.345098
v 0.515500 0.744700 0.444900 0.909804 0.784314 0.345098
v 0.514200 0.756700 0.430300 0.909804 0.780392 0.345098
v 0.512900 0.769000 0.414200 0.913725 0.776471 0.345098
v 0.511600 0.781500 0.396500 0.917647 0.772549 0.345098
v 0.510100 0.794100 0.377400 0.917647 0.768627 0.345098
v 0.508600 0.807000 0.357000 0.921569 0.764706 0.345098
v 0.507000 0.819900 0.335200 0.921569 0.760784 0.345098
v 0.505200 0.833000 0.312200 0.925490 0.756863 0.345098
v 0.503200 0.846200 0.288100 0.929412 0.752941 0.345098
v 0.501100 0.859400 0.262900 0.929412 0.749020 0.345098
v 0.498800 0.872700 0.236800 0.933333 0.745098 0.345098
v 0.496300 0.885900 0.209800 0.933333 0.741176 0.345098
v 0.493600 0.899200 0.182100 0.937255 0.737255 0.345098
v 0.490700 0.912400 0.153700 0.937255 0.733333 0.345098
v 0.487500 0.925600 0.124700 0.941176 0.729412 0.345098
v 0.484100 0.938600 0.095300 0.941176 0.725490 0.345098
v 0.480500 0.951600 0.065500 0.945098 0.721569 0.345098
v 0.476500 0.964300 0.035500 0.945098 0.717647 0.345098
v 0.472300 0.976900 0.005400 0.949020 0.713725 0.345098
v 0.467800 0.989300 -0.024800 0.949020 0.713725 0.345098
v 0.463100 1.001500 -0.054800 0.952941 0.709804 0.345098
v 0.458000 1.013400 -0.084700 0.952941 0.705882 0.345098
v 0.452600 1.025000 -0.114300 0.956863 0.701961 0.345098
v 0.447000 1.036300 -0.143400 0.956863 0.698039 0.345098
v 0.441100 1.047200 -0.172000 0.960784 0.690196 0.345098
v 0.434800 1.057800 -0.200000 0.960784 0.686275 0.345098
v 0.428300 1.068000 -0.227300 0.960784 0.682353 0.345098
v 0.421500 1.077800 -0.253700 0.964706 0.678431 0.345098
v 0.414400 1.087200 -0.279200 0.964706 0.674510 0.345098
v 0.407000 1.096100 -0.303700 0.968627 0.670588 0.345098
v 0.399300 1.104500 -0.327100 0.968627 0.666667 0.345098
v 0.391400 1.112500 -0.349300 0.968627 0.662745 0.345098
v 0.383200 1.119900 -0.370300 0.972549 0.658824 0.345098
v 0.374700 1.126800 -0.389900 0.972549 0.654902 0.345098
v 0.366000 1.133200 -0.408000 0.972549 0.650980 0.345098
v 0.357100 1.139000 -0.424700 0.976471 0.647059 0.345098
v 0.348000 1.144300 -0.439800 0.976471 0.643137 0.345098
v 0.338600 1.148900 -0.453400 0.976471 0.639216 0.345098
v 0.329000 1.153000 -0.465300 0.980392 0.635294 0.345098
v 0.319300 1.156500 -0.475500 0.980392 0.631373 0.345098
v 0.309300 1.159400 -0.483900 0.980392 0.627451 0.345098
v 0.299200 1.161700 -0.490600 0.980392 0.623529 0.345098
v 0.289000 1.163400 -0.495500 0.984314 0.619608 0.345098
v 0.278600 1.164500 -0.498700 0.984314 0.615686 0.345098
v 0.268200 1.165000 -0.500000 0.984314 0.611765 0.345098
v 0.257600 1.164900 -0.499400 0.984314 0.607843 0.345098
v 0.246900 1.164200 -0.497100 0.988235 0.600000 0.345098
v 0.236200 1.162800 -0.493000 0.988235 0.596078 0.345098
v 0.225400 1.160900 -0.487000 0.988235 0.592157 0.345098
v 0.214600 1.158400 -0.479300 0.988235 0.588235 0.345098
v 0.203700 1.155400 -0.469800 0.992157 0.584314 0.345098
v 0.192900 1.151800 -0.458700 0.992157 0.580392 0.345098
v 0.182000 1.147600 -0.445800 0.992157 0.576471 0.345098
v 0.171200 1.142900 -0.431400 0.992157 0.572549 0.345098
v 0.160400 1.137700 -0.415400 0.992157 0.568627 0.345098
v 0.149700 1.132000 -0.397800 0.992157 0.564706 0.345098
v 0.139000 1.125900 -0.378800 0.996078 0.560784 0.345098
v 0.128400 1.119200 -0.358500 0.996078 0.556863 0.345098
v 0.117900 1.112200 -0.336800 0.996078 0.549020 0.345098
v 0.107500 1.104700 -0.313900 0.996078 0.545098 0.345098
v 0.097200 1.096800 -0.289900 0.996078 0.541176 0.345098
v 0.087000 1.088600 -0.264800 0.996078 0.537255 0.345098
v 0.076900 1.080000 -0.238700 0.996078 0.533333 0.345098
v 0.067000 1.071100 -0.211800 0.996078 0.529412 0.345098
v 0.057300 1.062000 -0.184100 0.996078 0.525490 0.345098
v 0.047700 1.052600 -0.155700 0.996078 0.521569 0.345098
v 0.038200 1.042900 -0.126800 0.996078 0.517647 0.345098
v 0.028900 1.033100 -0.097400 0.996078 0.513725 0.345098
v 0.019800 1.023000 -0.067700 0.996078 0.505882 0.345098
v 0.010900 1.012900 -0.037700 0.996078 0.501961 0.345098
v 0.002200 1.002600 -0.007500 0.996078 0.498039 0.345098
v -0.006400 0.992200 0.022600 0.996078 0.494118 0.345098
v -0.014800 0.981800 0.052700 0.996078 0.490196 0.345098
v -0.023000 0.971400 0.082600 0.996078 0.486275 0.345098
v -0.031100 0.961000 0.112200 0.996078 0.482353 0.345098
v -0.038900 0.950600 0.141300 0.996078 0.478431 0.345098
v -0.046600 0.940200 0.170000 0.996078 0.474510 0.345098
v -0.054200 0.930000 0.198000 0.996078 0.470588 0.345098
v -0.061500 0.919900 0.225400 0.996078 0.462745 0.345098
v -0.068800 0.910000 0.251900 0.996078 0.458824 0.345098
v -0.075800 0.900200 0.277400 0.996078 0.454902 0.345098
v -0.082800 0.890600 0.302000 0.996078 0.450980 0.345098
v -0.089600 0.881300 0.325500 0.996078 0.447059 0.345098
v -0.096200 0.872200 0.347800 0.996078 0.443137 0.345098
v -0.102800 0.863400 0.368800 0.996078 0.439216 0.345098
v -0.109300 0.854900 0.388500 0.992157 0.435294 0.345098
v -0.115600 0.846700 0.406800 0.992157 0.431373 0.345098
v -0.121900 0.838800 0.423600 0.992157 0.427451 0.345098
v -0.128200 0.831300 0.438800 0.992157 0.423529 0.345098
v -0.134400 0.824200 0.452500 0.992157 0.415686 0.345098
v -0.140500 0.817500 0.464500 0.992157 0.411765 0.345098
v -0.146600 0.811100 0.474800 0.988235 0.407843 0.345098
v -0.152700 0.805200 0.483400 0.988235 0.403922 0.345098
v -0.158900 0.799700 0.490200 0.988235 0.400000 0.345098
v -0.165000 0.794700 0.495300 0.988235 0.396078 0.345098
v -0.171100 0.790100 0.498500 0.988235 0.392157 0.345098
v -0.177300 0.785900 0.499900 0.984314 0.388235 0.345098
v -0.183600 0.782200 0.499500 0.984314 0.384314 0.345098
v -0.190000 0.779000 0.497300 0.984314 0.380392 0.345098
v -0.196400 0.776200 0.493300 0.984314 0.376471 0.345098
v -0.202900 0.773900 0.487500 0.980392 0.372549 0.345098
v -0.209600 0.772100 0.479900 0.980392 0.368627 0.345098
v -0.216300 0.770700 0.470600 0.980392 0.364706 0.345098
v -0.223200 0.769800 0.459500 0.976471 0.356863 0.345098
v -0.230300 0.769300 0.446800 0.976471 0.352941 0.345098
v -0.237500 0.769300 0.432500 0.976471 0.349020 0.345098
v -0.244900 0.769600 0.416600 0.972549 0.345098 0.345098
v -0.252500 0.770400 0.399100 0.972549 0.341176 0.345098
v -0.260300 0.771600 0.380200 0.972549 0.337255 0.345098
v -0.268300 0.773200 0.360000 0.968627 0.333333 0.345098
v -0.276500 0.775200 0.338400 0.968627 0.329412 0.345098
v -0.284900 0.777500 0.315600 0.968627 0.325490 0.345098
v -0.293500 0.780200 0.291600 0.964706 0.321569 0.345098
v -0.302400 0.783200 0.266600 0.964706 0.317647 0.345098
v -0.311500 0.786500 0.240600 0.964706 0.313725 0.345098
v -0.320800 0.790100 0.213700 0.960784 0.309804 0.345098
v -0.330400 0.794000 0.186100 0.960784 0.305882 0.345098
v -0.340200 0.798000 0.157800 0.956863 0.301961 0.345098
v -0.350200 0.802300 0.128900 0.956863 0.298039 0.345098
v -0.360500 0.806800 0.099500 0.952941 0.294118 0.345098
v -0.371000 0.811500 0.069800 0.952941 0.290196 0.345098
v -0.381700 0.816300 0.039800 0.949020 0.286275 0.345098
v -0.392700 0.821200 0.009700 0.949020 0.282353 0.345098
v -0.403800 0.826200 -0.020500 0.949020 0.278431 0.345098
v -0.415200 0.831200 -0.050500 0.945098 0.274510 0.345098
v -0.426800 0.836300 -0.080500 0.945098 0.270588 0.345098
v -0.438600 0.841400 -0.110100 0.941176 0.266667 0.345098
v -0.450600 0.846500 -0.139300 0.941176 0.262745 0.345098
v -0.462700 0.851500 -0.168000 0.937255 0.258824 0.345098
v -0.475000 0.856500 -0.196100 0.937255 0.254902 0.345098
v -0.487400 0.861300 -0.223400 0.933333 0.250980 0.345098
v -0.500000 0.866000 -0.250000 0.929412 0.247059 0.345098
v -0.512700 0.870600 -0.275700 0.929412 0.243137 0.345098
v -0.525500 0.875000 -0.300300 0.925490 0.239216 0.345098
v -0.538400 0.879200 -0.323900 0.925490 0.235294 0.345098
v -0.551300 0.883100 -0.346200 0.921569 0.231373 0.345098
v -0.564300 0.886800 -0.367400 0.921569 0.231373 0.345098
v -0.577300 0.890300 -0.387100 0.917647 0.227451 0.345098
v -0.590400 0.893400 -0.405500 0.913725 0.223529 0.345098
v -0.603400 0.896200 -0.422400 0.913725 0.219608 0.345098
v -0.616400 0.898700 -0.437800 0.909804 0.215686 0.345098
v -0.629300 0.900800 -0.451500 0.909804 0.211765 0.345098
v -0.642200 0.902600 -0.463700 0.905882 0.207843 0.345098
v -0.655000 0.904000 -0.474100 0.901961 0.203922 0.345098
v -0.667600 0.904900 -0.482800 0.901961 0.200000 0.345098
v -0.680200 0.905500 -0.489800 0.898039 0.196078 0.345098
v -0.692600 0.905600 -0.495000 0.894118 0.196078 0.345098
v -0.704800 0.905300 -0.498300 0.894118 0.192157 0.345098
v -0.716700 0.904500 -0.499900 0.890196 0.188235 0.345098
v -0.728500 0.903200 -0.499600 0.886275 0.184314 0.345098
v -0.740100 0.901500 -0.497500 0.886275 0.180392 0.345098
v -0.751300 0.899300 -0.493700 0.882353 0.176471 0.345098
v -0.762300 0.896700 -0.488000 0.878431 0.172549 0.345098
v -0.773000 0.893500 -0.480500 0.874510 0.172549 0.345098
v -0.783400 0.889900 -0.471300 0.874510 0.168627 0.345098
v -0.793500 0.885800 -0.460400 0.870588 0.164706 0.345098
v -0.803200 0.881200 -0.447800 0.866667 0.160784 0.345098
v -0.812500 0.876200 -0.433600 0.862745 0.156863 0.345098
v -0.821400 0.870600 -0.417700 0.862745 0.156863 0.345098
v -0.829900 0.864600 -0.400400 0.858824 0.152941 0.345098
v -0.838100 0.858200 -0.381600 0.854902 0.149020 0.345098
v -0.845800 0.851200 -0.361500 0.850980 0.145098 0.345098
v -0.853000 0.843900 -0.340000 0.850980 0.141176 0.345098
v -0.859800 0.836100 -0.317200 0.847059 0.141176 0.345098
v -0.866200 0.827800 -0.293400 0.843137 0.137255 0.345098
v -0.872100 0.819200 -0.268400 0.839216 0.133333 0.345098
v -0.877500 0.810200 -0.242500 0.835294 0.129412 0.345098
v -0.882400 0.800800 -0.215700 0.835294 0.129412 0.345098
v -0.886900 0.791000 -0.188100 0.831373 0.125490 0.345098
v -0.890900 0.780900 -0.159800 0.827451 0.121569 0.345098
v -0.894400 0.770400 -0.131000 0.823529 0.117647 0.345098
v -0.897400 0.759600 -0.101600 0.819608 0.117647 0.345098
v -0.899900 0.748600 -0.071900 0.819608 0.113725 0.345098
v -0.902000 0.737200 -0.042000 0.815686 0.109804 0.345098
v -0.903600 0.725600 -0.011800 0.811765 0.109804 0.345098
v -0.904700 0.713800 0.018300 0.807843 0.105882 0.345098
v -0.905400 0.701700 0.048400 0.803922 0.101961 0.345098
v -0.905600 0.689500 0.078300 0.800000 0.101961 0.345098
v -0.905400 0.677100 0.108000 0.796078 0.098039 0.345098
v -0.904700 0.664500 0.137200 0.792157 0.094118 0.345098
v -0.903600 0.651800 0.165900 0.792157 0.094118 0.345098
v -0.902200 0.639000 0.194100 0.788235 0.090196 0.345098
v -0.900300 0.626100 0.221500 0.784314 0.086275 0.345098
v -0.898100 0.613100 0.248100 0.780392 0.086275 0.345098
v -0.895500 0.600100 0.273900 0.776471 0.082353 0.345098
v -0.892600 0.587100 0.298600 0.772549 0.078431 0.345098
v -0.889400 0.574100 0.322200 0.768627 0.078431 0.345098
v -0.885900 0.561000 0.344700 0.764706 0.074510 0.345098
v -0.882200 0.548100 0.365900 0.760784 0.074510 0.345098
v -0.878100 0.535100 0.385800 0.756863 0.070588 0.345098
v -0.873900 0.522300 0.404300 0.752941 0.070588 0.345098
v -0.869500 0.509500 0.421300 0.749020 0.066667 0.345098
v -0.864900 0.496800 0.436700 0.749020 0.062745 0.345098
v -0.860100 0.484300 0.450600 0.745098 0.062745 0.345098
v -0.855200 0.471900 0.462900 0.741176 0.058824 0.345098
v -0.850300 0.459600 0.473400 0.737255 0.058824 0.345098
v -0.845200 0.447500 0.482300 0.733333 0.054902 0.345098
v -0.840100 0.435600 0.489300 0.729412 0.054902 0.345098
v -0.835000 0.423900 0.494600 0.725490 0.050980 0.345098
v -0.830000 0.412400 0.498100 0.721569 0.050980 0.345098
v -0.824900 0.401000 0.499800 0.717647 0.047059 0.345098
v -0.820000 0.389900 0.499700 0.713725 0.047059 0.345098
v -0.815100 0.379000 0.497800 0.709804 0.043137 0.345098
v -0.810300 0.368300 0.494000 0.705882 0.043137 0.345098
v -0.805700 0.357900 0.488400 0.701961 0.039216 0.345098
v -0.801300 0.347700 0.481100 0.698039 0.039216 0.345098
v -0.797000 0.337700 0.472000 0.694118 0.039216 0.345098
v -0.793000 0.328000 0.461200 0.690196 0.035294 0.345098
v -0.789200 0.318500 0.448700 0.686275 0.035294 0.345098
v -0.785700 0.309200 0.434600 0.682353 0.031373 0.345098
v -0.782400 0.300200 0.418900 0.678431 0.031373 0.345098
v -0.779500 0.291400 0.401700 0.674510 0.031373 0.345098
v -0.776900 0.282800 0.383000 0.670588 0.027451 0.345098
v -0.774700 0.274400 0.362900 0.666667 0.027451 0.345098
v -0.772800 0.266300 0.341600 0.662745 0.023529 0.345098
v -0.771300 0.258400 0.318900 0.654902 0.023529 0.345098
v -0.770200 0.250600 0.295100 0.650980 0.023529 0.345098
v -0.769500 0.243100 0.270200 0.647059 0.019608 0.345098
v -0.769200 0.235700 0.244400 0.643137 0.019608 0.345098
v -0.769400 0.228500 0.217600 0.639216 0.019608 0.345098
v -0.770000 0.221500 0.190100 0.635294 0.015686 0.345098
v -0.771000 0.214600 0.161900 0.631373 0.015686 0.345098
v -0.772500 0.207900 0.133000 0.627451 0.015686 0.345098
v -0.774500 0.201300 0.103700 0.623529 0.015686 0.345098
v -0.776900 0.194800 0.074100 0.619608 0.011765 0.345098
v -0.779800 0.188400 0.044100 0.615686 0.011765 0.345098
v -0.783100 0.182000 0.014000 0.611765 0.011765 0.345098
v -0.786900 0.175800 -0.016200 0.607843 0.011765 0.345098
v -0.791200 0.169600 -0.046300 0.603922 0.007843 0.345098
v -0.795900 0.163400 -0.076200 0.600000 0.007843 0.345098
v -0.801100 0.157300 -0.105900 0.596078 0.007843 0.345098
v -0.806600 0.151200 -0.135100 0.588235 0.007843 0.345098
v -0.812700 0.145100 -0.163900 0.584314 0.003922 0.345098
v -0.819100 0.139000 -0.192100 0.580392 0.003922 0.345098
v -0.825900 0.132800 -0.219600 0.576471 0.003922 0.345098
v -0.833100 0.126600 -0.246300 0.572549 0.003922 0.345098
v -0.840700 0.120400 -0.272000 0.568627 0.003922 0.345098
v -0.848700 0.114100 -0.296800 0.564706 0.003922 0.345098
v -0.857000 0.107700 -0.320600 0.560784 0.000000 0.345098
v -0.865600 0.101200 -0.343100 0.556863 0.000000 0.345098
v -0.874400 0.094600 -0.364400 0.552941 0.000000 0.345098
v -0.883600 0.087900 -0.384400 0.549020 0.000000 0.345098
v -0.893000 0.081000 -0.403000 0.545098 0.000000 0.345098
v -0.902600 0.074100 -0.420100 0.537255 0.000000 0.345098
v -0.912400 0.067000 -0.435700 0.533333 0.000000 0.345098
v -0.922400 0.059700 -0.449700 0.529412 0.000000 0.345098
v -0.932600 0.052300 -0.462000 0.525490 0.000000 0.345098
v -0.942800 0.044700 -0.472700 0.521569 0.000000 0.345098
v -0.953200 0.037000 -0.481700 0.517647 0.000000 0.345098
v -0.963600 0.029100 -0.488900 0.513725 0.000000 0.345098
v -0.974000 0.021000 -0.494300 0.509804 0.000000 0.345098
v -0.984400 0.012700 -0.498000 0.505882 0.000000 0.345098
v -0.994800 0.004300 -0.499800 0.501961 0.000000 0.345098
v -1.005200 -0.004300 -0.499800 0.494118 0.000000 0.345098
v -1.015400 -0.013100 -0.498000 0.490196 0.000000 0.345098
v -1.025500 -0.022100 -0.494300 0.486275 0.000000 0.345098
v -1.035500 -0.031200 -0.488900 0.482353 0.000000 0.345098
v -1.045300 -0.040600 -0.481700 0.478431 0.000000 0.345098
v -1.054900 -0.050000 -0.472700 0.474510 0.000000 0.345098
v -1.064300 -0.059700 -0.462000 0.470588 0.000000 0.345098
v -1.073400 -0.069500 -0.449700 0.466667 0.000000 0.345098
v -1.082200 -0.079400 -0.435700 0.462745 0.000000 0.345098
v -1.090700 -0.089500 -0.420100 0.458824 0.000000 0.345098
v -1.098800 -0.099700 -0.403000 0.450980 0.000000 0.345098
v -1.106600 -0.110000 -0.384400 0.447059 0.000000 0.345098
v -1.114000 -0.120500 -0.364400 0.443137 0.000000 0.345098
v -1.120900 -0.131000 -0.343100 0.439216 0.000000 0.345098
v -1.127400 -0.141600 -0.320600 0.435294 0.000000 0.345098
v -1.133500 -0.152300 -0.296800 0.431373 0.003922 0.345098
v -1.139100 -0.163100 -0.272000 0.427451 0.003922 0.345098
v -1.144100 -0.173900 -0.246300 0.423529 0.003922 0.345098
v -1.148700 -0.184700 -0.219600 0.419608 0.003922 0.345098
v -1.152700 -0.195600 -0.192100 0.415686 0.003922 0.345098
v -1.156200 -0.206400 -0.163900 0.411765 0.003922 0.345098
v -1.159100 -0.217300 -0.135100 0.407843 0.007843 0.345098
v -1.161500 -0.228100 -0.105900 0.400000 0.007843 0.345098
v -1.163200 -0.238900 -0.076200 0.396078 0.007843 0.345098
v -1.164400 -0.249600 -0.046300 0.392157 0.007843 0.345098
v -1.165000 -0.260200 -0.016200 0.388235 0.011765 0.345098
v -1.164900 -0.270800 0.014000 0.384314 0.011765 0.345098
v -1.164300 -0.281300 0.044100 0.380392 0.011765 0.345098
v -1.163100 -0.291600 0.074100 0.376471 0.011765 0.345098
v -1.161200 -0.301800 0.103700 0.372549 0.015686 0.345098
v -1.158800 -0.311800 0.133000 0.368627 0.015686 0.345098
v -1.155700 -0.321700 0.161900 0.364706 0.015686 0.345098
v -1.152100 -0.331400 0.190100 0.360784 0.015686 0.345098
v -1.147800 -0.340900 0.217600 0.356863 0.019608 0.345098
v -1.143000 -0.350300 0.244400 0.352941 0.019608 0.345098
v -1.137600 -0.359400 0.270200 0.349020 0.019608 0.345098
v -1.131600 -0.368200 0.295100 0.345098 0.023529 0.345098
v -1.125100 -0.376900 0.318900 0.341176 0.023529 0.345098
v -1.118100 -0.385300 0.341600 0.333333 0.023529 0.345098
v -1.110500 -0.393400 0.362900 0.329412 0.027451 0.345098
v -1.102500 -0.401300 0.383000 0.325490 0.027451 0.345098
v -1.093900 -0.408900 0.401700 0.321569 0.031373 0.345098
v -1.084900 -0.416200 0.418900 0.317647 0.031373 0.345098
v -1.075400 -0.423200 0.434600 0.313725 0.031373 0.345098
v -1.065500 -0.430000 0.448700 0.309804 0.035294 0.345098
v -1.055200 -0.436400 0.461200 0.305882 0.035294 0.345098
v -1.044500 -0.442600 0.472000 0.301961 0.039216 0.345098
v -1.033500 -0.448400 0.481100 0.298039 0.039216 0.345098
v -1.022100 -0.454000 0.488400 0.294118 0.039216 0.345098
v -1.010400 -0.459300 0.494000 0.290196 0.043137 0.345098
v -0.998500 -0.464300 0.497800 0.286275 0.043137 0.345098
v -0.986200 -0.469000 0.499700 0.282353 0.047059 0.345098
v -0.973800 -0.473400 0.499800 0.278431 0.047059 0.345098
v -0.961100 -0.477500 0.498100 0.274510 0.050980 0.345098
v -0.948300 -0.481400 0.494600 0.270588 0.050980 0.345098
v -0.935400 -0.485000 0.489300 0.266667 0.054902 0.345098
v -0.922300 -0.488400 0.482300 0.262745 0.054902 0.345098
v -0.909100 -0.491500 0.473400 0.258824 0.058824 0.345098
v -0.895900 -0.494300 0.462900 0.254902 0.058824 0.345098
v -0.882600 -0.497000 0.450600 0.250980 0.062745 0.345098
v -0.869300 -0.499400 0.436700 0.247059 0.062745 0.345098
v -0.856100 -0.501700 0.421300 0.247059 0.066667 0.345098
v -0.842900 -0.503700 0.404300 0.243137 0.070588 0.345098
v -0.829700 -0.505600 0.385800 0.239216 0.070588 0.345098
v -0.816700 -0.507400 0.365900 0.235294 0.074510 0.345098
v -0.803700 -0.509000 0.344700 0.231373 0.074510 0.345098
v -0.791000 -0.510500 0.322200 0.227451 0.078431 0.345098
v -0.778300 -0.511900 0.298600 0.223529 0.078431 0.345098
v -0.765900 -0.513300 0.273900 0.219608 0.082353 0.345098
v -0.753700 -0.514500 0.248100 0.215686 0.086275 0.345098
v -0.741700 -0.515800 0.221500 0.211765 0.086275 0.345098
v -0.729900 -0.517000 0.194100 0.207843 0.090196 0.345098
v -0.718400 -0.518200 0.165900 0.203922 0.094118 0.345098
v -0.707200 -0.519400 0.137200 0.203922 0.094118 0.345098
v -0.696300 -0.520700 0.108000 0.200000 0.098039 0.345098
v -0.685700 -0.522100 0.078300 0.196078 0.101961 0.345098
v -0.675400 -0.523500 0.048400 0.192157 0.101961 0.345098
v -0.665500 -0.525000 0.018300 0.188235 0.105882 0.345098
v -0.655800 -0.526700 -0.011800 0.184314 0.109804 0.345098
v -0.646600 -0.528500 -0.042000 0.180392 0.109804 0.345098
v -0.637700 -0.530400 -0.071900 0.176471 0.113725 0.345098
v -0.629100 -0.532500 -0.101600 0.176471 0.117647 0.345098
v -0.621000 -0.534900 -0.131000 0.172549 0.117647 0.345098
v -0.613200 -0.537400 -0.159800 0.168627 0.121569 0.345098
v -0.605700 -0.540200 -0.188100 0.164706 0.125490 0.345098
v -0.598700 -0.543300 -0.215700 0.160784 0.129412 0.345098
v -0.592000 -0.546600 -0.242500 0.160784 0.129412 0.345098
v -0.585600 -0.550100 -0.268400 0.156863 0.133333 0.345098
v -0.579700 -0.554000 -0.293400 0.152941 0.137255 0.345098
v -0.574100 -0.558200 -0.317200 0.149020 0.141176 0.345098
v -0.568800 -0.562700 -0.340000 0.145098 0.141176 0.345098
v -0.563900 -0.567500 -0.361500 0.145098 0.145098 0.345098
v -0.559300 -0.572700 -0.381600 0.141176 0.149020 0.345098
v -0.555000 -0.578200 -0.400400 0.137255 0.152941 0.345098
v -0.551100 -0.584100 -0.417700 0.133333 0.156863 0.345098
v -0.547400 -0.590300 -0.433600 0.133333 0.156863 0.345098
v -0.544100 -0.596900 -0.447800 0.129412 0.160784 0.345098
v -0.541000 -0.603900 -0.460400 0.125490 0.164706 0.345098
v -0.538100 -0.611300 -0.471300 0.121569 0.168627 0.345098
v -0.535500 -0.619000 -0.480500 0.121569 0.172549 0.345098
v -0.533100 -0.627100 -0.488000 0.117647 0.172549 0.345098
v -0.530900 -0.635500 -0.493700 0.113725 0.176471 0.345098
v -0.528900 -0.644300 -0.497500 0.109804 0.180392 0.345098
v -0.527100 -0.653500 -0.499600 0.109804 0.184314 0.345098
v -0.525400 -0.663000 -0.499900 0.105882 0.188235 0.345098
v -0.523900 -0.672900 -0.498300 0.101961 0.192157 0.345098
v -0.522400 -0.683100 -0.495000 0.101961 0.196078 0.345098
v -0.521000 -0.693600 -0.489800 0.098039 0.196078 0.345098
v -0.519700 -0.704500 -0.482800 0.094118 0.200000 0.345098
v -0.518500 -0.715600 -0.474100 0.094118 0.203922 0.345098
v -0.517300 -0.727000 -0.463700 0.090196 0.207843 0.345098
v -0.516100 -0.738700 -0.451500 0.086275 0.211765 0.345098
v -0.514800 -0.750700 -0.437800 0.086275 0.215686 0.345098
v -0.513600 -0.762800 -0.422400 0.082353 0.219608 0.345098
v -0.512300 -0.775200 -0.405500 0.082353 0.223529 0.345098
v -0.510900 -0.787800 -0.387100 0.078431 0.227451 0.345098
v -0.509400 -0.800500 -0.367400 0.074510 0.231373 0.345098
v -0.507800 -0.813400 -0.346200 0.074510 0.231373 0.345098
v -0.506100 -0.826500 -0.323900 0.070588 0.235294 0.345098
v -0.504200 -0.839600 -0.300300 0.070588 0.239216 0.345098
v -0.502200 -0.852800 -0.275700 0.066667 0.243137 0.345098
v -0.500000 -0.866000 -0.250000 0.066667 0.247059 0.345098
v -0.497600 -0.879300 -0.223400 0.062745 0.250980 0.345098
v -0.495000 -0.892600 -0.196100 0.058824 0.254902 0.345098
v -0.492200 -0.905800 -0.168000 0.058824 0.258824 0.345098
v -0.489200 -0.919000 -0.139300 0.054902 0.262745 0.345098
v -0.485900 -0.932100 -0.110100 0.054902 0.266667 0.345098
v -0.482300 -0.945100 -0.080500 0.050980 0.270588 0.345098
v -0.478500 -0.958000 -0.050500 0.050980 0.274510 0.345098
v -0.474500 -0.970600 -0.020500 0.047059 0.278431 0.345098
v -0.470100 -0.983100 0.009700 0.047059 0.282353 0.345098
v -0.465500 -0.995400 0.039800 0.047059 0.286275 0.345098
v -0.460600 -1.007400 0.069800 0.043137 0.290196 0.345098
v -0.455400 -1.019200 0.099500 0.043137 0.294118 0.345098
v -0.449900 -1.030700 0.128900 0.039216 0.298039 0.345098
v -0.444100 -1.041800 0.157800 0.039216 0.301961 0.345098
v -0.438000 -1.052600 0.186100 0.035294 0.305882 0.345098
v -0.431600 -1.063000 0.213700 0.035294 0.309804 0.345098
v -0.424900 -1.073000 0.240600 0.031373 0.313725 0.345098
v -0.418000 -1.082500 0.266600 0.031373 0.317647 0.345098
v -0.410700 -1.091700 0.291600 0.031373 0.321569 0.345098
v -0.403200 -1.100400 0.315600 0.027451 0.325490 0.345098
v -0.395400 -1.108600 0.338400 0.027451 0.329412 0.345098
v -0.387300 -1.116200 0.360000 0.027451 0.333333 0.345098
v -0.379000 -1.123400 0.380200 0.023529 0.337255 0.345098
v -0.370400 -1.130100 0.399100 0.023529 0.341176 0.345098
v -0.361600 -1.136200 0.416600 0.023529 0.345098 0.345098
v -0.352600 -1.141700 0.432500 0.019608 0.349020 0.345098
v -0.343300 -1.146700 0.446800 0.019608 0.352941 0.345098
v -0.333800 -1.151100 0.459500 0.019608 0.356863 0.345098
v -0.324200 -1.154900 0.470600 0.015686 0.364706 0.345098
v -0.314300 -1.158100 0.479900 0.015686 0.368627 0.345098
v -0.304300 -1.160700 0.487500 0.015686 0.372549 0.345098
v -0.294100 -1.162700 0.493300 0.011765 0.376471 0.345098
v -0.283800 -1.164100 0.497300 0.011765 0.380392 0.345098
v -0.273400 -1.164800 0.499500 0.011765 0.384314 0.345098
v -0.262900 -1.165000 0.499900 0.011765 0.388235 0.345098
v -0.252300 -1.164600 0.498500 0.007843 0.392157 0.345098
v -0.241600 -1.163600 0.495300 0.007843 0.396078 0.345098
v -0.230800 -1.162000 0.490200 0.007843 0.400000 0.345098
v -0.220000 -1.159800 0.483400 0.007843 0.403922 0.345098
v -0.209200 -1.157000 0.474800 0.007843 0.407843 0.345098
v -0.198300 -1.153600 0.464500 0.003922 0.411765 0.345098
v -0.187400 -1.149800 0.452500 0.003922 0.415686 0.345098
v -0.176600 -1.145300 0.438800 0.003922 0.423529 0.345098
v -0.165800 -1.140400 0.423600 0.003922 0.427451 0.345098
v -0.155000 -1.134900 0.406800 0.003922 0.431373 0.345098
v -0.144300 -1.129000 0.388500 0.003922 0.435294 0.345098
v -0.133700 -1.122600 0.368800 0.000000 0.439216 0.345098
v -0.123100 -1.115700 0.347800 0.000000 0.443137 0.345098
v -0.112600 -1.108500 0.325500 0.000000 0.447059 0.345098
v -0.102300 -1.100800 0.302000 0.000000 0.450980 0.345098
v -0.092000 -1.092800 0.277400 0.000000 0.454902 0.345098
v -0.081900 -1.084400 0.251900 0.000000 0.458824 0.345098
v -0.072000 -1.075600 0.225400 0.000000 0.462745 0.345098
v -0.062100 -1.066600 0.198000 0.000000 0.470588 0.345098
v -0.052400 -1.057300 0.170000 0.000000 0.474510 0.345098
v -0.042900 -1.047800 0.141300 0.000000 0.478431 0.345098
v -0.033600 -1.038000 0.112200 0.000000 0.482353 0.345098
v -0.024400 -1.028100 0.082600 0.000000 0.486275 0.345098
v -0.015400 -1.018000 0.052700 0.000000 0.490196 0.345098
v -0.006500 -1.007700 0.022600 0.000000 0.494118 0.345098
v 0.002100 -0.997400 -0.007500 0.000000 0.498039 0.345098
v 0.010600 -0.987000 -0.037700 0.000000 0.501961 0.345098
v 0.018900 -0.976600 -0.067700 0.000000 0.505882 0.345098
v 0.027100 -0.966200 -0.097400 0.000000 0.513725 0.345098
v 0.035000 -0.955800 -0.126800 0.000000 0.517647 0.345098
v 0.042800 -0.945400 -0.155700 0.000000 0.521569 0.345098
v 0.050400 -0.935100 -0.184100 0.000000 0.525490 0.345098
v 0.057900 -0.925000 -0.211800 0.000000 0.529412 0.345098
v 0.065200 -0.914900 -0.238700 0.000000 0.533333 0.345098
v 0.072300 -0.905100 -0.264800 0.000000 0.537255 0.345098
v 0.079300 -0.895400 -0.289900 0.000000 0.541176 0.345098
v 0.086200 -0.885900 -0.313900 0.000000 0.545098 0.345098
v 0.092900 -0.876700 -0.336800 0.000000 0.549020 0.345098
v 0.099500 -0.867700 -0.358500 0.000000 0.556863 0.345098
v 0.106000 -0.859100 -0.378800 0.000000 0.560784 0.345098
v 0.112500 -0.850700 -0.397800 0.003922 0.564706 0.345098
v 0.118800 -0.842700 -0.415400 0.003922 0.568627 0.345098
v 0.125100 -0.835000 -0.431400 0.003922 0.572549 0.345098
v 0.131300 -0.827700 -0.445800 0.003922 0.576471 0.345098
v 0.137400 -0.820800 -0.458700 0.003922 0.580392 0.345098
v 0.143600 -0.814200 -0.469800 0.003922 0.584314 0.345098
v 0.149700 -0.808100 -0.479300 0.007843 0.588235 0.345098
v 0.155800 -0.802400 -0.487000 0.007843 0.592157 0.345098
v 0.161900 -0.797100 -0.493000 0.007843 0.596078 0.345098
v 0.168100 -0.792300 -0.497100 0.007843 0.600000 0.345098
v 0.174200 -0.787900 -0.499400 0.011765 0.607843 0.345098
v 0.180500 -0.784000 -0.500000 0.011765 0.611765 0.345098
v 0.186800 -0.780600 -0.498700 0.011765 0.615686 0.345098
v 0.193200 -0.777600 -0.495500 0.011765 0.619608 0.345098
v 0.199600 -0.775000 -0.490600 0.015686 0.623529 0.345098
v 0.206200 -0.773000 -0.483900 0.015686 0.627451 0.345098
v 0.212900 -0.771400 -0.475500 0.015686 0.631373 0.345098
v 0.219800 -0.770200 -0.465300 0.015686 0.635294 0.345098
v 0.226800 -0.769500 -0.453400 0.019608 0.639216 0.345098
v 0.233900 -0.769200 -0.439800 0.019608 0.643137 0.345098
v 0.241200 -0.769400 -0.424700 0.019608 0.647059 0.345098
v 0.248700 -0.770000 -0.408000 0.023529 0.650980 0.345098
v 0.256400 -0.771000 -0.389900 0.023529 0.654902 0.345098
v 0.264300 -0.772400 -0.370300 0.023529 0.658824 0.345098
v 0.272400 -0.774200 -0.349300 0.027451 0.662745 0.345098
v 0.280700 -0.776300 -0.327100 0.027451 0.666667 0.345098
v 0.289200 -0.778800 -0.303700 0.027451 0.670588 0.345098
v 0.297900 -0.781700 -0.279200 0.031373 0.674510 0.345098
v 0.306900 -0.784800 -0.253700 0.031373 0.678431 0.345098
v 0.316100 -0.788300 -0.227300 0.035294 0.682353 0.345098
v 0.325600 -0.792000 -0.200000 0.035294 0.686275 0.345098
v 0.335200 -0.796000 -0.172000 0.035294 0.690196 0.345098
v 0.345200 -0.800200 -0.143400 0.039216 0.698039 0.345098
v 0.355300 -0.804600 -0.114300 0.039216 0.701961 0.345098
v 0.365700 -0.809100 -0.084700 0.043137 0.705882 0.345098
v 0.376300 -0.813900 -0.054800 0.043137 0.709804 0.345098
v 0.387200 -0.818700 -0.024800 0.047059 0.713725 0.345098
v 0.398200 -0.823700 0.005400 0.047059 0.713725 0.345098
v 0.409500 -0.828700 0.035500 0.050980 0.717647 0.345098
v 0.421000 -0.833800 0.065500 0.050980 0.721569 0.345098
v 0.432700 -0.838900 0.095300 0.054902 0.725490 0.345098
v 0.444500 -0.844000 0.124700 0.054902 0.729412 0.345098
v 0.456600 -0.849000 0.153700 0.058824 0.733333 0.345098
v 0.468800 -0.854000 0.182100 0.058824 0.737255 0.345098
v 0.481200 -0.858900 0.209800 0.062745 0.741176 0.345098
v 0.493700 -0.863700 0.236800 0.062745 0.745098 0.345098
v 0.506300 -0.868300 0.262900 0.066667 0.749020 0.345098
v 0.519100 -0.872800 0.288100 0.066667 0.752941 0.345098
v 0.531900 -0.877100 0.312200 0.070588 0.756863 0.345098
v 0.544800 -0.881200 0.335200 0.074510 0.760784 0.345098
v 0.557800 -0.885000 0.357000 0.074510 0.764706 0.345098
v 0.570800 -0.888600 0.377400 0.078431 0.768627 0.345098
v 0.583800 -0.891900 0.396500 0.078431 0.772549 0.345098
v 0.596900 -0.894800 0.414200 0.082353 0.776471 0.345098
v 0.609900 -0.897500 0.430300 0.086275 0.780392 0.345098
v 0.622900 -0.899800 0.444900 0.086275 0.784314 0.345098
v 0.635800 -0.901800 0.457800 0.090196 0.784314 0.345098
v 0.648600 -0.903300 0.469100 0.090196 0.788235 0.345098
v 0.661300 -0.904500 0.478700 0.094118 0.792157 0.345098
v 0.673900 -0.905200 0.486500 0.098039 0.796078 0.345098
v 0.686400 -0.905600 0.492600 0.098039 0.800000 0.345098
v 0.698700 -0.905500 0.496900 0.101961 0.803922 0.345098
v 0.710800 -0.904900 0.499300 0.105882 0.807843 0.345098
v 0.722700 -0.903900 0.500000 0.105882 0.811765 0.345098
v 0.734300 -0.902400 0.498800 0.109804 0.811765 0.345098
v 0.745700 -0.900500 0.495800 0.113725 0.815686 0.345098
v 0.756900 -0.898100 0.491000 0.117647 0.819608 0.345098
v 0.767700 -0.895200 0.484500 0.117647 0.823529 0.345098
v 0.778300 -0.891800 0.476100 0.121569 0.827451 0.345098
v 0.788500 -0.887900 0.466100 0.125490 0.831373 0.345098
v 0.798400 -0.883600 0.454300 0.125490 0.831373 0.345098
v 0.807900 -0.878800 0.440900 0.129412 0.835294 0.345098
v 0.817000 -0.873500 0.425800 0.133333 0.839216 0.345098
v 0.825700 -0.867700 0.409300 0.137255 0.843137 0.345098
v 0.834100 -0.861500 0.391200 0.137255 0.847059 0.345098
v 0.842000 -0.854800 0.371700 0.141176 0.847059 0.345098
v 0.849400 -0.847600 0.350900 0.145098 0.850980 0.345098
v 0.856500 -0.840000 0.328800 0.149020 0.854902 0.345098
v 0.863100 -0.832000 0.305400 0.152941 0.858824 0.345098
v 0.869200 -0.823600 0.281000 0.152941 0.862745 0.345098
v 0.874800 -0.814700 0.255600 0.156863 0.862745 0.345098
v 0.880000 -0.805500 0.229200 0.160784 0.866667 0.345098
v 0.884700 -0.795900 0.202000 0.164706 0.870588 0.345098
v 0.888900 -0.786000 0.174000 0.168627 0.874510 0.345098
v 0.892700 -0.775700 0.145500 0.168627 0.874510 0.345098
v 0.895900 -0.765000 0.116400 0.172549 0.878431 0.345098
v 0.898700 -0.754100 0.086800 0.176471 0.882353 0.345098
v 0.901000 -0.742900 0.057000 0.180392 0.882353 0.345098
v 0.902900 -0.731400 0.026900 0.184314 0.886275 0.345098
v 0.904200 -0.719700 -0.003200 0.188235 0.890196 0.345098
v 0.905100 -0.707800 -0.033400 0.188235 0.890196 0.345098
v 0.905500 -0.695600 -0.063400 0.192157 0.894118 0.345098
v 0.905500 -0.683300 -0.093200 0.196078 0.898039 0.345098
v 0.905100 -0.670800 -0.122600 0.200000 0.898039 0.345098
v 0.904200 -0.658200 -0.151600 0.203922 0.901961 0.345098
v 0.903000 -0.645400 -0.180100 0.207843 0.905882 0.345098
v 0.901300 -0.632500 -0.207900 0.211765 0.905882 0.345098
v 0.899300 -0.619600 -0.234900 0.215686 0.909804 0.345098
v 0.896900 -0.606600 -0.261100 0.219608 0.913725 0.345098
v 0.894100 -0.593600 -0.286300 0.219608 0.913725 0.345098
v 0.891100 -0.580600 -0.310500 0.223529 0.917647 0.345098
v 0.887700 -0.567600 -0.333600 0.227451 0.917647 0.345098
v 0.884100 -0.554600 -0.355500 0.231373 0.921569 0.345098
v 0.880200 -0.541600 -0.376000 0.235294 0.925490 0.345098
v 0.876000 -0.528700 -0.395200 0.239216 0.925490 0.345098
v 0.871700 -0.515900 -0.412900 0.243137 0.929412 0.345098
v 0.867200 -0.503200 -0.429200 0.247059 0.929412 0.345098
v 0.862500 -0.490600 -0.443900 0.250980 0.933333 0.345098
v 0.857700 -0.478100 -0.456900 0.254902 0.933333 0.345098
v 0.852800 -0.465700 -0.468400 0.258824 0.937255 0.345098
v 0.847700 -0.453600 -0.478100 0.262745 0.937255 0.345098
v 0.842700 -0.441600 -0.486000 0.266667 0.941176 0.345098
v 0.837600 -0.429700 -0.492200 0.270588 0.941176 0.345098
v 0.832500 -0.418100 -0.496600 0.274510 0.945098 0.345098
v 0.827400 -0.406700 -0.499200 0.278431 0.945098 0.345098
v 0.822400 -0.395400 -0.500000 0.282353 0.949020 0.345098
v 0.817500 -0.384400 -0.499000 0.286275 0.949020 0.345098
v 0.812700 -0.373600 -0.496100 0.290196 0.952941 0.345098
v 0.808000 -0.363100 -0.491400 0.294118 0.952941 0.345098
v 0.803500 -0.352800 -0.485000 0.298039 0.956863 0.345098
v 0.799100 -0.342700 -0.476800 0.301961 0.956863 0.345098
v 0.795000 -0.332800 -0.466800 0.305882 0.960784 0.345098
v 0.791100 -0.323200 -0.455200 0.309804 0.960784 0.345098
v 0.787400 -0.313800 -0.441900 0.313725 0.960784 0.345098
v 0.784000 -0.304600 -0.427000 0.317647 0.964706 0.345098
v 0.780900 -0.295700 -0.410500 0.321569 0.964706 0.345098
v 0.778200 -0.287000 -0.392500 0.325490 0.968627 0.345098
v 0.775800 -0.278600 -0.373200 0.329412 0.968627 0.345098
v 0.773700 -0.270300 -0.352400 0.333333 0.968627 0.345098
v 0.772000 -0.262300 -0.330400 0.337255 0.972549 0.345098
v 0.770700 -0.254500 -0.307200 0.341176 0.972549 0.345098
v 0.769800 -0.246800 -0.282800 0.345098 0.972549 0.345098
v 0.769300 -0.239400 -0.257400 0.349020 0.976471 0.345098
v 0.769200 -0.232100 -0.231100 0.352941 0.976471 0.345098
v 0.769600 -0.225000 -0.204000 0.356863 0.976471 0.345098
v 0.770400 -0.218000 -0.176100 0.360784 0.980392 0.345098
v 0.771700 -0.211200 -0.147500 0.364706 0.980392 0.345098
v 0.773400 -0.204600 -0.118500 0.368627 0.980392 0.345098
v 0.775600 -0.198000 -0.088900 0.372549 0.984314 0.345098
v 0.778300 -0.191600 -0.059100 0.380392 0.984314 0.345098
v 0.781400 -0.185200 -0.029100 0.384314 0.984314 0.345098
v 0.785000 -0.178900 0.001100 0.388235 0.984314 0.345098
v 0.789000 -0.172700 0.031200 0.392157 0.988235 0.345098
v 0.793500 -0.166500 0.061300 0.396078 0.988235 0.345098
v 0.798400 -0.160400 0.091100 0.400000 0.988235 0.345098
v 0.803800 -0.154300 0.120500 0.403922 0.988235 0.345098
v 0.809600 -0.148200 0.149600 0.407843 0.988235 0.345098
v 0.815800 -0.142000 0.178100 0.411765 0.992157 0.345098
v 0.822500 -0.135900 0.205900 0.415686 0.992157 0.345098
v 0.829500 -0.129700 0.233000 0.419608 0.992157 0.345098
v 0.836900 -0.123500 0.259300 0.423529 0.992157 0.345098
v 0.844700 -0.117200 0.284600 0.427451 0.992157 0.345098
v 0.852800 -0.110900 0.308800 0.435294 0.992157 0.345098
v 0.861200 -0.104400 0.332000 0.439216 0.996078 0.345098
v 0.870000 -0.097900 0.353900 0.443137 0.996078 0.345098
v 0.879000 -0.091200 0.374600 0.447059 0.996078 0.345098
v 0.888300 -0.084500 0.393900 0.450980 0.996078 0.345098
v 0.897800 -0.077600 0.411700 0.454902 0.996078 0.345098
v 0.907500 -0.070500 0.428100 0.458824 0.996078 0.345098
v 0.917400 -0.063400 0.442900 0.462745 0.996078 0.345098
v 0.927500 -0.056000 0.456100 0.466667 0.996078 0.345098
v 0.937700 -0.048500 0.467600 0.470588 0.996078 0.345098
v 0.948000 -0.040900 0.477400 0.478431 0.996078 0.345098
v 0.958400 -0.033100 0.485500 0.482353 0.996078 0.345098
v 0.968800 -0.025100 0.491800 0.486275 0.996078 0.345098
v 0.979200 -0.016900 0.496400 0.490196 0.996078 0.345098
v 0.989600 -0.008500 0.499100 0.494118 0.996078 0.345098
f 287 391 444
f 391 444 340
f 444 340 390
f 340 390 495
f 390 495 286
f 495 286 236
f 286 236 341
f 236 341 445
f 341 445 389
f 445 389 285
f 389 285 388
f 285 388 342
f 388 342 494
f 342 494 446
f 494 446 284
f 446 284 387
f 284 387 237
f 387 237 343
f 237 343 386
f 343 386 283
f 386 283 447
f 283 447 385
f 447 385 493
f 385 493 344
f 493 344 282
f 344 282 238
f 282 238 384
f 238 384 345
f 384 345 448
f 345 448 281
f 448 281 383
f 281 383 492
f 383 492 346
f 492 346 382
f 346 382 280
f 382 280 239
f 280 239 449
f 239 449 381
f 449 381 347
f 381 347 279
f 347 279 380
f 279 380 491
f 380 491 348
f 491 348 379
f 348 379 278
f 379 278 240
f 278 240 450
f 240 450 349
f 450 349 378
f 349 378 277
f 378 277 490
f 277 490 377
f 490 377 350
f 377 350 451
f 350 451 241
f 451 241 376
f 241 376 276
f 376 276 351
f 276 351 375
f 351 375 489
f 375 489 352
f 489 352 275
f 352 275 374
f 275 374 452
f 374 452 242
f 452 242 353
f 242 353 373
f 353 373 274
f 373 274 372
f 274 372 354
f 372 354 371
f 354 371 488
f 371 488 355
f 488 355 273
f 355 273 453
f 273 453 243
f 453 243 370
f 243 370 356
f 370 356 369
f 356 369 357
f 369 357 368
f 357 368 272
f 368 272 358
f 272 358 367
f 358 367 359
f 367 359 366
f 359 366 487
f 366 487 244
f 487 244 360
f 244 360 365
f 360 365 361
f 365 361 364
f 361 364 454
f 364 454 362
f 454 362 363
f 362 363 271
f 363 271 270
f 271 270 245
f 270 245 486
f 245 486 455
f 486 455 269
f 455 269 246
f 269 246 268
f 246 268 485
f 268 485 456
f 485 456 247
f 456 247 267
f 247 267 266
f 267 266 248
f 266 248 484
f 248 484 265
f 484 265 457
f 265 457 249
f 457 249 264
f 249 264 250
f 264 250 263
f 250 263 483
f 263 483 458
f 483 458 262
f 458 262 251
f 262 251 261
f 251 261 252
f 261 252 260
f 252 260 253
f 260 253 259
f 253 259 254
f 259 254 258
f 254 258 482
f 258 482 459
f 482 459 255
f 459 255 257
f 255 257 256
f 257 256 481
f 256 481 460
f 481 460 480
f 460 480 461
f 480 461 479
f 461 479 462
f 479 462 478
f 462 478 463
f 478 463 477
f 463 477 464
f 477 464 476
f 464 476 465
f 476 465 475
f 465 475 466
f 475 466 474
f 466 474 467
f 474 467 473
f 467 473 468
f 473 468 472
f 468 472 469
f 472 469 471
f 469 471 470
f 471 470 557
f 470 557 556
f 557 556 555
f 556 555 558
f 555 558 554
f 558 554 559
f 554 559 553
f 559 553 560
f 553 560 552
f 560 552 561
f 552 561 551
f 561 551 550
f 551 550 562
f 550 562 548
f 562 548 549
f 548 549 563
f 549 563 564
f 563 564 182
f 564 182 565
f 182 565 181
f 565 181 183
f 181 183 566
f 183 566 180
f 566 180 567
f 180 567 179
f 567 179 568
f 179 568 178
f 568 178 177
f 178 177 569
f 177 569 176
f 569 176 570
f 176 570 175
f 570 175 571
f 175 571 174
f 571 174 173
f 174 173 572
f 173 572 172
f 572 172 573
f 172 573 171
f 573 171 170
f 171 170 574
f 170 574 169
f 574 169 575
f 169 575 168
f 575 168 167
f 168 167 576
f 167 576 166
f 576 166 577
f 166 577 165
f 577 165 164
f 165 164 578
f 164 578 163
f 578 163 162
f 163 162 579
f 162 579 161
f 579 161 580
f 161 580 160
f 580 160 159
f 160 159 581
f 159 581 158
f 581 158 582
f 158 582 157
f 582 157 156
f 157 156 583
f 156 583 155
f 583 155 584
f 155 584 154
f 584 154 153
f 154 153 585
f 153 585 152
f 585 152 151
f 152 151 586
f 151 586 150
f 586 150 587
f 150 587 149
f 587 149 148
f 149 148 588
f 148 588 147
f 588 147 589
f 147 589 146
f 589 146 145
f 146 145 590
f 145 590 144
f 590 144 591
f 144 591 143
f 591 143 142
f 143 142 592
f 142 592 141
f 592 141 593
f 141 593 680
f 593 680 679
f 680 679 681
f 679 681 678
f 681 678 682
f 678 682 677
f 682 677 140
f 677 140 683
f 140 683 676
f 683 676 675
f 676 675 684
f 675 684 674
f 684 674 685
f 674 685 673
f 685 673 686
f 673 686 672
f 686 672 687
f 672 687 671
f 687 671 139
f 671 139 688
f 139 688 57
f 688 57 56
f 57 56 58
f 56 58 55
f 58 55 59
f 55 59 54
f 59 54 670
f 54 670 60
f 670 60 594
f 60 594 53
f 594 53 61
f 53 61 689
f 61 689 52
f 689 52 62
f 52 62 669
f 62 669 51
f 669 51 63
f 51 63 50
f 63 50 690
f 50 690 668
f 690 668 64
f 668 64 49
f 64 49 138
f 49 138 48
f 138 48 65
f 48 65 691
f 65 691 667
f 691 667 47
f 667 47 66
f 47 66 46
f 66 46 692
f 46 692 666
f 692 666 67
f 666 67 595
f 67 595 45
f 595 45 665
f 45 665 693
f 665 693 68
f 693 68 44
f 68 44 137
f 44 137 43
f 137 43 664
f 43 664 69
f 664 69 694
f 69 694 42
f 694 42 663
f 42 663 70
f 663 70 41
f 70 41 695
f 41 695 596
f 695 596 136
f 596 136 662
f 136 662 40
f 662 40 71
f 40 71 696
f 71 696 39
f 696 39 661
f 39 661 72
f 661 72 38
f 72 38 697
f 38 697 660
f 697 660 135
f 660 135 37
f 135 37 73
f 37 73 597
f 73 597 659
f 597 659 698
f 659 698 36
f 698 36 74
f 36 74 35
f 74 35 658
f 35 658 699
f 658 699 134
f 699 134 34
f 134 34 75
f 34 75 657
f 75 657 700
f 657 700 33
f 700 33 598
f 33 598 656
f 598 656 76
f 656 76 32
f 76 32 133
f 32 133 701
f 133 701 655
f 701 655 31
f 655 31 77
f 31 77 30
f 77 30 702
f 30 702 654
f 702 654 599
f 654 599 132
f 599 132 29
f 132 29 78
f 29 78 703
f 78 703 653
f 703 653 28
f 653 28 79
f 28 79 652
f 79 652 27
f 652 27 704
f 27 704 131
f 704 131 600
f 131 600 26
f 600 26 651
f 26 651 705
f 651 705 80
f 705 80 25
f 80 25 650
f 25 650 130
f 650 130 706
f 130 706 24
f 706 24 601
f 24 601 81
f 601 81 649
f 81 649 23
f 649 23 707
f 23 707 22
f 707 22 648
f 22 648 129
f 648 129 82
f 129 82 708
f 82 708 21
f 708 21 602
f 21 602 647
f 602 647 20
f 647 20 709
f 20 709 83
f 709 83 646
f 83 646 128
f 646 128 19
f 128 19 710
f 19 710 603
f 710 603 18
f 603 18 645
f 18 645 84
f 645 84 711
f 84 711 17
f 711 17 127
f 17 127 644
f 127 644 16
f 644 16 604
f 16 604 712
f 604 712 85
f 712 85 643
f 85 643 15
f 643 15 713
f 15 713 126
f 713 126 14
f 126 14 642
f 14 642 86
f 642 86 605
f 86 605 714
f 605 714 13
f 714 13 641
f 13 641 12
f 641 12 715
f 12 715 125
f 715 125 11
f 125 11 640
f 11 640 87
f 640 87 716
f 87 716 606
f 716 606 10
f 606 10 717
f 10 717 9
f 717 9 639
f 9 639 124
f 639 124 718
f 124 718 8
f 718 8 88
f 8 88 607
f 88 607 7
f 607 7 638
f 7 638 719
f 638 719 6
f 719 6 720
f 6 720 5
f 720 5 637
f 5 637 721
f 637 721 123
f 721 123 4
f 123 4 608
f 4 608 89
f 608 89 722
f 89 722 3
f 722 3 723
f 3 723 2
f 723 2 636
f 2 636 724
f 636 724 1
f 724 1 725
f 1 725 729
f 725 729 726
f 729 726 728
f 726 728 727
f 728 727 609
f 727 609 635
f 609 635 122
f 635 122 90
f 122 90 634
f 90 634 610
f 634 610 633
f 610 633 121
f 633 121 91
f 121 91 611
f 91 611 632
f 611 632 631
f 632 631 612
f 631 612 120
f 612 120 92
f 120 92 630
f 92 630 613
f 630 613 629
f 613 629 119
f 629 119 614
f 119 614 93
f 614 93 628
f 93 628 615
f 628 615 627
f 615 627 626
f 627 626 616
f 626 616 118
f 616 118 94
f 118 94 625
f 94 625 617
f 625 617 624
f 617 624 618
f 624 618 623
f 618 623 619
f 623 619 622
f 619 622 620
f 622 620 621
f 620 621 117
f 621 117 95
f 117 95 116
f 95 116 96
f 116 96 115
f 96 115 97
f 115 97 114
f 97 114 98
f 114 98 113
f 98 113 99
f 113 99 112
f 99 112 100
f 112 100 111
f 100 111 101
f 111 101 110
f 101 110 102
f 110 102 109
f 102 109 103
f 109 103 108
f 103 108 104
f 108 104 107
f 104 107 105
f 107 105 106
f 105 106 191
f 106 191 192
f 191 192 193
f 192 193 190
f 193 190 189
f 190 189 194
f 189 194 195
f 194 195 188
f 195 188 196
f 188 196 187
f 196 187 186
f 187 186 197
f 186 197 185
f 197 185 198
f 185 198 184
f 198 184 199
f 184 199 547
f 199 547 200
f 547 200 201
f 200 201 546
f 201 546 545
f 546 545 202
f 545 202 544
f 202 544 203
f 544 203 543
f 203 543 542
f 543 542 204
f 542 204 541
f 204 541 205
f 541 205 540
f 205 540 206
f 540 206 539
f 206 539 538
f 539 538 207
f 538 207 537
f 207 537 208
f 537 208 536
f 208 536 535
f 536 535 209
f 535 209 534
f 209 534 210
f 534 210 533
f 210 533 532
f 533 532 211
f 532 211 531
f 211 531 212
f 531 212 530
f 212 530 529
f 530 529 213
f 529 213 528
f 213 528 214
f 528 214 527
f 214 527 526
f 527 526 215
f 526 215 525
f 215 525 216
f 525 216 524
f 216 524 523
f 524 523 217
f 523 217 522
f 217 522 521
f 522 521 218
f 521 218 520
f 218 520 219
f 520 219 519
f 219 519 518
f 519 518 220
f 518 220 517
f 220 517 221
f 517 221 516
f 221 516 515
f 516 515 222
f 515 222 514
f 222 514 513
f 514 513 223
f 513 223 512
f 223 512 224
f 512 224 511
f 224 511 510
f 511 510 225
f 510 225 509
f 225 509 226
f 509 226 508
f 226 508 507
f 508 507 227
f 507 227 506
f 227 506 228
f 506 228 505
f 228 505 315
f 505 315 316
f 315 316 314
f 316 314 317
f 314 317 313
f 317 313 318
f 313 318 312
f 318 312 311
f 312 311 319
f 311 319 310
f 319 310 320
f 310 320 309
f 320 309 321
f 309 321 504
f 321 504 229
f 504 229 308
f 229 308 322
f 308 322 307
f 322 307 323
f 307 323 306
f 323 306 421
f 306 421 422
f 421 422 420
f 422 420 423
f 420 423 419
f 423 419 424
f 419 424 324
f 424 324 418
f 324 418 425
f 418 425 417
f 425 417 305
f 417 305 426
f 305 426 416
f 426 416 503
f 416 503 325
f 503 325 427
f 325 427 415
f 427 415 304
f 415 304 428
f 304 428 414
f 428 414 326
f 414 326 413
f 326 413 429
f 413 429 230
f 429 230 303
f 230 303 412
f 303 412 430
f 412 430 327
f 430 327 302
f 327 302 411
f 302 411 431
f 411 431 502
f 431 502 410
f 502 410 301
f 410 301 328
f 301 328 432
f 328 432 409
f 432 409 300
f 409 300 408
f 300 408 433
f 408 433 329
f 433 329 231
f 329 231 407
f 231 407 299
f 407 299 434
f 299 434 501
f 434 501 330
f 501 330 406
f 330 406 298
f 406 298 435
f 298 435 405
f 435 405 331
f 405 331 297
f 331 297 404
f 297 404 436
f 404 436 500
f 436 500 403
f 500 403 332
f 403 332 296
f 332 296 232
f 296 232 437
f 232 437 402
f 437 402 333
f 402 333 295
f 333 295 401
f 295 401 438
f 401 438 499
f 438 499 294
f 499 294 400
f 294 400 334
f 400 334 439
f 334 439 399
f 439 399 233
f 399 233 293
f 233 293 335
f 293 335 398
f 335 398 440
f 398 440 292
f 440 292 498
f 292 498 397
f 498 397 336
f 397 336 291
f 336 291 396
f 291 396 441
f 396 441 234
f 441 234 337
f 234 337 395
f 337 395 290
f 395 290 497
f 290 497 442
f 497 442 394
f 442 394 338
f 394 338 289
f 338 289 393
f 289 393 443
f 393 443 235
f 443 235 496
f 235 496 288
f 496 288 339
f 288 339 392
